<svg width="39" height="37" viewBox="0 0 39 37" fill="none" xmlns="http://www.w3.org/2000/svg">
<path d="M38.0382 18.5273C38.0382 22.3128 36.864 26.0036 34.6743 29.1068L34.4376 29.429L34.2364 29.6943L34.0446 29.9359C33.6469 30.4334 33.2374 30.874 32.8113 31.3431C32.745 31.3999 32.6882 31.4663 32.6195 31.5326L32.5438 31.5989C32.4278 31.7245 32.3071 31.8429 32.1816 31.9542L32.0254 32.0987L31.8241 32.2764L31.3436 32.7194L31.0832 32.9255L30.7257 33.205L30.4227 33.4253L29.8522 33.828L29.6936 33.9394L29.4356 34.0933L29.1681 34.2615L28.7207 34.5269L28.5431 34.6287L28.3277 34.7472L27.6886 35.0835L27.3642 35.2399L27.0376 35.3939L26.7109 35.5265L26.0268 35.8061L25.79 35.8937L25.345 36.0477H25.2645C24.5685 36.2822 23.8607 36.4741 23.1434 36.6234C21.8817 36.8745 20.601 37 19.3156 37C14.6568 37 10.1662 35.2826 6.71945 32.1817C3.27511 29.0784 1.12092 24.8167 0.680612 20.2258C0.611962 19.662 0.583548 19.0959 0.595384 18.5273C0.588282 13.9151 2.32348 9.46626 5.45772 6.05268C8.59195 2.6391 12.9027 0.5071 17.5425 0.0759604C18.0823 0.0214757 18.6244 -0.00220779 19.1665 0.000161106H19.9003C20.575 0.0191123 21.2496 0.0735976 21.9196 0.163616H22.2983C22.8262 0.244158 23.3518 0.353117 23.856 0.478669C27.2767 1.30778 30.3896 3.07973 32.835 5.58603L17.5331 12.9746C16.8158 13.311 16.1695 13.7777 15.625 14.3486C14.4817 15.552 13.8425 17.1415 13.8378 18.7926C13.8378 19.7757 14.0627 20.7423 14.5006 21.6235V21.6898C15.18 23.0164 16.2973 24.0729 17.6703 24.6793C19.041 25.2858 20.5821 25.409 22.0356 25.0252C22.4191 24.9068 22.7931 24.7575 23.1553 24.5822L29.8073 21.4032L37.9387 17.4945C38.0145 17.8332 38.0476 18.1815 38.0382 18.5273Z" fill="url(#paint0_linear)"/>
<path d="M34.4617 29.4248L34.2603 29.6901L34.4617 29.4248Z" fill="#282D36"/>
<path d="M22.6222 21.6688C22.1795 21.856 21.706 21.9555 21.2231 21.9602C20.7426 21.9649 20.2644 21.8749 19.8194 21.6949C19.3743 21.5149 18.9695 21.2495 18.6286 20.9131C18.2877 20.5768 18.0179 20.1764 17.8356 19.7358C17.6486 19.2975 17.5539 18.8285 17.5515 18.3547C17.5492 17.881 17.6438 17.4095 17.8261 16.9713C18.0084 16.5331 18.2759 16.1327 18.6168 15.7963C18.9553 15.4623 19.3577 15.1946 19.8004 15.0146H19.8217C20.2739 14.8274 20.7568 14.7303 21.2468 14.7256C21.9641 14.7327 22.6624 14.9435 23.2613 15.3368C23.8579 15.73 24.3266 16.2843 24.6107 16.9381C24.9847 17.8217 24.9871 18.8143 24.6201 19.7026C24.2532 20.5886 23.5454 21.2945 22.6529 21.6641L22.6222 21.6688Z" fill="url(#paint1_linear)"/>
<path d="M34.1487 16.1631C33.6019 16.3881 33.01 16.4829 32.4182 16.4379C31.7554 16.4047 31.1115 16.1915 30.5599 15.822C30.0084 15.4524 29.5704 14.9407 29.2935 14.3414C28.9194 13.5028 28.9005 12.5529 29.2343 11.6977C29.5704 10.8449 30.2333 10.1556 31.0784 9.78601L31.2133 9.72915C31.8193 9.47568 32.4822 9.38566 33.1331 9.46383C33.7699 9.52306 34.3807 9.74574 34.9015 10.1129C35.4246 10.4801 35.8389 10.9752 36.104 11.5509C36.4757 12.3895 36.497 13.337 36.1609 14.1898C35.8271 15.0426 35.1642 15.7296 34.3168 16.0968L34.1487 16.1631Z" fill="url(#paint2_linear)"/>
<path opacity="0.25" d="M34.1488 16.1631C33.602 16.3882 33.0102 16.4806 32.4184 16.4356L33.093 9.46387C33.7298 9.52072 34.3406 9.74577 34.8614 10.113C35.3822 10.4778 35.7988 10.9753 36.0639 11.5509C36.4356 12.3895 36.4569 13.3394 36.1231 14.1922C35.787 15.0474 35.1241 15.7344 34.2766 16.1039L34.1488 16.1631Z" fill="#B0B0AF"/>
<path opacity="0.25" d="M22.623 21.6687C22.1732 21.8582 21.6879 21.9577 21.1979 21.96V14.7041C21.9152 14.7112 22.6159 14.9244 23.2124 15.3153C23.8113 15.7085 24.2801 16.2628 24.5665 16.9143C24.9429 17.7955 24.9524 18.7881 24.5902 19.6764C24.2304 20.5648 23.5296 21.2731 22.6419 21.6521L22.623 21.6687Z" fill="#B0B0AF"/>
<defs>
<linearGradient id="paint0_linear" x1="40.5309" y1="25.2005" x2="9.92539" y2="15.2731" gradientUnits="userSpaceOnUse">
<stop stop-color="#183652"/>
<stop offset="0.21" stop-color="#20467B"/>
<stop offset="0.46" stop-color="#2959A6"/>
<stop offset="0.68" stop-color="#3864AD"/>
<stop offset="0.87" stop-color="#3D67B0"/>
<stop offset="1" stop-color="#3F69B1"/>
</linearGradient>
<linearGradient id="paint1_linear" x1="17.5184" y1="18.3382" x2="24.8782" y2="18.3382" gradientUnits="userSpaceOnUse">
<stop stop-color="#2E57A4"/>
<stop offset="1" stop-color="#3F69B1"/>
</linearGradient>
<linearGradient id="paint2_linear" x1="443.37" y1="-579.04" x2="565.492" y2="-580.274" gradientUnits="userSpaceOnUse">
<stop stop-color="#2E57A4"/>
<stop offset="1" stop-color="#3F69B1"/>
</linearGradient>
</defs>
</svg>
