<svg width="37" height="45" viewBox="0 0 37 45" fill="none" xmlns="http://www.w3.org/2000/svg">
<path d="M12.8136 21.1432C9.8297 24.0713 9.8297 28.7217 12.8136 31.6498C13.6912 32.5109 14.7444 33.1566 15.883 33.5012C16.5851 28.6785 20.4892 24.8893 25.4039 24.2005C24.1326 20.2821 19.92 18.086 15.9304 19.335C14.7444 19.6365 13.6912 20.2821 12.8136 21.1432Z" fill="url(#paint0_linear)"/>
<path d="M15.4034 38.3217C9.12721 36.3839 5.66411 29.8821 7.63758 23.7244C9.61105 17.5673 16.2335 14.1654 22.5097 16.1033C26.2384 17.2227 29.1322 20.0648 30.2708 23.7244C32.249 23.423 34.3079 23.4662 36.2387 23.8536C34.3506 14.4242 25.0952 8.35248 15.4888 10.2044C5.88232 12.0558 -0.30374 21.141 1.58434 30.5709C2.94584 37.4605 8.4725 42.8425 15.4888 44.2206C15.1377 42.2401 15.1377 40.259 15.4034 38.3217Z" fill="url(#paint1_linear)"/>
<path d="M36.5454 25.4902H30.9286C32.5083 31.3896 28.9552 37.3744 22.9446 38.9676C21.1467 39.4414 19.2159 39.4846 17.4179 39.0108H17.2851V44.4791L36.5027 44.3932L36.5454 25.4902Z" fill="url(#paint2_linear)"/>
<path d="M26.9413 37.0301C23.521 39.398 21.0636 39.4844 17.3776 38.9674H17.2495V44.4362L36.4624 44.3499C36.4197 44.3499 33.5211 32.3797 26.9413 37.0301Z" fill="url(#paint3_linear)"/>
<path d="M15.9724 19.29C11.9354 20.4526 9.701 24.6292 10.8822 28.5044C11.1906 29.6238 11.8025 30.6145 12.6375 31.4325C14.8766 28.3321 16.0578 24.6724 16.0578 20.8832C16.0578 20.3662 16.0151 19.8065 15.9724 19.29Z" fill="url(#paint4_linear)"/>
<path d="M15.3563 16.1054C14.8344 14.2539 13.9995 12.5316 12.9891 10.9385C3.82385 14.168 -0.915355 24.0712 2.37218 33.1137C2.94619 34.7501 3.82385 36.2568 4.87226 37.6781C6.62751 36.9461 8.29733 35.9127 9.74422 34.6209C5.62176 29.6691 6.36656 22.3062 11.452 18.2582C12.638 17.2252 13.9568 16.5359 15.3563 16.1054Z" fill="url(#paint5_linear)"/>
<path d="M11.4078 7.88184C10.051 7.88184 8.9552 8.95801 8.9552 10.2929C8.9552 11.6279 10.051 12.7041 11.4078 12.7041C12.7693 12.7041 13.8652 11.6279 13.8652 10.2929C13.8652 9.00121 12.7266 7.88184 11.4078 7.88184ZM11.4078 11.7138C10.6203 11.7138 10.0083 11.1109 10.0083 10.3361C10.0083 9.56092 10.6203 8.95803 11.4078 8.95803C12.2 8.95803 12.812 9.56092 12.812 10.3361C12.812 11.0682 12.1573 11.7138 11.4078 11.7138Z" fill="url(#paint6_linear)"/>
<path d="M9.65812 14.123C8.69036 14.123 7.90289 14.8983 7.90289 15.8453C7.90289 16.7929 8.69036 17.5676 9.65812 17.5676C10.6211 17.5676 11.4134 16.7929 11.4134 15.8453C11.4134 14.8983 10.6211 14.123 9.65812 14.123ZM9.65812 16.8356C9.08885 16.8356 8.64768 16.3623 8.64768 15.8453C8.64768 15.2856 9.13154 14.8551 9.65812 14.8551C10.2274 14.8551 10.6639 15.3288 10.6639 15.8453C10.6639 16.3623 10.2274 16.8356 9.65812 16.8356Z" fill="url(#paint7_linear)"/>
<path d="M4.65324 3.1875C3.69022 3.1875 2.89801 3.96272 2.89801 4.90979C2.89801 5.85686 3.69022 6.63209 4.65324 6.63209C5.62099 6.63209 6.40846 5.85686 6.40846 4.90979C6.49385 4.00545 5.66369 3.1875 4.65324 3.1875ZM4.65324 5.98646C4.08397 5.98646 3.64279 5.51268 3.64279 4.9957C3.64279 4.43601 4.12666 4.00542 4.65324 4.00542C5.17981 4.00542 5.66368 4.47921 5.66368 4.9957C5.66368 5.51268 5.22251 5.94326 4.65324 5.98646Z" fill="url(#paint8_linear)"/>
<path d="M8.25422 4.99512C7.59481 4.99512 7.06824 5.51207 7.06824 6.15769C7.06824 6.80379 7.59481 7.3203 8.25422 7.3203C8.91362 7.3203 9.43542 6.80379 9.43542 6.15769C9.43542 5.51207 8.91362 4.99512 8.25422 4.99512ZM8.25422 6.847C7.90317 6.847 7.55207 6.54554 7.55207 6.15769C7.55207 5.81352 7.86047 5.46889 8.25422 5.46889C8.64796 5.46889 8.95629 5.77032 8.95629 6.15769C8.95629 6.54554 8.60527 6.847 8.25422 6.847Z" fill="url(#paint9_linear)"/>
<path d="M10.7607 5.94141C10.4522 5.94141 10.2338 6.19963 10.2338 6.45788C10.2338 6.75933 10.4996 6.97486 10.7607 6.97486C11.0693 6.97486 11.2876 6.71613 11.2876 6.45788C11.2876 6.19963 11.0693 5.94141 10.7607 5.94141ZM10.7607 6.80254C10.5851 6.80254 10.4522 6.67341 10.4522 6.50109C10.4522 6.32877 10.5851 6.19964 10.7607 6.19964C10.9364 6.19964 11.0693 6.32877 11.0693 6.50109C11.0693 6.63021 10.9364 6.80254 10.7607 6.80254Z" fill="url(#paint10_linear)"/>
<path d="M6.45062 0C6.23225 0 6.05664 0.172307 6.05664 0.387356C6.05664 0.60288 6.23225 0.775219 6.45062 0.775219C6.67374 0.775219 6.84939 0.60288 6.84939 0.387356C6.84939 0.172307 6.67374 0 6.45062 0ZM6.45062 0.6461C6.32245 0.6461 6.23223 0.559689 6.23223 0.430565C6.23223 0.30144 6.32245 0.172327 6.45062 0.172327C6.58355 0.172327 6.67373 0.25824 6.67373 0.430565C6.67373 0.559689 6.58355 0.6461 6.45062 0.6461Z" fill="url(#paint11_linear)"/>
<path d="M7.60036 1.68066C6.98365 1.68066 6.45709 2.19717 6.45709 2.80007C6.45709 3.40296 6.98365 3.91994 7.60036 3.91994C8.21233 3.91994 8.73886 3.40296 8.73886 2.80007C8.73886 2.19717 8.21233 1.68066 7.60036 1.68066ZM7.60036 3.40296C7.24931 3.40296 6.94092 3.10154 6.94092 2.75737C6.94092 2.41272 7.24931 2.11126 7.60036 2.11126C7.95141 2.11126 8.25503 2.41272 8.25503 2.75737C8.25503 3.10154 7.95141 3.40296 7.60036 3.40296Z" fill="url(#paint12_linear)"/>
<path d="M8.95654 3.70215C8.73817 3.70215 8.56256 3.87446 8.56256 4.0895C8.56256 4.30503 8.73817 4.4769 8.95654 4.4769C9.17492 4.4769 9.3506 4.30503 9.3506 4.0895C9.3506 3.87446 9.17492 3.70215 8.95654 3.70215ZM8.95654 4.34778C8.82362 4.34778 8.73815 4.26184 8.73815 4.13271C8.73815 4.00359 8.82362 3.91721 8.95654 3.91721C9.04199 3.91721 9.17494 4.00359 9.17494 4.13271C9.17494 4.21864 9.08947 4.34778 8.95654 4.34778Z" fill="url(#paint13_linear)"/>
<path d="M5.22726 1.16406C4.91869 1.16406 4.65283 1.4223 4.65283 1.72375C4.65283 2.02519 4.91869 2.28347 5.22726 2.28347C5.53108 2.28347 5.7969 2.02519 5.7969 1.72375C5.7969 1.4223 5.53108 1.16406 5.22726 1.16406ZM5.22726 2.0684C5.05161 2.0684 4.91868 1.93928 4.91868 1.76695C4.91868 1.59463 5.05161 1.46551 5.22726 1.46551C5.4029 1.46551 5.53106 1.59463 5.53106 1.76695C5.53106 1.93928 5.4029 2.0684 5.22726 2.0684Z" fill="url(#paint14_linear)"/>
<path d="M4.56767 7.49414C2.5942 7.49414 0.971802 9.04413 0.971802 11.0251C0.971802 12.9625 2.5515 14.5556 4.56767 14.5556C6.58858 14.5556 8.16361 13.0057 8.16361 11.0251C8.12091 9.08733 6.54114 7.53734 4.56767 7.49414ZM4.56767 13.0489C3.42913 13.0489 2.50885 12.1445 2.50885 11.0251C2.50885 9.90528 3.42913 9.00141 4.56767 9.00141C5.71095 9.00141 6.63126 9.90528 6.63126 11.0251C6.63126 12.1445 5.66351 13.0489 4.56767 13.0489Z" fill="url(#paint15_linear)"/>
<defs>
<linearGradient id="paint0_linear" x1="10.5792" y1="26.2375" x2="25.3755" y2="26.2375" gradientUnits="userSpaceOnUse">
<stop stop-color="#2EAABC"/>
<stop offset="1" stop-color="#3D8A97"/>
</linearGradient>
<linearGradient id="paint1_linear" x1="1.29022" y1="27.0257" x2="36.2482" y2="27.0257" gradientUnits="userSpaceOnUse">
<stop stop-color="#2EAABC"/>
<stop offset="1" stop-color="#3D8A97"/>
</linearGradient>
<linearGradient id="paint2_linear" x1="14.2442" y1="42.3975" x2="129.975" y2="-3.70758" gradientUnits="userSpaceOnUse">
<stop stop-color="#F15922"/>
<stop offset="1" stop-color="#F7941D"/>
</linearGradient>
<linearGradient id="paint3_linear" x1="16.1964" y1="45.7555" x2="99.8713" y2="12.4216" gradientUnits="userSpaceOnUse">
<stop stop-color="#F7941D"/>
<stop offset="1" stop-color="#F15922"/>
</linearGradient>
<linearGradient id="paint4_linear" x1="1.89735" y1="25.3798" x2="16.3092" y2="25.3798" gradientUnits="userSpaceOnUse">
<stop stop-color="#2EAABC"/>
<stop offset="1" stop-color="#3D8A97"/>
</linearGradient>
<linearGradient id="paint5_linear" x1="-20.9584" y1="24.263" x2="16.0536" y2="24.263" gradientUnits="userSpaceOnUse">
<stop stop-color="#2EAABC"/>
<stop offset="1" stop-color="#3D8A97"/>
</linearGradient>
<linearGradient id="paint6_linear" x1="-44.7081" y1="10.3081" x2="152.582" y2="10.3081" gradientUnits="userSpaceOnUse">
<stop stop-color="#F15922"/>
<stop offset="1" stop-color="#F7941D"/>
</linearGradient>
<linearGradient id="paint7_linear" x1="-30.7935" y1="15.8453" x2="111.497" y2="15.8453" gradientUnits="userSpaceOnUse">
<stop stop-color="#F7941D"/>
<stop offset="1" stop-color="#F15922"/>
</linearGradient>
<linearGradient id="paint8_linear" x1="-35.7691" y1="4.9454" x2="106.513" y2="4.9454" gradientUnits="userSpaceOnUse">
<stop stop-color="#F15922"/>
<stop offset="1" stop-color="#F7941D"/>
</linearGradient>
<linearGradient id="paint9_linear" x1="-18.8" y1="6.15249" x2="76.2952" y2="6.15249" gradientUnits="userSpaceOnUse">
<stop stop-color="#2EAABC"/>
<stop offset="1" stop-color="#3D8A97"/>
</linearGradient>
<linearGradient id="paint10_linear" x1="-1.90963" y1="6.47071" x2="42.5908" y2="6.47071" gradientUnits="userSpaceOnUse">
<stop stop-color="#2EAABC"/>
<stop offset="1" stop-color="#3D8A97"/>
</linearGradient>
<linearGradient id="paint11_linear" x1="-2.82974" y1="0.39924" x2="29.8011" y2="0.39924" gradientUnits="userSpaceOnUse">
<stop stop-color="#2EAABC"/>
<stop offset="1" stop-color="#3D8A97"/>
</linearGradient>
<linearGradient id="paint12_linear" x1="-17.741" y1="2.77965" x2="71.3901" y2="2.77965" gradientUnits="userSpaceOnUse">
<stop stop-color="#2EAABC"/>
<stop offset="1" stop-color="#3D8A97"/>
</linearGradient>
<linearGradient id="paint13_linear" x1="-0.21032" y1="4.09142" x2="32.0044" y2="4.09142" gradientUnits="userSpaceOnUse">
<stop stop-color="#F7941D"/>
<stop offset="1" stop-color="#F15922"/>
</linearGradient>
<linearGradient id="paint14_linear" x1="-8.03634" y1="1.75035" x2="38.5144" y2="1.75035" gradientUnits="userSpaceOnUse">
<stop stop-color="#F7941D"/>
<stop offset="1" stop-color="#F15922"/>
</linearGradient>
<linearGradient id="paint15_linear" x1="-76.8714" y1="11.0185" x2="209.525" y2="11.0185" gradientUnits="userSpaceOnUse">
<stop stop-color="#2EAABC"/>
<stop offset="1" stop-color="#3D8A97"/>
</linearGradient>
</defs>
</svg>
