<svg width="32" height="37" viewBox="0 0 32 37" fill="none" xmlns="http://www.w3.org/2000/svg">
<path d="M14.1696 36.3602L10.1183 36.9998C6.81171 36.9998 4.41894 36.2492 2.94525 34.7533C1.47156 33.2575 0.732127 30.8842 0.732127 27.644L0.615906 3.92174L7.46145 2.7959V8.59961H29.0596L30.9242 12.1305L7.45089 12.9709V27.6652C7.45089 29.5892 7.64629 30.9106 8.03716 31.6294C8.42803 32.343 9.15696 32.7025 10.2239 32.7025H14.1643L14.1696 36.3602Z" fill="#95C11F"/>
<path d="M31.1971 4.18629C31.1971 5.48129 30.0245 6.11558 27.6793 6.07858H27.093C24.7478 6.07858 23.5752 5.44957 23.5752 4.18629V1.93984C23.5752 0.655411 24.7478 0.0105714 27.093 0H27.6793C30.0245 0 31.1971 0.64484 31.1971 1.93984V4.18629Z" fill="#95C11F"/>
<path d="M21.1769 15.508H20.8704C20.1838 15.508 19.6186 14.8156 19.6186 13.9963V8.59961H21.9005L22.3177 13.9963C22.3811 14.8156 21.8688 15.508 21.1769 15.508Z" fill="#F18318"/>
<path d="M22.1644 12.0148H19.6237V8.60547H21.9003L22.1644 12.0148Z" fill="#E94E1B"/>
<path d="M23.9822 15.508H23.6811C22.9892 15.508 22.3765 14.8156 22.3131 13.9963L21.8958 8.59961H24.1776L25.0069 13.9963C25.1284 14.8156 24.6741 15.508 23.9822 15.508Z" fill="#706F6F"/>
<path d="M24.6953 12.0148H22.1599L21.8958 8.60547H24.1723L24.6953 12.0148Z" fill="#575756"/>
<path d="M26.7989 15.508H26.4925C25.8006 15.508 25.135 14.8156 25.0083 13.9963L24.179 8.59961H26.4609L27.7074 13.9963C27.887 14.8156 27.4908 15.508 26.7989 15.508Z" fill="#F18318"/>
<path d="M27.2426 12.0148H24.7019L24.179 8.60547H26.4502L27.2426 12.0148Z" fill="#E94E1B"/>
<path d="M29.6069 15.508H29.3006C28.6086 15.508 27.8903 14.8156 27.7001 13.9963L26.4482 8.59961H28.7301L30.3939 13.9963C30.6422 14.8156 30.2989 15.508 29.6069 15.508Z" fill="#706F6F"/>
<path d="M29.7759 12.0148H27.2406L26.4482 8.60547H28.7248L29.7759 12.0148Z" fill="#575756"/>
<path d="M9.95314 15.508H9.6467C8.95476 15.508 8.6115 14.8156 8.85975 13.9963L10.5235 8.59961H12.8054L11.5589 13.9963C11.3634 14.8156 10.6451 15.508 9.95314 15.508Z" fill="#F18318"/>
<path d="M12.0086 12.0148H9.46793L10.5243 8.60547H12.8009L12.0086 12.0148Z" fill="#E94E1B"/>
<path d="M12.7536 15.508H12.4473C11.7553 15.508 11.3539 14.8156 11.544 13.9963L12.7959 8.59961H15.0777L14.2273 13.9963C14.1111 14.8156 13.4456 15.508 12.7536 15.508Z" fill="#706F6F"/>
<path d="M14.5488 12.0148H12.0134L12.8004 8.60547H15.0769L14.5488 12.0148Z" fill="#575756"/>
<path d="M15.5676 15.508H15.2612C14.5693 15.508 14.1151 14.8156 14.2418 13.9963L15.0711 8.59961H17.353L16.9356 13.9963C16.867 14.8156 16.2542 15.508 15.5676 15.508Z" fill="#F18318"/>
<path d="M17.0842 12.0148H14.5435L15.0717 8.60547H17.3483L17.0842 12.0148Z" fill="#E94E1B"/>
<path d="M18.3734 15.508H18.067C17.3803 15.508 16.8732 14.8156 16.9366 13.9963L17.354 8.59961H19.6358V13.9963C19.6252 14.8156 19.0653 15.508 18.3734 15.508Z" fill="#706F6F"/>
<path d="M19.6245 12.0148H17.0838L17.3479 8.60547H19.6245V12.0148Z" fill="#575756"/>
<path d="M30.5117 36.7358L24.2789 36.7411V17.0518L30.5117 17.0571V36.7358Z" fill="#95C11F"/>
<path d="M29.9248 26.1377H24.8594V17.8867L29.9248 17.892V26.1377Z" fill="#EDEDED"/>
<path d="M27.4588 27.8506H25.9218L25.5943 28.7545L27.4588 27.8506Z" fill="#3AAA35"/>
<path d="M27.4573 27.6387H25.4765C25.4343 27.6387 25.392 27.6492 25.3551 27.665C25.2389 27.702 25.1385 27.7708 25.0698 27.866C25.0012 27.9664 24.9641 28.0774 24.9694 28.199C24.9588 28.2677 24.9695 28.3416 24.9906 28.405C25.0117 28.4738 25.0486 28.5372 25.0962 28.5901C25.1437 28.6429 25.2018 28.6852 25.2652 28.7169C25.3339 28.7434 25.4026 28.7592 25.4765 28.7592C25.5505 28.7592 25.6191 28.7434 25.6878 28.7169C25.7512 28.6852 25.8092 28.6429 25.8568 28.5901C25.9043 28.5372 25.9413 28.4738 25.9624 28.405C25.9836 28.3416 25.9941 28.2677 25.9836 28.199C25.9836 28.1303 25.9731 28.0615 25.9466 27.9981L27.5999 28.1249L27.4573 27.6387Z" fill="#E6E6E6"/>
<path d="M25.4668 28.5479C25.6201 28.5479 25.7364 28.4104 25.7364 28.2466C25.7364 28.0774 25.6201 27.9453 25.4668 27.9453C25.3188 27.9453 25.1972 28.0774 25.1972 28.2466C25.1972 28.4104 25.3188 28.5479 25.4668 28.5479Z" fill="#3AAA35"/>
</svg>
