<svg width="56" height="26" viewBox="0 0 56 26" fill="none" xmlns="http://www.w3.org/2000/svg">
<path d="M1.62952 5.37757H11.8837C12.0574 5.37757 12.2239 5.30874 12.347 5.18197C12.47 5.05882 12.5388 4.8886 12.5388 4.71112C12.5388 4.53363 12.47 4.36338 12.347 4.23661C12.2239 4.10984 12.0574 4.04102 11.8837 4.04102H1.62952C1.45578 4.04102 1.28931 4.10984 1.16625 4.23661C1.04681 4.36338 0.978027 4.53363 0.978027 4.71112C0.978027 4.8886 1.04681 5.05882 1.16625 5.18197C1.28931 5.30874 1.45578 5.37757 1.62952 5.37757Z" fill="url(#paint0_linear)"/>
<path d="M5.32507 10.0358H12.3543C12.528 10.0358 12.6908 9.96695 12.8139 9.84018C12.937 9.71703 13.0058 9.54677 13.0058 9.36929C13.0058 9.19181 12.937 9.02158 12.8139 8.89481C12.6908 8.76804 12.528 8.69922 12.3543 8.69922H5.32507C5.15496 8.69922 4.98852 8.76804 4.86545 8.89481C4.74239 9.02158 4.67358 9.19181 4.67358 9.36929C4.67358 9.54677 4.74239 9.71703 4.86545 9.84018C4.98852 9.96695 5.15496 10.0358 5.32507 10.0358Z" fill="url(#paint1_linear)"/>
<path d="M14.7473 6.96459C14.7473 6.79073 14.6785 6.6205 14.5591 6.49735C14.436 6.37058 14.2695 6.30176 14.0994 6.30176H8.01128C7.83754 6.30176 7.67107 6.37058 7.54801 6.49735C7.42494 6.62412 7.35614 6.79438 7.35614 6.97186C7.35614 7.14934 7.42494 7.31956 7.54801 7.44271C7.67107 7.56949 7.83754 7.63831 8.01128 7.63831H14.0994C14.2695 7.63831 14.436 7.56948 14.5591 7.44633C14.6785 7.31956 14.7473 7.14934 14.7473 6.97548V6.96459Z" fill="url(#paint2_linear)"/>
<path d="M19.0072 18.957L8.0545 21.0578C8.0545 21.0578 8.6842 21.478 9.03892 21.4128L16.8571 19.859V21.8076L18.9746 21.2643L19.0072 18.957Z" fill="url(#paint3_linear)"/>
<path d="M19.0354 18.225V17.8809L7.48175 20.0324C7.5288 20.1555 7.61565 20.2569 7.72785 20.3221C7.84368 20.3873 7.97408 20.4091 8.10077 20.3837L19.0354 18.225Z" fill="url(#paint4_linear)"/>
<path d="M55.4265 8.16319V7.99297L21.4861 0.0244489C21.3667 -0.00814963 21.2399 -0.00814963 21.1169 0.0244489L13.9067 1.62538H13.7476V1.83183L17.1608 7.17077L16.1907 7.34099C16.0894 7.34462 15.9952 7.3736 15.9084 7.42431C15.8251 7.47864 15.7564 7.55469 15.7093 7.64525L9.25209 15.7948C7.93819 17.1423 7.52192 18.3556 7.59431 19.2612L19.2673 17.1314L50.113 9.91265L19.0031 22.5935V22.1081L16.8965 22.6913V25.4368C16.8965 25.5309 16.9183 25.6215 16.9581 25.7048C17.0015 25.7845 17.063 25.857 17.139 25.9077C17.215 25.9584 17.3019 25.9909 17.3924 25.9982C17.4829 26.0054 17.5734 25.991 17.6566 25.9547L55.0718 8.70651H55.1441V8.66304V8.60871L55.4265 8.16319ZM21.2146 1.42254L53.9606 7.94226L16.9907 2.40775L21.2146 1.42254ZM12.1694 15.8745L17.0703 9.10131L54.0076 8.27912L12.1694 15.8745Z" fill="url(#paint5_linear)"/>
<defs>
<linearGradient id="paint0_linear" x1="1135.27" y1="124.247" x2="2410.38" y2="124.247" gradientUnits="userSpaceOnUse">
<stop stop-color="#01AD4B"/>
<stop offset="1" stop-color="#159174"/>
</linearGradient>
<linearGradient id="paint1_linear" x1="822.186" y1="121.317" x2="1741.19" y2="121.317" gradientUnits="userSpaceOnUse">
<stop stop-color="#01AD4B"/>
<stop offset="1" stop-color="#159174"/>
</linearGradient>
<linearGradient id="paint2_linear" x1="732.509" y1="122.839" x2="1547.68" y2="122.839" gradientUnits="userSpaceOnUse">
<stop stop-color="#01AD4B"/>
<stop offset="1" stop-color="#159174"/>
</linearGradient>
<linearGradient id="paint3_linear" x1="1082.6" y1="220.507" x2="2290.56" y2="220.507" gradientUnits="userSpaceOnUse">
<stop stop-color="#01AD4B"/>
<stop offset="1" stop-color="#159174"/>
</linearGradient>
<linearGradient id="paint4_linear" x1="1141" y1="199.536" x2="2415.23" y2="199.536" gradientUnits="userSpaceOnUse">
<stop stop-color="#01AD4B"/>
<stop offset="1" stop-color="#159174"/>
</linearGradient>
<linearGradient id="paint5_linear" x1="4701.18" y1="2072.24" x2="9977.44" y2="2072.24" gradientUnits="userSpaceOnUse">
<stop stop-color="#01AD4B"/>
<stop offset="1" stop-color="#159174"/>
</linearGradient>
</defs>
</svg>
