<svg width="46" height="40" viewBox="0 0 46 40" fill="none" xmlns="http://www.w3.org/2000/svg">
<path d="M4.93476 27.4072C4.90918 27.3484 4.86979 27.2966 4.81933 27.2551C4.707 27.1444 4.56182 27.0752 4.40595 27.0545C4.24972 27.0337 4.09108 27.0614 3.95387 27.1409C3.87126 27.1859 3.79867 27.2482 3.74026 27.3208C3.68185 27.3934 3.63899 27.4799 3.61341 27.5698C3.58818 27.6597 3.58127 27.7531 3.59303 27.8465C3.60478 27.9399 3.63485 28.0298 3.68185 28.1094C3.70708 28.1716 3.74684 28.2235 3.7973 28.265C3.88785 28.3515 3.99983 28.4137 4.12184 28.4449C4.2435 28.476 4.37172 28.476 4.49339 28.4449C4.61505 28.4103 4.72635 28.348 4.8169 28.2616C4.90711 28.1751 4.97313 28.0679 5.00873 27.9468C5.05124 27.7635 5.02497 27.5733 4.93476 27.4072Z" fill="#2FA949"/>
<path d="M6.30193 23.6506C6.27636 23.5884 6.23695 23.5365 6.18649 23.495C6.07416 23.3843 5.92934 23.3151 5.77312 23.2944C5.61689 23.2736 5.45826 23.3047 5.32104 23.3808C5.23843 23.4258 5.16585 23.488 5.10743 23.5607C5.04902 23.6333 5.00617 23.7198 4.98094 23.8097C4.95536 23.8997 4.94845 23.993 4.9602 24.0864C4.97195 24.1798 5.00202 24.2697 5.04903 24.3493C5.07426 24.4115 5.11401 24.4634 5.16447 24.5049C5.25537 24.5914 5.36701 24.6536 5.48901 24.6847C5.61102 24.7159 5.7389 24.7159 5.86056 24.6847C5.98222 24.6536 6.09352 24.5879 6.18408 24.5015C6.27429 24.415 6.3403 24.3078 6.3759 24.1867C6.42014 24.0069 6.39353 23.8132 6.30193 23.6506Z" fill="#2FA949"/>
<path d="M12.5264 6.20885L15.0402 8.69913C15.177 8.83402 15.3623 8.91013 15.5555 8.91013C15.7487 8.91013 15.934 8.83402 16.0705 8.69913C16.2074 8.56078 16.2841 8.37749 16.2841 8.18726C16.2841 7.99703 16.2074 7.81371 16.0705 7.67882L13.5567 5.18854C13.4199 5.05365 13.2346 4.97754 13.0414 4.97754C12.8482 4.97754 12.6629 5.05365 12.5264 5.18854C12.3895 5.32343 12.3128 5.50672 12.3128 5.70041C12.3128 5.89064 12.3895 6.07396 12.5264 6.20885Z" fill="#2FA949"/>
<path d="M17.1015 10.7362L19.6156 13.2265C19.7521 13.3614 19.9374 13.4374 20.1306 13.4374C20.3241 13.4374 20.5094 13.3614 20.6459 13.2265C20.7825 13.0916 20.8592 12.9082 20.8592 12.7145C20.8592 12.5243 20.7825 12.341 20.6459 12.2062L18.1235 9.71588C17.987 9.58099 17.8017 9.50488 17.6085 9.50488C17.4153 9.50488 17.2301 9.58099 17.0932 9.71588C16.9567 9.85077 16.8799 10.0341 16.8799 10.2278C16.8799 10.418 16.9567 10.6013 17.0932 10.7362H17.1015Z" fill="#2FA949"/>
<path d="M38.648 8.86078C38.6736 8.91957 38.713 8.97148 38.7635 9.01298C38.8755 9.12366 39.0206 9.19283 39.1769 9.21358C39.3331 9.23433 39.4918 9.20669 39.629 9.12714C39.7116 9.08217 39.7841 9.01991 39.8426 8.94728C39.901 8.87464 39.9438 8.78815 39.9691 8.69823C39.9943 8.6083 40.0016 8.51491 39.9898 8.42152C39.9781 8.32814 39.948 8.2382 39.901 8.15865C39.8754 8.09639 39.836 8.04452 39.7855 8.00301C39.6946 7.91654 39.583 7.85428 39.461 7.82315C39.339 7.79202 39.2111 7.79202 39.0894 7.82315C38.9678 7.85774 38.8561 7.92003 38.7659 8.00649C38.6757 8.09296 38.6097 8.20019 38.5737 8.32125C38.5416 8.41118 38.5312 8.50451 38.5444 8.5979C38.5572 8.69129 38.5927 8.78123 38.648 8.86078Z" fill="#2FA949"/>
<path d="M0.815383 12.818L9.37146 21.2642L7.36025 22.3502C7.27764 22.3952 7.20505 22.4574 7.14664 22.5335C7.08823 22.6062 7.04538 22.6892 7.02015 22.7791C6.99457 22.869 6.98766 22.9659 6.99941 23.0593C7.01116 23.1527 7.04123 23.2391 7.08823 23.3221C7.11346 23.3809 7.1532 23.4362 7.20367 23.4777C7.31565 23.585 7.46082 23.6576 7.61705 23.6783C7.77327 23.6991 7.93191 23.668 8.06913 23.5919L10.4512 22.3018L11.4238 23.2633L6.11563 26.1617C6.03199 26.2067 5.95836 26.269 5.89891 26.3451C5.83947 26.4177 5.79558 26.5041 5.76931 26.594C5.72057 26.7774 5.74408 26.9745 5.83532 27.1405C5.8609 27.2028 5.90029 27.2547 5.95076 27.2962C6.06274 27.4069 6.20791 27.476 6.36414 27.4968C6.52036 27.5175 6.679 27.4864 6.81622 27.4103L9.05833 26.1859L12.9816 24.0796L16.2046 22.2949L17.5318 21.5685L20.0044 20.2058L21.3068 19.4795L37.0834 10.511C37.1657 10.4626 37.2383 10.4038 37.2967 10.3277C37.3551 10.2551 37.3983 10.1721 37.4236 10.0787C37.4488 9.98878 37.4557 9.89538 37.4439 9.802C37.4325 9.70861 37.4021 9.61867 37.3555 9.53912C37.3299 9.47686 37.2905 9.42499 37.24 9.38349C37.1277 9.27281 36.9825 9.20364 36.8267 9.18289C36.6704 9.16213 36.5118 9.19324 36.3745 9.26933L27.7607 14.2879L13.5505 0.204084C13.4112 0.0726529 13.227 0 13.0352 0C12.8437 0 12.6594 0.0726529 12.5202 0.204084L0.815383 11.8392C0.690264 11.9741 0.620789 12.147 0.620789 12.3303C0.620789 12.5102 0.690264 12.6865 0.815383 12.818ZM26.4173 14.9901L24.4966 16.0519L22.6834 14.2879C22.5466 14.1531 22.3613 14.077 22.1681 14.077C21.9749 14.077 21.7896 14.1531 21.6531 14.2879C21.5162 14.4228 21.4395 14.6062 21.4395 14.7999C21.4395 14.9901 21.5162 15.1734 21.6531 15.3083L23.1863 16.8267L19.7324 18.7289L12.7096 22.6027L2.3486 12.2957L13.0642 1.68788L26.4173 14.9901Z" fill="#2FA949"/>
<path d="M7.46452 14.3362C7.89898 14.7513 8.45614 15.021 9.05546 15.104C9.16053 15.6886 9.44878 16.2281 9.87979 16.6466C10.1366 16.9717 10.4605 17.238 10.8299 17.4317C11.1991 17.622 11.6055 17.7361 12.0217 17.7603C12.4381 17.7845 12.855 17.7223 13.2449 17.5735C13.6347 17.4283 13.9887 17.2 14.2831 16.906C14.5776 16.6155 14.8057 16.2627 14.9526 15.8788C15.0992 15.4914 15.1614 15.0764 15.1348 14.6648C15.1081 14.2532 14.9934 13.852 14.7978 13.4854C14.6025 13.1222 14.3308 12.8005 14.0011 12.5481C13.5746 12.1296 13.0326 11.8459 12.4433 11.7318C12.3383 11.1473 12.05 10.6077 11.619 10.1892C11.0636 9.64272 10.3118 9.33837 9.52898 9.34183C8.74613 9.34183 7.9961 9.65309 7.44412 10.203C6.89215 10.753 6.58317 11.4966 6.58559 12.2714C6.588 13.0461 6.90115 13.7897 7.45623 14.3362H7.46452ZM12.9791 13.5199C13.1909 13.7275 13.3354 13.9938 13.3945 14.2843C13.4533 14.5749 13.4239 14.8758 13.3102 15.149C13.1961 15.4223 13.0029 15.6574 12.7548 15.82C12.5062 15.986 12.2145 16.0725 11.9156 16.0725C11.6169 16.0725 11.3249 15.986 11.0767 15.82C10.8285 15.6574 10.635 15.4223 10.5213 15.149C10.4072 14.8758 10.3778 14.5749 10.4369 14.2843C10.4961 13.9938 10.6405 13.7275 10.8524 13.5199C11.1413 13.2501 11.524 13.1049 11.9207 13.1083C12.3172 13.1118 12.6967 13.2675 12.9791 13.5442V13.5199ZM10.6215 11.2095C10.7929 11.3824 10.9177 11.59 10.9841 11.8217C10.5434 11.9601 10.1425 12.2021 9.81515 12.5273C9.48819 12.8489 9.24451 13.2467 9.10488 13.6825C8.87158 13.6168 8.65868 13.4923 8.48655 13.3228C8.34553 13.1879 8.23355 13.0219 8.15717 12.842C8.08079 12.6622 8.04138 12.4685 8.04138 12.2714C8.04138 12.0742 8.08079 11.8805 8.15717 11.7006C8.23355 11.5208 8.34553 11.3548 8.48655 11.2199C8.7717 10.9432 9.15396 10.7876 9.55247 10.7876C9.95099 10.7841 10.3343 10.9363 10.6215 11.2095Z" fill="#2FA949"/>
<path d="M44.3427 8.35589C44.368 8.41469 44.4077 8.46659 44.4581 8.5081C44.5701 8.61878 44.7153 8.68795 44.8715 8.7087C45.0274 8.72945 45.1864 8.70178 45.3236 8.62568C45.4059 8.57726 45.4785 8.51497 45.5369 8.44234C45.5953 8.36971 45.6385 8.28327 45.6637 8.19334C45.6889 8.10342 45.6959 8.01003 45.6841 7.91664C45.6727 7.82326 45.6423 7.73331 45.5956 7.65376C45.57 7.59151 45.5306 7.53963 45.4802 7.49813C45.3893 7.41166 45.2776 7.3494 45.1556 7.31827C45.0336 7.28714 44.9057 7.28714 44.7837 7.31827C44.6621 7.35286 44.5508 7.41514 44.4606 7.50161C44.3704 7.58808 44.304 7.69526 44.2684 7.81631C44.2228 7.99963 44.2491 8.18988 44.3427 8.35589Z" fill="#F89521"/>
<path d="M42.9735 12.1405C42.9987 12.2028 43.0385 12.2546 43.0886 12.2961C43.2009 12.4068 43.3461 12.476 43.5023 12.4968C43.6582 12.5175 43.8168 12.4864 43.9544 12.4103C44.0367 12.3653 44.1092 12.3031 44.1677 12.2304C44.2261 12.1578 44.2693 12.0714 44.2945 11.9814C44.3198 11.8915 44.3267 11.7981 44.3149 11.7047C44.3032 11.6113 44.2731 11.5214 44.2264 11.4384C44.2009 11.3796 44.1611 11.3277 44.111 11.2862C44.0201 11.1997 43.9081 11.1375 43.7864 11.1064C43.6644 11.0752 43.5366 11.0752 43.4145 11.1064C43.2929 11.1375 43.1816 11.1998 43.0914 11.2897C43.0012 11.3762 42.9348 11.4833 42.8992 11.6044C42.8567 11.7843 42.883 11.9779 42.9735 12.1405Z" fill="#F89521"/>
<path d="M23.727 30.61L25.5402 28.8322C25.5938 28.8011 25.6394 28.7561 25.6736 28.7077C25.7078 28.6558 25.7296 28.597 25.7376 28.5382C25.7455 28.476 25.7393 28.4137 25.7196 28.3549C25.6995 28.2996 25.6664 28.2442 25.6228 28.2027C25.5789 28.1578 25.5257 28.1266 25.4673 28.1059C25.4089 28.0886 25.3463 28.0817 25.2851 28.0886C25.224 28.0955 25.1652 28.1197 25.1137 28.1509C25.0622 28.1854 25.0193 28.2304 24.9882 28.2857L23.183 30.0704C23.1294 30.1016 23.0838 30.143 23.0496 30.1949C23.0154 30.2468 22.9936 30.3056 22.9857 30.3644C22.9777 30.4267 22.9839 30.4889 23.004 30.5442C23.0237 30.603 23.0569 30.655 23.1008 30.6999C23.1443 30.7414 23.1975 30.776 23.2559 30.7968C23.3147 30.8141 23.3769 30.821 23.4381 30.814C23.4996 30.8071 23.558 30.7829 23.6095 30.7483C23.661 30.7172 23.7042 30.6723 23.7353 30.6169L23.727 30.61Z" fill="#F89521"/>
<path d="M32.0612 27.4102V22.3086C32.0737 22.2498 32.0723 22.1876 32.0571 22.1253C32.0422 22.0665 32.0138 22.0112 31.9744 21.9628C31.935 21.9143 31.8852 21.8762 31.8288 21.852C31.7728 21.8244 31.7112 21.8105 31.649 21.8105C31.5867 21.8105 31.5251 21.8244 31.4688 21.852C31.4127 21.8762 31.3629 21.9143 31.3235 21.9628C31.2841 22.0112 31.2557 22.0665 31.2408 22.1253C31.2256 22.1876 31.2242 22.2498 31.2367 22.3086V27.3998C31.2242 27.4621 31.2256 27.5244 31.2408 27.5832C31.2557 27.6454 31.2841 27.7008 31.3235 27.7457C31.3629 27.7941 31.4127 27.8321 31.4688 27.8598C31.5251 27.8875 31.5867 27.9014 31.649 27.9014C31.7112 27.9014 31.7728 27.8875 31.8288 27.8598C31.8852 27.8321 31.935 27.7941 31.9744 27.7457C32.0138 27.7008 32.0422 27.6454 32.0571 27.5832C32.0723 27.5244 32.0737 27.4621 32.0612 27.3998V27.4102Z" fill="#F89521"/>
<path d="M29.4321 27.3449L31.5343 27.9087C31.5951 27.9191 31.658 27.9191 31.7185 27.9018C31.779 27.8879 31.8353 27.8603 31.8833 27.8222C31.9314 27.7807 31.9701 27.7323 31.9971 27.6769C32.0237 27.6216 32.0375 27.5594 32.0375 27.5006C32.0375 27.4383 32.0237 27.3761 31.9971 27.3207C31.9701 27.2654 31.9314 27.2169 31.8833 27.1754C31.8353 27.1374 31.779 27.1097 31.7185 27.0959C31.658 27.0786 31.5951 27.0786 31.5343 27.0924L29.6136 26.5944C29.5655 26.5736 29.5137 26.5667 29.4622 26.5702C29.4104 26.5736 29.3606 26.5909 29.3157 26.6152C29.2711 26.6428 29.2334 26.6774 29.2047 26.7189C29.1764 26.7639 29.1584 26.8123 29.1518 26.8641C29.1328 26.9126 29.1252 26.9644 29.1297 27.0198C29.1339 27.0717 29.1501 27.1235 29.1771 27.1685C29.2037 27.2135 29.2407 27.255 29.2845 27.2861C29.3288 27.3138 29.3792 27.3346 29.4321 27.3449Z" fill="#F89521"/>
<path d="M24.8042 31.6849L26.6094 29.8968C26.7027 29.8207 26.7639 29.7135 26.7808 29.5959C26.7974 29.4783 26.7687 29.3607 26.7003 29.2604C26.6523 29.2258 26.5973 29.1981 26.5389 29.1808C26.4805 29.167 26.4193 29.1635 26.3595 29.1705C26.2997 29.1808 26.242 29.2016 26.1902 29.2327C26.1383 29.2604 26.093 29.3018 26.0571 29.3503L24.2522 31.1385C24.1986 31.1696 24.153 31.2111 24.1188 31.263C24.0846 31.3148 24.0628 31.3702 24.0548 31.4324C24.0469 31.4912 24.0531 31.5535 24.0728 31.6123C24.0929 31.6711 24.126 31.723 24.1696 31.7679C24.2135 31.8094 24.2667 31.844 24.3251 31.8613C24.3835 31.8821 24.4461 31.889 24.5073 31.8786C24.5685 31.8717 24.6272 31.851 24.6787 31.8164C24.7302 31.7818 24.7731 31.7368 24.8042 31.6849Z" fill="#F89521"/>
<path d="M25.8768 32.7474L27.6817 30.9592C27.7353 30.9281 27.7809 30.8866 27.8151 30.8347C27.8493 30.7863 27.8711 30.7275 27.8791 30.6652C27.887 30.6064 27.8808 30.5442 27.8611 30.4854C27.841 30.4266 27.8079 30.3747 27.7643 30.3332C27.7204 30.2882 27.6672 30.2571 27.6088 30.2364C27.5504 30.2156 27.4878 30.2121 27.4266 30.2191C27.3654 30.226 27.3067 30.2467 27.2552 30.2813C27.2037 30.3159 27.1608 30.3609 27.1294 30.4127L25.3328 32.2424C25.2792 32.2736 25.2336 32.315 25.1994 32.3669C25.1652 32.4153 25.1434 32.4741 25.1354 32.5364C25.1275 32.5952 25.1337 32.6574 25.1534 32.7162C25.1735 32.775 25.2066 32.8269 25.2502 32.8685C25.2941 32.9134 25.3473 32.9445 25.4057 32.9653C25.4641 32.986 25.5267 32.9929 25.5879 32.9826C25.6491 32.9756 25.7078 32.9549 25.7593 32.9203C25.8108 32.8857 25.8537 32.8407 25.8848 32.7889L25.8768 32.7474Z" fill="#F89521"/>
<path d="M26.9608 33.8157L28.7661 32.0276C28.8196 31.9999 28.8653 31.955 28.8995 31.9065C28.9337 31.8547 28.9555 31.7958 28.9634 31.7336C28.9714 31.6748 28.9651 31.6125 28.9451 31.5537C28.9254 31.4984 28.8922 31.443 28.8483 31.4015C28.8048 31.3566 28.7515 31.3254 28.6931 31.3047C28.6344 31.2839 28.5722 31.2805 28.511 31.2874C28.4495 31.2943 28.391 31.3151 28.3395 31.3496C28.288 31.3842 28.2448 31.4292 28.2137 31.4811L26.4089 33.2693C26.3155 33.3454 26.2544 33.4525 26.2374 33.5701C26.2205 33.6877 26.2495 33.8088 26.318 33.9056C26.4185 33.9679 26.5385 33.9956 26.656 33.9783C26.7738 33.961 26.8817 33.9056 26.9608 33.8157Z" fill="#F89521"/>
<path d="M26.7283 27.6803L26.6785 27.7287C26.7321 27.6976 26.7778 27.6561 26.812 27.6042C26.8462 27.5523 26.868 27.4935 26.876 27.4347C26.8839 27.3725 26.8777 27.3102 26.858 27.2549C26.8379 27.1961 26.8047 27.1442 26.7612 27.0992C26.7172 27.0577 26.664 27.0231 26.6055 27.0024C26.5471 26.9851 26.4845 26.9782 26.4232 26.9851C26.362 26.9954 26.3032 27.0162 26.2517 27.0508C26.2002 27.0819 26.1573 27.1268 26.1261 27.1822L26.1756 27.1338C26.0822 27.2064 26.021 27.3136 26.004 27.4312C25.9874 27.5523 26.0162 27.6699 26.0846 27.7702C26.1853 27.8325 26.3053 27.8566 26.4229 27.8394C26.5408 27.8255 26.6488 27.7668 26.7283 27.6803Z" fill="#F89521"/>
<path d="M27.8098 28.7139L27.7603 28.7658C27.8136 28.7347 27.8593 28.6897 27.8935 28.6413C27.9277 28.5894 27.9499 28.5306 27.9578 28.4718C27.9658 28.4095 27.9596 28.3473 27.9395 28.2885C27.9194 28.2332 27.8866 28.1778 27.8427 28.1363C27.7991 28.0913 27.7458 28.0602 27.687 28.0394C27.6286 28.0222 27.5663 28.0153 27.5047 28.0222C27.4435 28.0291 27.3847 28.0533 27.3332 28.0844C27.2817 28.119 27.2388 28.164 27.2076 28.2193L27.2571 28.1674C27.2035 28.1986 27.1582 28.2435 27.1239 28.2919C27.0897 28.3438 27.0676 28.4026 27.0596 28.4614C27.0516 28.5237 27.0579 28.5859 27.0779 28.6447C27.0977 28.7001 27.1309 28.7554 27.1748 28.7969C27.2184 28.8419 27.2716 28.873 27.3301 28.8938C27.3889 28.9111 27.4511 28.918 27.5123 28.911C27.5739 28.9041 27.6327 28.8799 27.6843 28.8488C27.7358 28.8142 27.7787 28.7693 27.8098 28.7139Z" fill="#F89521"/>
<path d="M28.8426 29.7903C28.8962 29.7626 28.9419 29.7176 28.9761 29.6692C29.0104 29.6173 29.0322 29.5585 29.0401 29.4963C29.0481 29.4375 29.0419 29.3752 29.0221 29.3164C29.0021 29.2611 28.9689 29.2058 28.9253 29.1643C28.8814 29.1193 28.8281 29.0882 28.7697 29.0674C28.7112 29.0467 28.6486 29.0432 28.5874 29.0501C28.5262 29.057 28.4674 29.0778 28.4158 29.1124C28.3643 29.147 28.3211 29.1919 28.2899 29.2438L28.3397 29.1953C28.2844 29.223 28.2363 29.2611 28.1983 29.3095C28.1606 29.3579 28.1343 29.4133 28.1215 29.4721C28.1087 29.5308 28.1097 29.5931 28.1243 29.6519C28.1391 29.7107 28.1671 29.7661 28.2066 29.811C28.246 29.8595 28.2955 29.894 28.3515 29.9217C28.4072 29.9459 28.4684 29.9563 28.5296 29.9563C28.5908 29.9528 28.651 29.939 28.7053 29.9079C28.7596 29.8802 28.8067 29.8422 28.8426 29.7903Z" fill="#F89521"/>
<path d="M29.9352 30.8449L29.8857 30.8934C29.939 30.8623 29.9846 30.8207 30.0189 30.7688C30.0531 30.7204 30.0752 30.6616 30.0832 30.5994C30.0912 30.5406 30.0849 30.4783 30.0649 30.4195C30.0448 30.3607 30.012 30.3089 29.968 30.2674C29.9245 30.2224 29.8712 30.1913 29.8124 30.1705C29.7539 30.1498 29.6917 30.1428 29.6301 30.1532C29.5689 30.1601 29.5101 30.1808 29.4586 30.2154C29.407 30.25 29.3641 30.295 29.333 30.3469L29.3825 30.2984C29.2891 30.3745 29.2279 30.4818 29.2113 30.5994C29.1943 30.717 29.223 30.838 29.2919 30.9349C29.3396 30.9729 29.3946 30.9971 29.453 31.0144C29.5115 31.0282 29.5727 31.0317 29.6325 31.0248C29.6924 31.0179 29.7501 30.9971 29.802 30.966C29.8542 30.9349 29.8992 30.8934 29.9352 30.8449Z" fill="#F89521"/>
<path d="M10.6467 26.9299C10.6214 26.8676 10.5817 26.8158 10.5312 26.7743C10.4191 26.6636 10.2738 26.5944 10.1175 26.5737C9.96117 26.5529 9.80241 26.584 9.6651 26.6601C9.58243 26.7051 9.51015 26.7673 9.4517 26.84C9.39325 26.9161 9.35001 26.9991 9.32476 27.089C9.29951 27.1789 9.29225 27.2723 9.30401 27.3657C9.31577 27.4591 9.3462 27.549 9.39289 27.632C9.41849 27.6908 9.45792 27.7427 9.50842 27.7877C9.59904 27.8672 9.70903 27.926 9.8287 27.9571C9.94803 27.9848 10.0732 27.9848 10.1922 27.9537C10.3112 27.9226 10.4208 27.8638 10.5101 27.7808C10.5996 27.6977 10.6664 27.5905 10.7044 27.4764C10.7556 27.2931 10.7352 27.0959 10.6467 26.9299Z" fill="#F89521"/>
<path d="M41.2802 27.1579L32.749 18.7117L41.9476 13.4718C42.0302 13.4268 42.1028 13.3646 42.1612 13.2919C42.2196 13.2158 42.2625 13.1328 42.2881 13.0429C42.3133 12.9529 42.3202 12.8561 42.3085 12.7627C42.2967 12.6728 42.2666 12.5829 42.2196 12.4999C42.1944 12.4411 42.1547 12.3857 42.1042 12.3442C41.995 12.2232 41.8464 12.1402 41.6829 12.1091C41.5194 12.0814 41.3511 12.109 41.2059 12.1886L31.6444 17.6741L30.6635 16.7022L43.1345 9.61186C43.2182 9.5669 43.2921 9.50461 43.3512 9.42852C43.4107 9.35589 43.4549 9.26945 43.4808 9.17952C43.5296 8.99621 43.5061 8.79905 43.4148 8.63303C43.3896 8.57077 43.3498 8.5189 43.2994 8.47739C43.1874 8.36671 43.0422 8.29754 42.886 8.27679C42.7298 8.25604 42.5712 8.28715 42.4339 8.36324L40.1922 9.61186L29.114 15.9205L25.891 17.7052L24.5638 18.4315L22.0911 19.7943L20.7888 20.5206L12.1833 25.2971C12.101 25.3421 12.0284 25.4043 11.97 25.477C11.9116 25.5496 11.8684 25.6361 11.8432 25.726C11.818 25.8159 11.811 25.9093 11.8228 26.0027C11.8342 26.0961 11.8646 26.186 11.9113 26.269C11.9368 26.3278 11.9763 26.3797 12.0267 26.4212C12.139 26.5319 12.2842 26.6011 12.4401 26.6218C12.5963 26.6426 12.755 26.6149 12.8922 26.5353L14.3594 25.7191L28.5617 39.796C28.701 39.9275 28.8852 40.0001 29.0767 40.0001C29.2685 40.0001 29.4527 39.9275 29.592 39.796L41.3047 28.1609C41.4143 28.0157 41.4714 27.8358 41.4669 27.656C41.4624 27.4727 41.3967 27.2963 41.2802 27.1579ZM15.6534 24.9858L17.5741 23.924L19.4122 25.7122C19.4799 25.7779 19.5601 25.8332 19.6486 25.8678C19.737 25.9059 19.8318 25.9231 19.9275 25.9231C20.0232 25.9231 20.1179 25.9059 20.2061 25.8678C20.2946 25.8332 20.3751 25.7779 20.4425 25.7122C20.5102 25.6465 20.5638 25.5669 20.6004 25.477C20.6371 25.3905 20.6561 25.2971 20.6561 25.2037C20.6561 25.1069 20.6371 25.0135 20.6004 24.927C20.5638 24.8371 20.5102 24.7576 20.4425 24.6919L18.9096 23.1734L22.3632 21.2746L29.4106 17.3801L39.7715 27.656L29.0563 38.2638L15.6534 24.9858Z" fill="#F89521"/>
</svg>
