<svg width="44" height="33" viewBox="0 0 44 33" fill="none" xmlns="http://www.w3.org/2000/svg">
<path d="M17.2769 9.04856C18.0584 8.5097 18.5566 7.58061 18.5143 6.54611C18.4503 4.96166 17.1432 3.73061 15.5951 3.79647C14.0469 3.86233 12.8449 5.20016 12.9089 6.78461C12.9558 7.94888 13.6744 8.92153 14.6662 9.32982C14.801 11.7861 15.7687 14.1851 15.8156 14.2984C16.0327 14.8307 16.5468 15.1439 17.0792 15.1212C17.2301 15.1148 17.382 15.0812 17.5294 15.018C18.1978 14.7321 18.512 13.9464 18.2332 13.2629C17.9693 12.6172 17.3386 10.7233 17.2769 9.04856ZM26.142 9.04856C25.3605 8.5097 24.8612 7.58061 24.9034 6.54611C24.9686 4.96166 26.2745 3.73061 27.8227 3.79647C29.3708 3.86233 30.5739 5.20016 30.5088 6.78461C30.462 7.94888 29.7433 8.92153 28.7516 9.32982C28.6179 11.7861 27.649 14.1851 27.6033 14.2984C27.3851 14.8307 26.8709 15.1439 26.3396 15.1212C26.1888 15.1148 26.0357 15.0812 25.8883 15.018C25.2211 14.7321 24.9057 13.9464 25.1857 13.2629C25.4496 12.6172 26.0791 10.7233 26.142 9.04856Z" fill="#FF9800"/>
<path d="M11.9822 14.4682C8.94874 11.2804 6.2866 14.1239 9.59657 16.8713C12.9054 19.6186 11.9822 14.4682 11.9822 14.4682Z" fill="#EE9004"/>
<path d="M37.5309 5.22785L39.9086 0C39.9086 0 43.0952 0.797257 43.4037 5.3734C43.6493 9.00833 40.8055 12.0981 37.2453 12.0758C37.1116 12.075 37.0362 12.0705 37.0362 12.0705L37.5309 5.22785Z" fill="#FF9800"/>
<path d="M33.8392 13.0681C35.7895 6.35667 42.2666 11.5184 35.2799 14.8625L33.8392 13.0681Z" fill="#FF9800"/>
<path d="M31.4379 14.4682C34.4702 11.2804 37.1324 14.1239 33.8235 16.8713C30.5136 19.6186 31.4379 14.4682 31.4379 14.4682Z" fill="#EE9004"/>
<path d="M10.5132 22.8539C9.63576 23.0951 8.74001 23.2328 7.89452 23.6335C6.95306 24.0796 6.20696 24.7793 6.23895 25.912C6.25952 26.5889 6.47546 27.2351 6.69712 27.8661C6.84908 28.2993 6.9382 28.8321 6.39891 29.0313C6.14869 29.1239 5.87905 29.0529 5.70195 28.8726C5.05184 28.2107 4.4977 27.4209 4.20406 26.5246C3.76989 25.1969 3.98583 23.7767 4.79247 22.6484C5.50771 21.6487 6.57143 20.9493 7.67171 20.4695C8.86225 19.9507 11.5153 18.9481 11.8306 21.0668C11.9483 21.851 11.473 22.5023 10.7703 22.7705C10.6858 22.8028 10.6001 22.8301 10.5132 22.8539ZM15.1634 26.0335C14.3465 26.4424 13.493 26.7532 12.7389 27.3121C11.898 27.9346 11.2959 28.7677 11.5404 29.873C11.6855 30.5334 12.0191 31.1253 12.355 31.7011C12.5847 32.0965 12.7721 32.602 12.2808 32.9031C12.0523 33.0431 11.7735 33.0263 11.5667 32.884C10.8034 32.3621 10.1122 31.6954 9.65633 30.8733C8.98222 29.6554 8.92852 28.219 9.50894 26.9535C10.0242 25.832 10.9371 24.9372 11.9277 24.2505C12.9994 23.5078 15.4159 22.0036 16.122 24.0214C16.3825 24.7681 16.0386 25.5005 15.4 25.9015C15.3223 25.9496 15.2434 25.9932 15.1634 26.0335ZM32.9061 22.8539C33.7836 23.0951 34.6794 23.2328 35.5249 23.6335C36.4663 24.0796 37.2136 24.7793 37.1804 25.912C37.161 26.5889 36.9439 27.2351 36.7234 27.8661C36.5703 28.2993 36.4823 28.8321 37.0205 29.0313C37.2707 29.1239 37.5403 29.0529 37.7174 28.8726C38.3687 28.2107 38.9228 27.4209 39.2153 26.5246C39.6506 25.1969 39.4347 23.7767 38.6269 22.6484C37.9117 21.6487 36.8491 20.9493 35.7477 20.4695C34.5571 19.9507 31.9041 18.9481 31.5888 21.0668C31.4722 21.851 31.9475 22.5023 32.6491 22.7705C32.7336 22.8028 32.8193 22.8301 32.9061 22.8539ZM28.2571 26.0335C29.0729 26.4424 29.9264 26.7532 30.6816 27.3121C31.5214 27.9346 32.1235 28.7677 31.8801 29.873C31.7339 30.5334 31.4003 31.1253 31.0655 31.7011C30.8347 32.0965 30.6473 32.602 31.1398 32.9031C31.3683 33.0431 31.6459 33.0263 31.8539 32.884C32.6159 32.3621 33.3072 31.6954 33.7631 30.8733C34.4383 29.6554 34.492 28.219 33.9104 26.9535C33.3951 25.832 32.4834 24.9372 31.4917 24.2505C30.4211 23.5078 28.0046 22.0036 27.2985 24.0214C27.0369 24.7681 27.3819 25.5005 28.0206 25.9015C28.0971 25.9496 28.176 25.9932 28.2571 26.0335Z" fill="#EC991E"/>
<path opacity="0.1" d="M15.8163 14.2985C16.0333 14.831 16.5475 15.144 17.0788 15.1214C17.2307 15.115 17.3827 15.0816 17.5301 15.0182C18.1985 14.7323 18.5127 13.9466 18.2339 13.2632C18.0191 12.7398 17.5655 11.3971 17.3678 10.0156C16.4858 10.1827 15.6312 10.4006 14.8154 10.6671C15.1262 12.5922 15.7785 14.2062 15.8163 14.2985ZM26.0512 10.0156C25.8536 11.3972 25.4 12.7398 25.1852 13.2632C24.9064 13.9466 25.2206 14.7323 25.889 15.0182C26.0364 15.0815 26.1895 15.115 26.3403 15.1214C26.8716 15.144 27.3857 14.831 27.604 14.2985C27.6417 14.2061 28.2929 12.5922 28.6037 10.6671C27.7879 10.4007 26.9333 10.1827 26.0512 10.0156Z" fill="black"/>
<path opacity="0.1" d="M36.5969 20.8922C36.3204 20.7356 36.0359 20.5948 35.748 20.4695C34.5575 19.9507 31.9045 18.9481 31.5891 21.0669C31.4714 21.851 31.9479 22.5024 32.6494 22.7705C32.7339 22.8029 32.8196 22.8301 32.9065 22.8539C33.7428 23.0839 34.5952 23.2203 35.4064 23.5797C35.9914 22.738 36.3924 21.8359 36.5969 20.8922ZM31.492 24.2506C30.4203 23.5079 28.0038 22.0038 27.2977 24.0215C27.0372 24.7682 27.3822 25.5006 28.0198 25.9015C28.0975 25.9497 28.1763 25.9933 28.2563 26.0337C29.0732 26.4426 29.9267 26.7534 30.6808 27.3124C30.6911 27.32 30.7013 27.3281 30.7116 27.3358C31.1207 27.1412 31.5148 26.9331 31.893 26.7107C32.3649 26.4328 32.8048 26.1376 33.2115 25.8276C32.7259 25.2137 32.125 24.6894 31.492 24.2506ZM11.928 24.2506C11.2939 24.6894 10.6941 25.2137 10.2074 25.8275C10.6153 26.1376 11.0551 26.4327 11.527 26.7106C11.9052 26.933 12.2994 27.1412 12.7084 27.3358C12.7187 27.328 12.7278 27.32 12.7381 27.3124C13.4933 26.7534 14.3468 26.4425 15.1626 26.0336C15.2437 25.9933 15.3226 25.9498 15.3991 25.9013C16.0378 25.5006 16.3829 24.7681 16.1212 24.0213C15.4151 22.0038 12.9986 23.508 11.928 24.2506ZM11.8309 21.0669C11.5156 18.9481 8.86259 19.9508 7.67205 20.4696C7.38413 20.5948 7.09962 20.7357 6.82312 20.8923C7.02649 21.8359 7.42868 22.738 8.01367 23.5799C8.82374 23.2207 9.67723 23.0841 10.5136 22.8541C10.6004 22.8303 10.6861 22.8031 10.7706 22.7709C11.4722 22.5024 11.9475 21.8511 11.8309 21.0669Z" fill="#EE9004"/>
<path d="M21.7105 26.9903C28.8126 26.9903 34.5711 23.6014 34.5711 19.4209C34.5711 15.2404 28.8126 11.8516 21.7105 11.8516C14.6072 11.8516 8.84875 15.2404 8.84875 19.4209C8.84875 23.6014 14.6072 26.9903 21.7105 26.9903Z" fill="#FF9800"/>
<path d="M15.7114 7.6131C16.2221 7.6131 16.6369 7.18881 16.6369 6.66549C16.6369 6.14207 16.2221 5.71777 15.7114 5.71777C15.1995 5.71777 14.7848 6.14207 14.7848 6.66549C14.7848 7.18881 15.1995 7.6131 15.7114 7.6131Z" fill="#3B3735"/>
<path d="M27.7074 7.6131C28.2181 7.6131 28.6329 7.18881 28.6329 6.66549C28.6329 6.14207 28.2181 5.71777 27.7074 5.71777C27.1956 5.71777 26.7808 6.14207 26.7808 6.66549C26.7808 7.18881 27.1956 7.6131 27.7074 7.6131Z" fill="#3B3735"/>
<path d="M5.88898 5.22785L3.51134 0C3.51134 0 0.325893 0.797257 0.0162611 5.3734C-0.229388 9.00833 2.61557 12.0981 6.17462 12.0758C6.3083 12.075 6.38371 12.0705 6.38371 12.0705L5.88898 5.22785Z" fill="#FF9800"/>
<path d="M9.58097 13.0681C7.63063 6.35667 1.15236 11.5184 8.14021 14.8625L9.58097 13.0681Z" fill="#FF9800"/>
<path d="M6.84195 4.62185C7.50577 4.00902 8.56834 4.3989 8.70088 5.30386C9.09849 8.03487 9.23217 12.5016 5.40691 10.7603C2.37571 9.38093 4.9773 6.34328 6.84195 4.62185ZM36.578 4.62185C35.9154 4.00902 34.8516 4.3989 34.7202 5.30386C34.3215 8.03487 34.1878 12.5016 38.0142 10.7603C41.0443 9.38093 38.4427 6.34328 36.578 4.62185Z" fill="#FF9800"/>
<path d="M21.7097 17.775C20.8368 17.775 20.0382 17.5465 19.5206 17.1481C19.0167 16.7606 18.9151 16.0285 19.2932 15.5127C19.6714 14.9969 20.3867 14.8929 20.8905 15.2802C20.9362 15.3128 21.2162 15.439 21.7097 15.439C22.2022 15.439 22.4821 15.3127 22.5301 15.2788C23.034 14.8914 23.7492 14.9962 24.1274 15.512C24.5056 16.0277 24.4027 16.7607 23.8989 17.1481C23.3813 17.5465 22.5827 17.775 21.7097 17.775Z" fill="#3B3735"/>
</svg>
