<svg width="38" height="38" viewBox="0 0 38 38" fill="none" xmlns="http://www.w3.org/2000/svg">
<path d="M9.7338 11.885C10.3077 11.8837 10.864 12.0823 11.3082 12.4469C11.7524 12.8123 12.0566 13.3204 12.1694 13.8849L12.4229 15.1321L24.2132 16.5714C24.2573 16.5759 24.2994 16.5902 24.3371 16.6129C24.3753 16.6357 24.4077 16.6661 24.4324 16.7025C24.4577 16.7388 24.4739 16.7804 24.4817 16.8238C24.4894 16.8673 24.4875 16.9121 24.4758 16.9549L23.6309 20.1203C23.4532 20.8003 23.057 21.4019 22.5032 21.8315C21.9494 22.261 21.2692 22.494 20.5695 22.4946H14.6245C14.533 22.4946 14.4422 22.5148 14.3592 22.5537C14.2769 22.5926 14.203 22.6491 14.1446 22.7198C14.0856 22.7899 14.0428 22.8723 14.0195 22.9612C13.9961 23.0501 13.9922 23.1429 14.0084 23.2331C14.035 23.3778 14.1115 23.5082 14.2237 23.6017C14.3365 23.6958 14.4779 23.7471 14.6245 23.7464H22.0169C22.4747 23.7406 22.9195 23.9002 23.2697 24.1961C23.6205 24.492 23.8539 24.9041 23.9266 25.3583C23.9661 25.6263 23.9473 25.9001 23.8715 26.161C23.7956 26.4212 23.6652 26.6626 23.4882 26.8677C23.3118 27.0727 23.0933 27.2375 22.8475 27.3504C22.6018 27.4633 22.3346 27.5211 22.0642 27.5211C21.9228 27.5205 21.7821 27.5042 21.644 27.4731C21.3282 27.3998 21.037 27.2447 20.7991 27.0234C20.5611 26.8021 20.3853 26.5224 20.2881 26.2116C20.1752 25.8443 20.1752 25.4517 20.2881 25.0845H14.8773C14.9299 25.259 14.9578 25.4401 14.9584 25.6217C14.9591 26.1188 14.7678 26.5958 14.4247 26.954C14.0817 27.3115 13.6142 27.5218 13.12 27.5406H13.0818C12.6155 27.5334 12.1687 27.3537 11.8277 27.0344C11.4866 26.7158 11.2752 26.281 11.2343 25.8151C11.1941 25.3486 11.3277 24.8839 11.6085 24.5102C11.8899 24.137 12.2991 23.882 12.7569 23.7944L12.4275 21.9671L10.6747 13.2522H9.71953C9.54315 13.2522 9.37389 13.1815 9.24874 13.0563C9.12359 12.9304 9.05356 12.7604 9.05356 12.5832C9.05356 12.4054 9.12359 12.2354 9.24874 12.1095C9.37389 11.9843 9.54315 11.9135 9.71953 11.9135L9.7338 11.885ZM9.71953 10.2108H9.691C9.10156 10.2095 8.53284 10.4295 8.09643 10.8279C7.66066 11.2263 7.38898 11.774 7.33516 12.3639C7.28069 12.9537 7.44863 13.5423 7.80528 14.0134C8.16193 14.4852 8.68134 14.8057 9.26106 14.9115L10.7467 22.298L10.842 22.8399C10.2603 23.3032 9.83625 23.9365 9.62874 24.6529C9.42188 25.3687 9.44134 26.1324 9.68581 26.8365C9.92963 27.5406 10.3861 28.1512 10.9911 28.5834C11.5962 29.0155 12.3198 29.2479 13.0623 29.2479H13.1388C13.8787 29.2316 14.5946 28.9863 15.1906 28.5457C15.7858 28.1058 16.232 27.4919 16.4674 26.7872H18.6929C18.8874 27.3732 19.2298 27.8981 19.687 28.3108C20.1441 28.7242 20.6999 29.0103 21.3003 29.1427C21.5578 29.1992 21.8204 29.2284 22.0837 29.229C22.8553 29.2433 23.6114 29.0052 24.2365 28.5509C24.8623 28.0967 25.324 27.4504 25.5529 26.71C25.7812 25.9689 25.7636 25.174 25.503 24.444C25.2429 23.7139 24.7534 23.089 24.1081 22.6627C24.6768 22.0651 25.0841 21.3325 25.2929 20.533L26.1236 17.3436C26.1968 17.0652 26.2091 16.7745 26.1612 16.4909C26.1125 16.2074 26.0042 15.9374 25.8428 15.6999C25.682 15.4618 25.4719 15.2619 25.2267 15.1127C24.9816 14.9634 24.708 14.8687 24.4233 14.8349L13.8509 13.5637V13.5254C13.6563 12.5787 13.1434 11.7279 12.3983 11.1167C11.6526 10.5054 10.7201 10.1699 9.75779 10.168L9.71953 10.2108Z" fill="url(#paint0_linear)"/>
<path d="M31.2761 13.3816V27.6362C31.2748 29.3331 30.603 30.9592 29.4086 32.159C28.2141 33.3589 26.5949 34.0331 24.9057 34.0344H9.67145C7.98222 34.0331 6.36301 33.3589 5.16855 32.159C3.97409 30.9592 3.3023 29.3331 3.30101 27.6362V12.3264C3.3023 10.6295 3.97409 9.00272 5.16855 7.80289C6.36301 6.6037 7.98222 5.92884 9.67145 5.92754H23.9985V3.72125C23.9991 3.44157 24.0406 3.16384 24.1223 2.89648H9.67145C7.18267 2.89908 4.79569 3.8932 3.03578 5.66083C1.27587 7.42911 0.285675 9.82618 0.283081 12.3264V27.6362C0.289566 30.1338 1.28106 32.527 3.04098 34.292C4.80024 36.0564 7.18461 37.0492 9.67145 37.0518H24.9147C27.4042 37.0492 29.7911 36.0545 31.5511 34.2868C33.311 32.5192 34.3012 30.1221 34.3038 27.6219V13.2855C34.0716 13.3478 33.8323 13.3796 33.5924 13.3816H31.2761Z" fill="url(#paint1_linear)"/>
<path d="M33.0502 0H27.3198C26.2045 0.00129782 25.1352 0.447104 24.3466 1.23877C23.5575 2.03109 23.1139 3.10503 23.1126 4.22569V9.98153C23.1139 11.1015 23.5575 12.1755 24.3466 12.9678C25.1352 13.7601 26.2045 14.2059 27.3198 14.2072H33.0502C34.1656 14.2059 35.2355 13.7601 36.0241 12.9678C36.8126 12.1755 37.2561 11.1015 37.2574 9.98153V4.22569C37.2561 3.10503 36.8126 2.03109 36.0241 1.23877C35.2355 0.447104 34.1656 0.00129782 33.0502 0ZM35.8347 9.95751C35.8347 10.6992 35.541 11.4104 35.019 11.9347C34.497 12.4591 33.7888 12.7537 33.0502 12.7537H27.3198C26.5812 12.7537 25.8731 12.4591 25.3511 11.9347C24.8291 11.4104 24.536 10.6992 24.536 9.95751V4.20168C24.536 3.45998 24.8291 2.74878 25.3511 2.22446C25.8731 1.70014 26.5812 1.40554 27.3198 1.40554H33.0502C33.7888 1.40554 34.497 1.70014 35.019 2.22446C35.541 2.74878 35.8347 3.45998 35.8347 4.20168V9.95751Z" fill="url(#paint2_linear)"/>
<path d="M30.2043 3.42188C29.4813 3.42188 28.7751 3.63732 28.1746 4.04029C27.5735 4.44391 27.1053 5.0169 26.8291 5.68722C26.5522 6.35754 26.4802 7.09535 26.6209 7.80721C26.7616 8.51906 27.1099 9.17251 27.6208 9.68579C28.1318 10.1991 28.7829 10.5482 29.491 10.6903C30.1998 10.8318 30.9345 10.7591 31.6017 10.4814C32.2696 10.2036 32.8403 9.73317 33.2417 9.12969C33.6431 8.5262 33.8571 7.81694 33.8571 7.09146C33.8558 6.11874 33.4706 5.18625 32.7858 4.49841C32.101 3.81057 31.1724 3.42317 30.2043 3.42188ZM30.2043 9.33149C29.7627 9.33149 29.3315 9.19977 28.9651 8.95383C28.5981 8.7079 28.3121 8.35812 28.1435 7.94866C27.9749 7.5392 27.9308 7.08886 28.0164 6.65409C28.1026 6.21997 28.3153 5.82089 28.6272 5.50747C28.9391 5.19404 29.336 4.9812 29.7692 4.89425C30.2017 4.80795 30.6498 4.85272 31.0577 5.02208C31.4649 5.19145 31.8131 5.47891 32.0582 5.84684C32.3034 6.21542 32.4343 6.64825 32.4343 7.09146C32.4343 7.38542 32.3766 7.67677 32.2644 7.94866C32.1523 8.22056 31.9882 8.46715 31.7807 8.67545C31.5738 8.8831 31.3281 9.04792 31.0577 9.16083C30.7866 9.27309 30.4968 9.33149 30.2043 9.33149Z" fill="url(#paint3_linear)"/>
<path d="M33.7321 4.33147C34.2145 4.33147 34.6062 3.93824 34.6062 3.4535C34.6062 2.96877 34.2145 2.57617 33.7321 2.57617C33.2496 2.57617 32.858 2.96877 32.858 3.4535C32.858 3.93824 33.2496 4.33147 33.7321 4.33147Z" fill="url(#paint4_linear)"/>
<defs>
<linearGradient id="paint0_linear" x1="3339.22" y1="6052.64" x2="3339.22" y2="5294.97" gradientUnits="userSpaceOnUse">
<stop stop-color="#6D3D90"/>
<stop offset="0.1" stop-color="#9C2384"/>
<stop offset="0.22" stop-color="#B4137A"/>
<stop offset="0.39" stop-color="#C51A66"/>
<stop offset="0.55" stop-color="#C73553"/>
<stop offset="0.69" stop-color="#CB4743"/>
<stop offset="0.82" stop-color="#D6713B"/>
<stop offset="1" stop-color="#DF8F33"/>
</linearGradient>
<linearGradient id="paint1_linear" x1="6046.42" y1="11377.6" x2="6046.42" y2="8944.7" gradientUnits="userSpaceOnUse">
<stop stop-color="#6D3D90"/>
<stop offset="0.1" stop-color="#9C2384"/>
<stop offset="0.22" stop-color="#B4137A"/>
<stop offset="0.39" stop-color="#C51A66"/>
<stop offset="0.55" stop-color="#C73553"/>
<stop offset="0.69" stop-color="#CB4743"/>
<stop offset="0.82" stop-color="#D6713B"/>
<stop offset="1" stop-color="#DF8F33"/>
</linearGradient>
<linearGradient id="paint2_linear" x1="30.1996" y1="14.0677" x2="30.1996" y2="0.110315" gradientUnits="userSpaceOnUse">
<stop stop-color="#DF8F33"/>
<stop offset="0.18" stop-color="#D6713B"/>
<stop offset="0.31" stop-color="#CB4743"/>
<stop offset="0.45" stop-color="#C73553"/>
<stop offset="0.61" stop-color="#C51A66"/>
<stop offset="0.78" stop-color="#B4137A"/>
<stop offset="0.9" stop-color="#9C2384"/>
<stop offset="1" stop-color="#6D3D90"/>
</linearGradient>
<linearGradient id="paint3_linear" x1="1522.55" y1="2095.46" x2="1522.55" y2="1881.92" gradientUnits="userSpaceOnUse">
<stop stop-color="#DF8F33"/>
<stop offset="0.18" stop-color="#D6713B"/>
<stop offset="0.31" stop-color="#CB4743"/>
<stop offset="0.45" stop-color="#C73553"/>
<stop offset="0.61" stop-color="#C51A66"/>
<stop offset="0.78" stop-color="#B4137A"/>
<stop offset="0.9" stop-color="#9C2384"/>
<stop offset="1" stop-color="#6D3D90"/>
</linearGradient>
<linearGradient id="paint4_linear" x1="403.656" y1="503.028" x2="403.656" y2="451.946" gradientUnits="userSpaceOnUse">
<stop stop-color="#DF8F33"/>
<stop offset="0.18" stop-color="#D6713B"/>
<stop offset="0.31" stop-color="#CB4743"/>
<stop offset="0.45" stop-color="#C73553"/>
<stop offset="0.61" stop-color="#C51A66"/>
<stop offset="0.78" stop-color="#B4137A"/>
<stop offset="0.9" stop-color="#9C2384"/>
<stop offset="1" stop-color="#6D3D90"/>
</linearGradient>
</defs>
</svg>
