<svg width="238" height="44" viewBox="0 0 238 44" fill="none" xmlns="http://www.w3.org/2000/svg">
<path d="M13.099 2.57243H7.73467V13.8197H5.38064V2.57243H0V0.199219H13.099V2.57243Z" fill="#00A650"/>
<path d="M26.4804 13.8197H14.7141V0.199219H26.4804V2.57243H17.0874V11.4465H26.4804V13.8197ZM25.8626 8.09614H18.0857V5.72293H25.8636L25.8626 8.09614Z" fill="#00A650"/>
<path d="M31.5258 13.8207H29.1526V0.20018H31.5258V13.8207ZM42.9136 13.8207H39.4229L32.6625 8.17684C32.1968 7.77779 31.9643 7.41204 31.9649 7.0796C31.9649 6.75932 32.1975 6.4003 32.6625 6.00252L39.4229 0.199219H42.9126L34.7965 7.14013L42.9136 13.8207Z" fill="#00A650"/>
<path d="M60.3833 13.8197H56.8734L53.0599 9.99086H47.9386V7.63783H54.3205C55.198 7.63783 55.9347 7.44566 56.5304 7.06134C57.2106 6.60912 57.5508 5.96377 57.5508 5.1253C57.5508 3.42338 56.474 2.57243 54.3205 2.57243H46.5426V13.8197H44.1693V0.199219H53.9409C55.696 0.199219 57.112 0.578099 58.1888 1.33586C59.425 2.19995 60.0432 3.4695 60.0432 5.14452C60.0432 6.28789 59.6841 7.27176 58.9661 8.09614C58.3012 8.86479 57.397 9.40316 56.2536 9.71126L60.3833 13.8197Z" fill="#1E4496"/>
<path d="M79.7873 6.86346C79.7873 8.87092 79.1426 10.5328 77.8532 11.8491C76.5637 13.1654 74.9217 13.8223 72.927 13.8197H69.1183C67.137 13.8197 65.4985 13.1616 64.2027 11.8453C62.9068 10.529 62.2586 8.86836 62.2579 6.86346C62.2579 4.86945 62.8985 3.26073 64.1796 2.0373C65.4607 0.813866 67.106 0.202148 69.1154 0.202148H72.9241C74.945 0.202148 76.5935 0.813866 77.8695 2.0373C79.1455 3.26073 79.7847 4.86945 79.7873 6.86346ZM77.4342 7.05562C77.4342 5.73931 77.0121 4.66256 76.1679 3.82537C75.3236 2.98818 74.2433 2.57055 72.927 2.57247H69.1183C67.8154 2.57247 66.7418 2.99139 65.8976 3.82922C65.0533 4.66704 64.6309 5.74251 64.6302 7.05562C64.6302 8.35848 65.0523 9.41538 65.8966 10.2263C66.7408 11.0372 67.8144 11.4427 69.1173 11.4427H72.926C74.2424 11.4427 75.3227 11.0372 76.1669 10.2263C77.0112 9.41538 77.4336 8.35848 77.4342 7.05562Z" fill="#1E4496"/>
<path d="M102.083 13.8405H99.4113L97.4368 4.30829L92.87 13.1026C92.5638 13.7009 92.1384 14 91.594 14C90.9822 14 90.5169 13.6941 90.1979 13.0824L85.632 4.30829L83.6777 13.8405H80.9874L84.0351 1.33649C84.1142 0.97837 84.2982 0.651915 84.5636 0.398742C84.6867 0.272133 84.834 0.171585 84.9967 0.103083C85.1595 0.0345811 85.3344 -0.000473943 85.511 4.83897e-06C86.0292 4.83897e-06 86.5211 0.445501 86.9868 1.33649L91.5334 10.2509L96.1051 1.33649C96.5701 0.446142 97.062 0.00064538 97.5809 4.83897e-06C97.7608 0.0029905 97.9383 0.0415428 98.1032 0.11344C98.2681 0.185337 98.4171 0.289158 98.5417 0.418919C98.7946 0.672108 98.974 0.989269 99.0606 1.33649L102.083 13.8405Z" fill="#1E4496"/>
<path d="M11.7369 28.9422L8.68437 32.0772V36.9997H5.10938V17.7497H8.68437V27.6222L18.1994 17.7497H22.2144L14.1294 26.3572L22.7094 36.9997H18.5294L11.7369 28.9422Z" fill="#1E4496"/>
<path d="M30.0744 22.1497C32.2378 22.1497 33.8878 22.6722 35.0244 23.7172C36.1794 24.7439 36.7569 26.3022 36.7569 28.3922V36.9997H33.5119V35.2122C33.0903 35.8539 32.4853 36.3489 31.6969 36.6972C30.9269 37.0272 29.9919 37.1922 28.8919 37.1922C27.7919 37.1922 26.8294 37.0089 26.0044 36.6422C25.1794 36.2572 24.5378 35.7347 24.0794 35.0747C23.6394 34.3964 23.4194 33.6356 23.4194 32.7922C23.4194 31.4722 23.9053 30.4181 24.8769 29.6297C25.8669 28.8231 27.4161 28.4197 29.5244 28.4197H33.3194V28.1997C33.3194 27.1731 33.0078 26.3847 32.3844 25.8347C31.7794 25.2847 30.8719 25.0097 29.6619 25.0097C28.8369 25.0097 28.0211 25.1381 27.2144 25.3947C26.4261 25.6514 25.7569 26.0089 25.2069 26.4672L23.8594 23.9647C24.6294 23.3781 25.5553 22.9289 26.6369 22.6172C27.7186 22.3056 28.8644 22.1497 30.0744 22.1497ZM29.6069 34.6897C30.4686 34.6897 31.2294 34.4972 31.8894 34.1122C32.5678 33.7089 33.0444 33.1406 33.3194 32.4072V30.7022H29.7719C27.7919 30.7022 26.8019 31.3531 26.8019 32.6547C26.8019 33.2781 27.0494 33.7731 27.5444 34.1397C28.0394 34.5064 28.7269 34.6897 29.6069 34.6897Z" fill="#1E4496"/>
<path d="M49.501 22.1497C51.3527 22.1497 52.8377 22.6906 53.956 23.7722C55.0744 24.8539 55.6335 26.4581 55.6335 28.5847V36.9997H52.196V29.0247C52.196 27.7414 51.8935 26.7789 51.2885 26.1372C50.6835 25.4772 49.8219 25.1472 48.7035 25.1472C47.4385 25.1472 46.4394 25.5322 45.706 26.3022C44.9727 27.0539 44.606 28.1447 44.606 29.5747V36.9997H41.1685V16.5947H44.606V24.0197C45.1744 23.4147 45.871 22.9564 46.696 22.6447C47.5394 22.3147 48.4744 22.1497 49.501 22.1497Z" fill="#1E4496"/>
<path d="M63.2667 24.4597C64.2567 22.9197 65.9984 22.1497 68.4917 22.1497V25.4222C68.1984 25.3672 67.9326 25.3397 67.6942 25.3397C66.3559 25.3397 65.3109 25.7339 64.5592 26.5222C63.8076 27.2922 63.4317 28.4106 63.4317 29.8772V36.9997H59.9942V22.3147H63.2667V24.4597Z" fill="#1E4496"/>
<path d="M76.9372 22.1497C79.1006 22.1497 80.7506 22.6722 81.8872 23.7172C83.0422 24.7439 83.6197 26.3022 83.6197 28.3922V36.9997H80.3747V35.2122C79.9531 35.8539 79.3481 36.3489 78.5597 36.6972C77.7897 37.0272 76.8547 37.1922 75.7547 37.1922C74.6547 37.1922 73.6922 37.0089 72.8672 36.6422C72.0422 36.2572 71.4006 35.7347 70.9422 35.0747C70.5022 34.3964 70.2822 33.6356 70.2822 32.7922C70.2822 31.4722 70.7681 30.4181 71.7397 29.6297C72.7297 28.8231 74.2789 28.4197 76.3872 28.4197H80.1822V28.1997C80.1822 27.1731 79.8706 26.3847 79.2472 25.8347C78.6422 25.2847 77.7347 25.0097 76.5247 25.0097C75.6997 25.0097 74.8839 25.1381 74.0772 25.3947C73.2889 25.6514 72.6197 26.0089 72.0697 26.4672L70.7222 23.9647C71.4922 23.3781 72.4181 22.9289 73.4997 22.6172C74.5814 22.3056 75.7272 22.1497 76.9372 22.1497ZM76.4697 34.6897C77.3314 34.6897 78.0922 34.4972 78.7522 34.1122C79.4306 33.7089 79.9072 33.1406 80.1822 32.4072V30.7022H76.6347C74.6547 30.7022 73.6647 31.3531 73.6647 32.6547C73.6647 33.2781 73.9122 33.7731 74.4072 34.1397C74.9022 34.5064 75.5897 34.6897 76.4697 34.6897Z" fill="#1E4496"/>
<path d="M106.566 22.1497C108.418 22.1497 109.885 22.6906 110.966 23.7722C112.048 24.8356 112.589 26.4397 112.589 28.5847V36.9997H109.151V29.0247C109.151 27.7414 108.867 26.7789 108.299 26.1372C107.73 25.4772 106.915 25.1472 105.851 25.1472C104.696 25.1472 103.77 25.5322 103.074 26.3022C102.377 27.0539 102.029 28.1356 102.029 29.5472V36.9997H98.5913V29.0247C98.5913 27.7414 98.3072 26.7789 97.7388 26.1372C97.1705 25.4772 96.3547 25.1472 95.2913 25.1472C94.118 25.1472 93.183 25.5231 92.4863 26.2747C91.808 27.0264 91.4688 28.1172 91.4688 29.5472V36.9997H88.0313V22.3147H91.3038V24.1847C91.8538 23.5247 92.5413 23.0206 93.3663 22.6722C94.1913 22.3239 95.108 22.1497 96.1163 22.1497C97.2163 22.1497 98.188 22.3606 99.0313 22.7822C99.893 23.1856 100.571 23.7906 101.066 24.5972C101.671 23.8272 102.45 23.2314 103.404 22.8097C104.357 22.3697 105.411 22.1497 106.566 22.1497Z" fill="#1E4496"/>
<path d="M122.592 22.1497C124.755 22.1497 126.405 22.6722 127.542 23.7172C128.697 24.7439 129.274 26.3022 129.274 28.3922V36.9997H126.029V35.2122C125.607 35.8539 125.002 36.3489 124.214 36.6972C123.444 37.0272 122.509 37.1922 121.409 37.1922C120.309 37.1922 119.347 37.0089 118.522 36.6422C117.697 36.2572 117.055 35.7347 116.597 35.0747C116.157 34.3964 115.937 33.6356 115.937 32.7922C115.937 31.4722 116.422 30.4181 117.394 29.6297C118.384 28.8231 119.933 28.4197 122.042 28.4197H125.837V28.1997C125.837 27.1731 125.525 26.3847 124.902 25.8347C124.297 25.2847 123.389 25.0097 122.179 25.0097C121.354 25.0097 120.538 25.1381 119.732 25.3947C118.943 25.6514 118.274 26.0089 117.724 26.4672L116.377 23.9647C117.147 23.3781 118.072 22.9289 119.154 22.6172C120.236 22.3056 121.382 22.1497 122.592 22.1497ZM122.124 34.6897C122.986 34.6897 123.747 34.4972 124.407 34.1122C125.085 33.7089 125.562 33.1406 125.837 32.4072V30.7022H122.289C120.309 30.7022 119.319 31.3531 119.319 32.6547C119.319 33.2781 119.567 33.7731 120.062 34.1397C120.557 34.5064 121.244 34.6897 122.124 34.6897Z" fill="#1E4496"/>
<path d="M142.018 22.1497C143.87 22.1497 145.355 22.6906 146.473 23.7722C147.591 24.8539 148.151 26.4581 148.151 28.5847V36.9997H144.713V29.0247C144.713 27.7414 144.411 26.7789 143.806 26.1372C143.201 25.4772 142.339 25.1472 141.221 25.1472C139.956 25.1472 138.956 25.5322 138.223 26.3022C137.49 27.0539 137.123 28.1447 137.123 29.5747V36.9997H133.686V22.3147H136.958V24.2122C137.526 23.5339 138.241 23.0206 139.103 22.6722C139.965 22.3239 140.936 22.1497 142.018 22.1497Z" fill="#1E4496"/>
<path d="M171.046 22.1497C172.898 22.1497 174.365 22.6906 175.446 23.7722C176.528 24.8356 177.069 26.4397 177.069 28.5847V36.9997H173.631V29.0247C173.631 27.7414 173.347 26.7789 172.779 26.1372C172.21 25.4772 171.395 25.1472 170.331 25.1472C169.176 25.1472 168.25 25.5322 167.554 26.3022C166.857 27.0539 166.509 28.1356 166.509 29.5472V36.9997H163.071V29.0247C163.071 27.7414 162.787 26.7789 162.219 26.1372C161.65 25.4772 160.835 25.1472 159.771 25.1472C158.598 25.1472 157.663 25.5231 156.966 26.2747C156.288 27.0264 155.949 28.1172 155.949 29.5472V36.9997H152.511V22.3147H155.784V24.1847C156.334 23.5247 157.021 23.0206 157.846 22.6722C158.671 22.3239 159.588 22.1497 160.596 22.1497C161.696 22.1497 162.668 22.3606 163.511 22.7822C164.373 23.1856 165.051 23.7906 165.546 24.5972C166.151 23.8272 166.93 23.2314 167.884 22.8097C168.837 22.3697 169.891 22.1497 171.046 22.1497Z" fill="#1E4496"/>
<path d="M187.072 22.1497C189.235 22.1497 190.885 22.6722 192.021 23.7172C193.177 24.7439 193.754 26.3022 193.754 28.3922V36.9997H190.509V35.2122C190.087 35.8539 189.482 36.3489 188.694 36.6972C187.924 37.0272 186.989 37.1922 185.889 37.1922C184.789 37.1922 183.826 37.0089 183.001 36.6422C182.176 36.2572 181.535 35.7347 181.076 35.0747C180.636 34.3964 180.417 33.6356 180.417 32.7922C180.417 31.4722 180.902 30.4181 181.874 29.6297C182.864 28.8231 184.413 28.4197 186.521 28.4197H190.316V28.1997C190.316 27.1731 190.005 26.3847 189.382 25.8347C188.777 25.2847 187.869 25.0097 186.659 25.0097C185.834 25.0097 185.018 25.1381 184.212 25.3947C183.423 25.6514 182.754 26.0089 182.204 26.4672L180.856 23.9647C181.626 23.3781 182.552 22.9289 183.634 22.6172C184.716 22.3056 185.862 22.1497 187.072 22.1497ZM186.604 34.6897C187.466 34.6897 188.227 34.4972 188.887 34.1122C189.565 33.7089 190.041 33.1406 190.316 32.4072V30.7022H186.769C184.789 30.7022 183.799 31.3531 183.799 32.6547C183.799 33.2781 184.047 33.7731 184.542 34.1397C185.037 34.5064 185.724 34.6897 186.604 34.6897Z" fill="#1E4496"/>
<path d="M201.438 24.4597C202.428 22.9197 204.17 22.1497 206.663 22.1497V25.4222C206.37 25.3672 206.104 25.3397 205.866 25.3397C204.527 25.3397 203.482 25.7339 202.731 26.5222C201.979 27.2922 201.603 28.4106 201.603 29.8772V36.9997H198.166V22.3147H201.438V24.4597Z" fill="#1E4496"/>
<path d="M215.109 22.1497C217.272 22.1497 218.922 22.6722 220.059 23.7172C221.214 24.7439 221.791 26.3022 221.791 28.3922V36.9997H218.546V35.2122C218.124 35.8539 217.519 36.3489 216.731 36.6972C215.961 37.0272 215.026 37.1922 213.926 37.1922C212.826 37.1922 211.864 37.0089 211.039 36.6422C210.214 36.2572 209.572 35.7347 209.114 35.0747C208.674 34.3964 208.454 33.6356 208.454 32.7922C208.454 31.4722 208.939 30.4181 209.911 29.6297C210.901 28.8231 212.45 28.4197 214.559 28.4197H218.354V28.1997C218.354 27.1731 218.042 26.3847 217.419 25.8347C216.814 25.2847 215.906 25.0097 214.696 25.0097C213.871 25.0097 213.055 25.1381 212.249 25.3947C211.46 25.6514 210.791 26.0089 210.241 26.4672L208.894 23.9647C209.664 23.3781 210.589 22.9289 211.671 22.6172C212.753 22.3056 213.899 22.1497 215.109 22.1497ZM214.641 34.6897C215.503 34.6897 216.264 34.4972 216.924 34.1122C217.602 33.7089 218.079 33.1406 218.354 32.4072V30.7022H214.806C212.826 30.7022 211.836 31.3531 211.836 32.6547C211.836 33.2781 212.084 33.7731 212.579 34.1397C213.074 34.5064 213.761 34.6897 214.641 34.6897Z" fill="#1E4496"/>
<path d="M230.74 37.1922C229.549 37.1922 228.384 37.0364 227.248 36.7247C226.111 36.4131 225.204 36.0189 224.525 35.5422L225.845 32.9297C226.505 33.3697 227.294 33.7272 228.21 34.0022C229.145 34.2589 230.062 34.3872 230.96 34.3872C233.014 34.3872 234.04 33.8464 234.04 32.7647C234.04 32.2514 233.774 31.8939 233.243 31.6922C232.729 31.4906 231.895 31.2981 230.74 31.1147C229.53 30.9314 228.54 30.7206 227.77 30.4822C227.019 30.2439 226.359 29.8314 225.79 29.2447C225.24 28.6397 224.965 27.8056 224.965 26.7422C224.965 25.3489 225.543 24.2397 226.698 23.4147C227.871 22.5714 229.448 22.1497 231.428 22.1497C232.436 22.1497 233.444 22.2689 234.453 22.5072C235.461 22.7272 236.286 23.0297 236.928 23.4147L235.608 26.0272C234.361 25.2939 232.959 24.9272 231.4 24.9272C230.392 24.9272 229.622 25.0831 229.09 25.3947C228.577 25.6881 228.32 26.0822 228.32 26.5772C228.32 27.1272 228.595 27.5214 229.145 27.7597C229.714 27.9797 230.584 28.1906 231.758 28.3922C232.931 28.5756 233.894 28.7864 234.645 29.0247C235.397 29.2631 236.039 29.6664 236.57 30.2347C237.12 30.8031 237.395 31.6097 237.395 32.6547C237.395 34.0297 236.799 35.1297 235.608 35.9547C234.416 36.7797 232.794 37.1922 230.74 37.1922ZM230.135 43.2697C229.145 43.2697 228.302 43.0772 227.605 42.6922L228.238 41.0697C228.806 41.3631 229.429 41.5097 230.108 41.5097C231.079 41.5097 231.565 41.1797 231.565 40.5197C231.565 40.2447 231.446 40.0247 231.208 39.8597C230.969 39.6947 230.603 39.6122 230.108 39.6122H229.255L229.998 36.8072H231.868L231.483 38.3472C232.271 38.4389 232.867 38.6864 233.27 39.0897C233.674 39.5114 233.875 40.0339 233.875 40.6572C233.875 41.4456 233.536 42.0781 232.858 42.5547C232.179 43.0314 231.272 43.2697 230.135 43.2697Z" fill="#1E4496"/>
</svg>
