<svg id="Layer_1" data-name="Layer 1" xmlns="http://www.w3.org/2000/svg" viewBox="0 0 1062.49 145.71"><title>tekrom_logo</title><path d="M166.1,44.34H110.27V161.4H85.77V44.34h-56V19.64H166.1Z" transform="translate(-29.73 -17.56)" style="fill:#00a650"/><path d="M305.37,161.4H182.91V19.64H305.37v24.7H207.61V136.7h97.76Zm-6.43-59.57H218V77.13h80.95Z" transform="translate(-29.73 -17.56)" style="fill:#00a650"/><path d="M357.88,161.4h-24.7V19.64h24.7Zm118.52,0H440.07l-70.36-58.74q-7.27-6.23-7.26-11.42,0-5,7.26-11.21l70.36-60.4h36.32L391.92,91.87Z" transform="translate(-29.73 -17.56)" style="fill:#00a650"/><path d="M658.22,161.4H621.69L582,121.55H528.7V97.06h66.42q13.7,0,23-6Q628.74,84,628.74,70.91q0-26.57-33.62-26.57H514.17V161.4h-24.7V19.64h101.7q27.4,0,44.21,11.83,19.3,13.49,19.3,39.64,0,17.85-11.21,30.72-10.38,12-28.23,16.81Z" transform="translate(-29.73 -17.56)" style="fill:#1e4496"/><path d="M860.17,89q0,31.34-20.13,51.89T788.77,161.4H749.13q-30.93,0-51.16-20.55T677.73,89q0-31.13,20-50.23t51.37-19.1h39.64q31.55,0,51.47,19.1T860.17,89ZM835.68,91q0-20.55-13.18-33.62T788.77,44.34H749.13q-20.34,0-33.52,13.08T702.42,91q0,20.34,13.18,33t33.52,12.66h39.64q20.55,0,33.73-12.66T835.68,91Z" transform="translate(-29.73 -17.56)" style="fill:#1e4496"/><path d="M1092.22,161.61h-27.81L1043.86,62.4l-47.53,91.53q-4.78,9.34-13.28,9.34-9.55,0-14.53-9.55L921,62.4l-20.34,99.21h-28L904.38,31.47a19.22,19.22,0,0,1,5.5-9.76,13.7,13.7,0,0,1,9.86-4.15q8.09,0,15.36,13.91l47.32,92.78L1030,31.47q7.26-13.9,15.36-13.91a14.19,14.19,0,0,1,10,4.36,20.55,20.55,0,0,1,5.4,9.55Z" transform="translate(-29.73 -17.56)" style="fill:#1e4496"/></svg>