<svg width="373" height="274" viewBox="0 0 373 274" fill="none" xmlns="http://www.w3.org/2000/svg">
<rect width="373" height="274" fill="#EFEFEF"/>
<path d="M202.25 159.73V150.288C202.25 147.045 200.85 143.958 198.408 141.82L192.898 137L198.408 132.18C200.85 130.042 202.25 126.955 202.25 123.712V114.27C203.702 113.752 204.75 112.377 204.75 110.75C204.75 108.682 203.068 107 201 107H171C168.932 107 167.25 108.682 167.25 110.75C167.25 112.377 168.298 113.752 169.75 114.27V123.712C169.75 126.955 171.15 130.042 173.592 132.18L179.102 137L173.592 141.82C171.15 143.958 169.75 147.045 169.75 150.288V159.73C168.298 160.248 167.25 161.623 167.25 163.25C167.25 165.318 168.932 167 171 167H201C203.068 167 204.75 165.318 204.75 163.25C204.75 161.623 203.702 160.248 202.25 159.73ZM199.75 159.5H172.25V150.288C172.25 147.765 173.34 145.365 175.238 143.703L181.823 137.94C182.095 137.703 182.25 137.36 182.25 137C182.25 136.64 182.095 136.298 181.823 136.06L175.238 130.298C173.34 128.635 172.25 126.235 172.25 123.713V114.5H199.75V123.712C199.75 126.235 198.66 128.635 196.763 130.297L190.178 136.06C189.905 136.297 189.75 136.64 189.75 137C189.75 137.36 189.905 137.703 190.178 137.94L196.762 143.702C198.662 145.365 199.75 147.765 199.75 150.287V159.5Z" fill="white"/>
<path d="M196.978 154.97L186.978 142.47C186.503 141.877 185.5 141.877 185.025 142.47L175.025 154.97C174.725 155.345 174.668 155.86 174.875 156.292C175.083 156.725 175.52 157 176 157H196C196.48 157 196.918 156.725 197.128 156.292C197.335 155.86 197.278 155.345 196.978 154.97Z" fill="white"/>
<path d="M192.155 127.772C191.963 127.305 191.505 127 191 127H181C180.495 127 180.038 127.305 179.845 127.772C179.65 128.24 179.758 128.775 180.115 129.135L185.115 134.135C185.36 134.378 185.68 134.5 186 134.5C186.32 134.5 186.64 134.378 186.885 134.135L191.885 129.135C192.242 128.777 192.35 128.24 192.155 127.772Z" fill="white"/>
</svg>
