<svg width="70" height="70" viewBox="0 0 70 70" fill="none" xmlns="http://www.w3.org/2000/svg">
<path fill-rule="evenodd" clip-rule="evenodd" d="M27.544 8.4972C29.7504 7.26483 32.2932 6.5625 35 6.5625C37.7068 6.5625 40.2496 7.26483 42.456 8.4972L44.0704 6.88285C44.4975 6.45572 45.19 6.45572 45.6171 6.88285C46.0443 7.30999 46.0443 8.00251 45.6171 8.42965L44.3213 9.72551C47.9643 12.5247 50.3125 16.9256 50.3125 21.875H19.6875C19.6875 16.9256 22.0357 12.5247 25.6787 9.72551L24.3829 8.42965C23.9557 8.00251 23.9557 7.30999 24.3829 6.88285C24.81 6.45572 25.5025 6.45572 25.9296 6.88285L27.544 8.4972ZM30.625 15.3125C30.625 16.5206 29.6456 17.5 28.4375 17.5C27.2294 17.5 26.25 16.5206 26.25 15.3125C26.25 14.1044 27.2294 13.125 28.4375 13.125C29.6456 13.125 30.625 14.1044 30.625 15.3125ZM41.5625 17.5C42.7706 17.5 43.75 16.5206 43.75 15.3125C43.75 14.1044 42.7706 13.125 41.5625 13.125C40.3544 13.125 39.375 14.1044 39.375 15.3125C39.375 16.5206 40.3544 17.5 41.5625 17.5Z" fill="#87C527"/>
<path d="M10.9375 27.3438C10.9375 25.5316 12.4066 24.0625 14.2188 24.0625C16.0309 24.0625 17.5 25.5316 17.5 27.3438V40.4688C17.5 42.2809 16.0309 43.75 14.2188 43.75C12.4066 43.75 10.9375 42.2809 10.9375 40.4688V27.3438Z" fill="#87C527"/>
<path d="M26.25 52.5V60.1562C26.25 61.9684 27.7191 63.4375 29.5312 63.4375C31.3434 63.4375 32.8125 61.9684 32.8125 60.1562V52.5H37.1875V60.1562C37.1875 61.9684 38.6566 63.4375 40.4688 63.4375C42.2809 63.4375 43.75 61.9684 43.75 60.1562V52.5H45.9375C48.3537 52.5 50.3125 50.5412 50.3125 48.125V24.0625H19.6875V48.125C19.6875 50.5412 21.6463 52.5 24.0625 52.5H26.25Z" fill="#87C527"/>
<path d="M52.5 27.3438C52.5 25.5316 53.9691 24.0625 55.7812 24.0625C57.5934 24.0625 59.0625 25.5316 59.0625 27.3438V40.4688C59.0625 42.2809 57.5934 43.75 55.7812 43.75C53.9691 43.75 52.5 42.2809 52.5 40.4688V27.3438Z" fill="#87C527"/>
</svg>
