<svg width="62" height="57" viewBox="0 0 62 57" fill="none" xmlns="http://www.w3.org/2000/svg">
<path d="M1.98779 0.000168871C1.40804 -0.00755255 0.854659 0.249851 0.476089 0.70333C0.0975182 1.15681 -0.0674913 1.75995 0.025324 2.35095L8.35597 54.5747C8.57022 55.8939 9.67079 56.8637 10.966 56.8748H50.9316C51.9038 56.8877 52.7385 56.1636 52.894 55.1725L61.2247 2.36108C61.3175 1.77008 61.1525 1.16694 60.7739 0.713462C60.3953 0.259983 59.842 0.00258011 59.2622 0.0103015L1.98779 0.000168871ZM37.0668 37.7443H24.3108L20.8568 19.1104H40.1577L37.0668 37.7443Z" fill="#2684FF"/>
<path fill-rule="evenodd" clip-rule="evenodd" d="M58.5753 19.1113H40.1576L37.0667 37.7453H24.3107L9.24884 56.207C9.72624 56.6333 10.3349 56.8703 10.966 56.8758H50.9413C51.9135 56.8887 52.7483 56.1646 52.9038 55.1735L58.5753 19.1113Z" fill="url(#paint0_linear)"/>
<defs>
<linearGradient id="paint0_linear" x1="62.8338" y1="24.3297" x2="40.6348" y2="54.8528" gradientUnits="userSpaceOnUse">
<stop offset="0.18" stop-color="#0052CC"/>
<stop offset="1" stop-color="#2684FF"/>
</linearGradient>
</defs>
</svg>
