<svg width="70" height="70" viewBox="0 0 70 70" fill="none" xmlns="http://www.w3.org/2000/svg">
<path d="M60.5821 50.3123C60.994 49.5725 61.25 48.739 61.25 47.9906V22.0091C61.25 21.2606 60.9944 20.4273 60.5823 19.6875C60.1701 18.9476 59.6017 18.3013 58.9767 17.927L37.2733 4.93636C36.0231 4.18788 33.9769 4.18788 32.7267 4.93636L11.0233 17.927C9.77289 18.6753 8.75 20.5124 8.75 22.0092V47.9907C8.75 48.7391 9.00586 49.5728 9.41797 50.3126C9.82991 51.0524 10.3983 51.6988 11.0233 52.0728L32.7268 65.0635C33.977 65.812 36.0231 65.812 37.2733 65.0635L58.9768 52.0728C59.602 51.6986 60.1701 51.0523 60.5821 50.3123Z" fill="#662579"/>
<path d="M60.5821 50.3123C60.994 49.5725 61.25 48.739 61.25 47.9906V22.0091C61.25 21.2606 60.9944 20.4273 60.5823 19.6875L35 34.9999L60.5821 50.3123Z" fill="#7F3A86"/>
<path d="M60.5823 19.6874C60.1702 18.9475 59.6017 18.3013 58.9767 17.927L37.2733 4.93636C36.0231 4.18788 33.9769 4.18788 32.7267 4.93636L11.0233 17.927C9.77289 18.6753 8.75 20.5124 8.75 22.0092V47.9907C8.75 48.7391 9.00581 49.5726 9.41792 50.3124L35 35L60.5823 19.6874Z" fill="#9A5196"/>
<path d="M35.0842 52.5C25.3882 52.5 17.5 44.6495 17.5 35C17.5 25.3505 25.3882 17.5 35.0842 17.5C41.2252 17.5 46.96 20.7281 50.1354 25.9476L42.6049 30.4641C41.0139 27.8599 38.1498 26.25 35.0842 26.25C30.2361 26.25 26.2921 30.1751 26.2921 35C26.2921 39.8247 30.2361 43.75 35.0842 43.75C38.1416 43.75 40.9983 42.149 42.5921 39.557L50.1386 44.0473C46.9638 49.2699 41.2272 52.5 35.0842 52.5Z" fill="white"/>
<path fill-rule="evenodd" clip-rule="evenodd" d="M54.6876 28.4375V30.6192H50.3124V28.4375H48.1251V30.6192H45.9375V32.8125H48.1251V37.176H45.9375V39.375H48.1251V41.5625H50.3124L50.3125 39.375H54.6876V41.5625H56.8749V39.375H59.0625V37.1874H56.8749V32.8125H59.0625V30.6192H56.8749V28.4375H54.6876ZM54.6876 37.1874V32.8125H50.3124V37.176L54.6876 37.1874Z" fill="white"/>
</svg>
