<svg width="70" height="70" viewBox="0 0 70 70" fill="none" xmlns="http://www.w3.org/2000/svg">
<path d="M14.2758 55.7233L2.3004 43.7479C0.880018 42.2915 0 40.233 0 38.2207C0 37.2893 0.524923 35.8329 0.921188 34.9992L11.9754 11.9746L14.2758 55.7233Z" fill="#01579B"/>
<path d="M55.2661 14.2758L43.2907 2.3004C42.246 1.25055 40.0691 0 38.2267 0C36.6417 0 35.0875 0.319071 34.084 0.921188L11.9806 11.9754L55.2661 14.2758Z" fill="#40C4FF"/>
<path d="M28.5516 69.9992H57.5665V57.5658L35.9211 50.6543L16.1182 57.5658L28.5516 69.9992Z" fill="#40C4FF"/>
<path d="M11.9755 49.275C11.9755 52.9701 12.4386 53.8758 14.2759 55.7233L16.1182 57.5657H57.5666L37.3056 34.5411L11.9755 11.9746V49.275Z" fill="#29B6F6"/>
<path d="M48.8178 11.9707H11.9755L57.5665 57.5618H70V29.0101L55.261 14.2711C53.1922 12.1971 51.355 11.9707 48.8178 11.9707Z" fill="#01579B"/>
<path opacity="0.2" d="M14.739 56.1813C12.8966 54.3338 12.4386 52.512 12.4386 49.275V12.4326L11.9806 11.9746V49.275C11.9754 52.512 11.9754 53.4075 14.739 56.1813L16.1182 57.5606L14.739 56.1813Z" fill="white"/>
<path opacity="0.2" d="M69.542 28.5527V57.1044H57.1085L57.5665 57.5676H70V29.0108L69.542 28.5527Z" fill="#263238"/>
<path opacity="0.2" d="M55.2661 14.275C52.9812 11.99 51.1131 11.9746 48.3598 11.9746H11.9806L12.4386 12.4326H48.3598C49.7339 12.4326 53.2025 12.201 55.2661 14.275Z" fill="white"/>
<path opacity="0.2" d="M69.5419 28.5517L55.2661 14.2758L43.2906 2.3004C42.2459 1.25055 40.069 0 38.2267 0C36.6416 0 35.0874 0.319071 34.0839 0.921188L11.9805 11.9754L0.926254 35C0.529989 35.8388 0.00506592 37.2952 0.00506592 38.2216C0.00506592 40.2338 0.89023 42.2872 2.30546 43.7487L13.3391 54.7052C13.6016 55.0294 13.9104 55.3588 14.2758 55.7242L14.7338 56.1822L16.113 57.5614L28.0884 69.5368L28.5465 69.9949H57.0981H57.5562V57.5614H69.9896V57.5305V29.0097L69.5419 28.5517Z" fill="url(#paint0_radial)"/>
<defs>
<radialGradient id="paint0_radial" cx="0" cy="0" r="1" gradientUnits="userSpaceOnUse" gradientTransform="translate(34.9973 34.9986) scale(34.9949)">
<stop stop-color="white" stop-opacity="0.1"/>
<stop offset="1" stop-color="white" stop-opacity="0"/>
</radialGradient>
</defs>
</svg>
