<svg width="70" height="70" viewBox="0 0 70 70" fill="none" xmlns="http://www.w3.org/2000/svg">
<circle cx="35" cy="35" r="30.625" fill="#1794D4"/>
<path d="M39.375 15.3125H35V19.6875H39.375V15.3125Z" fill="white"/>
<path d="M21.875 21.875H26.25V26.25H21.875V21.875Z" fill="white"/>
<path d="M13.1284 37.0593C13.5022 43.4059 17.2818 52.5 30.625 52.5C45.5 52.5 52.1354 41.5625 53.5937 36.0938C55.4167 36.0938 59.5 35 61.25 30.625C60.1562 29.5312 55.7812 29.5312 53.5937 30.625C53.5937 28.875 52.5 25.1562 50.3125 24.0625C48.8542 25.5208 46.5937 29.3125 49.2187 32.8125C48.125 35 45.2084 35 43.7501 35H15.1876C14.0294 35 13.0603 35.9031 13.1284 37.0593Z" fill="white"/>
<path d="M19.6875 28.4375H15.3125V32.8125H19.6875V28.4375Z" fill="white"/>
<path d="M21.875 28.4375H26.25V32.8125H21.875V28.4375Z" fill="white"/>
<path d="M32.8125 28.4375H28.4375V32.8125H32.8125V28.4375Z" fill="white"/>
<path d="M35 28.4375H39.375V32.8125H35V28.4375Z" fill="white"/>
<path d="M45.9375 28.4375H41.5625V32.8125H45.9375V28.4375Z" fill="white"/>
<path d="M32.8125 21.875H28.4375V26.25H32.8125V21.875Z" fill="white"/>
<path d="M35 21.875H39.375V26.25H35V21.875Z" fill="white"/>
</svg>
