<svg width="70" height="70" viewBox="0 0 70 70" fill="none" xmlns="http://www.w3.org/2000/svg">
<path d="M70 36.6935C70 30.8107 66.3609 25.6409 60.8876 23.6503C61.1243 22.4024 61.2426 21.1545 61.2426 19.8769C61.2426 8.91342 52.3669 0 41.4793 0C35.0888 0 29.1716 3.06028 25.4438 8.23005C23.6095 6.80391 21.3609 6.03141 19.0237 6.03141C13.2249 6.03141 8.52071 10.7555 8.52071 16.579C8.52071 17.8565 8.7574 19.1044 9.1716 20.2632C3.72781 22.2241 0 27.483 0 33.3362C0 39.2487 3.66864 44.4185 9.14201 46.4092C8.90532 47.6273 8.78698 48.9049 8.78698 50.1825C8.78698 61.1163 17.6331 70 28.5207 70C34.9112 70 40.8284 66.91 44.5266 61.7402C46.3609 63.1961 48.6095 63.9983 50.9467 63.9983C56.7456 63.9983 61.4497 59.2742 61.4497 53.4508C61.4497 52.1732 61.213 50.9253 60.7988 49.7665C66.2426 47.8056 70 42.5467 70 36.6935Z" fill="white"/>
<path d="M27.5147 30.1552L42.8402 37.1671L58.284 23.5593C58.5207 22.4302 58.6094 21.3309 58.6094 20.1425C58.6094 10.5754 50.8579 2.79102 41.3313 2.79102C35.6213 2.79102 30.3254 5.61359 27.1005 10.3377L24.5266 23.7375L27.5147 30.1552Z" fill="#FED10A"/>
<path d="M11.6568 46.4387C11.4201 47.5677 11.3314 48.7265 11.3314 49.9149C11.3314 59.5117 19.1125 67.2961 28.6687 67.2961C34.4083 67.2961 39.7633 64.4438 42.9882 59.69L45.5326 46.3496L42.1302 39.8131L26.7456 32.7715L11.6568 46.4387Z" fill="#24BBB1"/>
<path d="M11.568 19.816L22.071 22.3118L24.3787 10.3381C22.9585 9.23876 21.1834 8.64453 19.3491 8.64453C14.7929 8.64453 11.065 12.3585 11.065 16.9637C11.065 17.9442 11.2426 18.9247 11.568 19.816Z" fill="#EF5098"/>
<path d="M10.6509 22.3418C5.97636 23.8868 2.69234 28.4029 2.69234 33.3647C2.69234 38.2077 5.6805 42.5158 10.148 44.2391L24.8817 30.869L22.1894 25.0752L10.6509 22.3418Z" fill="#17A8E0"/>
<path d="M45.6509 59.6901C47.1006 60.7894 48.8462 61.4133 50.6509 61.4133C55.2071 61.4133 58.9349 57.6994 58.9349 53.0941C58.9349 52.084 58.7574 51.1035 58.432 50.2121L47.9586 47.7461L45.6509 59.6901Z" fill="#93C83E"/>
<path d="M47.781 44.9846L59.3195 47.6883C64.0236 46.1433 67.2781 41.6272 67.2781 36.6357C67.2781 31.8224 64.2899 27.4846 59.8225 25.791L44.7337 39.072L47.781 44.9846Z" fill="#0779A1"/>
</svg>
