<svg width="46" height="70" viewBox="0 0 46 70" fill="none" xmlns="http://www.w3.org/2000/svg">
<path d="M11.5 69.4532C17.848 69.4532 23 64.3081 23 57.9688V46.4844H11.5C5.152 46.4844 0 51.6294 0 57.9688C0 64.3081 5.152 69.4532 11.5 69.4532Z" fill="#0ACF83"/>
<path d="M0 35C0 28.6606 5.152 23.5156 11.5 23.5156H23V46.4844H11.5C5.152 46.4844 0 41.3394 0 35Z" fill="#A259FF"/>
<path d="M0.000427246 12.0313C0.000427246 5.69188 5.15243 0.546875 11.5004 0.546875H23.0004V23.5156H11.5004C5.15243 23.5156 0.000427246 18.3706 0.000427246 12.0313Z" fill="#F24E1E"/>
<path d="M23.0004 0.546875H34.5004C40.8484 0.546875 46.0004 5.69188 46.0004 12.0313C46.0004 18.3706 40.8484 23.5156 34.5004 23.5156H23.0004V0.546875Z" fill="#FF7262"/>
<path d="M46.0004 35C46.0004 41.3394 40.8484 46.4844 34.5004 46.4844C28.1524 46.4844 23.0004 41.3394 23.0004 35C23.0004 28.6606 28.1524 23.5156 34.5004 23.5156C40.8484 23.5156 46.0004 28.6606 46.0004 35Z" fill="#1ABCFE"/>
</svg>
