<svg width="70" height="70" viewBox="0 0 70 70" fill="none" xmlns="http://www.w3.org/2000/svg">
<path d="M1.4634 38.533C-0.487802 36.5818 -0.487799 33.4182 1.4634 31.467L31.467 1.4634C33.4182 -0.487802 36.5818 -0.487799 38.533 1.4634L68.5366 31.467C70.4878 33.4182 70.4878 36.5818 68.5366 38.533L38.533 68.5366C36.5818 70.4878 33.4182 70.4878 31.467 68.5366L1.4634 38.533Z" fill="#EE513B"/>
<path d="M25.3203 7.60156L22.2819 10.6399L30.1817 18.5399C29.8643 19.221 29.6871 19.9805 29.6871 20.7814C29.6871 23.0554 31.1158 24.9957 33.1246 25.7536V44.9499C31.1158 45.7078 29.6871 47.6481 29.6871 49.9221C29.6871 52.8561 32.0656 55.2346 34.9996 55.2346C37.9336 55.2346 40.3121 52.8561 40.3121 49.9221C40.3121 47.8604 39.1377 46.0731 37.4215 45.1925V25.7796L44.9228 33.2809C44.6208 33.9482 44.4527 34.6889 44.4527 35.4689C44.4527 38.403 46.8312 40.7814 49.7652 40.7814C52.6992 40.7814 55.0777 38.403 55.0777 35.4689C55.0777 32.5349 52.6992 30.1564 49.7652 30.1564C49.195 30.1564 48.6459 30.2463 48.131 30.4125L40.0748 22.3563C40.229 21.8587 40.3121 21.3297 40.3121 20.7814C40.3121 17.8474 37.9336 15.4689 34.9996 15.4689C34.4513 15.4689 33.9224 15.552 33.4248 15.7062L25.3203 7.60156Z" fill="white"/>
</svg>
