<svg width="69" height="67" viewBox="0 0 69 67" fill="none" xmlns="http://www.w3.org/2000/svg">
<path d="M23.0788 53.9483C23.0788 54.2254 22.7589 54.4471 22.3554 54.4471C21.8964 54.4886 21.5764 54.2669 21.5764 53.9483C21.5764 53.6712 21.8964 53.4495 22.2998 53.4495C22.7171 53.408 23.0788 53.6297 23.0788 53.9483ZM18.7524 53.3249C18.655 53.6019 18.9333 53.9206 19.3506 54.0037C19.7123 54.1423 20.1296 54.0037 20.2131 53.7266C20.2966 53.4495 20.0323 53.1309 19.6149 53.0062C19.2532 52.9092 18.8498 53.0478 18.7524 53.3249ZM24.9012 53.0893C24.4978 53.1863 24.2196 53.4495 24.2613 53.7682C24.303 54.0453 24.6647 54.2254 25.0821 54.1284C25.4855 54.0314 25.7637 53.7682 25.722 53.4911C25.6802 53.2279 25.3046 53.0478 24.9012 53.0893ZM34.0548 0C14.7599 0 0 14.5885 0 33.8043C0 49.1686 9.71008 62.3162 23.5796 66.9436C25.3603 67.2622 25.9863 66.1677 25.9863 65.2672C25.9863 64.4082 25.9446 59.6701 25.9446 56.7607C25.9446 56.7607 16.2067 58.8388 14.1617 52.6321C14.1617 52.6321 12.5758 48.6006 10.2944 47.5615C10.2944 47.5615 7.10867 45.3864 10.5169 45.428C10.5169 45.428 13.9808 45.705 15.8867 49.0023C18.9333 54.3501 24.0387 52.8123 26.028 51.8979C26.348 49.6812 27.2522 48.1434 28.2538 47.229C20.4774 46.37 12.6315 45.2479 12.6315 31.9201C12.6315 28.1102 13.6887 26.1983 15.9145 23.76C15.5528 22.8594 14.3704 19.1465 16.2762 14.353C19.1837 13.4524 25.875 18.0936 25.875 18.0936C28.6573 17.3178 31.6482 16.916 34.6113 16.916C37.5744 16.916 40.5653 17.3178 43.3476 18.0936C43.3476 18.0936 50.0389 13.4386 52.9464 14.353C54.8522 19.1604 53.6698 22.8594 53.3081 23.76C55.5339 26.2122 56.8972 28.124 56.8972 31.9201C56.8972 45.2894 48.7034 46.3562 40.927 47.229C42.2069 48.3235 43.2919 50.4016 43.2919 53.6574C43.2919 58.3262 43.2502 64.1034 43.2502 65.2395C43.2502 66.14 43.8901 67.2345 45.6569 66.9158C59.5681 62.3162 69 49.1686 69 33.8043C69 14.5885 53.3498 0 34.0548 0ZM13.5218 47.7832C13.3409 47.9217 13.3827 48.2404 13.6192 48.5036C13.8417 48.7253 14.1617 48.8222 14.3425 48.6421C14.5234 48.5036 14.4817 48.1849 14.2452 47.9217C14.0226 47.7 13.7026 47.6031 13.5218 47.7832ZM12.0194 46.661C11.922 46.8411 12.0611 47.0628 12.3393 47.2013C12.5619 47.3398 12.8401 47.2983 12.9375 47.1043C13.0349 46.9242 12.8958 46.7025 12.6175 46.564C12.3393 46.4809 12.1167 46.5224 12.0194 46.661ZM16.5266 51.5931C16.304 51.7732 16.3875 52.1888 16.7075 52.452C17.0274 52.7707 17.4308 52.8123 17.6117 52.5906C17.7925 52.4105 17.7091 51.9949 17.4308 51.7316C17.1248 51.413 16.7075 51.3714 16.5266 51.5931ZM14.9407 49.5565C14.7181 49.6951 14.7181 50.0553 14.9407 50.3739C15.1633 50.6926 15.5389 50.8311 15.7198 50.6926C15.9423 50.5125 15.9423 50.1522 15.7198 49.8336C15.525 49.515 15.1633 49.3764 14.9407 49.5565Z" fill="black"/>
</svg>
