<svg width="69" height="69" viewBox="0 0 69 69" fill="none" xmlns="http://www.w3.org/2000/svg">
<path fill-rule="evenodd" clip-rule="evenodd" d="M38.6097 29.3845C37.8783 29.5891 37.1366 29.7966 36.2781 30.03C35.8586 30.1487 35.7632 30.1756 35.3729 29.7012C34.9048 29.1423 34.5615 28.7806 33.906 28.4518C31.9397 27.4326 30.0359 27.7285 28.2569 28.945C26.1345 30.3916 25.0421 32.5287 25.0734 35.1918C25.1046 37.8221 26.8212 39.992 29.2868 40.3537C31.4092 40.6496 33.1882 39.8605 34.5927 38.1837C34.8734 37.8222 35.1234 37.4273 35.4354 36.9672H29.4117C28.7562 36.9672 28.6002 36.5398 28.8187 35.9809C29.2244 34.9617 29.9735 33.252 30.4104 32.3972C30.504 32.1999 30.7225 31.8711 31.1907 31.8711H41.2345C41.6855 30.3652 42.4176 28.9423 43.3941 27.5959C45.6725 24.4396 48.4191 22.7957 52.1332 22.1052C55.3167 21.5134 58.3129 21.8422 61.0283 23.782C63.4939 25.5574 65.0232 27.9575 65.429 31.1138C65.9596 35.5524 64.7423 39.169 61.8397 42.2595C59.7798 44.4623 57.2517 45.8432 54.3491 46.4679C53.7954 46.5759 53.2418 46.6271 52.6969 46.6775C52.4125 46.7039 52.1306 46.73 51.8523 46.7638C49.0121 46.698 46.4216 45.8432 44.2368 43.8705C42.7004 42.4715 41.642 40.752 41.116 38.7504C40.7509 39.527 40.3144 40.2708 39.8049 40.9784C37.5577 44.1018 34.6239 46.0416 30.9098 46.5676C27.8511 46.995 25.0109 46.3704 22.5141 44.3977C20.2045 42.5565 18.8936 40.1235 18.5503 37.0987C18.1445 33.515 19.1433 30.293 21.2032 27.4655C23.4192 24.4078 26.353 22.468 29.9423 21.7776C32.8761 21.2186 35.685 21.5803 38.2131 23.3886C39.8673 24.5393 41.0533 26.1175 41.8336 28.0244C42.0208 28.3203 41.896 28.4847 41.5215 28.5833C40.4276 28.876 39.5267 29.128 38.6097 29.3845ZM59.2588 33.1294C59.2649 33.2399 59.2713 33.3562 59.2804 33.481C59.1244 36.3086 57.7823 38.4128 55.3167 39.7608C53.6625 40.6485 51.9459 40.7471 50.2293 39.958C47.9821 38.9059 46.7961 36.3086 47.3579 33.7441C48.0445 30.6535 49.9172 28.7137 52.8198 28.0233C55.7848 27.3 58.625 29.1411 59.1868 32.3961C59.231 32.6289 59.2439 32.8616 59.2588 33.1294Z" fill="#00ACD7"/>
<path d="M8.19408 29.0109C8.13166 29.1095 8.16287 29.1753 8.28771 29.1753L17.5828 29.2081C17.6764 29.2081 17.8325 29.1095 17.8949 29.0109L18.4255 28.156C18.4879 28.0574 18.4567 27.9588 18.3319 27.9588H9.19282C9.06798 27.9588 8.91193 28.0245 8.8495 28.1232L8.19408 29.0109Z" fill="#00ACD7"/>
<path d="M3.48122 32.0355C3.4188 32.1341 3.45001 32.1999 3.57486 32.1999L16.3344 32.167C16.4592 32.167 16.584 32.1013 16.6153 31.9697L16.8649 31.1807C16.8962 31.082 16.8337 30.9834 16.7089 30.9834H4.47997C4.35513 30.9834 4.19907 31.0492 4.13665 31.1478L3.48122 32.0355Z" fill="#00ACD7"/>
<path d="M11.0342 35.0275C10.9718 35.1262 11.003 35.2248 11.1279 35.2248L15.9286 35.2577C16.0222 35.2577 16.1471 35.159 16.1471 35.0275L16.2095 34.2384C16.2095 34.1069 16.1471 34.0083 16.0222 34.0083H11.7833C11.6584 34.0083 11.5336 34.1069 11.4712 34.2056L11.0342 35.0275Z" fill="#00ACD7"/>
</svg>
