<svg width="69" height="69" viewBox="0 0 69 69" fill="none" xmlns="http://www.w3.org/2000/svg">
<path d="M64.6875 34.5C64.6875 51.1635 51.1786 64.6875 34.5 64.6875C17.8214 64.6875 4.3125 51.1635 4.3125 34.5C4.3125 17.8214 17.8214 4.3125 34.5 4.3125C51.1786 4.3125 64.6875 17.8214 64.6875 34.5Z" fill="#283544"/>
<path d="M15.2791 44.9349H18.5762V29.6362H15.2791V44.9349ZM16.9211 27.63C17.9406 27.63 18.7616 26.7641 18.7616 25.6816C18.7616 24.5703 17.9406 23.7188 16.9211 23.7188C15.9147 23.7188 15.0938 24.5703 15.0938 25.6816C15.0938 26.7641 15.9147 27.63 16.9211 27.63Z" fill="white"/>
<path d="M30.0962 23.762C24.5216 23.762 21.0259 27.9042 21.0259 34.5289C21.0259 41.1535 24.5216 45.2812 30.0962 45.2812C35.6576 45.2812 39.1533 41.1535 39.1533 34.5289C39.1533 27.9042 35.6576 23.762 30.0962 23.762ZM30.0962 26.9372C33.4992 26.9372 35.6708 29.8815 35.6708 34.5289C35.6708 39.1618 33.4992 42.106 30.0962 42.106C26.6799 42.106 24.5216 39.1618 24.5216 34.5289C24.5216 29.8815 26.6799 26.9372 30.0962 26.9372Z" fill="white"/>
<path d="M41.0998 39.0752C41.2454 42.9143 44.132 45.2812 48.5282 45.2812C53.1494 45.2812 56.0625 42.7988 56.0625 38.8443C56.0625 35.7412 54.4206 33.9949 50.5409 33.0279L48.3428 32.4794C45.9991 31.8732 45.0325 31.065 45.0325 29.6795C45.0325 27.9475 46.489 26.7929 48.6473 26.7929C50.8322 26.7929 52.3284 27.962 52.4873 29.9104H55.7447C55.6653 26.2445 52.8846 23.762 48.6738 23.762C44.516 23.762 41.5632 26.2589 41.5632 29.9537C41.5632 32.9268 43.2316 34.7742 46.7538 35.6546L49.23 36.2897C51.6399 36.9103 52.6197 37.7762 52.6197 39.2772C52.6197 41.0092 51.0175 42.2504 48.7135 42.2504C46.3831 42.2504 44.622 40.9947 44.4101 39.0752H41.0998Z" fill="white"/>
</svg>
