<svg width="70" height="70" viewBox="0 0 70 70" fill="none" xmlns="http://www.w3.org/2000/svg">
<g clip-path="url(#clip0)">
<path d="M35.1078 18.4639C49.5193 7.27578 42.1229 0 42.1229 0C43.2236 11.5662 30.2149 14.2971 26.7279 22.2451C24.3485 27.6685 28.3572 32.4173 35.103 38.4024C34.5066 37.0768 33.5869 35.7888 32.6557 34.4848C29.4798 30.0372 26.1714 25.4039 35.1078 18.4639Z" fill="#E76F00"/>
<path d="M37.4085 40.856C37.4085 40.856 41.7443 37.3578 38.3107 33.4704C26.6714 20.2822 51.0407 14.2971 51.0407 14.2971C36.1622 21.4648 38.3834 25.7194 42.123 30.8879C46.127 36.4301 37.4085 40.856 37.4085 40.856Z" fill="#E76F00"/>
<path d="M50.1748 51.2867C63.5301 44.4622 57.3551 37.904 53.0451 38.7875C51.9887 39.0037 51.5176 39.1911 51.5176 39.1911C51.5176 39.1911 51.9098 38.587 52.6588 38.3255C61.1855 35.3776 67.743 47.0197 49.9063 51.6306C49.9063 51.6308 50.113 51.4491 50.1748 51.2867Z" fill="#5382A1"/>
<path d="M22.3848 42.649C14.0287 41.5517 26.9663 38.5299 26.9663 38.5299C26.9663 38.5299 21.9421 38.1967 15.763 41.134C8.45638 44.6095 33.8364 46.1902 46.9743 42.7924C48.3402 41.8753 50.2281 41.0802 50.2281 41.0802C50.2281 41.0802 44.8519 42.0245 39.4977 42.4687C32.9463 43.0085 25.913 43.1136 22.3848 42.649Z" fill="#5382A1"/>
<path d="M25.5639 49.1653C20.9043 48.6914 23.9553 46.4705 23.9553 46.4705C11.8978 50.4059 30.6638 54.8685 47.5122 50.0238C45.7214 49.4029 44.5825 48.2675 44.5825 48.2675C36.3482 49.8266 31.5896 49.7766 25.5639 49.1653Z" fill="#5382A1"/>
<path d="M27.5942 56.2164C22.938 55.69 25.6583 54.1344 25.6583 54.1344C14.713 57.1418 32.3158 63.355 46.2509 57.482C43.9685 56.6092 42.3342 55.6015 42.3342 55.6015C36.118 56.7585 33.235 56.8492 27.5942 56.2164Z" fill="#5382A1"/>
<path d="M56.7408 59.8031C56.7408 59.8031 58.7538 61.4341 54.5238 62.696C46.4803 65.0921 21.0458 65.8157 13.9802 62.7914C11.4403 61.7049 16.2033 60.197 17.7016 59.8806C19.2641 59.5474 20.1571 59.6095 20.1571 59.6095C17.3324 57.6528 1.89982 63.4516 12.3181 65.1123C40.7301 69.6433 64.1105 63.072 56.7408 59.8031Z" fill="#5382A1"/>
<path d="M61.25 63.3668C60.7838 69.3317 41.0981 70.5863 28.2787 69.7794C19.9157 69.252 18.2396 67.934 18.2151 67.9148C26.2191 69.2124 39.7138 69.4486 50.6555 67.4238C60.3538 65.628 61.25 63.3668 61.25 63.3668Z" fill="#5382A1"/>
</g>
<defs>
<clipPath id="clip0">
<rect width="70" height="70" fill="white"/>
</clipPath>
</defs>
</svg>
