<svg width="70" height="70" viewBox="0 0 70 70" fill="none" xmlns="http://www.w3.org/2000/svg">
<circle cx="35" cy="35" r="30.625" fill="#0769AD"/>
<path d="M49.5629 29.3588C52.3124 29.3588 54.8301 28.4417 56.7766 26.9208C54.7559 29.5834 51.4078 31.3242 47.6195 31.3242C41.4481 31.3242 36.4452 26.7044 36.4452 21.0056C36.4452 17.8458 37.9833 15.0178 40.4057 13.125C39.1346 14.7999 38.3886 16.8396 38.3886 19.0402C38.3886 24.739 43.3915 29.3588 49.5629 29.3588Z" fill="#78CFF5"/>
<path d="M56.6701 36.4407C53.7057 38.7661 49.8681 40.1687 45.6761 40.1687C36.2849 40.1687 28.6718 33.129 28.6718 24.4451C28.6718 21.077 29.8171 17.9563 31.7671 15.3977C28.0903 18.2819 25.7568 22.5856 25.7568 27.3933C25.7568 36.0772 33.3699 43.1169 42.7611 43.1169C48.5099 43.1169 53.5924 40.4789 56.6701 36.4407Z" fill="#78CFF5"/>
<path d="M56.875 45.4346C52.6507 49.4656 46.7987 51.9614 40.3319 51.9614C27.4525 51.9614 17.0117 42.0618 17.0117 29.8501C17.0117 25.9805 18.0601 22.3431 19.9022 19.1793C15.7133 23.1766 13.125 28.6836 13.125 34.7637C13.125 46.9754 23.5658 56.875 36.4452 56.875C45.2435 56.875 52.9038 52.2553 56.875 45.4346Z" fill="#78CFF5"/>
</svg>
