<svg width="70" height="70" viewBox="0 0 70 70" fill="none" xmlns="http://www.w3.org/2000/svg">
<rect width="70" height="70" fill="#FFCA28"/>
<path d="M42.5 58.2192L47.6538 54.8089C48.0577 56.0778 50.6154 59.0915 53.8462 59.0915C57.0769 59.0915 58.5769 57.3269 58.5769 56.1571C58.5769 52.9691 55.2779 51.8451 53.6934 51.3053C53.4351 51.2173 53.2224 51.1448 53.0769 51.0814C53.0024 51.0489 52.8895 51.0058 52.7447 50.9505C50.9824 50.2772 44.4808 47.7932 44.4808 40.5929C44.4808 32.662 52.1346 31.75 53.8654 31.75C54.9977 31.75 60.4423 31.8888 63.1538 36.9844L58.1538 40.4739C57.0577 38.2533 55.2365 37.5197 54.1154 37.5197C51.3462 37.5197 50.7692 39.5499 50.7692 40.4739C50.7692 43.067 53.7779 44.2292 56.3183 45.2105C56.983 45.4673 57.6156 45.7116 58.1538 45.966C60.9231 47.2746 65 49.4159 65 56.1571C65 59.5336 62.168 65 55.0385 65C45.4615 65 42.9231 59.2502 42.5 58.2192Z" fill="#3E3E3E"/>
<path d="M17.5 58.8964L22.8717 55.4878C23.2926 56.7561 24.9282 59.0945 27.3013 59.0945C29.6745 59.0945 30.8891 56.657 30.8891 55.4878V32.5H37.4955V55.4878C37.6024 58.6586 35.8439 65 28.083 65C20.9475 65 17.981 60.7592 17.5 58.8964Z" fill="#3E3E3E"/>
</svg>
