<svg width="69" height="69" viewBox="0 0 69 69" fill="none" xmlns="http://www.w3.org/2000/svg">
<path d="M64.6875 34.5C64.6875 51.1635 51.1786 64.6875 34.5 64.6875C17.8214 64.6875 4.3125 51.1635 4.3125 34.5C4.3125 17.8214 17.8214 4.3125 34.5 4.3125C51.1786 4.3125 64.6875 17.8214 64.6875 34.5Z" fill="white"/>
<path d="M24.3792 47.2435C24.1091 46.8406 23.8726 46.2975 23.6807 45.6476C20.2164 41.7407 22.8927 35.9914 25.54 32.0872C25.7937 31.6698 26.0702 31.2664 26.3707 30.8808C28.3904 28.3713 28.913 26.625 29.0683 24.2623C29.0868 23.8225 29.0504 23.2402 29.0086 22.5712C28.7949 19.1555 28.4399 13.4803 34.5343 12.9772C42.1522 12.3482 41.5317 19.3438 41.4754 23.4453C41.4731 23.615 41.4708 23.7803 41.4691 23.9395C41.4484 26.4119 42.7388 28.1047 44.0857 29.8717C44.5775 30.517 45.0769 31.1721 45.5227 31.8787C45.5359 31.8996 45.5491 31.9206 45.5622 31.9417C47.9158 35.3359 50.2392 40.4016 47.0052 45.2063C46.5507 46.8464 45.8623 48.3518 44.9436 49.5768C41.6449 53.9175 38.713 53.4768 36.4233 53.1327C35.7327 53.0288 35.1005 52.9338 34.5343 52.9814C33.5938 53.0387 32.84 53.1909 32.1888 53.3223C29.6717 53.8304 28.6881 54.029 24.3792 47.2435Z" fill="black"/>
<path d="M38.8427 16.807C38.7721 18.8175 36.6394 20.5638 34.0829 20.7252C31.5265 20.8867 29.5209 19.3604 29.5915 17.35C29.6622 15.3395 31.7949 13.5931 34.3513 13.4317C36.9077 13.285 38.9133 14.7965 38.8427 16.807Z" fill="url(#paint0_linear)"/>
<path fill-rule="evenodd" clip-rule="evenodd" d="M34.2109 21.6941C34.2313 22.7874 34.7321 23.7195 35.4352 24.1405C33.1411 23.935 30.2986 24.7737 30.2986 26.3608C30.2632 29.0457 28.7688 32.3862 27.6932 34.7906C27.4813 35.2642 27.2857 35.7015 27.1207 36.0903C26.4547 37.7393 26.0553 39.5027 26.008 41.2324C24.2443 38.8014 25.5258 35.6828 26.2168 34.3293C27.1362 32.5481 27.1185 32.3259 26.7613 32.7433C25.3924 35.0712 22.8143 39.747 26.0426 42.5559C26.1452 43.8102 26.4508 45.0256 26.9936 46.1428C31.3155 54.8598 39.4085 51.279 42.0779 46.7591C42.4331 46.1165 42.7202 45.4947 42.9482 44.894C43.0818 44.9782 43.2249 45.0433 43.3773 45.0862C44.7191 45.4824 46.7247 43.9709 47.2049 43.0317C47.784 41.7843 47.1908 40.9331 45.2134 39.9205C45.1126 39.8706 45.0129 39.8237 44.9146 39.78C45.6729 36.5866 43.5832 33.266 42.0907 31.8573C41.8123 31.7886 41.7731 31.9465 42.205 32.3776C43.145 33.2783 45.1895 36.4902 44.0834 39.4793C43.9012 39.4303 43.7259 39.3959 43.5587 39.3769C43.219 37.3375 42.3129 35.7509 41.6797 34.6422C41.5362 34.391 41.4068 34.1643 41.3011 33.9625C41.0879 33.5552 40.833 33.1335 40.5627 32.6863C39.5211 30.9628 38.2503 28.8601 38.2503 25.7444C38.0911 25.0589 37.4442 24.6018 36.583 24.3494C37.5825 24.1478 38.3328 22.9801 38.3068 21.5767C38.2786 20.0652 37.3323 18.8618 36.2023 18.8912C35.0724 18.9205 34.1685 20.1826 34.2109 21.6941ZM35.1431 22.0316C35.1289 22.8681 35.5244 23.5432 36.047 23.5432C36.5554 23.5432 36.9933 22.8681 37.0074 22.0463C37.0215 21.2098 36.6261 20.5348 36.1035 20.5348C35.5809 20.5348 35.1572 21.2098 35.1431 22.0316Z" fill="url(#paint1_linear)"/>
<path fill-rule="evenodd" clip-rule="evenodd" d="M31.3861 24.0421C32.2053 23.9981 32.7985 22.8974 32.7279 21.5914C32.6573 20.2853 31.9369 19.2727 31.1178 19.3167C30.2986 19.3608 29.7054 20.4614 29.776 21.7675C29.8466 23.0735 30.5669 24.0861 31.3861 24.0421ZM31.8804 22.0463C31.9511 22.736 31.6968 23.323 31.3296 23.3817C30.9624 23.4257 30.6093 22.9121 30.5387 22.2224C30.468 21.5327 30.7223 20.9457 31.0895 20.887C31.4567 20.8429 31.8098 21.3566 31.8804 22.0463Z" fill="url(#paint2_linear)"/>
<path d="M35.3538 21.5617C35.3114 22.0313 35.5233 22.4128 35.8199 22.4422C36.1165 22.4715 36.399 22.1047 36.4413 21.6497C36.4837 21.1801 36.2718 20.7986 35.9752 20.7692C35.6786 20.7399 35.3962 21.1068 35.3538 21.5617Z" fill="url(#paint3_linear)"/>
<path d="M31.5699 21.6799C31.6123 22.0614 31.4569 22.399 31.231 22.4283C31.005 22.4577 30.7931 22.1642 30.7507 21.7679C30.7084 21.3864 30.8637 21.0489 31.0897 21.0195C31.3157 20.9902 31.5276 21.2983 31.5699 21.6799Z" fill="url(#paint4_linear)"/>
<path d="M40.2544 36.986C40.2544 39.5689 37.8675 42.9148 33.7715 42.8854C29.5485 42.9148 27.7548 39.5689 27.7548 36.986C27.7548 34.4032 30.5513 32.3047 33.9975 32.3047C37.4579 32.3194 40.2544 34.4032 40.2544 36.986Z" fill="url(#paint5_linear)"/>
<path d="M38.0246 28.8706C37.9822 31.5415 36.3015 32.1725 34.1829 32.1725C32.0643 32.1725 30.5248 31.7763 30.3412 28.8706C30.3412 27.0509 32.0643 25.9943 34.1829 25.9943C36.3015 25.9796 38.0246 27.0362 38.0246 28.8706Z" fill="url(#paint6_linear)"/>
<path d="M25.2138 32.9796C26.5979 30.793 29.5215 27.4324 25.7646 33.4492C22.7138 38.4094 24.6347 41.5939 25.6233 42.4744C28.4764 45.1159 28.3634 46.8916 26.1177 45.4974C21.3014 42.5184 22.3042 37.4995 25.2138 32.9796Z" fill="url(#paint7_linear)"/>
<path d="M45.2554 33.8754C44.0549 31.3073 40.2415 24.7916 45.439 32.3639C50.1706 39.2171 46.8514 43.9865 46.2582 44.4561C45.665 44.9257 43.6736 45.8796 44.2526 44.2213C44.8458 42.5631 47.7836 39.4226 45.2554 33.8754Z" fill="url(#paint8_linear)"/>
<path d="M24.1698 54.1254C21.0061 52.379 16.4158 54.4629 18.0824 49.7375C18.4214 48.6663 17.5881 47.052 18.1248 46.0101C18.7604 44.7333 20.1304 45.0122 20.9496 44.161C21.7546 43.2805 22.2631 41.7543 23.7743 41.9891C25.2715 42.2239 26.2743 44.1317 27.3194 46.4797C28.0963 48.1526 30.8363 50.5153 30.6527 52.3937C30.4267 55.27 27.2771 55.813 24.1698 54.1254Z" fill="url(#paint9_linear)"/>
<path fill-rule="evenodd" clip-rule="evenodd" d="M21.2965 44.5051C20.5271 45.3465 19.1141 45.1448 18.547 46.2458C18.1828 46.9529 18.5808 48.0396 18.6344 48.8139C18.7008 49.7705 17.9077 51.126 18.3116 51.943C18.7652 52.8605 20.8142 52.7415 21.715 52.8731C23.9386 53.1979 27.6136 56.0757 29.6243 53.7791C31.59 51.5339 27.8118 48.6926 26.885 46.6968C26.2823 45.3428 25.3804 42.7467 23.7014 42.483C22.518 42.2994 21.9789 43.7588 21.2965 44.5051ZM23.8446 41.4954C25.9349 41.8232 26.981 44.5333 27.7525 46.2663C28.9234 48.7794 32.9362 51.4806 30.3354 54.4512C27.9734 57.1491 24.2444 54.2512 21.5811 53.8622C20.2508 53.6678 18.1526 53.8074 17.4565 52.3993C16.858 51.1887 17.7593 50.0922 17.6756 48.8857C17.6044 47.8576 17.1975 46.7536 17.6979 45.7777C18.3828 44.4059 19.7052 44.7381 20.604 43.8123C21.5584 42.7637 22.1304 41.2291 23.8446 41.4954Z" fill="#E68C3F"/>
<path d="M46.1032 53.3205C48.4196 50.4002 53.5748 51.0018 50.1003 46.9955C49.3659 46.1297 49.5918 44.2807 48.6879 43.4882C47.6286 42.5196 46.4563 43.3121 45.3829 42.8131C44.3095 42.2702 43.1796 41.2282 41.8661 41.962C40.5525 42.7104 40.4113 44.6475 40.2842 47.201C40.1712 49.0354 38.5611 52.1025 39.4226 53.7901C40.6655 56.4023 43.8999 56.0501 46.1032 53.3205Z" fill="url(#paint10_linear)"/>
<path fill-rule="evenodd" clip-rule="evenodd" d="M47.0266 42.4731C47.6206 42.4575 48.3318 42.4991 48.9999 43.1077C49.8307 43.8402 49.8388 45.0359 50.1521 46.0371C50.5231 47.2227 51.823 47.8999 51.7452 49.2901C51.6182 51.5627 47.6825 52.1102 46.4709 53.6376C45.3069 55.0796 43.8354 55.9384 42.4391 56.0541C40.3214 56.2297 38.5721 54.449 38.6961 52.2748C38.7964 50.5148 39.6931 48.9157 39.8023 47.1698C39.8653 45.9055 39.9333 44.7333 40.1619 43.7815C40.3928 42.8197 40.809 41.9914 41.633 41.5219C43.4378 40.5137 45.1813 42.5215 47.0266 42.4731ZM42.0935 42.3987C41.605 42.6779 41.2943 43.1921 41.0947 44.0233C40.8926 44.8647 40.8261 45.9428 40.762 47.2307C40.6542 48.9808 39.7559 50.5786 39.6558 52.3339C39.5666 53.8992 40.7688 55.1905 42.3626 55.0584C43.4446 54.9687 44.6926 54.2855 45.7317 52.999C46.6601 51.8294 50.701 50.7433 50.7855 49.2321C50.8406 48.2454 49.5425 47.3198 49.2378 46.3459C48.9993 45.5838 48.9866 44.4031 48.376 43.8677C47.9858 43.511 47.5752 43.4579 47.0509 43.4717C45.5314 43.5115 43.5041 41.6128 42.0935 42.3987Z" fill="#E68C3F"/>
<path d="M45.0987 49.416C48.6862 43.9129 46.0168 43.9569 45.1129 43.5313C44.2089 43.0911 43.2626 42.2252 42.2033 42.8269C41.144 43.4433 41.0875 45.0282 41.0593 47.112C41.0169 48.6089 39.8164 51.1183 40.5367 52.5125C41.4124 54.1414 43.531 51.7787 45.0987 49.416Z" fill="url(#paint11_linear)"/>
<path d="M23.434 50.2077C18.0669 46.5976 20.581 45.3649 21.386 44.7926C22.3606 44.0588 22.3747 42.65 23.5752 42.7821C24.7758 42.9142 25.482 44.4551 26.287 46.3628C26.8802 47.7276 28.9423 49.5473 28.787 51.1176C28.5892 52.9666 25.7503 51.7486 23.434 50.2077Z" fill="url(#paint12_linear)"/>
<path d="M46.8939 42.9864C46.4702 43.7495 44.7471 44.9529 43.603 44.63C42.4307 44.3218 41.894 42.6049 42.1341 41.3134C42.346 39.8459 43.603 39.7726 45.1849 40.5063C46.8656 41.2988 47.3882 41.9738 46.8939 42.9864Z" fill="black"/>
<path d="M45.7352 42.5629C45.4669 43.0912 44.337 43.9277 43.546 43.7075C42.7551 43.4874 42.3596 42.2987 42.4867 41.4035C42.5997 40.391 43.4472 40.3323 44.5206 40.8312C45.6787 41.3889 46.046 41.8585 45.7352 42.5629Z" fill="url(#paint13_linear)"/>
<path d="M31.13 23.4123C31.695 22.8693 33.065 21.211 35.6638 22.9427C36.144 23.2655 36.5395 23.2949 37.4575 23.7058C39.3077 24.4982 38.4321 26.406 36.4547 27.0517C35.6073 27.3305 34.8446 28.4018 33.3192 28.2991C32.0057 28.2257 31.6667 27.3305 30.8616 26.8462C29.4351 26.0098 29.2233 24.8798 30.0001 24.2781C30.7769 23.6764 31.0735 23.4563 31.13 23.4123Z" fill="url(#paint14_linear)"/>
<path fill-rule="evenodd" clip-rule="evenodd" d="M30.1731 24.5171C29.8778 24.7458 29.7838 25.05 29.8814 25.3864C30.0819 26.0772 31.528 27.0275 32.0817 27.4924C32.3965 27.7568 32.7566 27.9663 33.3385 27.9988C34.5849 28.0828 35.277 27.1239 36.3689 26.7646C37.0871 26.5301 38.6064 25.6339 38.1031 24.6068C37.6737 23.7304 36.2269 23.6762 35.5082 23.1933C34.2713 22.3692 33.3708 22.3751 32.7294 22.6063C32.0265 22.8596 30.8098 24.0239 30.1731 24.5171ZM32.5403 22.0401C33.3747 21.7394 34.4595 21.7826 35.8211 22.6898C36.7159 23.2914 38.0773 23.2334 38.6171 24.3349C39.3047 25.7381 37.6386 26.978 36.5422 27.3362C35.368 27.7228 34.7121 28.6912 33.3028 28.5969C32.5721 28.5558 32.1031 28.281 31.7192 27.9586C30.9225 27.2897 29.5764 26.654 29.2686 25.5934C29.0978 25.0052 29.3469 24.4096 29.8284 24.0366C30.6067 23.4338 31.6582 22.3581 32.5403 22.0401Z" fill="#E68C3F"/>
<path fill-rule="evenodd" clip-rule="evenodd" d="M37.6788 24.9408C37.6846 25.051 37.6033 25.1452 37.4973 25.1512C36.0024 25.2359 34.952 26.9418 33.2638 26.9418C32.3191 26.9418 31.5713 26.4861 31.0367 26.0477C30.929 25.9594 29.9784 25.2265 29.9784 25.0398C29.9784 24.9294 30.0645 24.84 30.1707 24.84C30.3693 24.84 30.9686 25.4903 31.1916 25.6731C31.6951 26.0859 32.443 26.5423 33.2638 26.5423C34.9351 26.5423 35.9604 24.8382 37.4764 24.7523C37.5824 24.7462 37.673 24.8307 37.6788 24.9408Z" fill="#E68C3F"/>
<path d="M32.0081 23.2634C32.2906 22.9993 33.1804 22.2802 34.3526 23.014C34.6069 23.1607 34.8611 23.3221 35.2283 23.5423C35.9769 23.9972 35.6097 24.6576 34.7057 25.0685C34.2962 25.2446 33.6182 25.6261 33.1097 25.5968C32.5448 25.5381 32.1634 25.1565 31.7962 24.9071C31.1041 24.4374 31.1465 24.0412 31.4714 23.733C31.7115 23.4982 31.9798 23.2781 32.0081 23.2634Z" fill="url(#paint15_linear)"/>
<defs>
<linearGradient id="paint0_linear" x1="34.6249" y1="13.5977" x2="34.1475" y2="20.0661" gradientUnits="userSpaceOnUse">
<stop stop-color="white" stop-opacity="0.8"/>
<stop offset="1" stop-color="white" stop-opacity="0"/>
</linearGradient>
<linearGradient id="paint1_linear" x1="27.8089" y1="48.8871" x2="24.2597" y2="37.2421" gradientUnits="userSpaceOnUse">
<stop stop-color="#FFEED7"/>
<stop offset="1" stop-color="#BDBFC2"/>
</linearGradient>
<linearGradient id="paint2_linear" x1="27.8089" y1="48.8871" x2="24.2597" y2="37.2421" gradientUnits="userSpaceOnUse">
<stop stop-color="#FFEED7"/>
<stop offset="1" stop-color="#BDBFC2"/>
</linearGradient>
<linearGradient id="paint3_linear" x1="35.9404" y1="20.8196" x2="35.7392" y2="22.3263" gradientUnits="userSpaceOnUse">
<stop stop-color="white" stop-opacity="0.65"/>
<stop offset="1" stop-color="white" stop-opacity="0"/>
</linearGradient>
<linearGradient id="paint4_linear" x1="31.1236" y1="21.0949" x2="31.3401" y2="22.3141" gradientUnits="userSpaceOnUse">
<stop stop-color="white" stop-opacity="0.65"/>
<stop offset="1" stop-color="white" stop-opacity="0"/>
</linearGradient>
<linearGradient id="paint5_linear" x1="33.9848" y1="33.7044" x2="34.0206" y2="42.322" gradientUnits="userSpaceOnUse">
<stop stop-color="white" stop-opacity="0.8"/>
<stop offset="1" stop-color="white" stop-opacity="0"/>
</linearGradient>
<linearGradient id="paint6_linear" x1="34.1773" y1="28.3003" x2="34.217" y2="31.7268" gradientUnits="userSpaceOnUse">
<stop stop-color="white" stop-opacity="0.65"/>
<stop offset="1" stop-color="white" stop-opacity="0"/>
</linearGradient>
<linearGradient id="paint7_linear" x1="25.2706" y1="30.4152" x2="25.2706" y2="42.9898" gradientUnits="userSpaceOnUse">
<stop stop-color="white" stop-opacity="0.65"/>
<stop offset="1" stop-color="white" stop-opacity="0"/>
</linearGradient>
<linearGradient id="paint8_linear" x1="45.3523" y1="29.1877" x2="45.3474" y2="40.5494" gradientUnits="userSpaceOnUse">
<stop stop-color="white" stop-opacity="0.65"/>
<stop offset="1" stop-color="white" stop-opacity="0"/>
</linearGradient>
<linearGradient id="paint9_linear" x1="24.6435" y1="48.3797" x2="22.7176" y2="54.8139" gradientUnits="userSpaceOnUse">
<stop stop-color="#FFA63F"/>
<stop offset="1" stop-color="#FFFF00"/>
</linearGradient>
<linearGradient id="paint10_linear" x1="42.8701" y1="46.4252" x2="48.0098" y2="53.4332" gradientUnits="userSpaceOnUse">
<stop stop-color="#FFA63F"/>
<stop offset="1" stop-color="#FFFF00"/>
</linearGradient>
<linearGradient id="paint11_linear" x1="44.2454" y1="40.8254" x2="42.4481" y2="49.2934" gradientUnits="userSpaceOnUse">
<stop stop-color="white" stop-opacity="0.65"/>
<stop offset="1" stop-color="white" stop-opacity="0"/>
</linearGradient>
<linearGradient id="paint12_linear" x1="24.2496" y1="42.9186" x2="24.6059" y2="52.4486" gradientUnits="userSpaceOnUse">
<stop stop-color="white" stop-opacity="0.65"/>
<stop offset="1" stop-color="white" stop-opacity="0"/>
</linearGradient>
<linearGradient id="paint13_linear" x1="43.9342" y1="40.6713" x2="44.351" y2="43.5188" gradientUnits="userSpaceOnUse">
<stop stop-color="white" stop-opacity="0.65"/>
<stop offset="1" stop-color="white" stop-opacity="0"/>
</linearGradient>
<linearGradient id="paint14_linear" x1="33.9913" y1="23.2536" x2="34.0261" y2="28.2686" gradientUnits="userSpaceOnUse">
<stop stop-color="#FFA63F"/>
<stop offset="1" stop-color="#FFFF00"/>
</linearGradient>
<linearGradient id="paint15_linear" x1="33.4451" y1="22.7773" x2="33.4357" y2="25.4291" gradientUnits="userSpaceOnUse">
<stop stop-color="white" stop-opacity="0.65"/>
<stop offset="1" stop-color="white" stop-opacity="0"/>
</linearGradient>
</defs>
</svg>
