<svg width="70" height="52" viewBox="0 0 70 52" fill="none" xmlns="http://www.w3.org/2000/svg">
<path d="M50.1341 5.26201C50.1341 5.26201 51.1629 6.32022 51.3392 7.11374C51.3392 7.11374 52.074 6.55524 51.5743 5.67353C51.0746 4.79169 50.1341 5.26201 50.1341 5.26201Z" fill="#5181A2"/>
<path d="M68.9265 20.8881C68.0022 20.4231 67.1618 20.1479 66.5041 19.9855C65.6145 19.7653 64.8944 19.1104 64.583 18.2484C64.1831 17.1429 63.4384 15.3522 62.068 12.6388C59.3631 7.28974 56.3655 5.64391 54.3966 4.2618C53.1044 3.35486 51.4063 3.17087 50.3921 3.15062C49.8808 3.1405 49.3881 2.9536 48.9955 2.62471C47.9625 1.75548 45.9312 0.734015 45.2851 1.11656C44.4911 1.58743 45.2851 2.67545 46.4007 4.05618C47.5177 5.43828 47.7538 6.96681 48.5464 9.02417C48.913 9.97312 49.3549 10.5469 49.7229 10.8888C50.1082 11.248 50.2342 11.8059 50.03 12.2898C49.2853 14.0501 49.0361 16.2797 49.4578 18.3413C49.9576 20.7811 51.1036 20.7521 51.1036 20.7521C50.9863 17.4894 52.6915 16.0784 52.6915 16.0784C54.249 20.8391 57.8057 24.396 57.8057 24.396C54.9255 23.3673 52.7799 18.6645 52.7799 18.6645C52.7799 18.6645 52.5452 18.8993 52.3394 20.4582C52.1336 22.0157 50.2517 22.9559 48.871 19.5469C47.4889 16.1364 49.2824 11.8451 49.2824 11.8451C48.4884 11.4336 46.8426 7.6422 46.8426 7.05389C46.8426 6.4671 46.1949 5.17332 45.4025 4.37938C44.6086 3.58683 43.0511 1.29349 44.8737 0.235829C46.6948 -0.823214 50.311 2.02794 50.311 2.02794C56.0135 1.82217 61.8913 8.75906 62.8315 11.2278C63.7717 13.6965 66.4173 18.6356 66.4173 18.6356C67.1678 18.8631 67.8733 19.1572 68.5268 19.4917C68.6686 19.9522 68.8019 20.4187 68.9265 20.8881Z" fill="#5181A2"/>
<path d="M70 27.2279C69.971 27.2149 69.9434 27.2003 69.916 27.1873C68.0934 26.3051 67.3589 24.4535 67.3589 24.4535C67.8312 23.9812 68.6686 23.7103 69.5235 23.5566C69.6003 23.9768 69.6697 24.3984 69.7306 24.8228C69.4118 24.8851 69.2105 24.9228 69.2105 24.9228C69.2105 25.1025 69.4612 25.3705 69.8451 25.6776C69.9088 26.1905 69.9595 26.7078 70 27.2279Z" fill="#5181A2"/>
<path d="M17.6072 46.4478H14.8298C14.8298 46.4478 14.8298 40.1006 13.904 32.5611L9.53874 46.4478H7.29032L2.85989 32.6277C2.85989 32.6277 2.34409 36.6886 2.2731 44.6542C1.29947 42.51 0.533127 40.2527 0 37.9071C0.204238 34.9587 0.491114 31.7453 0.876574 29.123H4.4913L8.61308 41.9522L12.9783 29.123H16.2846C16.2844 29.123 17.6072 40.4309 17.6072 46.4478Z" fill="#FFA600"/>
<path d="M19.1396 33.8019L22.0053 33.7578C22.0053 33.7578 25.2237 43.4133 24.9152 44.6036C24.9152 44.6036 26.9874 38.828 27.5165 33.7578H30.3381C30.3381 33.7578 28.839 43.9865 24.254 49.3653C22.5381 51.3782 20.6126 51.4028 18.8743 50.6459V49.1009C18.8743 49.1009 21.256 49.9387 22.4906 48.175C23.4845 46.7551 22.5352 44.3068 21.6672 41.7038C21.4568 41.0735 19.1396 33.8019 19.1396 33.8019Z" fill="#FFA600"/>
<path d="M32.1017 45.1762L32.8511 43.6771C32.8511 43.6771 38.0096 45.9696 39.3321 43.6771C40.6547 41.3846 39.3762 40.15 36.775 38.7831C34.1739 37.4163 31.4403 35.697 32.6307 31.9493C33.8211 28.2017 40.1258 28.4663 41.9334 30.2739L41.3162 31.7288C41.3162 31.7288 36.6429 29.7448 35.3644 32.346C34.0858 34.9471 37.4806 36.1817 38.2743 36.5344C39.068 36.8872 43.4768 38.6947 42.9919 41.9133C42.507 45.1318 40.5229 47.1157 35.9818 46.7189C34.3501 46.3225 33.4243 46.0579 32.1017 45.1762Z" fill="#5181A2"/>
<path d="M55.3324 45.3858C57.2811 43.8197 58.117 41.0336 58.117 37.8579C58.117 32.9595 56.7073 28.9883 51.1381 28.9883C46.3426 28.9883 44.1592 32.9595 44.1592 37.8579C44.1592 42.7563 45.7558 46.7275 51.1381 46.7275C51.9176 46.7275 52.6246 46.6304 53.262 46.4478L57.4085 48.8803L58.4226 46.8955L55.3324 45.3858ZM51.1381 44.6034C48.0174 44.6034 47.0916 41.5827 47.0916 37.8579C47.0916 34.1315 47.9739 31.1123 51.1381 31.1123C54.366 31.1123 55.1832 34.1317 55.1832 37.8579C55.1831 41.5827 54.366 44.6034 51.1381 44.6034Z" fill="#5181A2"/>
<path d="M67.0676 44.3843C66.7504 45.103 66.4069 45.8085 66.0434 46.501H60.5829V29.2168H63.3167V44.3842H67.0676V44.3843Z" fill="#5181A2"/>
</svg>
