<svg width="70" height="42" viewBox="0 0 70 42" fill="none" xmlns="http://www.w3.org/2000/svg">
<path d="M34.6201 41.9999C34.3828 41.9999 34.1613 41.9379 33.9556 41.8294L31.8512 40.6046C31.5347 40.434 31.693 40.372 31.788 40.341C32.2151 40.2015 32.2942 40.1704 32.7373 39.9225C32.7848 39.8914 32.8482 39.9069 32.8955 39.9379L34.5095 40.8837C34.5727 40.9146 34.6519 40.9146 34.6992 40.8837L41.0126 37.3023C41.0758 37.2713 41.1076 37.2092 41.1076 37.1318V29.9845C41.1076 29.9069 41.0758 29.845 41.0126 29.8139L34.6992 26.2481C34.636 26.217 34.5569 26.217 34.5095 26.2481L28.1962 29.8139C28.1329 29.8449 28.1011 29.9224 28.1011 29.9844V37.1316C28.1011 37.1937 28.1329 37.2711 28.1962 37.3023L29.9209 38.279C30.8544 38.744 31.4398 38.2014 31.4398 37.6588V30.6046C31.4398 30.5116 31.519 30.4185 31.6297 30.4185H32.4366C32.5316 30.4185 32.6265 30.496 32.6265 30.6046V37.6588C32.6265 38.8836 31.9461 39.5968 30.7594 39.5968C30.3955 39.5968 30.1108 39.5968 29.3037 39.2091L27.6424 38.279C27.231 38.0465 26.9778 37.6123 26.9778 37.1472V30C26.9778 29.5349 27.231 29.1007 27.6424 28.8682L33.9556 25.2868C34.3512 25.0698 34.8893 25.0698 35.2848 25.2868L41.598 28.8682C42.0094 29.1007 42.2626 29.5349 42.2626 30V37.1472C42.2626 37.6123 42.0094 38.0465 41.598 38.279L35.2848 41.8604C35.079 41.9535 34.8418 41.9999 34.6202 41.9999H34.6201ZM36.5663 37.0852C33.7974 37.0852 33.2278 35.8449 33.2278 34.7907C33.2278 34.6976 33.3069 34.6046 33.4177 34.6046H34.2405C34.3353 34.6046 34.4145 34.6666 34.4145 34.7597C34.5411 35.5813 34.905 35.9844 36.5822 35.9844C37.9113 35.9844 38.4811 35.6898 38.4811 34.9922C38.4811 34.5891 38.3227 34.2946 36.2499 34.093C34.5252 33.9224 33.4493 33.5504 33.4493 32.2016C33.4493 30.9457 34.5254 30.2015 36.3291 30.2015C38.3543 30.2015 39.3512 30.8837 39.4779 32.3719C39.4779 32.4186 39.462 32.465 39.4304 32.5116C39.3986 32.5426 39.3512 32.5735 39.3037 32.5735H38.4809C38.4018 32.5735 38.3227 32.5116 38.3069 32.434C38.117 31.5814 37.6265 31.3023 36.3291 31.3023C34.8734 31.3023 34.6992 31.7985 34.6992 32.1704C34.6992 32.6201 34.905 32.7596 36.867 33.0076C38.8132 33.2558 39.731 33.6124 39.731 34.9456C39.7151 36.31 38.5759 37.0852 36.5663 37.0852Z" fill="#539E43"/>
<path d="M15.0317 14.0466C15.0317 13.7676 14.8734 13.5038 14.6203 13.3643L7.91141 9.58144C7.80052 9.51933 7.67402 9.48835 7.54752 9.47278H7.48413C7.35763 9.47278 7.231 9.51933 7.12024 9.58144L0.411397 13.3643C0.158124 13.5038 0 13.7674 0 14.0466L0.0158809 24.217C0.0158809 24.3565 0.0950114 24.496 0.221511 24.5581C0.348147 24.6357 0.506271 24.6357 0.617163 24.5581L4.60449 22.3256C4.85763 22.1861 5.01589 21.9225 5.01589 21.6434V16.8837C5.01589 16.6047 5.17401 16.3411 5.42729 16.2016L7.12024 15.2403C7.24688 15.1628 7.38926 15.1317 7.53164 15.1317C7.67402 15.1317 7.8164 15.1628 7.92729 15.2403L9.62025 16.2016C9.87352 16.3411 10.0316 16.6046 10.0316 16.8837V21.6434C10.0316 21.9225 10.1899 22.1861 10.443 22.3256L14.4304 24.5581C14.557 24.6357 14.7151 24.6357 14.8418 24.5581C14.9684 24.496 15.0475 24.3565 15.0475 24.217L15.0317 14.0466ZM47.2784 0.0465817C47.1519 -0.0155272 46.9937 -0.0155272 46.8828 0.0465817C46.7563 0.124117 46.6772 0.248067 46.6772 0.387577V10.4652C46.6772 10.5581 46.6298 10.6511 46.5348 10.7132C46.4399 10.7596 46.3449 10.7596 46.25 10.7132L44.5728 9.7675C44.4498 9.6989 44.3108 9.66283 44.1693 9.66283C44.0278 9.66283 43.8887 9.6989 43.7658 9.7675L37.0569 13.5659C36.8038 13.7054 36.6455 13.969 36.6455 14.2481V21.8294C36.6455 22.1084 36.8038 22.3721 37.0569 22.5116L43.7658 26.3101C43.8887 26.3787 44.0278 26.4147 44.1693 26.4147C44.3108 26.4147 44.4498 26.3787 44.5728 26.3101L51.2817 22.5116C51.5348 22.3721 51.6931 22.1085 51.6931 21.8294V2.93029C51.6931 2.63571 51.5348 2.37225 51.2817 2.2326L47.2786 0.0465817H47.2784ZM46.6614 19.3333C46.6614 19.4109 46.6298 19.4729 46.5664 19.5038L44.2722 20.8061C44.2401 20.8214 44.2049 20.8294 44.1693 20.8294C44.1336 20.8294 44.0984 20.8214 44.0664 20.8061L41.7722 19.5038C41.7088 19.4729 41.6772 19.3953 41.6772 19.3333V16.7287C41.6772 16.6511 41.7088 16.5892 41.7722 16.5582L44.0664 15.2558C44.0984 15.2404 44.1336 15.2325 44.1693 15.2325C44.2049 15.2325 44.2401 15.2404 44.2722 15.2558L46.5664 16.5582C46.6298 16.589 46.6614 16.6667 46.6614 16.7287V19.3333ZM69.6043 16.6667C69.8576 16.5272 70 16.2636 70 15.9844V14.1395C70 13.8605 69.8417 13.5969 69.6043 13.4574L62.943 9.67454C62.8201 9.60596 62.681 9.5699 62.5396 9.5699C62.3981 9.5699 62.259 9.60596 62.1361 9.67454L55.4272 13.4728C55.174 13.6124 55.0159 13.8759 55.0159 14.1551V21.7364C55.0159 22.0154 55.174 22.279 55.4272 22.4185L62.0886 26.1394C62.3419 26.2789 62.6424 26.2789 62.8798 26.1394L66.9145 23.9381C67.0411 23.876 67.1202 23.7365 67.1202 23.597C67.1202 23.4575 67.0411 23.318 66.9145 23.2559L60.174 19.4574C60.0475 19.38 59.9684 19.2559 59.9684 19.1164V16.7444C59.9684 16.6048 60.0475 16.4653 60.174 16.4032L62.2785 15.2249C62.3401 15.1869 62.4114 15.1668 62.4842 15.1668C62.557 15.1668 62.6283 15.1869 62.6899 15.2249L64.7942 16.4032C64.9209 16.4808 65 16.6047 65 16.7444V18.6048C65 18.7443 65.0791 18.8838 65.2056 18.9458C65.3323 19.0233 65.4904 19.0233 65.617 18.9458L69.6043 16.6667V16.6667Z" fill="black"/>
<path d="M62.4367 16.3103C62.4602 16.2952 62.4877 16.2871 62.5158 16.2871C62.5439 16.2871 62.5713 16.2952 62.5948 16.3103L63.8765 17.039C63.924 17.0699 63.9556 17.1164 63.9556 17.1785V18.6359C63.9556 18.6978 63.924 18.7444 63.8765 18.7754L62.5948 19.504C62.5713 19.5192 62.5439 19.5273 62.5158 19.5273C62.4877 19.5273 62.4602 19.5192 62.4367 19.504L61.155 18.7754C61.1075 18.7444 61.0759 18.6978 61.0759 18.6359V17.1785C61.0759 17.1164 61.1075 17.0699 61.155 17.039L62.4367 16.3103V16.3103Z" fill="#539E43"/>
<path d="M26.25 9.70522C26.127 9.63665 25.988 9.60059 25.8465 9.60059C25.705 9.60059 25.566 9.63665 25.443 9.70522L18.7817 13.4724C18.5284 13.6119 18.386 13.8755 18.386 14.1545V21.705C18.386 21.984 18.5443 22.2476 18.7817 22.3871L25.443 26.1546C25.566 26.2231 25.705 26.2592 25.8465 26.2592C25.988 26.2592 26.127 26.2231 26.25 26.1546L32.9114 22.3871C33.1646 22.2476 33.3071 21.984 33.3071 21.705V14.1547C33.3071 13.8756 33.1487 13.612 32.9114 13.4725L26.25 9.70522Z" fill="black"/>
<mask id="mask0" mask-type="alpha" maskUnits="userSpaceOnUse" x="18" y="9" width="16" height="18">
<path d="M26.25 9.7062C26.127 9.63762 25.988 9.60156 25.8465 9.60156C25.705 9.60156 25.566 9.63762 25.443 9.7062L18.7817 13.4734C18.5284 13.6129 18.386 13.8765 18.386 14.1555V21.706C18.386 21.985 18.5443 22.2486 18.7817 22.3881L25.443 26.1555C25.566 26.2241 25.705 26.2602 25.8465 26.2602C25.988 26.2602 26.127 26.2241 26.25 26.1555L32.9114 22.3881C33.1646 22.2486 33.3071 21.985 33.3071 21.706V14.1556C33.3071 13.8766 33.1487 13.613 32.9114 13.4735L26.25 9.7062Z" fill="black"/>
</mask>
<g mask="url(#mask0)">
<path d="M26.25 9.7062C26.127 9.63762 25.988 9.60156 25.8465 9.60156C25.705 9.60156 25.566 9.63762 25.443 9.7062L18.7817 13.4734C18.5284 13.6129 18.386 13.8765 18.386 14.1555V21.706C18.386 21.985 18.5443 22.2486 18.7817 22.3881L25.443 26.1555C25.566 26.2241 25.705 26.2602 25.8465 26.2602C25.988 26.2602 26.127 26.2241 26.25 26.1555L32.9114 22.3881C33.1646 22.2486 33.3071 21.985 33.3071 21.706V14.1556C33.3071 13.8766 33.1487 13.613 32.9114 13.4735L26.25 9.7062Z" fill="url(#paint0_linear)"/>
<path d="M32.9273 13.4738L26.2343 9.70644C26.1685 9.6739 26.0996 9.64793 26.0285 9.62891L18.5285 22.2181C18.5906 22.2924 18.6657 22.3554 18.7502 22.4042L25.4431 26.1716C25.633 26.2801 25.8545 26.3111 26.0601 26.249L33.1014 13.629C33.0539 13.567 32.9905 13.5203 32.9273 13.4739V13.4738Z" fill="url(#paint1_linear)"/>
<path fill-rule="evenodd" clip-rule="evenodd" d="M32.9431 22.3879C33.133 22.2793 33.2754 22.0933 33.3388 21.8918L25.9967 9.61274C25.8068 9.58176 25.6011 9.59718 25.4272 9.70571L18.7816 13.4577L25.9492 26.2638C26.0535 26.2471 26.1547 26.2158 26.2499 26.1709L32.943 22.388L32.9431 22.3879Z" fill="url(#paint2_linear)"/>
<path fill-rule="evenodd" clip-rule="evenodd" d="M32.9431 22.3886L26.2659 26.156C26.1716 26.2031 26.07 26.2345 25.9652 26.249L26.0918 26.4816L33.4969 22.2802V22.1871L33.307 21.877C33.2753 22.094 33.133 22.2801 32.9431 22.3886V22.3886Z" fill="url(#paint3_linear)"/>
<path fill-rule="evenodd" clip-rule="evenodd" d="M32.9431 22.3886L26.2659 26.156C26.1716 26.2031 26.07 26.2345 25.9652 26.249L26.0918 26.4816L33.4969 22.2802V22.1871L33.307 21.877C33.2753 22.094 33.133 22.2801 32.9431 22.3886V22.3886Z" fill="url(#paint4_linear)"/>
</g>
<defs>
<linearGradient id="paint0_linear" x1="28.5604" y1="12.5147" x2="21.4687" y2="23.887" gradientUnits="userSpaceOnUse">
<stop stop-color="#41873F"/>
<stop offset="0.3288" stop-color="#418B3D"/>
<stop offset="0.6352" stop-color="#419637"/>
<stop offset="0.9319" stop-color="#3FA92D"/>
<stop offset="1" stop-color="#3FAE2A"/>
</linearGradient>
<linearGradient id="paint1_linear" x1="24.8352" y1="18.8155" x2="42.9498" y2="8.77134" gradientUnits="userSpaceOnUse">
<stop offset="0.1376" stop-color="#41873F"/>
<stop offset="0.4032" stop-color="#54A044"/>
<stop offset="0.7136" stop-color="#66B848"/>
<stop offset="0.9081" stop-color="#6CC04A"/>
</linearGradient>
<linearGradient id="paint2_linear" x1="18.1427" y1="17.9307" x2="33.557" y2="17.9307" gradientUnits="userSpaceOnUse">
<stop offset="0.09192" stop-color="#6CC04A"/>
<stop offset="0.2864" stop-color="#66B848"/>
<stop offset="0.5968" stop-color="#54A044"/>
<stop offset="0.8624" stop-color="#41873F"/>
</linearGradient>
<linearGradient id="paint3_linear" x1="18.1428" y1="24.1919" x2="33.5569" y2="24.1919" gradientUnits="userSpaceOnUse">
<stop offset="0.09192" stop-color="#6CC04A"/>
<stop offset="0.2864" stop-color="#66B848"/>
<stop offset="0.5968" stop-color="#54A044"/>
<stop offset="0.8624" stop-color="#41873F"/>
</linearGradient>
<linearGradient id="paint4_linear" x1="35.8025" y1="12.158" x2="32.0481" y2="32.2357" gradientUnits="userSpaceOnUse">
<stop stop-color="#41873F"/>
<stop offset="0.3288" stop-color="#418B3D"/>
<stop offset="0.6352" stop-color="#419637"/>
<stop offset="0.9319" stop-color="#3FA92D"/>
<stop offset="1" stop-color="#3FAE2A"/>
</linearGradient>
</defs>
</svg>
