<svg width="70" height="70" viewBox="0 0 70 70" fill="none" xmlns="http://www.w3.org/2000/svg">
<circle cx="35" cy="35" r="30.625" fill="#8892BF"/>
<path d="M31.5857 21.875H35.2608L34.2222 27.3967H37.5245C39.3354 27.4355 40.6845 27.8402 41.5724 28.6109C42.4779 29.3817 42.7442 30.8468 42.3713 33.0052L40.587 42.6321H36.8587L38.5631 33.4388C38.7404 32.475 38.6872 31.791 38.4033 31.3863C38.1194 30.9815 37.5069 30.7791 36.5657 30.7791L33.6097 30.7502L31.4259 42.6321H27.7508L31.5857 21.875Z" fill="white"/>
<path fill-rule="evenodd" clip-rule="evenodd" d="M14.7458 27.3968H21.8829C23.9777 27.4159 25.4957 28.0716 26.4368 29.3627C27.378 30.6538 27.6885 32.4173 27.3689 34.6531C27.2448 35.6748 26.9695 36.6768 26.5434 37.6597C26.1349 38.6427 25.5671 39.529 24.839 40.3194C23.9511 41.3214 23.0014 41.9574 21.9894 42.2274C20.9775 42.4974 19.9298 42.6322 18.847 42.6322H15.6512L14.6392 48.125H10.9375L14.7458 27.3968ZM16.2637 39.3654L17.8563 30.7214H18.3942C18.5897 30.7214 18.7937 30.7116 19.0067 30.6925C20.4272 30.6734 21.6076 30.818 22.5487 31.1262C23.5074 31.4344 23.827 32.6006 23.5074 34.6242C23.117 37.0335 22.3532 38.4403 21.2171 38.845C20.081 39.2307 18.6605 39.4134 16.9561 39.3943H16.5833C16.4768 39.3943 16.3703 39.3845 16.2637 39.3654Z" fill="white"/>
<path fill-rule="evenodd" clip-rule="evenodd" d="M53.4549 27.3968H46.3178L42.5095 48.125H46.2113L47.2232 42.6322H50.419C51.5018 42.6322 52.5495 42.4974 53.5615 42.2274C54.5734 41.9574 55.5231 41.3214 56.411 40.3194C57.1391 39.529 57.7069 38.6427 58.1154 37.6597C58.5415 36.6768 58.8168 35.6748 58.9409 34.6531C59.2605 32.4173 58.95 30.6538 58.0089 29.3627C57.0677 28.0716 55.5497 27.4159 53.4549 27.3968ZM49.4283 30.7214L47.8358 39.3654C47.9423 39.3845 48.0488 39.3943 48.1553 39.3943H48.5282C50.2326 39.4134 51.6531 39.2307 52.7892 38.845C53.9252 38.4403 54.689 37.0335 55.0794 34.6242C55.399 32.6006 55.0794 31.4344 54.1207 31.1262C53.1796 30.818 51.9993 30.6734 50.5788 30.6925C50.3657 30.7116 50.1617 30.7214 49.9662 30.7214H49.4283Z" fill="white"/>
</svg>
