<svg width="70" height="70" viewBox="0 0 70 70" fill="none" xmlns="http://www.w3.org/2000/svg">
<path fill-rule="evenodd" clip-rule="evenodd" d="M28.4733 4.375C23.6673 4.375 19.7712 8.14741 19.7712 12.8009V18.6343H34.8326V20.2546H13.0772C8.2711 20.2546 4.375 24.027 4.375 28.6805L4.375 41.3194C4.375 45.9729 8.2711 49.7453 13.0772 49.7453H18.0977V42.6157C18.0977 37.9622 21.9938 34.1898 26.7998 34.1898H42.8654C46.9321 34.1898 50.2288 30.9978 50.2288 27.0602V12.8009C50.2288 8.14741 46.3327 4.375 41.5266 4.375H28.4733ZM26.4652 14.7454C28.1288 14.7454 29.4774 13.4395 29.4774 11.8287C29.4774 10.2179 28.1288 8.91203 26.4652 8.91203C24.8015 8.91203 23.4529 10.2179 23.4529 11.8287C23.4529 13.4395 24.8015 14.7454 26.4652 14.7454Z" fill="url(#paint0_linear)"/>
<path fill-rule="evenodd" clip-rule="evenodd" d="M41.5265 65.6252C46.3326 65.6252 50.2287 61.8528 50.2287 57.1993V51.366L35.1672 51.366L35.1672 49.7456L56.9227 49.7456C61.7288 49.7456 65.6249 45.9732 65.6249 41.3197V28.6808C65.6249 24.0273 61.7288 20.2549 56.9227 20.2549L51.9022 20.2549V27.3845C51.9022 32.038 48.0061 35.8104 43.2 35.8104L27.1344 35.8104C23.0678 35.8104 19.7711 39.0025 19.7711 42.9401L19.7711 57.1993C19.7711 61.8528 23.6672 65.6252 28.4732 65.6252H41.5265ZM43.5347 55.2549C41.8711 55.2549 40.5224 56.5607 40.5224 58.1715C40.5224 59.7824 41.8711 61.0882 43.5347 61.0882C45.1983 61.0882 46.547 59.7824 46.547 58.1715C46.547 56.5607 45.1983 55.2549 43.5347 55.2549Z" fill="url(#paint1_linear)"/>
<defs>
<linearGradient id="paint0_linear" x1="27.3019" y1="4.375" x2="27.3019" y2="49.7453" gradientUnits="userSpaceOnUse">
<stop stop-color="#327EBD"/>
<stop offset="1" stop-color="#1565A7"/>
</linearGradient>
<linearGradient id="paint1_linear" x1="42.698" y1="20.2549" x2="42.698" y2="65.6252" gradientUnits="userSpaceOnUse">
<stop stop-color="#FFDA4B"/>
<stop offset="1" stop-color="#F9C600"/>
</linearGradient>
</defs>
</svg>
