<svg width="69" height="69" viewBox="0 0 69 69" fill="none" xmlns="http://www.w3.org/2000/svg">
<path d="M40.2764 34.448C40.2764 31.355 37.6903 28.8475 34.5 28.8475C31.3099 28.8475 28.7237 31.355 28.7237 34.448C28.7237 37.5413 31.3099 40.0489 34.5 40.0489C37.6903 40.0489 40.2764 37.5413 40.2764 34.448Z" fill="#53C1DE"/>
<path fill-rule="evenodd" clip-rule="evenodd" d="M53.2602 24.0502C54.4801 19.2441 56.0134 10.3316 50.608 7.31003C45.228 4.30161 38.2269 10.0663 34.5301 13.5266C30.8439 10.1008 23.6462 4.36073 18.2454 7.39192C12.8674 10.4104 14.5259 19.1751 15.7728 24.0113C10.756 25.3929 2.15625 28.3685 2.15625 34.448C2.15625 40.5104 10.7471 43.7477 15.7341 45.1279C14.4826 49.9909 12.9072 58.6304 18.2921 61.6421C23.7129 64.6728 30.8883 59.0694 34.6194 55.5713C38.34 59.0519 45.2739 64.692 50.655 61.6718C56.0531 58.642 54.6471 49.849 53.4002 44.9847C58.2344 43.6015 66.8438 40.4347 66.8438 34.448C66.8438 28.4269 58.1979 25.4271 53.2602 24.0502ZM52.6475 42.4069C51.8287 39.894 50.7237 37.2218 49.3719 34.4614C50.6621 31.7661 51.7243 29.1284 52.5201 26.6316C56.1399 27.6491 64.0805 29.9747 64.0805 34.448C64.0805 38.9634 56.4606 41.311 52.6475 42.4069ZM49.2702 59.353C45.2555 61.6062 39.2915 56.2127 36.5438 53.6494C38.3665 51.7164 40.1882 49.4692 41.966 46.9738C45.0934 46.7048 48.0478 46.2649 50.7271 45.6645C51.6047 49.1051 53.303 57.0895 49.2702 59.353ZM19.6728 59.3208C15.6575 57.076 17.4928 49.3665 18.4134 45.7844C21.063 46.3526 23.996 46.7614 27.1308 47.0079C28.9203 49.4497 30.7946 51.6942 32.6835 53.6597C30.3498 55.8485 23.7069 61.576 19.6728 59.3208ZM4.91946 34.448C4.91946 29.9157 12.8126 27.6072 16.5148 26.5922C17.3244 29.145 18.3862 31.8142 19.6676 34.5133C18.3696 37.2526 17.2926 39.9642 16.4756 42.5471C12.9455 41.5674 4.91946 38.9832 4.91946 34.448ZM19.6299 9.71076C23.6616 7.44804 29.9174 12.9587 32.5936 15.439C30.7145 17.3956 28.8574 19.6232 27.0833 22.0508C24.0409 22.3242 21.1286 22.7633 18.4512 23.3515C17.4468 19.4509 15.6024 11.971 19.6299 9.71076ZM43.9428 24.9631C46.0069 25.2157 47.9842 25.5516 49.8411 25.9626C49.2837 27.695 48.5889 29.5064 47.7707 31.3634C46.5845 29.1811 45.3112 27.0428 43.9428 24.9631ZM34.5309 17.3537C35.8055 18.6925 37.082 20.1875 38.3376 21.8093C35.7906 21.6926 33.2393 21.6921 30.6921 21.8077C31.9489 20.2008 33.2363 18.708 34.5309 17.3537ZM21.2531 31.3614C20.4483 29.5109 19.7598 27.6914 19.1976 25.9343C21.0432 25.5338 23.0114 25.2065 25.0621 24.9581C23.6899 27.0333 22.4187 29.1708 21.2531 31.3614ZM25.1211 44.1292C23.0026 43.9 21.0046 43.5893 19.1595 43.1999C19.7306 41.4118 20.4343 39.5532 21.2562 37.6629C22.438 39.8761 23.7284 42.0344 25.1211 44.1292ZM34.6074 51.7317C33.2976 50.3613 31.9913 48.8457 30.7153 47.2156C33.2771 47.3132 35.8437 47.3134 38.4049 47.2025C37.1453 48.8624 35.8733 50.3802 34.6074 51.7317ZM47.797 37.5666C48.6616 39.4774 49.3905 41.326 49.9693 43.0839C48.0936 43.4989 46.0687 43.8331 43.9351 44.0812C45.3136 41.9622 46.607 39.7906 47.797 37.5666ZM40.4238 44.406C36.5056 44.6774 32.5627 44.6745 28.6432 44.4282C26.416 41.2738 24.4334 37.9564 22.722 34.5124C24.425 31.0756 26.3933 27.7648 28.61 24.6153C32.5325 24.3278 36.4791 24.3271 40.4015 24.617C42.599 27.7663 44.5643 31.0685 46.3069 34.4744C44.585 37.9096 42.6065 41.2271 40.4238 44.406ZM49.2279 9.6311C53.2607 11.8864 51.4656 19.8963 50.5846 23.3793C47.9009 22.7789 44.9866 22.332 41.9354 22.0544C40.1578 19.6004 38.3162 17.369 36.4673 15.4376C39.178 12.9039 45.234 7.39785 49.2279 9.6311Z" fill="#53C1DE"/>
</svg>
