<svg width="70" height="70" viewBox="0 0 70 70" fill="none" xmlns="http://www.w3.org/2000/svg">
<path d="M47.6587 47.1535C50.0804 46.907 51.9177 44.8545 51.8341 42.3913C51.7508 39.9282 49.6628 37.9577 47.1575 37.9577H46.9907C44.4015 38.0398 42.3974 40.1745 42.481 42.7196C42.5646 43.9513 43.0655 45.0186 43.8171 45.7575C40.9778 51.2587 36.6352 55.2817 30.1214 58.648C25.6953 60.9469 21.1024 61.768 16.5094 61.1934C12.7513 60.7007 9.82845 59.0587 7.99095 56.349C5.31878 52.326 5.06833 47.9743 7.32317 43.6229C8.90996 40.5028 11.415 38.2039 13.0018 37.0544C12.6678 35.9871 12.1666 34.1809 11.9161 32.8673C-0.192947 41.4883 1.05982 53.1471 4.73431 58.648C7.49005 62.7534 13.0853 65.2986 19.2651 65.2986C20.9352 65.2986 22.6053 65.1343 24.2757 64.724C34.9651 62.6712 43.0657 56.4312 47.6587 47.1535V47.1535ZM62.3566 36.9725C56.0097 29.6651 46.6566 25.6421 35.9672 25.6421H34.6311C33.8795 24.1642 32.2927 23.1788 30.539 23.1788H30.3719C27.7833 23.261 25.7792 25.3956 25.8625 27.941C25.9461 30.4041 28.0337 32.3746 30.539 32.3746H30.7059C32.5432 32.2925 34.13 31.143 34.798 29.583H36.3012C42.6481 29.583 48.6608 31.3892 54.0892 34.9198C58.2646 37.6293 61.271 41.1599 62.9411 45.4291C64.3608 48.8776 64.2772 52.2438 62.774 55.1176C60.4358 59.469 56.5109 61.8501 51.3332 61.8501C47.9927 61.8501 44.8194 60.8647 43.149 60.1258C42.2305 60.9469 40.5602 62.2604 39.391 63.0818C42.9821 64.7237 46.6566 65.627 50.164 65.627C58.181 65.627 64.1103 61.2753 66.3652 56.9239C68.7869 52.1617 68.6197 43.9513 62.3566 36.9725V36.9725ZM19.9332 48.5489C20.0167 51.0122 22.1044 52.9825 24.6097 52.9825H24.7769C27.3657 52.9006 29.3698 50.7657 29.2863 48.2205C29.2029 45.7573 27.115 43.7869 24.6097 43.7869H24.4428C24.2757 43.7869 24.025 43.7869 23.8584 43.8689C20.4343 38.2858 19.0147 32.2103 19.5158 25.6418C19.8496 20.7156 21.52 16.4461 24.4428 12.9155C26.8645 9.87759 31.5411 8.39973 34.7147 8.31783C43.5666 8.15351 47.3244 18.9912 47.5751 23.3429C48.6608 23.5891 50.498 24.164 51.7508 24.5745C50.7485 11.2738 42.3974 4.37695 34.3807 4.37695C26.8645 4.37695 19.9332 9.71378 17.1772 17.5958C13.3358 28.1051 15.8411 38.2039 20.5176 46.1681C20.1003 46.7427 19.8496 47.6459 19.9332 48.5492V48.5489Z" fill="#764ABC"/>
</svg>
