<svg width="70" height="58" viewBox="0 0 70 58" fill="none" xmlns="http://www.w3.org/2000/svg">
<path d="M59.9211 34.0404C58.8209 34.4567 58.8654 34.464 58.2835 33.4035C57.5402 32.0526 57.1449 30.6319 57.1107 29.087C57.0825 27.7611 57.4453 26.5288 57.9014 25.3199C58.2656 24.3586 57.7919 24.0193 56.9597 23.9319C56.354 23.8696 55.7292 23.8756 55.1222 23.9378C53.5437 24.0993 53.3883 24.2355 52.9692 25.7687C52.7205 26.6783 52.522 27.5953 52.1089 28.4588C51.0902 30.5844 49.9324 32.6317 48.7449 34.6641C48.5316 35.03 48.3555 35.4239 48.0549 35.7365C47.1946 34.4477 46.8704 33.0243 46.7978 31.531C46.7253 30.0571 47.1769 28.6869 47.6729 27.3314C47.8402 26.8752 47.7011 26.5923 47.3071 26.3952C47.1324 26.3079 46.937 26.2264 46.746 26.2115C45.7332 26.1315 44.7234 26.1433 43.7357 26.4203C43.2915 26.5432 43.0013 26.7922 42.9021 27.2913C42.7096 28.2675 42.4091 29.2155 42.0032 30.1281C40.878 32.6552 39.7601 35.1868 38.6362 37.7155C37.659 39.9123 36.6965 42.1149 35.5387 44.2244C35.4572 44.374 35.3891 44.6333 35.1848 44.5814C34.9775 44.5295 35.0501 44.2748 35.0411 44.1C34.9745 42.8557 35.3136 41.6691 35.6023 40.4811C36.0598 38.6012 36.5602 36.7303 37.046 34.8565C37.1851 34.3187 36.9512 33.9572 36.5055 33.6995C35.8644 33.3306 35.2262 33.3129 34.5318 33.8298C34.6266 33.0654 34.668 32.3944 34.6354 31.7234C34.5615 30.2273 33.8684 29.2541 32.6618 29.0288C31.7808 28.8644 30.9471 29.1207 30.1594 29.494C28.3233 30.3636 26.8472 31.6745 25.6063 33.2654C25.4611 33.4505 25.3146 33.621 25.1043 33.7349C22.7753 35.0045 20.4476 36.274 18.1245 37.5553C17.8699 37.6975 17.7055 37.6575 17.5218 37.4604C16.3521 36.2058 14.9944 35.1703 13.6499 34.1201C11.7709 32.6507 9.82682 31.2583 8.20543 29.4866C7.25785 28.4497 6.46713 27.3134 6.07178 25.9418C5.42617 23.6991 5.90896 21.6104 6.98393 19.6255C8.25588 17.2776 10.1423 15.4645 12.2225 13.8498C15.5259 11.2871 19.149 9.25173 22.9677 7.57646C27.2439 5.70258 31.68 4.49529 36.4048 4.67746C38.2764 4.75005 40.0931 5.07441 41.7604 5.99136C42.9405 6.64023 43.7223 7.57788 43.9429 8.95401C44.2021 10.5656 43.8155 12.0545 43.1005 13.4662C41.5029 16.6199 38.9635 18.8538 35.9621 20.6032C33.4627 22.0593 30.7664 22.9837 27.9131 23.468C26.3362 23.7361 24.7533 23.8976 23.1675 23.6561C21.3477 23.3791 19.6657 22.7704 18.4205 21.3038C18.2768 21.1349 18.0947 21.0178 17.8505 21.1364C17.6002 21.2579 17.6195 21.48 17.6431 21.6934C17.6608 21.84 17.701 21.9881 17.7527 22.1275C18.0858 23.0267 18.7092 23.705 19.4391 24.2976C21.3374 25.8426 23.5865 26.296 25.9482 26.3419C28.2595 26.3878 30.5353 26.0945 32.7874 25.5554C37.8676 24.3407 42.1231 21.8476 45.2296 17.5754C47.0863 15.0217 48.2621 12.2071 48.1583 8.98676C48.0917 6.94404 47.4046 5.13977 45.9166 3.67333C44.1471 1.93271 41.9514 1.0573 39.5955 0.531481C36.9717 -0.0521753 34.3214 -0.135109 31.6443 0.18486C29.3152 0.463291 27.0395 0.940337 24.8243 1.70319C21.435 2.87192 18.1614 4.30731 15.0282 6.05232C11.8182 7.83873 8.79308 9.88458 6.13979 12.4472C3.79146 14.715 1.77329 17.2171 0.636109 20.3233C0.150485 21.6535 -0.19896 23.0209 0.126821 24.4592C0.544426 26.3109 1.45644 27.9137 2.65583 29.3594C4.46966 31.5489 6.69514 33.2731 8.99019 34.9202C10.8336 36.2445 12.763 37.4504 14.5338 38.8739C15.0358 39.2768 15.0328 39.2768 14.442 39.5864C13.7521 39.9463 13.0546 40.2929 12.3765 40.6766C9.6419 42.2232 6.99895 43.9001 4.84149 46.2303C3.77984 47.3783 3.0587 48.6671 2.72272 50.098C4.47873 52.723 6.56803 55.1049 8.92969 57.1831C12.9586 56.8691 16.0429 54.7715 18.3216 51.3023C19.4218 49.6269 19.9371 47.7309 20.1311 45.731C20.3014 43.9683 20.1221 42.2617 19.6039 40.5789C19.5136 40.2826 19.1775 39.9879 19.3093 39.7272C19.4322 39.4871 19.8024 39.3656 20.0748 39.2087C21.1734 38.5702 22.2751 37.9407 23.4063 37.2905C23.4552 37.5334 23.3604 37.6756 23.319 37.8296C22.6704 40.2102 22.2188 42.6098 22.7119 45.0837C23.0184 46.6243 23.5293 48.0744 24.5005 49.3499C25.5 50.6624 27.7314 50.5127 28.6375 49.3143C29.4978 48.1766 30.0678 46.8938 30.6616 45.6169C30.9874 44.9177 31.2864 44.2067 31.5974 43.5C31.5396 44.3503 31.5426 45.1798 31.5737 46.0065C31.6048 46.8212 31.7351 47.6256 32.1586 48.3455C32.6678 49.2105 33.6259 49.4624 34.5158 49.0001C35.4546 48.5127 36.0943 47.7099 36.5917 46.8389C38.7253 43.0927 40.7049 39.2664 42.344 35.2713C42.6935 34.4225 43.0519 33.5752 43.4472 32.6316C43.5079 32.9412 43.548 33.1307 43.585 33.3204C43.9491 35.2239 44.5977 37.0252 45.5365 38.7183C45.7379 39.0813 45.7156 39.3316 45.461 39.6797C44.5963 40.8573 43.6486 41.9654 42.7143 43.0852C41.9296 44.0274 41.09 44.928 40.4266 45.9649C39.8315 46.8982 40.1734 47.8535 41.1641 48.0655C41.469 48.1307 41.7904 48.15 42.1029 48.1454C43.8338 48.1247 45.4314 47.6077 46.9196 46.7604C48.9228 45.6183 50.1105 43.9443 50.0556 41.5609C50.0304 40.4765 49.7372 39.4352 49.3005 38.4412C49.2043 38.2204 49.1997 38.0605 49.3434 37.8531C50.7309 35.8651 51.9568 33.781 53.0836 31.6361C53.2835 31.2584 53.4241 30.8391 53.7469 30.4703C53.7899 30.6199 53.8239 30.7133 53.8431 30.8096C54.2015 32.5872 54.6842 34.3247 55.5904 35.9112C55.839 36.3453 55.7148 36.5659 55.3713 36.8562C54.1882 37.8621 53.1903 39.0352 52.4069 40.3789C51.7969 41.4247 51.3793 42.5415 51.3838 43.7667C51.3882 45.1295 52.4306 45.9323 53.7588 45.6123C55.1433 45.2805 56.427 44.7161 57.5789 43.8733C60.0886 42.035 60.8245 40.0959 60.0383 37.3895C59.7304 36.3245 59.7362 36.3423 60.8038 36.0194C63.1388 35.3142 65.5079 35.2846 67.8888 35.6728C68.1583 35.7171 68.4249 35.7676 68.6883 35.8253C68.8275 34.9795 68.937 34.1232 69.0141 33.2566C65.9683 32.5118 62.9269 32.8984 59.9211 34.0404ZM10.5821 53.0976C9.90547 53.3377 9.20218 53.4399 8.48246 53.3836C7.5866 53.3124 7.01808 52.68 6.96027 51.7289C6.89508 50.6327 7.21945 49.6432 7.69912 48.6803C8.57117 46.9323 10.0356 45.7459 11.5297 44.5815C12.9822 43.4484 14.5429 42.481 16.1212 41.5404C16.5995 41.256 16.6068 41.2589 16.7164 41.8293C16.8585 42.5611 16.9859 43.2943 16.9384 43.9595C17.063 47.9485 14.1668 51.8281 10.5821 53.0976ZM32.3154 32.9827C32.0638 34.6641 31.5144 36.2653 30.9295 37.8473C30.1329 40.0071 29.357 42.1772 28.3546 44.2541C28.1251 44.7325 27.8837 45.208 27.5122 45.5976C27.1613 45.9665 26.8503 45.9235 26.6075 45.4731C26.1337 44.5932 26.1929 43.6141 26.116 42.903C26.1382 39.336 27.3346 36.4207 29.3053 33.8003C29.8561 33.07 30.5594 32.476 31.4908 32.2374C32.123 32.0763 32.4146 32.331 32.3154 32.9827ZM46.1154 43.5431C45.4402 44.7104 44.4674 45.5592 43.2739 46.1635C43.1465 46.2272 42.9823 46.3397 42.8668 46.1902C42.7573 46.0494 42.9334 45.9561 43.0133 45.8672C44.1994 44.5711 45.3706 43.2645 46.4263 41.8588C46.4426 41.8365 46.4825 41.8335 46.5728 41.7951C46.5625 42.4455 46.4203 43.0173 46.1154 43.5431ZM54.305 43.4928C54.1288 43.5757 53.9245 43.7312 53.7527 43.598C53.5633 43.4514 53.6386 43.1921 53.6965 42.9936C53.966 42.0886 54.3288 41.2219 54.8291 40.4146C55.2496 39.7347 55.7709 39.1407 56.3438 38.5866C56.5748 38.3645 56.6784 38.3911 56.7569 38.7111C56.8384 39.0384 56.8457 39.3658 56.8517 39.6991C56.8369 41.5226 55.9115 42.7359 54.305 43.4928Z" fill="#CD6699"/>
</svg>
