<svg width="70" height="64" viewBox="0 0 70 64" fill="none" xmlns="http://www.w3.org/2000/svg">
<path d="M15.2419 2.19553L34.9294 0.0957031L54.6169 2.19553L69.8589 22.8379L34.9294 63.8735L0 22.8379L15.2419 2.19553Z" fill="#FDB300"/>
<path d="M14.1482 22.8379L34.9295 63.8735L0 22.8379H14.1482Z" fill="#EA6C00"/>
<path d="M55.7106 22.8379L34.9293 63.8735L69.8588 22.8379H55.7106Z" fill="#EA6C00"/>
<path d="M14.1481 22.8379H55.7107L34.9294 63.8735L14.1481 22.8379Z" fill="#FDAD00"/>
<path d="M34.9294 0.0957031L15.2419 2.1955L14.1481 22.8379L34.9294 0.0957031Z" fill="#FDD231"/>
<path d="M34.9294 0.0957031L54.617 2.1955L55.7107 22.8379L34.9294 0.0957031Z" fill="#FDD231"/>
<path d="M69.8589 22.8377L54.6168 2.19531L55.7107 22.8377H69.8589Z" fill="#FDAD00"/>
<path d="M0 22.8377L15.2419 2.19531L14.1482 22.8377H0Z" fill="#FDAD00"/>
<path d="M34.9294 0.0957031L14.1481 22.8379H55.7107L34.9294 0.0957031Z" fill="#FEEEB7"/>
</svg>
