<svg width="70" height="70" viewBox="0 0 70 70" fill="none" xmlns="http://www.w3.org/2000/svg">
<path d="M48.4217 55.2814C41.2015 59.4345 31.274 59.8611 21.2861 55.5988C13.1991 52.1729 6.48898 46.176 2.1875 39.3241C4.25222 41.0371 6.66101 42.4081 9.24183 43.6065C19.5565 48.4204 29.8689 48.0907 37.1262 43.6189C26.8026 35.738 18.0168 25.4464 11.4789 17.0526C10.1019 15.6819 9.06949 13.9686 8.03713 12.4268C15.9518 19.6222 28.5126 28.7015 32.9852 31.2725C23.5233 21.3351 15.0918 9.00091 15.4352 9.34289C30.4047 24.4191 44.3422 32.9854 44.3422 32.9854C44.8033 33.2442 45.1591 33.4599 45.4453 33.6524C45.747 32.8884 46.0115 32.095 46.2343 31.2725C48.6431 22.5351 45.8909 12.5978 39.8681 4.375C53.8041 12.7696 62.0639 28.5305 58.6217 41.7227C58.532 42.0786 58.4345 42.4298 58.3293 42.7749C65.2107 51.3412 63.4393 60.5684 62.5791 58.8554C58.846 51.5815 51.9351 53.8057 48.4217 55.2814Z" fill="url(#paint0_linear)"/>
<defs>
<linearGradient id="paint0_linear" x1="32.835" y1="4.375" x2="32.835" y2="59.0653" gradientUnits="userSpaceOnUse">
<stop stop-color="#F88A36"/>
<stop offset="1" stop-color="#FD2020"/>
</linearGradient>
</defs>
</svg>
