<svg width="70" height="70" viewBox="0 0 70 70" fill="none" xmlns="http://www.w3.org/2000/svg">
<path d="M65.625 35C65.625 51.905 51.9203 65.625 35 65.625C18.0797 65.625 4.375 51.905 4.375 35C4.375 18.0797 18.0797 4.375 35 4.375C51.9203 4.375 65.625 18.0797 65.625 35Z" fill="#E95420"/>
<path d="M14.9221 30.9668C12.7134 30.9668 10.9375 32.7829 10.9375 35.0076C10.9375 37.2322 12.7283 39.0483 14.9221 39.0483C17.1159 39.0483 18.9068 37.2322 18.9068 35.0076C18.9068 32.7678 17.1159 30.9668 14.9221 30.9668ZM43.3816 49.3242C41.4714 50.4441 40.8297 52.911 41.9191 54.8481C43.0234 56.7852 45.456 57.4511 47.3662 56.3312C49.2765 55.2113 49.9182 52.7445 48.8288 50.8073C47.7095 48.8853 45.2769 48.2195 43.3816 49.3242ZM23.5779 35.0076C23.5779 31.0122 25.5329 27.486 28.5325 25.3521L25.6224 20.4034C22.1303 22.7643 19.5485 26.3812 18.459 30.6036C19.7126 31.6478 20.5185 33.2369 20.5185 35.0076C20.5185 36.7782 19.7126 38.3673 18.459 39.4115C19.5336 43.6339 22.1303 47.2509 25.6224 49.6118L28.5325 44.663C25.5329 42.5291 23.5779 39.0029 23.5779 35.0076ZM35.2184 23.2031C41.3072 23.2031 46.2917 27.9249 46.8141 33.9633L52.5 33.8725C52.2164 29.4232 50.3062 25.4278 47.3513 22.4918C45.8291 23.0669 44.083 22.9761 42.5757 22.0984C41.0535 21.2055 40.1133 19.7223 39.8447 18.0879C38.3673 17.6793 36.8152 17.4523 35.2184 17.4523C32.4575 17.4523 29.8607 18.103 27.5476 19.2683L30.3234 24.2928C31.8008 23.5966 33.4723 23.2031 35.2184 23.2031V23.2031ZM35.2184 46.812C33.4723 46.812 31.8008 46.4185 30.3085 45.7224L27.5327 50.7468C29.8458 51.9121 32.4575 52.5629 35.2034 52.5629C36.8003 52.5629 38.3523 52.3359 39.8298 51.9273C40.0835 50.3079 41.0386 48.8097 42.5608 47.9168C44.0681 47.0239 45.8291 46.9482 47.3364 47.5233C50.2764 44.5873 52.2015 40.592 52.4851 36.1426L46.7991 36.0518C46.2917 42.0751 41.3072 46.812 35.2184 46.812V46.812ZM43.3667 20.6758C45.2769 21.7957 47.7095 21.1298 48.8138 19.1927C49.9182 17.2555 49.2616 14.7887 47.3513 13.6688C45.4411 12.5489 43.0085 13.2148 41.9042 15.1519C40.8147 17.089 41.4714 19.5559 43.3667 20.6758Z" fill="white"/>
</svg>
