<svg width="70" height="60" viewBox="0 0 70 60" fill="none" xmlns="http://www.w3.org/2000/svg">
<path d="M10.7904 40.3008L7.1287 41.6599L6.93384 52.7248L19.6088 48.0211C15.2578 46.5409 12.0847 43.932 10.7904 40.3008" fill="#FDBD39"/>
<path d="M12.7069 28.5977L0 33.3132L7.12855 41.6628L10.7903 40.3037C9.49892 36.6843 10.2958 32.5982 12.7069 28.5977Z" fill="#F69833"/>
<path d="M34.0867 12.6283C17.9071 18.632 7.47452 31.0236 10.7901 40.301L69.3805 18.5582C66.0649 9.28074 50.2663 6.62456 34.0867 12.6283" fill="#FECF33"/>
<path d="M46.0812 46.2333C62.2608 40.2295 72.7108 27.8941 69.3777 18.5605L10.7875 40.3004C14.1206 49.6369 29.9017 52.237 46.0812 46.2333Z" fill="#EE6723"/>
<path d="M69.3776 18.5586L10.7902 40.3014C11.9362 43.516 16.3133 45.0997 22.4501 45.0997C28.4357 45.0997 36.0965 43.5958 44.083 40.6323C60.2626 34.6286 71.6432 24.9051 69.3776 18.5586" fill="#F69833"/>
<path d="M57.7177 13.7617C51.7351 13.7617 44.0714 15.2656 36.0848 18.2291C19.9053 24.2328 8.52459 33.9533 10.7903 40.2998L69.3805 18.557C68.2317 15.3424 63.8574 13.7617 57.7177 13.7617" fill="#FDBD39"/>
<path opacity="0.9" d="M42.3627 10.2848C40.8284 4.75283 39.0141 1.35629 37.3385 1.50675C34.1843 1.79 32.7164 14.5353 34.0598 29.9743C35.4032 45.4132 39.0492 57.6994 42.2034 57.4161C44.0238 57.2526 45.2825 52.9384 45.7633 46.351C45.8693 46.3124 45.9752 46.2735 46.0812 46.2341C48.9066 45.1857 51.5572 43.9442 53.9903 42.5594C56.2808 47.7186 57.0245 51.4437 55.661 52.4177C53.0707 54.268 43.8568 45.4899 35.081 32.8114C26.3053 20.1328 21.2909 8.3549 23.8812 6.50464C25.3895 5.42724 29.1436 7.95353 33.7493 12.7552" stroke="#EE6723" stroke-width="1.2"/>
</svg>
