<svg width="419" height="274" viewBox="0 0 419 274" fill="none" xmlns="http://www.w3.org/2000/svg">
<rect width="419" height="274" fill="#EFEFEF"/>
<path d="M235.467 174.071V158.837C235.467 153.606 233.208 148.625 229.268 145.176L220.378 137.4L229.268 129.624C233.208 126.175 235.467 121.194 235.467 115.963V100.729C237.81 99.894 239.5 97.6757 239.5 95.05C239.5 91.7144 236.786 89 233.45 89H185.05C181.714 89 179 91.7144 179 95.05C179 97.6757 180.69 99.894 183.033 100.729V115.963C183.033 121.194 185.292 126.175 189.232 129.624L198.122 137.4L189.232 145.176C185.292 148.625 183.033 153.606 183.033 158.837V174.071C180.69 174.906 179 177.124 179 179.75C179 183.086 181.714 185.8 185.05 185.8H233.45C236.786 185.8 239.5 183.086 239.5 179.75C239.5 177.124 237.81 174.906 235.467 174.071ZM231.433 173.7H187.067V158.837C187.067 154.768 188.825 150.896 191.887 148.213L202.51 138.917C202.95 138.533 203.2 137.981 203.2 137.4C203.2 136.819 202.95 136.267 202.51 135.884L191.887 126.587C188.825 123.905 187.067 120.033 187.067 115.963V101.1H231.433V115.963C231.433 120.032 229.675 123.904 226.614 126.587L215.99 135.883C215.55 136.267 215.3 136.819 215.3 137.4C215.3 137.981 215.55 138.533 215.99 138.916L226.614 148.213C229.679 150.895 231.433 154.767 231.433 158.837V173.7Z" fill="white"/>
<path d="M226.96 166.39L210.827 146.224C210.061 145.268 208.443 145.268 207.677 146.224L191.544 166.39C191.06 166.995 190.967 167.826 191.302 168.524C191.637 169.222 192.342 169.665 193.117 169.665H225.384C226.158 169.665 226.864 169.222 227.203 168.524C227.537 167.826 227.444 166.995 226.96 166.39Z" fill="white"/>
<path d="M219.18 122.513C218.869 121.759 218.131 121.267 217.317 121.267H201.183C200.369 121.267 199.631 121.759 199.32 122.513C199.005 123.267 199.179 124.13 199.756 124.711L207.822 132.778C208.218 133.169 208.734 133.367 209.25 133.367C209.766 133.367 210.283 133.169 210.678 132.778L218.745 124.711C219.321 124.134 219.495 123.267 219.18 122.513Z" fill="white"/>
</svg>
