<svg width="41" height="40" viewBox="0 0 41 40" fill="none" xmlns="http://www.w3.org/2000/svg">
<path d="M38.1909 6.69909L33.2674 1.7973C32.6959 1.22542 32.0177 0.773009 31.2704 0.465075C30.5293 0.157141 29.7255 0 28.9154 0C28.1115 0 27.3077 0.157141 26.5666 0.465075C25.8193 0.773009 25.1411 1.22542 24.5696 1.7973L14.8419 11.4878C13.6864 12.6379 13.0396 14.1964 13.0396 15.8177C13.0396 17.4454 13.6864 19.0039 14.8419 20.154L19.7654 25.0557C20.9146 26.1995 22.4847 26.8468 24.1112 26.8468C25.744 26.8468 27.3077 26.1995 28.4632 25.0557L31.038 22.4917L28.2748 19.6952L25.7063 22.2593C25.2918 22.6677 24.7392 22.894 24.1614 22.894C23.5837 22.894 23.031 22.6677 22.6165 22.2593L17.6491 17.3448C17.2409 16.9363 17.0085 16.3833 17.0085 15.8052C17.0085 15.2333 17.2409 14.6802 17.6491 14.2718L27.3768 4.58132C27.584 4.38023 27.8227 4.22313 28.0864 4.11002C28.3502 4.00318 28.6328 3.94662 28.9216 3.94662C29.2105 3.94662 29.4931 4.00318 29.7569 4.11002C30.0207 4.22313 30.2656 4.38023 30.4665 4.58132L35.3901 9.48312C35.591 9.68422 35.7543 9.92925 35.861 10.1932C35.9741 10.4509 36.0306 10.7337 36.0306 11.0228C36.0306 11.3056 35.9741 11.5884 35.861 11.8523C35.7543 12.1163 35.591 12.3551 35.3901 12.5562L32.8592 15.0762L35.6789 17.879L38.2098 15.3653C38.7812 14.7997 39.2334 14.1209 39.5411 13.3794C39.8488 12.6378 40.0121 11.8397 40.0121 11.0353C40.0121 10.2309 39.8488 9.4328 39.5411 8.69125C39.2334 7.94341 38.7812 7.27097 38.2098 6.69909" fill="#367FA9"/>
<g opacity="0.6">
<path opacity="0.6" d="M35.7837 19.8651L30.8603 14.9633C30.2888 14.3914 29.6105 13.939 28.8632 13.6311C28.1159 13.3232 27.3183 13.166 26.5082 13.166C25.7044 13.166 24.9005 13.3232 24.1532 13.6311C23.4059 13.939 22.7277 14.3914 22.1562 14.9633L19.6316 17.4771L22.4513 20.2862L24.9759 17.7725C25.3904 17.364 25.943 17.1378 26.5208 17.1378C27.0985 17.1378 27.6575 17.364 28.0657 17.7725L32.9892 22.6743C33.3974 23.0827 33.6234 23.6358 33.6234 24.2077C33.6234 24.7858 33.3974 25.3388 32.9892 25.7473L23.2614 35.4315C22.8407 35.8274 22.2881 36.0473 21.7166 36.0473C21.1388 36.0473 20.5862 35.8274 20.1717 35.4315L15.2482 30.5297C14.8651 30.1464 14.639 29.631 14.6139 29.0906C14.5951 28.5501 14.7772 28.0159 15.1351 27.6012L16.1085 26.602L17.779 24.9429L14.9593 22.1338L12.4285 24.6538L0.540466 36.4245C1.36314 37.1974 2.45587 37.6121 3.58626 37.5933C4.71666 37.5682 5.79052 37.1094 6.5818 36.305L11.1976 31.5855C11.499 32.2328 11.9072 32.8172 12.4096 33.32L17.352 38.2092C17.9235 38.7748 18.6017 39.2273 19.349 39.5352C20.0964 39.8431 20.8939 40.0003 21.704 40.0003C22.5142 40.0003 23.3117 39.8431 24.059 39.5352C24.8064 39.2273 25.4846 38.7748 26.0561 38.2092L35.7837 28.5187C36.933 27.3686 37.5736 25.8101 37.5736 24.1888C37.5736 22.5674 36.933 21.0151 35.7837 19.8651Z" fill="#367FA9"/>
</g>
</svg>
