<svg width="40" height="40" viewBox="0 0 40 40" fill="none" xmlns="http://www.w3.org/2000/svg">
<path d="M33.0056 30.5311C33.5792 30.2176 34.1289 29.8606 34.6447 29.4602C36.2693 28.2156 37.5708 26.614 38.453 24.7857C39.3352 22.9622 39.769 20.9602 39.7208 18.9389C39.6148 12.2335 36.6212 9.56585 31.7089 10.1785C28.5803 10.5692 24.5212 10.8056 22.3134 8.34534C17.6421 3.15949 9.7169 2.14641 4.42378 6.98975C2.41838 8.83254 1.12157 11.2928 0.740739 13.9557C0.364725 16.6234 0.933638 19.3297 2.35092 21.6356C2.3702 21.6501 2.37982 21.6645 2.38947 21.6838C2.39911 21.7031 2.39903 21.7225 2.39903 21.7418C4.06217 24.3516 5.21443 27.2363 5.80255 30.2562C6.1641 32.2485 7.04628 34.1105 8.35751 35.6735C9.67356 37.2365 11.3752 38.4474 13.2987 39.1855C15.227 39.9236 17.3143 40.1648 19.3679 39.8898C21.4167 39.6196 23.3594 38.8333 25.0129 37.6176C25.9674 36.9133 26.8159 36.0788 27.5342 35.1381C28.9949 33.2326 30.8604 31.66 33.0056 30.5311Z" fill="#B92327"/>
<path d="M31.464 32.0845C32.0618 31.8385 32.65 31.5538 33.214 31.2355C34.9832 30.1838 36.4775 28.7511 37.5863 27.0434C38.6902 25.3309 39.3699 23.3964 39.582 21.3848C40.3244 14.7614 37.6442 11.7174 32.7126 11.7463C29.5551 11.7463 25.4815 11.5099 23.6063 8.8133C19.6244 3.1354 11.8727 1.16717 6.03964 5.36891C3.81731 6.95602 2.22171 9.23782 1.51789 11.838C0.809253 14.4333 1.04066 17.1927 2.16388 19.6433C2.16388 19.6433 2.16388 19.7205 2.16388 19.7494C3.50885 22.5425 4.29453 25.5624 4.47772 28.6401C4.58377 30.5649 5.17672 32.4367 6.20353 34.0817C7.16767 35.6592 8.49826 36.9906 10.0794 37.9795C11.6654 38.9685 13.4635 39.5859 15.334 39.7789C17.1996 39.9719 19.0892 39.7403 20.8536 39.0987C22.6132 38.4619 24.1993 37.4296 25.4816 36.0885C27.1399 34.3326 29.1839 32.9625 31.464 32.0845Z" fill="url(#paint0_linear)"/>
<path d="M4.42347 15.2723C5.2912 15.2723 5.99496 14.5872 5.99496 13.7382C5.99496 12.894 5.2912 12.209 4.42347 12.209C3.56057 12.209 2.85669 12.894 2.85669 13.7382C2.85669 14.5872 3.56057 15.2723 4.42347 15.2723Z" fill="url(#paint1_linear)"/>
<path d="M7.89073 9.98031C8.75846 9.98031 9.46237 9.29529 9.46237 8.45108C9.46237 7.60205 8.75846 6.91699 7.89073 6.91699C7.02301 6.91699 6.3241 7.60205 6.3241 8.45108C6.3241 9.29529 7.02301 9.98031 7.89073 9.98031Z" fill="url(#paint2_linear)"/>
<path d="M9.03862 12.9328C9.67013 12.9328 10.1811 12.4359 10.1811 11.8185C10.1811 11.201 9.67013 10.7041 9.03862 10.7041C8.40711 10.7041 7.89612 11.201 7.89612 11.8185C7.89612 12.4359 8.40711 12.9328 9.03862 12.9328Z" fill="url(#paint3_linear)"/>
<path d="M11.0038 9.56563C11.6353 9.56563 12.1463 9.06388 12.1463 8.4464C12.1463 7.82892 11.6353 7.33203 11.0038 7.33203C10.3723 7.33203 9.86127 7.82892 9.86127 8.4464C9.86127 9.06388 10.3723 9.56563 11.0038 9.56563Z" fill="url(#paint4_linear)"/>
<path d="M8.6957 15.1566C9.11992 15.1566 9.46232 14.8237 9.46232 14.4089C9.46232 13.9988 9.11992 13.6611 8.6957 13.6611C8.2763 13.6611 7.93408 13.9988 7.93408 14.4089C7.93408 14.8237 8.2763 15.1566 8.6957 15.1566Z" fill="url(#paint5_linear)"/>
<path d="M6.77722 12.2045C7.20144 12.2045 7.54369 11.8717 7.54369 11.4568C7.54369 11.0468 7.20144 10.7139 6.77722 10.7139C6.35299 10.7139 6.01074 11.0468 6.01074 11.4568C6.01074 11.8717 6.35299 12.2045 6.77722 12.2045Z" fill="url(#paint6_linear)"/>
<path d="M11.0048 12.5658C11.4242 12.5658 11.7712 12.2281 11.7712 11.818C11.7712 11.4032 11.4242 11.0703 11.0048 11.0703C10.5805 11.0703 10.2383 11.4032 10.2383 11.818C10.2383 12.2281 10.5805 12.5658 11.0048 12.5658Z" fill="url(#paint7_linear)"/>
<path d="M16.8189 8.60091C17.2431 8.60091 17.5853 8.26323 17.5853 7.85319C17.5853 7.43832 17.2431 7.10547 16.8189 7.10547C16.3946 7.10547 16.0522 7.43832 16.0522 7.85319C16.0522 8.26323 16.3946 8.60091 16.8189 8.60091Z" fill="url(#paint8_linear)"/>
<path d="M10.6048 17.8337C11.4677 17.8337 12.1714 17.1487 12.1714 16.2997C12.1714 15.4555 11.4677 14.7656 10.6048 14.7656C9.73706 14.7656 9.03314 15.4555 9.03314 16.2997C9.03314 17.1487 9.73706 17.8337 10.6048 17.8337Z" fill="url(#paint9_linear)"/>
<path d="M14.0818 7.85328C14.9495 7.85328 15.6534 7.1683 15.6534 6.31927C15.6534 5.47506 14.9495 4.79004 14.0818 4.79004C13.214 4.79004 12.5151 5.47506 12.5151 6.31927C12.5151 7.1683 13.214 7.85328 14.0818 7.85328Z" fill="url(#paint10_linear)"/>
<path d="M14.0818 12.5466C14.9495 12.5466 15.6534 11.8567 15.6534 11.0125C15.6534 10.1635 14.9495 9.47852 14.0818 9.47852C13.214 9.47852 12.5151 10.1635 12.5151 11.0125C12.5151 11.8567 13.214 12.5466 14.0818 12.5466Z" fill="url(#paint11_linear)"/>
<path d="M15.2179 15.4698C15.8495 15.4698 16.3604 14.9681 16.3604 14.3506C16.3604 13.738 15.8495 13.2363 15.2179 13.2363C14.5864 13.2363 14.0754 13.738 14.0754 14.3506C14.0754 14.9681 14.5864 15.4698 15.2179 15.4698Z" fill="url(#paint12_linear)"/>
<path d="M17.1552 12.132C17.7867 12.132 18.3026 11.6302 18.3026 11.0176C18.3026 10.4001 17.7867 9.89844 17.1552 9.89844C16.5237 9.89844 16.0127 10.4001 16.0127 11.0176C16.0127 11.6302 16.5237 12.132 17.1552 12.132Z" fill="url(#paint13_linear)"/>
<path d="M14.8514 17.7181C15.2708 17.7181 15.6131 17.3853 15.6131 16.9753C15.6131 16.5604 15.2708 16.2275 14.8514 16.2275C14.4272 16.2275 14.0849 16.5604 14.0849 16.9753C14.0849 17.3853 14.4272 17.7181 14.8514 17.7181Z" fill="url(#paint14_linear)"/>
<path d="M12.9381 14.7708C13.3623 14.7708 13.7046 14.4332 13.7046 14.0231C13.7046 13.6082 13.3623 13.2754 12.9381 13.2754C12.5139 13.2754 12.1716 13.6082 12.1716 14.0231C12.1716 14.4332 12.5139 14.7708 12.9381 14.7708Z" fill="url(#paint15_linear)"/>
<path d="M17.9558 15.099C18.38 15.099 18.7223 14.7661 18.7223 14.3512C18.7223 13.9412 18.38 13.6035 17.9558 13.6035C17.5316 13.6035 17.1893 13.9412 17.1893 14.3512C17.1893 14.7661 17.5316 15.099 17.9558 15.099Z" fill="url(#paint16_linear)"/>
<path d="M36.1835 13.8639C36.2221 13.232 36.2221 12.6001 36.1835 11.9681C35.9762 9.96134 35.2964 8.02683 34.1973 6.3143C33.0934 4.60658 31.6038 3.16908 29.8395 2.12226C24.0257 -1.40895 20.0727 -0.36696 17.9516 4.01328C16.5922 6.78228 14.606 10.2556 11.3135 10.7476C4.31865 11.7607 -0.83464 17.7522 0.49105 24.7326C1.00204 27.3761 2.41943 29.7737 4.51643 31.52C6.61343 33.2663 9.25513 34.26 12.0126 34.3372H12.1475C15.2906 34.371 18.3999 34.9885 21.3116 36.1511C23.1435 36.9229 25.1442 37.2268 27.1255 37.0339C30.2782 36.7251 33.1802 35.2297 35.2193 32.8611C37.2585 30.4925 38.2661 27.4388 38.0347 24.3563C37.9383 23.184 37.6683 22.0359 37.2392 20.9409C36.3571 18.6832 36.0004 16.2663 36.1835 13.8639Z" fill="#EA5927"/>
<path d="M36.6134 15.5283C36.7243 14.9012 36.7773 14.2692 36.7773 13.6324C36.7725 11.616 36.2904 9.62368 35.3649 7.81466C34.4393 6.01047 33.0943 4.43781 31.4409 3.22697C25.9742 -0.849349 21.9633 -0.169164 19.4469 3.97469C17.8272 6.61345 15.5229 9.87933 12.1677 10.0675C5.11499 10.4148 -0.587774 15.9143 0.0485574 22.9332C0.294413 25.6106 1.47056 28.1288 3.37955 30.068C5.28854 32.0025 7.81944 33.2471 10.5528 33.5896C10.5962 33.5751 10.6444 33.5751 10.6878 33.5896C13.8309 33.9224 16.8824 34.8245 19.6881 36.2572C21.438 37.1642 23.3854 37.637 25.3667 37.6273C28.5339 37.6225 31.571 36.4116 33.8319 34.2456C36.0928 32.0796 37.3992 29.1369 37.4667 26.0496C37.4956 24.8725 37.3414 23.7051 37.0136 22.5762C36.3532 20.28 36.2181 17.8776 36.6134 15.5283Z" fill="url(#paint17_linear)"/>
<path d="M19.0694 13.9939C19.9371 13.9939 20.641 13.3088 20.641 12.4598C20.641 11.6156 19.9371 10.9258 19.0694 10.9258C18.2065 10.9258 17.5027 11.6156 17.5027 12.4598C17.5027 13.3088 18.2065 13.9939 19.0694 13.9939Z" fill="url(#paint18_linear)"/>
<path d="M22.5419 8.71176C23.4096 8.71176 24.1135 8.0267 24.1135 7.17767C24.1135 6.33346 23.4096 5.64844 22.5419 5.64844C21.6741 5.64844 20.9752 6.33346 20.9752 7.17767C20.9752 8.0267 21.6741 8.71176 22.5419 8.71176Z" fill="url(#paint19_linear)"/>
<path d="M23.6824 11.6642C24.3139 11.6642 24.8249 11.1673 24.8249 10.5498C24.8249 9.93234 24.3139 9.43066 23.6824 9.43066C23.0509 9.43066 22.5399 9.93234 22.5399 10.5498C22.5399 11.1673 23.0509 11.6642 23.6824 11.6642Z" fill="url(#paint20_linear)"/>
<path d="M25.6219 8.30188C26.2534 8.30188 26.7644 7.80021 26.7644 7.18273C26.7644 6.56525 26.2534 6.06836 25.6219 6.06836C24.9904 6.06836 24.4794 6.56525 24.4794 7.18273C24.4794 7.80021 24.9904 8.30188 25.6219 8.30188Z" fill="url(#paint21_linear)"/>
<path d="M23.3187 13.8929C23.7381 13.8929 24.0803 13.5552 24.0803 13.1452C24.0803 12.7303 23.7381 12.3975 23.3187 12.3975C22.8945 12.3975 22.5522 12.7303 22.5522 13.1452C22.5522 13.5552 22.8945 13.8929 23.3187 13.8929Z" fill="url(#paint22_linear)"/>
<path d="M21.4138 10.9261C21.838 10.9261 22.1804 10.5933 22.1804 10.1784C22.1804 9.76834 21.838 9.43066 21.4138 9.43066C20.9896 9.43066 20.6473 9.76834 20.6473 10.1784C20.6473 10.5933 20.9896 10.9261 21.4138 10.9261Z" fill="url(#paint23_linear)"/>
<path d="M25.6224 11.2924C26.0466 11.2924 26.3888 10.9595 26.3888 10.5495C26.3888 10.1346 26.0466 9.80176 25.6224 9.80176C25.1981 9.80176 24.8559 10.1346 24.8559 10.5495C24.8559 10.9595 25.1981 11.2924 25.6224 11.2924Z" fill="url(#paint24_linear)"/>
<path d="M31.4335 7.33236C31.8577 7.33236 32.2 6.9995 32.2 6.58464C32.2 6.17459 31.8577 5.83691 31.4335 5.83691C31.0093 5.83691 30.6671 6.17459 30.6671 6.58464C30.6671 6.9995 31.0093 7.33236 31.4335 7.33236Z" fill="url(#paint25_linear)"/>
<path d="M25.2325 16.5701C26.1002 16.5701 26.7991 15.8802 26.7991 15.036C26.7991 14.1869 26.1002 13.502 25.2325 13.502C24.3647 13.502 23.6608 14.1869 23.6608 15.036C23.6608 15.8802 24.3647 16.5701 25.2325 16.5701Z" fill="url(#paint26_linear)"/>
<path d="M28.7295 6.58473C29.5972 6.58473 30.3011 5.89971 30.3011 5.0555C30.3011 4.20647 29.5972 3.52148 28.7295 3.52148C27.8666 3.52148 27.1628 4.20647 27.1628 5.0555C27.1628 5.89971 27.8666 6.58473 28.7295 6.58473Z" fill="url(#paint27_linear)"/>
<path d="M28.7018 11.2781C29.5695 11.2781 30.2733 10.5931 30.2733 9.74886C30.2733 8.89983 29.5695 8.21484 28.7018 8.21484C27.8389 8.21484 27.135 8.89983 27.135 9.74886C27.135 10.5931 27.8389 11.2781 28.7018 11.2781Z" fill="url(#paint28_linear)"/>
<path d="M29.8445 14.2306C30.476 14.2306 30.987 13.7289 30.987 13.1162C30.987 12.4987 30.476 11.9971 29.8445 11.9971C29.213 11.9971 28.702 12.4987 28.702 13.1162C28.702 13.7289 29.213 14.2306 29.8445 14.2306Z" fill="url(#paint29_linear)"/>
<path d="M31.7866 10.8634C32.4181 10.8634 32.9291 10.3617 32.9291 9.74418C32.9291 9.13152 32.4181 8.62988 31.7866 8.62988C31.1551 8.62988 30.6392 9.13152 30.6392 9.74418C30.6392 10.3617 31.1551 10.8634 31.7866 10.8634Z" fill="url(#paint30_linear)"/>
<path d="M29.4684 16.4544C29.8927 16.4544 30.2349 16.1216 30.2349 15.7067C30.2349 15.2967 29.8927 14.959 29.4684 14.959C29.0442 14.959 28.702 15.2967 28.702 15.7067C28.702 16.1216 29.0442 16.4544 29.4684 16.4544Z" fill="url(#paint31_linear)"/>
<path d="M27.5599 13.4925C27.9841 13.4925 28.3264 13.1597 28.3264 12.7448C28.3264 12.3347 27.9841 11.9971 27.5599 11.9971C27.1405 11.9971 26.7982 12.3347 26.7982 12.7448C26.7982 13.1597 27.1405 13.4925 27.5599 13.4925Z" fill="url(#paint32_linear)"/>
<path d="M32.5775 13.8587C33.0017 13.8587 33.3439 13.5259 33.3439 13.111C33.3439 12.701 33.0017 12.3633 32.5775 12.3633C32.1581 12.3633 31.8159 12.701 31.8159 13.111C31.8159 13.5259 32.1581 13.8587 32.5775 13.8587Z" fill="url(#paint33_linear)"/>
<path d="M23.4522 14.1008V18.6161C23.4474 18.7705 23.3992 18.92 23.3173 19.0503C23.2305 19.1853 23.11 19.2915 22.9702 19.3638L19.6825 21.0185C19.4704 21.1246 19.2341 21.1825 18.9931 21.1825C18.7521 21.1825 18.511 21.1246 18.2989 21.0185L15.1993 19.3783C15.0643 19.306 14.9533 19.1998 14.8762 19.0744C14.7943 18.9442 14.751 18.7994 14.7413 18.6499V14.1008C14.7413 13.8499 14.64 13.6088 14.4568 13.4303C14.2784 13.2566 14.0326 13.1553 13.7723 13.1553H11.0824C10.8221 13.1553 10.5762 13.2566 10.3979 13.4303C10.2147 13.6088 10.1133 13.8499 10.1133 14.1008V28.6454C10.1133 28.8962 10.2147 29.1325 10.3979 29.311C10.5762 29.4895 10.8221 29.5909 11.0824 29.5909H13.8398C14.1001 29.5909 14.346 29.4895 14.5292 29.311C14.7075 29.1325 14.8087 28.8962 14.8087 28.6454V24.5449C14.8087 24.4532 14.8328 24.3664 14.8762 24.2844C14.9244 24.2072 14.992 24.1397 15.0739 24.0962C15.1607 24.0528 15.2523 24.0336 15.3439 24.0384C15.4403 24.048 15.527 24.077 15.6041 24.13L18.2603 25.7847C18.4965 25.9342 18.7714 26.0114 19.0558 26.0114C19.3354 26.0114 19.6102 25.9342 19.8512 25.7847L22.7532 24.0432C22.8352 23.9998 22.9267 23.9708 23.0183 23.9708C23.1147 23.9708 23.2063 23.995 23.2883 24.0384C23.3702 24.0818 23.433 24.1493 23.4812 24.2313C23.5294 24.3085 23.5535 24.4002 23.5487 24.4918V28.6164C23.5487 28.8672 23.6499 29.1084 23.8331 29.2821C24.0162 29.4606 24.2621 29.5619 24.5176 29.5619H27.1257C27.3812 29.5619 27.627 29.4606 27.8102 29.2821C27.9934 29.1084 28.0946 28.8672 28.0946 28.6164V14.1008C28.0946 13.8499 27.9934 13.6088 27.8102 13.4303C27.627 13.2566 27.3812 13.1553 27.1257 13.1553H24.373C24.1271 13.1649 23.891 13.2711 23.7174 13.4496C23.5487 13.6232 23.4522 13.8596 23.4522 14.1008Z" fill="white"/>
<path d="M22.7374 24.0519C22.8049 24.0374 22.877 24.0374 22.9494 24.0519C23.0843 24.0519 23.2097 24.1049 23.3061 24.1966C23.4025 24.2882 23.4556 24.4137 23.4556 24.5439V24.6983L28.0353 21.2539L22.7374 24.0519Z" fill="url(#paint34_linear)"/>
<path d="M15.4973 24.0714C15.4298 24.0618 15.3575 24.0618 15.2852 24.0714C15.155 24.0714 15.0345 24.1197 14.9381 24.2065C14.8465 24.2885 14.7886 24.4092 14.7838 24.5346V24.6938L12.5905 22.1611L15.4973 24.0714Z" fill="url(#paint35_linear)"/>
<path d="M22.3091 19.7012L32.4423 14.4092V18.8666L22.4152 24.2309" fill="white"/>
<defs>
<linearGradient id="paint0_linear" x1="1.24312" y1="21.0567" x2="39.8809" y2="21.0567" gradientUnits="userSpaceOnUse">
<stop stop-color="#E52629"/>
<stop offset="1" stop-color="#783337"/>
</linearGradient>
<linearGradient id="paint1_linear" x1="47.5589" y1="-1574.76" x2="94.8213" y2="-1622.6" gradientUnits="userSpaceOnUse">
<stop stop-color="#E52629"/>
<stop offset="1" stop-color="#783337"/>
</linearGradient>
<linearGradient id="paint2_linear" x1="49.0547" y1="-1538.35" x2="96.317" y2="-1586.05" gradientUnits="userSpaceOnUse">
<stop stop-color="#E52629"/>
<stop offset="1" stop-color="#783337"/>
</linearGradient>
<linearGradient id="paint3_linear" x1="42.0892" y1="-740.536" x2="76.5673" y2="-775.324" gradientUnits="userSpaceOnUse">
<stop stop-color="#E52629"/>
<stop offset="1" stop-color="#783337"/>
</linearGradient>
<linearGradient id="paint4_linear" x1="43.0083" y1="-725.129" x2="77.4146" y2="-759.915" gradientUnits="userSpaceOnUse">
<stop stop-color="#E52629"/>
<stop offset="1" stop-color="#783337"/>
</linearGradient>
<linearGradient id="paint5_linear" x1="31.306" y1="-276.214" x2="54.3457" y2="-299.542" gradientUnits="userSpaceOnUse">
<stop stop-color="#E52629"/>
<stop offset="1" stop-color="#783337"/>
</linearGradient>
<linearGradient id="paint6_linear" x1="24.7387" y1="-271.296" x2="47.8127" y2="-294.589" gradientUnits="userSpaceOnUse">
<stop stop-color="#E52629"/>
<stop offset="1" stop-color="#783337"/>
</linearGradient>
<linearGradient id="paint7_linear" x1="34.1918" y1="-268.799" x2="57.2362" y2="-292.098" gradientUnits="userSpaceOnUse">
<stop stop-color="#E52629"/>
<stop offset="1" stop-color="#783337"/>
</linearGradient>
<linearGradient id="paint8_linear" x1="43.5563" y1="-255.692" x2="66.596" y2="-278.988" gradientUnits="userSpaceOnUse">
<stop stop-color="#E52629"/>
<stop offset="1" stop-color="#783337"/>
</linearGradient>
<linearGradient id="paint9_linear" x1="70.068" y1="-1580.01" x2="117.33" y2="-1627.71" gradientUnits="userSpaceOnUse">
<stop stop-color="#E52629"/>
<stop offset="1" stop-color="#783337"/>
</linearGradient>
<linearGradient id="paint10_linear" x1="63.8122" y1="-1516.03" x2="111.073" y2="-1563.73" gradientUnits="userSpaceOnUse">
<stop stop-color="#E52629"/>
<stop offset="1" stop-color="#783337"/>
</linearGradient>
<linearGradient id="paint11_linear" x1="71.6025" y1="-1543.58" x2="118.864" y2="-1591.28" gradientUnits="userSpaceOnUse">
<stop stop-color="#E52629"/>
<stop offset="1" stop-color="#783337"/>
</linearGradient>
<linearGradient id="paint12_linear" x1="60.8553" y1="-743.284" x2="95.2605" y2="-778.07" gradientUnits="userSpaceOnUse">
<stop stop-color="#E52629"/>
<stop offset="1" stop-color="#783337"/>
</linearGradient>
<linearGradient id="paint13_linear" x1="61.7183" y1="-728.07" x2="96.1234" y2="-762.785" gradientUnits="userSpaceOnUse">
<stop stop-color="#E52629"/>
<stop offset="1" stop-color="#783337"/>
</linearGradient>
<linearGradient id="paint14_linear" x1="46.6841" y1="-277.041" x2="69.7232" y2="-300.336" gradientUnits="userSpaceOnUse">
<stop stop-color="#E52629"/>
<stop offset="1" stop-color="#783337"/>
</linearGradient>
<linearGradient id="paint15_linear" x1="40.1696" y1="-272.089" x2="63.2093" y2="-295.416" gradientUnits="userSpaceOnUse">
<stop stop-color="#E52629"/>
<stop offset="1" stop-color="#783337"/>
</linearGradient>
<linearGradient id="paint16_linear" x1="51.2709" y1="-268.958" x2="74.3443" y2="-292.251" gradientUnits="userSpaceOnUse">
<stop stop-color="#E52629"/>
<stop offset="1" stop-color="#783337"/>
</linearGradient>
<linearGradient id="paint17_linear" x1="0.188356" y1="18.5771" x2="37.6836" y2="18.5771" gradientUnits="userSpaceOnUse">
<stop stop-color="#F49523"/>
<stop offset="1" stop-color="#E84339"/>
</linearGradient>
<linearGradient id="paint18_linear" x1="114.866" y1="-1569.33" x2="162.128" y2="-1617.04" gradientUnits="userSpaceOnUse">
<stop stop-color="#F49523"/>
<stop offset="1" stop-color="#E84339"/>
</linearGradient>
<linearGradient id="paint19_linear" x1="116.367" y1="-1532.84" x2="163.629" y2="-1580.54" gradientUnits="userSpaceOnUse">
<stop stop-color="#F49523"/>
<stop offset="1" stop-color="#E84339"/>
</linearGradient>
<linearGradient id="paint20_linear" x1="96.6338" y1="-737.016" x2="131.111" y2="-771.804" gradientUnits="userSpaceOnUse">
<stop stop-color="#F49523"/>
<stop offset="1" stop-color="#E84339"/>
</linearGradient>
<linearGradient id="paint21_linear" x1="97.5031" y1="-721.67" x2="131.903" y2="-756.457" gradientUnits="userSpaceOnUse">
<stop stop-color="#F49523"/>
<stop offset="1" stop-color="#E84339"/>
</linearGradient>
<linearGradient id="paint22_linear" x1="74.6423" y1="-274.443" x2="97.682" y2="-297.769" gradientUnits="userSpaceOnUse">
<stop stop-color="#F49523"/>
<stop offset="1" stop-color="#E84339"/>
</linearGradient>
<linearGradient id="paint23_linear" x1="68.1106" y1="-269.494" x2="91.1839" y2="-292.789" gradientUnits="userSpaceOnUse">
<stop stop-color="#F49523"/>
<stop offset="1" stop-color="#E84339"/>
</linearGradient>
<linearGradient id="paint24_linear" x1="77.5353" y1="-267.036" x2="100.576" y2="-290.329" gradientUnits="userSpaceOnUse">
<stop stop-color="#F49523"/>
<stop offset="1" stop-color="#E84339"/>
</linearGradient>
<linearGradient id="paint25_linear" x1="86.8896" y1="-253.917" x2="109.929" y2="-277.21" gradientUnits="userSpaceOnUse">
<stop stop-color="#F49523"/>
<stop offset="1" stop-color="#E84339"/>
</linearGradient>
<linearGradient id="paint26_linear" x1="137.367" y1="-1574.64" x2="184.628" y2="-1622.34" gradientUnits="userSpaceOnUse">
<stop stop-color="#F49523"/>
<stop offset="1" stop-color="#E84339"/>
</linearGradient>
<linearGradient id="paint27_linear" x1="131.131" y1="-1510.53" x2="178.392" y2="-1558.36" gradientUnits="userSpaceOnUse">
<stop stop-color="#F49523"/>
<stop offset="1" stop-color="#E84339"/>
</linearGradient>
<linearGradient id="paint28_linear" x1="138.893" y1="-1538.06" x2="186.015" y2="-1585.9" gradientUnits="userSpaceOnUse">
<stop stop-color="#F49523"/>
<stop offset="1" stop-color="#E84339"/>
</linearGradient>
<linearGradient id="paint29_linear" x1="115.378" y1="-739.912" x2="149.778" y2="-774.698" gradientUnits="userSpaceOnUse">
<stop stop-color="#F49523"/>
<stop offset="1" stop-color="#E84339"/>
</linearGradient>
<linearGradient id="paint30_linear" x1="116.169" y1="-724.565" x2="150.569" y2="-759.352" gradientUnits="userSpaceOnUse">
<stop stop-color="#F49523"/>
<stop offset="1" stop-color="#E84339"/>
</linearGradient>
<linearGradient id="paint31_linear" x1="90.0198" y1="-275.273" x2="113.059" y2="-298.566" gradientUnits="userSpaceOnUse">
<stop stop-color="#F49523"/>
<stop offset="1" stop-color="#E84339"/>
</linearGradient>
<linearGradient id="paint32_linear" x1="83.5165" y1="-270.323" x2="106.556" y2="-293.618" gradientUnits="userSpaceOnUse">
<stop stop-color="#F49523"/>
<stop offset="1" stop-color="#E84339"/>
</linearGradient>
<linearGradient id="paint33_linear" x1="94.6556" y1="-267.241" x2="117.695" y2="-290.534" gradientUnits="userSpaceOnUse">
<stop stop-color="#F49523"/>
<stop offset="1" stop-color="#E84339"/>
</linearGradient>
<linearGradient id="paint34_linear" x1="230.422" y1="-2103.23" x2="259.476" y2="-2103.23" gradientUnits="userSpaceOnUse">
<stop stop-color="#F49523"/>
<stop offset="1" stop-color="#E84339"/>
</linearGradient>
<linearGradient id="paint35_linear" x1="85.2427" y1="-1032.39" x2="107.026" y2="-1019.65" gradientUnits="userSpaceOnUse">
<stop stop-color="#F49523"/>
<stop offset="1" stop-color="#E84339"/>
</linearGradient>
</defs>
</svg>
