<svg width="33" height="49" viewBox="0 0 33 49" fill="none" xmlns="http://www.w3.org/2000/svg">
<path d="M26.9904 26.3962C26.2417 25.7152 25.3945 25.1575 24.4764 24.7432L25.5454 21.1846C26.8424 22.4097 27.3015 24.458 26.9904 26.3962Z" fill="white"/>
<path d="M11.2887 21.5547C12.102 19.7721 13.6023 18.3136 15.3614 18.0479L14.2925 21.6C13.3005 21.4255 12.2869 21.4101 11.2887 21.5547Z" fill="white"/>
<path d="M15.2372 22.5773L18.8171 10.8318C19.1683 9.67137 19.6519 8.55719 20.2619 7.5127L27.3569 9.70372C27.283 10.9138 27.0704 12.1106 26.7161 13.2688L23.1578 25.0212L22.5879 24.8461L15.801 22.746L15.2372 22.5773Z" fill="white"/>
<path d="M16.2458 25.39L16.5909 24.249L21.1134 25.6428L20.7777 26.7903L20.2076 26.6152L16.8127 25.5651L16.2458 25.39Z" fill="#F37054"/>
<path d="M20.3886 23.2337C22.0614 23.2337 23.42 21.8581 23.42 20.1613C23.42 18.4645 22.0614 17.0889 20.3886 17.0889C18.7157 17.0889 17.3602 18.4645 17.3602 20.1613C17.3602 21.8581 18.7157 23.2337 20.3886 23.2337Z" fill="#F37054"/>
<path d="M27.1092 43.3389C24.0777 46.1107 20.0881 47.5492 16.0122 47.3377C11.9364 47.1262 8.11317 45.2821 5.37746 42.2112C5.18029 41.9951 4.99542 41.7789 4.81674 41.5628C4.20983 40.8087 3.67998 39.997 3.23019 39.1384C2.61712 37.9759 2.14881 36.7387 1.84381 35.4565C2.34289 34.9447 2.98069 34.5958 3.67386 34.4552C4.37011 34.3143 5.091 34.3883 5.74412 34.6676C6.39725 34.9466 6.95481 35.418 7.34298 36.021C7.72808 36.6237 7.92834 37.3303 7.91602 38.0496C8.35965 37.6525 8.90803 37.4 9.49645 37.3248C10.0818 37.2495 10.6794 37.3553 11.2063 37.6278C11.7331 37.9006 12.1644 38.3276 12.451 38.8539C12.7344 39.3798 12.8545 39.9804 12.799 40.5775H12.8545L17.4879 26.1807L19.2409 26.8614L15.1127 41.2582H15.1681C15.4485 40.7295 15.8798 40.2982 16.4035 40.0208C16.9273 39.7433 17.5218 39.6323 18.1102 39.702C18.6956 39.772 19.2502 40.0195 19.6969 40.4129C20.1436 40.806 20.464 41.3264 20.615 41.9063C21.0031 41.2909 21.5669 40.8097 22.2292 40.5267C22.8947 40.244 23.6279 40.1724 24.3303 40.3226C25.0358 40.4724 25.6797 40.8362 26.1757 41.3658C26.6717 41.8955 26.9983 42.5654 27.1092 43.2871V43.3389Z" fill="#F37054"/>
<path d="M18.8514 24.9404L18.5062 26.0876L20.7675 26.7853L21.1126 25.6378L18.8514 24.9404Z" fill="white"/>
<path d="M21.0839 17.8638C20.6372 17.7257 20.1597 17.7251 19.7099 17.862C19.2632 17.9992 18.8658 18.2677 18.5701 18.6339C18.2712 19.0002 18.0894 19.4475 18.0432 19.9195C17.9939 20.3915 18.0863 20.8669 18.3081 21.2852C18.5269 21.7039 18.8657 22.0473 19.2755 22.2714C19.6883 22.4959 20.1566 22.5912 20.6218 22.5455C21.087 22.4996 21.5307 22.3152 21.8911 22.0149C22.2547 21.7147 22.5196 21.3124 22.6551 20.8586C22.7476 20.5573 22.7784 20.2407 22.7475 19.9272C22.7198 19.6137 22.6274 19.3091 22.4826 19.031C22.3347 18.7529 22.1376 18.5066 21.8973 18.3062C21.657 18.1061 21.3827 17.9557 21.0839 17.8638ZM19.8701 21.896C19.5313 21.7905 19.2293 21.5855 19.0044 21.3068C18.7795 21.0278 18.6409 20.6878 18.607 20.3292C18.5731 19.9707 18.6439 19.61 18.8134 19.2928C18.9798 18.9755 19.2386 18.7156 19.5497 18.5464C19.864 18.3771 20.2183 18.3056 20.5725 18.3414C20.9268 18.3771 21.2626 18.5183 21.5368 18.7471C21.811 18.9758 22.0113 19.282 22.1129 19.6266C22.2177 19.9713 22.2177 20.3391 22.1129 20.6837C22.0452 20.9131 21.9342 21.1271 21.7863 21.313C21.6354 21.4986 21.4536 21.653 21.2441 21.7668C21.0377 21.8805 20.8098 21.9518 20.5757 21.9761C20.3384 22.0005 20.1012 21.9776 19.8763 21.9089L19.8701 21.896Z" fill="#0E3947"/>
<path d="M19.8577 27.7631L21.5583 28.2881L22.2484 25.9871L23.9459 26.5121L24.1338 25.8641C25.1689 26.3802 26.1054 27.0806 26.9003 27.9318L27.6027 28.729L27.883 27.7113C28.7333 24.9111 28.1326 21.5856 25.896 19.9329L27.8461 13.6255C29.1061 9.26507 28.6749 4.58152 26.6446 0.531498L26.3643 0L25.8405 0.285165C21.9341 2.50887 19.0073 6.15688 17.658 10.4881L15.7079 16.7954C12.929 16.9313 10.5969 19.3881 9.77123 22.1562L9.46313 23.1739L10.4798 22.9146C11.6074 22.6563 12.7688 22.6036 13.9118 22.759L13.7269 23.4073L15.4275 23.9323L14.7898 26.0842L16.4442 26.7325L19.8577 27.7631ZM26.9897 26.3956C26.2441 25.7145 25.3938 25.1565 24.4788 24.7425L25.5447 21.1839C26.8417 22.409 27.3039 24.4573 26.9897 26.3956ZM25.8774 1.67249C26.318 2.68862 26.6692 3.74296 26.9249 4.8226C27.0142 5.20395 27.0051 5.60258 26.8942 5.97808C26.7832 6.35388 26.5768 6.693 26.2965 6.96152C26.0131 7.23005 25.6679 7.41839 25.2921 7.50718C24.9132 7.59597 24.5219 7.58242 24.1522 7.46743C23.7825 7.35367 23.4499 7.14279 23.188 6.85669C22.923 6.57029 22.7382 6.21885 22.6519 5.83719C22.5656 5.45583 22.5811 5.05813 22.6951 4.68418C22.809 4.31022 23.0185 3.97355 23.3019 3.70781C24.1029 2.95527 24.9656 2.27427 25.8837 1.67249H25.8774ZM14.2907 21.5921C13.2987 21.4176 12.2821 21.4022 11.287 21.5468C12.0972 19.7642 13.6007 18.3057 15.3567 18.04L14.2907 21.5921ZM15.2304 22.5709L18.8071 10.8318V10.793C19.0937 9.88751 19.719 9.13282 20.5508 8.69227C21.3795 8.25173 22.347 8.16108 23.2435 8.43978L24.3371 8.77674C24.7869 8.90807 25.2058 9.12788 25.5725 9.42414C25.936 9.7201 26.241 10.0867 26.4659 10.5022C26.6908 10.9178 26.8325 11.3747 26.8818 11.8461C26.9342 12.3178 26.8911 12.7947 26.7586 13.2497L23.154 25.0212L22.5872 24.8461L15.7972 22.746L15.2304 22.5709ZM16.5859 24.2693L21.1084 25.6631L20.7634 26.8167L20.1965 26.6419L16.7646 25.5656L16.1946 25.3908L16.5859 24.2693Z" fill="#0E3947"/>
<path d="M12.8819 38.4194C12.4321 37.6654 11.7266 37.1049 10.8948 36.8441C10.0723 36.5882 9.18493 36.6483 8.40241 37.0127C8.25454 36.3641 7.95263 35.7611 7.52749 35.2536C7.10234 34.7462 6.56628 34.3491 5.95937 34.0957C5.34938 33.842 4.6932 33.739 4.037 33.7954C3.38387 33.8518 2.75237 34.0658 2.19783 34.42L1.34753 35.1655L1.62789 36.5654C2.395 35.9174 4.28653 34.8087 5.24465 35.1069C5.8608 35.3002 6.39686 35.6899 6.77272 36.2183C7.15165 36.7464 7.35189 37.3845 7.34265 38.0369V39.3918L8.3193 38.5295C8.61814 38.2588 8.98161 38.0708 9.37286 37.9832C9.76412 37.896 10.1739 37.912 10.5559 38.0304C11.0765 38.1919 11.5294 38.5311 11.8313 38.9904C12.1363 39.4498 12.275 40.0013 12.2257 40.5519L12.1733 41.0446C12.4629 41.133 12.7772 41.1034 13.0483 40.9619C13.3163 40.8201 13.5227 40.5781 13.6182 40.2861L17.8481 26.3949L18.9879 26.7451L14.7304 40.6299C14.6379 40.9117 14.6626 41.2187 14.795 41.4836C14.9244 41.7484 15.1555 41.9497 15.4328 42.0428L15.6638 41.6087C15.8887 41.1876 16.2337 40.8448 16.6527 40.6247C17.0717 40.4042 17.5462 40.3167 18.0145 40.3734C18.4827 40.4298 18.9263 40.628 19.2806 40.9419C19.638 41.2557 19.8937 41.6707 20.017 42.1337L20.362 43.4301L21.089 42.2762C21.4372 41.7274 21.9547 41.3081 22.5585 41.0825C23.1624 40.8568 23.8217 40.8368 24.4378 41.0251C25.4021 41.3103 26.7515 43.7541 26.7515 43.7541L27.7743 42.8206L27.3461 42.1726C27.075 41.564 26.6683 41.0297 26.1538 40.6139C25.6394 40.198 25.0325 39.9128 24.3886 39.7815C23.7447 39.6502 23.0761 39.677 22.4446 39.8595C21.813 40.042 21.2308 40.375 20.7502 40.8306C20.3004 40.083 19.5918 39.5308 18.763 39.2814C17.9189 39.0166 17.007 39.0814 16.206 39.463L20.0416 27.0432L16.6343 25.9932L12.8819 38.4194Z" fill="#0E3947"/>
<path d="M16.4681 26.7185L14.8138 26.0508L14.7675 26.1935L16.4681 26.7185Z" fill="#0E3947"/>
<path d="M25.8877 1.67285C26.3252 2.68929 26.6763 3.74363 26.9289 4.82327C27.0183 5.20431 27.0091 5.60294 26.8982 5.97844C26.7873 6.35425 26.5809 6.69337 26.2974 6.96189C26.0171 7.23041 25.6689 7.41876 25.293 7.50755C24.9172 7.59633 24.526 7.58279 24.1563 7.4678C23.7866 7.35404 23.4539 7.14315 23.1889 6.85706C22.9271 6.57065 22.7422 6.21921 22.656 5.83786C22.5697 5.45619 22.5851 5.0585 22.6991 4.68454C22.8131 4.31058 23.0226 3.97392 23.306 3.70817C24.107 2.95563 24.9696 2.27464 25.8877 1.67285Z" fill="#F37054"/>
<path d="M32.2987 30.8298C32.274 30.5258 32.1661 30.2348 31.9844 29.9912C31.8026 29.748 31.5562 29.5621 31.2759 29.4554C30.9924 29.3435 30.6813 29.3148 30.3855 29.3734C30.0867 29.432 29.8094 29.575 29.5876 29.7862L29.5506 29.8186C29.375 29.9829 29.2395 30.1845 29.1532 30.409C29.0639 30.6331 29.0269 30.8745 29.0454 31.1149C29.2333 33.1312 28.953 35.164 28.2228 37.0495C27.4958 38.9351 26.3374 40.6202 24.8494 41.969C23.3583 43.3177 21.5776 44.2922 19.649 44.8136C17.7174 45.3352 15.6964 45.3891 13.7432 44.9711C11.7869 44.5531 9.96 43.6747 8.40113 42.407C6.84535 41.1396 5.60382 39.5183 4.77817 37.6741C3.95253 35.8302 3.56436 33.815 3.65062 31.7916C3.7338 29.7683 4.28529 27.7934 5.26189 26.0263C5.39128 25.78 5.45902 25.5047 5.45594 25.225C5.45594 24.9454 5.38205 24.671 5.24957 24.4272C5.11402 24.183 4.92299 23.9771 4.68885 23.8285C4.45472 23.6799 4.18973 23.593 3.91246 23.5763C3.61362 23.5575 3.31479 23.6256 3.04985 23.7727C2.78798 23.9194 2.56933 24.1389 2.42454 24.4059C1.25077 26.5325 0.563755 28.9002 0.418959 31.3329C0.271083 33.7656 0.668429 36.2005 1.57725 38.4563C2.48608 40.712 3.88786 42.7307 5.67162 44.3619C7.45846 45.9931 9.5842 47.1951 11.8886 47.8779C13.3674 48.3108 14.8955 48.5291 16.4328 48.526C19.3102 48.5257 22.1322 47.73 24.5968 46.2249C27.1784 44.6557 29.2733 42.3777 30.635 39.654C31.9998 36.9302 32.5759 33.8711 32.2987 30.8298Z" fill="#0E3947"/>
</svg>
