<svg width="41" height="36" viewBox="0 0 41 36" fill="none" xmlns="http://www.w3.org/2000/svg">
<path d="M40.2628 33.8645C39.868 33.5328 39.443 33.2414 38.991 32.9944C37.5956 32.2426 36.1459 31.586 34.6601 31.0289L27.3787 28.3056L26.9447 23.4964L28.2105 23.4324L27.9061 22.1371C27.6831 21.1853 27.2009 20.3106 26.5107 19.6061C25.8205 18.9016 24.9495 18.3934 23.9911 18.1356L25.6427 13.171L26.7126 14.885C26.9387 15.2508 27.228 15.5775 27.5625 15.8516C28.6143 16.7126 30.8355 18.3992 31.363 18.8437C31.369 18.9396 31.3961 19.0334 31.4443 19.1181C31.4895 19.2026 31.5558 19.2759 31.6342 19.3329L32.032 19.61C32.017 19.6257 32.0079 19.6456 32.0049 19.6667C32.0049 19.6879 32.0079 19.709 32.02 19.7274L32.4901 20.2853C32.5625 20.3785 32.7041 20.3577 32.8036 20.2319C32.8307 20.1982 32.8518 20.1605 32.8638 20.12C32.8849 20.1502 32.9121 20.1755 32.9452 20.1951C32.9754 20.2144 33.0115 20.2274 33.0477 20.2328C33.0839 20.2383 33.12 20.2365 33.1562 20.2271C33.1923 20.2178 33.2255 20.2012 33.2556 20.1785C33.3159 20.1276 33.3521 20.0555 33.3581 19.9777C33.3641 19.8999 33.34 19.823 33.2888 19.7636C33.337 19.8245 33.4093 19.864 33.4877 19.8733C33.5661 19.8827 33.6474 19.8613 33.7077 19.8133C33.7378 19.7901 33.7589 19.7614 33.777 19.7292C33.7921 19.6966 33.8042 19.6613 33.8042 19.6251C33.8072 19.5886 33.8011 19.5524 33.7891 19.5187C33.774 19.4846 33.7559 19.4535 33.7288 19.4276C33.7801 19.4399 33.8313 19.4412 33.8795 19.4312C33.9307 19.4209 33.976 19.3995 34.0181 19.3691C34.0453 19.3486 34.0694 19.3217 34.0844 19.291C34.0995 19.2602 34.1086 19.2261 34.1086 19.1914C34.1086 19.1571 34.0995 19.123 34.0844 19.0922C34.0694 19.0614 34.0453 19.0346 34.0181 19.0141L33.6535 18.7282L33.325 18.4302C33.3159 18.4209 33.3099 18.4097 33.3039 18.397C33.3009 18.3844 33.2978 18.3708 33.3009 18.3575C33.3039 18.3443 33.3069 18.3319 33.3159 18.321C33.325 18.3105 33.334 18.3017 33.3461 18.2957C33.4154 18.2649 33.4907 18.2544 33.5631 18.2658C33.6354 18.277 33.7047 18.3099 33.759 18.3596L33.9157 18.5041C33.9518 18.5355 34 18.5512 34.0483 18.5484C34.0995 18.5457 34.1447 18.5246 34.1779 18.4896C34.211 18.4543 34.2291 18.4079 34.2291 18.3599C34.2261 18.312 34.208 18.2661 34.1748 18.2321L33.7921 17.8877C33.765 17.8626 33.7318 17.8463 33.6957 17.8406C33.6565 17.8346 33.6203 17.8397 33.5872 17.8548H33.557L32.2973 18.0409L28.7892 14.2927C28.5782 14.068 28.4004 13.8158 28.2617 13.5432C27.9392 12.9111 27.5143 11.905 27.0893 10.9836C26.9809 10.7493 26.8754 9.75189 25.5101 9.05249L23.7018 8.28072C24.175 8.2774 24.6361 8.13083 25.0219 7.8609C25.4076 7.59128 25.697 7.21157 25.8567 6.77335L26.2726 5.61946C26.4022 5.25785 26.4504 4.87182 26.4052 4.49C26.363 4.10848 26.2304 3.74175 26.0195 3.41784C25.6186 2.2742 23.8585 1.75908 23.2919 1.75908C23.087 1.76843 22.8821 1.79316 22.6801 1.83327C22.5144 1.85891 22.3516 1.90716 22.1859 1.92435C21.7428 1.96748 21.3239 1.92435 21.0255 1.52142C21.0707 1.71082 21.3028 1.92616 21.6464 2.01241C21.8995 2.05856 22.1527 2.0845 22.4089 2.08993C22.2732 2.16894 21.6584 2.14331 21.3118 2.01393C20.9683 1.88484 20.7874 1.7265 20.462 1.2147C20.5373 1.58747 20.7453 1.92194 21.0466 2.15869C21.4113 2.4274 21.8634 2.55589 22.3185 2.5206C22.5897 2.51004 22.864 2.46692 23.1352 2.46541H23.1503C23.0508 2.50884 22.9604 2.55951 22.87 2.61681C22.6681 2.63943 22.4631 2.65149 22.2582 2.653C21.7308 2.653 21.2275 2.54623 20.8266 2.16894C20.5976 1.93551 20.4348 1.64749 20.3534 1.33353C20.263 0.953221 20.0551 0.609103 19.7597 0.348225C19.5427 0.157619 19.2685 0.0372874 18.9791 0.00381059C18.8013 -0.0133802 18.6235 0.0279358 18.4698 0.120826C18.6567 0.0680477 18.8496 0.0574912 19.0394 0.0906664C19.2293 0.123842 19.4101 0.199543 19.5638 0.312037C19.8803 0.520739 20.1214 0.822334 20.254 1.17339C20.1154 0.99394 19.9677 0.821426 19.811 0.656757C19.5789 0.412165 19.2594 0.26529 18.9189 0.246592C18.738 0.233623 18.5602 0.275244 18.4065 0.366023C18.2528 0.456803 18.1322 0.591915 18.0599 0.752966C18.1262 0.696568 18.1835 0.633835 18.2347 0.565374C18.283 0.502341 18.3493 0.454387 18.4246 0.427546C18.4999 0.400704 18.5813 0.395877 18.6597 0.413671C18.8526 0.461926 19.0304 0.549691 19.1871 0.671535C19.3438 0.793076 19.4704 0.945986 19.5608 1.12001C19.7929 1.5353 20.0039 1.96054 20.2419 2.41534C20.0671 2.28626 19.9164 2.12762 19.7989 1.94697C19.6934 1.75938 19.5759 1.57752 19.4493 1.40259C19.3378 1.26808 19.2052 1.15167 19.0575 1.05787C18.9912 1.01867 18.9128 0.998157 18.8345 0.998157C18.7561 0.998157 18.6778 1.01867 18.6115 1.05787C18.9339 1.05787 19.0876 1.26296 19.2112 1.50755C19.3348 1.75214 19.4463 2.02448 19.5759 2.26907C19.7416 2.58906 20.0189 2.84059 20.3565 2.97872C20.3866 2.99018 20.4137 3.00526 20.4408 3.02336C20.0792 2.99832 19.7296 2.89729 19.4101 2.72719C19.3649 2.67652 19.3137 2.62947 19.2594 2.58604C19.157 2.5022 19.0454 2.42952 18.9279 2.3689C18.8646 2.30616 18.8074 2.24012 18.7501 2.17075C18.6115 1.99854 18.4879 1.80733 18.3432 1.63512C18.2106 1.46472 18.0268 1.33775 17.8188 1.2699C17.7224 1.24486 17.6259 1.23732 17.5265 1.24758C17.9334 1.30096 18.1081 1.611 18.298 1.89359C18.3824 2.01966 18.4789 2.13969 18.5813 2.25188L18.4879 2.23982H18.4517C18.1745 1.9527 17.858 1.70389 17.5114 1.50061C17.3215 1.38571 17.1075 1.31483 16.8845 1.29402C16.6615 1.27321 16.4355 1.30246 16.2245 1.37997C16.1974 1.38963 16.1733 1.40681 16.1552 1.43004L16.3662 1.41797C16.5832 1.40078 16.8001 1.43939 16.9991 1.52987C17.195 1.62064 17.3637 1.75998 17.4903 1.9349C17.6169 2.10892 17.7344 2.29018 17.8399 2.47747C17.4783 2.19488 17.1407 1.88665 16.6133 2.02599C17.1407 2.02599 17.4511 2.38277 17.7616 2.69613L17.7163 2.74106H17.4783L17.4692 2.8047C17.5295 2.80651 17.5868 2.81646 17.644 2.83396C17.6079 2.88221 17.5777 2.93408 17.5536 2.98897L17.635 2.90965C17.6561 2.88734 17.6772 2.87015 17.7013 2.85115C17.8881 2.94705 18.0419 3.09423 18.1473 3.27488V3.28363L18.0991 3.30082C18.1202 3.29961 18.1413 3.29961 18.1624 3.30082C18.3161 3.50952 18.509 3.68535 18.732 3.81745C18.8435 4.04666 18.946 4.27738 19.0605 4.50659C19.2444 4.85734 19.5578 5.12606 19.9375 5.25755C19.606 5.24307 19.2836 5.15863 18.9882 5.00994C18.6928 4.86126 18.4337 4.65196 18.2317 4.39621C18.0901 4.224 17.9665 4.03278 17.8249 3.86057C17.6892 3.69048 17.5054 3.56321 17.2974 3.49535C17.201 3.47062 17.1045 3.46277 17.0051 3.47303C17.4119 3.52641 17.5898 3.83645 17.7766 4.11904C17.9514 4.39741 18.1805 4.63838 18.4517 4.82658C18.723 5.01507 19.0304 5.14687 19.3559 5.21442C19.5307 5.24911 19.6874 5.30068 19.8682 5.34893C19.5066 5.36462 19.1509 5.29344 18.8254 5.14235C18.4909 4.96561 18.1895 4.737 17.9273 4.46527C17.65 4.17695 17.3336 3.92723 16.987 3.72275C16.7941 3.60784 16.5801 3.53696 16.3571 3.51615C16.1341 3.49534 15.9081 3.5246 15.7001 3.60211C15.67 3.61146 15.6458 3.62895 15.6278 3.65218L15.8387 3.64011C16.0557 3.62292 16.2758 3.66153 16.4717 3.752C16.6676 3.84278 16.8393 3.98212 16.9629 4.15704C17.0925 4.33106 17.207 4.51232 17.3155 4.69961C16.9539 4.41701 16.6133 4.10879 16.0859 4.24812C16.6404 4.24812 16.9508 4.63929 17.2824 4.9632H16.9539L16.9418 5.02683C17.2794 5.0389 17.4451 5.25936 17.6139 5.49882C17.7857 5.74794 18.0147 5.95302 18.286 6.09719C18.5542 6.24104 18.8556 6.32006 19.163 6.3273C19.3378 6.33755 19.5307 6.30317 19.7175 6.3083C20.0219 6.30528 20.3263 6.32489 20.6307 6.36711C20.8055 6.39727 20.9683 6.47749 21.0979 6.59783C21.2275 6.71817 21.3179 6.87318 21.3601 7.04388C21.3601 7.06288 21.3601 7.08369 21.3751 7.12833C21.2787 6.93561 21.122 6.77758 20.9321 6.67655C20.7392 6.57581 20.5192 6.53721 20.3022 6.56677C20.1606 6.58637 20.0219 6.61803 19.8833 6.66146H19.8743C19.7537 6.60748 19.6211 6.57551 19.4855 6.56677L6.13423 5.70542C5.95942 5.49702 5.55858 5.13692 5.47721 5.14235L4.77498 5.2473C4.74183 5.24549 4.70567 5.24549 4.67252 5.2473C4.67252 5.2473 3.70206 5.44183 3.3404 5.48857C3.30725 5.48767 3.2741 5.49551 3.24698 5.51119C3.21684 5.52718 3.19273 5.5504 3.17464 5.57845C3.15957 5.6065 3.15052 5.63877 3.15052 5.67134C3.15052 5.70391 3.15957 5.73588 3.17765 5.76392L2.98476 5.77448C2.77681 5.78473 2.58996 5.83631 2.54777 5.92075C2.46639 6.09296 2.62611 6.16535 2.8642 6.14635H3.49713H3.12341C2.93053 6.14635 2.7949 6.14635 2.75271 6.27905C2.71353 6.41175 2.79489 6.50464 2.97874 6.50132H3.01792C2.92449 6.54445 2.87025 6.65815 3.00587 6.73053C3.08121 6.77004 3.33738 6.7631 3.72617 6.77698C3.97632 6.78784 4.22647 6.81196 4.4736 6.84936L4.9558 6.99412L4.67553 7.31622L4.19933 7.3316C4.1481 7.33341 4.10289 7.35483 4.06673 7.39102C4.03358 7.42721 4.0155 7.47516 4.0155 7.52463C4.01851 7.57379 4.0396 7.62053 4.07576 7.65401C4.11494 7.68779 4.16318 7.70558 4.21442 7.70377L4.73881 7.68658C4.76593 7.68507 4.79306 7.67813 4.81717 7.66577L5.79063 7.19197L6.21861 7.04208L17.7766 8.95598C17.9213 8.98011 18.0539 9.05219 18.1534 9.16016C18.2528 9.26783 18.3101 9.40536 18.3191 9.55042L18.7561 16.7093L13.4126 15.6758L14.9918 21.7444L21.1732 21.4567L22.3305 23.7304L23.967 23.6478L25.3021 27.5341L13.4639 23.107L11.7761 19.61L14.7176 20.6436L13.7411 16.8677L9.06969 17.7893C9.01846 17.7993 8.97323 17.8213 8.93104 17.8533C8.89186 17.8852 8.85871 17.9263 8.83762 17.973C8.81652 18.0194 8.80747 18.0704 8.81048 18.1211C8.81651 18.1721 8.8316 18.2212 8.85872 18.2649L11.4084 22.337L0.863043 18.3922C0.863043 20.8436 0.398913 21.4187 2.53873 22.6797C9.95877 27.0482 35.3231 40.7288 40.7962 34.3193L40.2628 33.8645ZM21.0406 7.25078C20.9472 7.16603 20.8296 7.11566 20.7031 7.10782L20.4077 6.98206H20.3866C20.4228 6.98206 20.4589 6.97331 20.4981 6.96999C20.6307 6.95914 20.7663 6.98568 20.8869 7.0466C21.0075 7.10752 21.1069 7.20041 21.1762 7.31441L21.0406 7.25078ZM21.1612 4.25174C21.1973 4.25898 21.2335 4.26802 21.2696 4.27918C21.1883 4.27225 21.1069 4.25747 21.0285 4.23455C21.0707 4.23787 21.116 4.243 21.1612 4.24993V4.25174ZM18.7983 2.66868C18.7079 2.59449 18.6235 2.51517 18.5361 2.43615C18.5874 2.44671 18.6356 2.46058 18.6838 2.47747C18.8917 2.68014 19.1389 2.8427 19.4071 2.9564C19.4463 3.00134 19.4824 3.04869 19.5186 3.09754C19.4553 3.07523 19.3951 3.05261 19.3438 3.02697L19.3227 3.01491L19.3076 3.00104C19.166 2.85507 18.9912 2.74106 18.7983 2.66687V2.66868ZM19.2926 4.29306C19.2564 4.23968 19.2233 4.18448 19.1901 4.12085C19.2715 4.14347 19.3529 4.16186 19.4342 4.17574C19.5307 4.36544 19.6271 4.55665 19.7326 4.7545C19.5578 4.62722 19.4071 4.47009 19.2896 4.29125L19.2926 4.29306ZM19.6241 3.13193C19.6 3.0882 19.5729 3.04597 19.5427 3.00465C19.6482 3.04265 19.7597 3.07372 19.8712 3.09754C20.046 3.13193 20.2028 3.1838 20.3806 3.23175C20.1244 3.24804 19.8652 3.21336 19.6241 3.13012V3.13193ZM20.4167 4.5461L20.3746 4.55997C20.3595 4.54459 20.3384 4.53252 20.3233 4.51533C20.2269 4.42063 20.1425 4.31357 20.0762 4.19655C20.1304 4.19655 20.1847 4.19655 20.2389 4.19655C20.3233 4.31417 20.4258 4.41912 20.5433 4.5084L20.4167 4.5461ZM20.4891 4.20168C20.5945 4.20168 20.697 4.2056 20.7995 4.21374C20.908 4.2831 21.0255 4.33407 21.1521 4.36363C21.2847 4.39469 21.4203 4.4137 21.556 4.42033C21.5831 4.44054 21.6102 4.46255 21.6343 4.48578C21.3571 4.49181 21.0798 4.45109 20.8146 4.36544C20.697 4.32442 20.5885 4.26802 20.4891 4.19836V4.20168ZM21.5228 4.99396C21.4475 4.93334 21.3601 4.89263 21.2636 4.87604C21.1702 4.85945 21.0707 4.86729 20.9803 4.89926C20.8748 4.86609 20.7694 4.82296 20.6729 4.77018C20.7573 4.75299 20.8477 4.73911 20.9321 4.73067C21.1099 4.80275 21.2998 4.84769 21.4927 4.86307C21.5439 4.90288 21.5921 4.94902 21.6313 5.00089L21.5228 4.99396ZM21.6886 5.6831C21.7428 5.68792 21.8001 5.69758 21.8543 5.71235C21.8543 5.73648 21.8634 5.7588 21.8664 5.78292C21.8091 5.74553 21.7488 5.71115 21.6886 5.67978V5.6831ZM21.8935 5.09228C21.8634 5.04734 21.8363 5.00271 21.8061 4.9632H21.8604C21.8604 4.98552 21.8785 5.00602 21.8845 5.02864C21.8905 5.05066 21.8935 5.07298 21.8965 5.0956L21.8935 5.09228ZM22.3908 3.02516L22.1979 3.03542V3.00465L22.424 2.99078L22.3908 3.02516Z" fill="#16233B"/>
</svg>
