<svg width="42" height="33" viewBox="0 0 42 33" fill="none" xmlns="http://www.w3.org/2000/svg">
<path d="M4.20773 17.0423C4.31985 16.8767 4.4089 16.7367 4.50783 16.6041C5.31246 15.5115 6.41387 15.0095 7.73294 14.9485C8.45843 14.901 9.18395 14.9953 9.87646 15.226C11.179 15.6847 11.8781 16.6575 12.1419 17.9798C12.2376 18.4692 12.2837 18.9665 12.287 19.4648C12.3002 21.6481 12.287 23.8313 12.287 26.0143C12.2903 26.143 12.2838 26.2717 12.264 26.3991C12.1617 26.9798 11.9078 27.2934 11.334 27.3339C10.6118 27.3821 9.88634 27.3762 9.16415 27.3161C8.65961 27.2755 8.3694 26.9112 8.31664 26.3914C8.29685 26.1994 8.28697 26.0064 8.28368 25.8133C8.28368 23.9841 8.28368 22.155 8.28368 20.3261C8.28697 20.0291 8.25066 19.7335 8.17152 19.447C8.11546 19.2263 7.98687 19.0302 7.81209 18.8883C7.63402 18.7464 7.41636 18.6662 7.19212 18.66C5.85326 18.5326 4.798 19.3579 4.50451 20.7898C4.43196 21.1679 4.3957 21.5527 4.3924 21.9385C4.38251 23.2506 4.3924 24.5649 4.3924 25.8793C4.3924 26.0328 4.38579 26.1855 4.3693 26.338C4.30335 26.9544 3.99998 27.3085 3.38331 27.357C2.72378 27.4039 2.06095 27.4039 1.40142 27.357C0.761672 27.3112 0.438501 26.9086 0.392334 26.2463C0.392334 26.175 0.392334 26.1011 0.392334 26.0298C0.392334 22.8793 0.392334 19.7292 0.392334 16.5787C0.392334 16.4345 0.40553 16.2903 0.428614 16.1484C0.458293 15.8992 0.577025 15.6699 0.764992 15.5039C0.949662 15.3379 1.19037 15.2471 1.4377 15.2491C2.0016 15.2303 2.5688 15.2303 3.136 15.2491C3.39651 15.2412 3.64713 15.3359 3.83839 15.5131C4.02966 15.69 4.14178 15.9352 4.15827 16.1965C4.19454 16.4589 4.19124 16.7315 4.20773 17.0423Z" fill="black"/>
<path d="M28.8024 7.04025C30.7381 7.04322 32.6507 7.4887 34.3919 8.34372C36.1364 9.19874 37.6632 10.4409 38.8669 11.9773C40.0672 13.5141 40.9081 15.3053 41.3269 17.217C41.749 19.129 41.7358 21.112 41.2906 23.018C41.6995 21.2951 41.7655 19.5062 41.4819 17.7576C40.918 14.2546 39.1768 11.4371 36.3672 9.30766C36.2056 9.19415 36.0902 9.02452 36.044 8.83114C35.0745 5.16026 31.3976 2.7328 27.7273 3.41029C24.7297 3.96567 22.7676 5.77438 21.8179 8.69882C21.7684 8.87338 21.6596 9.02519 21.5112 9.12914C17.9036 11.7836 16.0866 15.3859 15.9678 19.5739C15.9678 19.63 15.9678 19.6857 15.9678 19.7392C16.0371 16.3461 17.4221 13.1165 19.8195 10.7425C22.2202 8.36882 25.4453 7.03959 28.8024 7.04025Z" fill="black"/>
<path d="M30.0719 32.929H30.1214C30.5435 32.8852 30.9656 32.8198 31.3811 32.733C33.7488 32.2416 35.9286 31.0853 37.6763 29.3967C39.4208 27.7081 40.6575 25.5556 41.2477 23.1872C41.838 20.8185 41.7523 18.33 41.0037 16.0078C40.2584 13.6853 38.8767 11.6238 37.0201 10.0596C35.1635 8.49542 32.9112 7.49256 30.5171 7.16619C28.123 6.83983 25.686 7.20314 23.4865 8.21458C21.2869 9.22602 19.4139 10.844 18.0849 12.8834C16.7559 14.9224 16.0238 17.2994 15.9711 19.7411C15.9777 20.8452 16.1063 21.9454 16.347 23.0222C17.0098 25.8113 18.563 28.3015 20.7692 30.1059C22.9753 31.9103 25.7091 32.928 28.5451 33.0003H29.1354C29.452 32.9835 29.7652 32.9597 30.0719 32.929Z" fill="#DE2727"/>
<path d="M29.2812 6.55762H28.3375V32.9874H29.2812V6.55762Z" fill="black"/>
<path d="M24.865 0.005017C25.1058 -0.00917286 25.3399 0.0492223 25.5477 0.172971C25.7521 0.29639 25.917 0.479547 26.0159 0.698335C26.1182 0.917452 26.1511 1.16165 26.1115 1.40024C26.0753 1.63849 25.9665 1.85991 25.8016 2.03547C25.64 2.21103 25.4256 2.33248 25.1915 2.38462C24.9607 2.43643 24.7167 2.41663 24.4957 2.32687C24.2715 2.23744 24.0835 2.08268 23.9483 1.8827C23.8164 1.68239 23.7438 1.44642 23.7438 1.20487C23.7372 0.895989 23.8526 0.596693 24.0604 0.372296C24.2715 0.147568 24.5617 0.0155769 24.865 0.005017Z" fill="black"/>
<path d="M32.7564 0.00363674C32.9939 -0.0151731 33.2346 0.0392811 33.4424 0.16006C33.6501 0.281169 33.8183 0.462658 33.9238 0.681445C34.026 0.899903 34.0623 1.14543 34.0261 1.38534C33.9898 1.62524 33.8842 1.84865 33.7194 2.02619C33.5578 2.20372 33.3434 2.32747 33.1093 2.3806C32.8752 2.43373 32.6311 2.41426 32.4069 2.32451C32.1859 2.23475 31.9947 2.07899 31.8595 1.87769C31.7243 1.67607 31.655 1.43845 31.6583 1.19591C31.6484 0.89165 31.7606 0.596634 31.965 0.373886C32.1728 0.151138 32.4563 0.0181566 32.7564 0.00363674Z" fill="black"/>
<path d="M19.1953 16.3016C19.1887 16.0848 19.2414 15.8703 19.3536 15.6845C19.4657 15.4991 19.6273 15.3502 19.8218 15.2572L22.6776 13.5937C23.5416 13.1581 23.9406 13.1759 24.1912 13.1759C24.5507 13.1719 24.9068 13.267 25.2168 13.4511C25.3487 13.5122 25.4641 13.6089 25.5433 13.7306C25.6257 13.8524 25.6719 13.9943 25.6818 14.1415V27.1691C25.6752 27.3235 25.6257 27.4733 25.5367 27.5984C25.4476 27.7235 25.3224 27.8182 25.1773 27.8697C24.8013 28.0323 24.399 28.1162 23.9901 28.1162C23.5812 28.1162 23.1789 28.0323 22.8029 27.8697C22.6578 27.8182 22.5325 27.7235 22.4435 27.5984C22.3544 27.4733 22.3017 27.3235 22.2984 27.1691V18.6809C22.2984 18.407 22.1929 18.1437 22.0049 17.9467C21.8169 17.7493 21.563 17.6338 21.2893 17.6239C21.1178 17.7282 19.6866 17.3995 19.4888 17.1501C19.2942 16.9111 19.192 16.6105 19.1953 16.3016Z" fill="#231F20"/>
<path d="M30.9954 16.3016C30.9855 16.0848 31.0415 15.8703 31.1504 15.6845C31.2625 15.4991 31.4241 15.3502 31.6186 15.2572L34.4678 13.5937C35.3318 13.1581 35.7276 13.1759 35.9815 13.1759C36.3409 13.1719 36.697 13.267 37.007 13.4511C37.1389 13.5122 37.2511 13.6089 37.3335 13.7306C37.4159 13.8524 37.4621 13.9943 37.4687 14.1415V27.1691C37.4654 27.3235 37.4159 27.4733 37.3269 27.5984C37.2346 27.7235 37.1093 27.8182 36.9675 27.8697C36.5915 28.0323 36.1859 28.1162 35.7803 28.1162C35.3714 28.1162 34.9658 28.0323 34.5932 27.8697C34.4481 27.8182 34.3227 27.7235 34.2337 27.5984C34.1413 27.4733 34.0919 27.3235 34.0886 27.1691V18.6809C34.0886 18.407 33.9831 18.1437 33.7951 17.9467C33.6071 17.7493 33.3499 17.6338 33.0795 17.6239C32.908 17.7282 31.4768 17.3995 31.279 17.1501C31.0877 16.9101 30.9855 16.6095 30.9954 16.3016Z" fill="#231F20"/>
</svg>
