<svg width="42" height="39" viewBox="0 0 42 39" fill="none" xmlns="http://www.w3.org/2000/svg">
<path fill-rule="evenodd" clip-rule="evenodd" d="M17.4631 4.46303C20.084 3.57445 22.8958 3.40249 25.6074 3.96143C28.3143 4.52037 30.8254 5.79589 32.8782 7.64948C34.931 9.50307 36.4443 11.8678 37.2702 14.5049C38.0961 17.142 38.1964 19.9463 37.5662 22.6359C36.9361 25.3207 35.5946 27.7953 33.685 29.7922C31.7754 31.7891 29.3598 33.2415 26.7007 33.9963C24.0368 34.7511 21.2202 34.7798 18.542 34.0823C15.8638 33.3848 13.4195 31.985 11.4622 30.0311L8.87946 32.587C11.2903 35.0043 14.3075 36.7336 17.6158 37.5983C20.9242 38.4582 24.4044 38.4249 27.6937 37.4933C30.9829 36.5617 33.9667 34.7702 36.325 32.3051C38.6881 29.8352 40.3447 26.7825 41.1228 23.4623C41.901 20.1421 41.7769 16.6738 40.76 13.4205C39.7384 10.1623 37.867 7.23866 35.332 4.95033C32.797 2.66201 29.694 1.09027 26.3474 0.397557C22.9961 -0.29515 19.5206 -0.080188 16.2839 1.02337L17.4631 4.46303Z" fill="#A2B434"/>
<path fill-rule="evenodd" clip-rule="evenodd" d="M24.3954 20.3139L18.1272 24.6613C17.6736 24.9766 17.1103 25.096 16.5661 25.0005C16.0219 24.9001 15.5349 24.5896 15.2199 24.1405C14.9048 23.6867 14.7806 23.123 14.8809 22.5783C14.9763 22.0385 15.2867 21.556 15.7402 21.236L22.0084 16.8886L19.9318 16.6593C19.378 16.5972 18.8767 16.3249 18.5282 15.8949C18.1797 15.4602 18.0174 14.9108 18.0795 14.3614C18.1415 13.812 18.4184 13.3104 18.848 12.9664C19.2825 12.6177 19.8363 12.4601 20.3853 12.5174L28.3578 13.4059C29.6134 13.5493 30.2053 14.3662 29.938 15.4315L27.9424 23.3475C27.8088 23.8873 27.4651 24.346 26.9877 24.6278C26.515 24.9144 25.9469 24.9957 25.4075 24.8667C24.8728 24.7281 24.4097 24.389 24.1233 23.9112C23.8416 23.4383 23.7557 22.8746 23.8894 22.3347L24.3954 20.3139Z" fill="#A2B434"/>
<path fill-rule="evenodd" clip-rule="evenodd" d="M6.24698 18.4277L12.4961 14.0804C12.9497 13.7699 13.513 13.6456 14.0572 13.746C14.6062 13.8415 15.0884 14.152 15.4082 14.6011C15.7233 15.055 15.8427 15.6187 15.7472 16.1633C15.6469 16.7031 15.3366 17.1904 14.8831 17.5057L8.64831 21.8674L10.725 22.0967C11.2788 22.154 11.78 22.4311 12.1285 22.8611C12.477 23.291 12.6393 23.8452 12.5773 24.3946C12.5152 24.9392 12.2383 25.4456 11.8087 25.7895C11.3742 26.1335 10.8204 26.296 10.2714 26.2386L2.29415 25.35C1.04337 25.2067 0.451392 24.3898 0.718734 23.3245L2.71425 15.4037C2.84792 14.8686 3.19163 14.41 3.66903 14.1282C4.14165 13.8415 4.70976 13.7555 5.24922 13.8893C5.7839 14.0278 6.247 14.367 6.53344 14.84C6.8151 15.3177 6.90102 15.8815 6.76734 16.4165L6.24698 18.4277Z" fill="#F89B2C"/>
</svg>
