<svg width="39" height="39" viewBox="0 0 39 39" fill="none" xmlns="http://www.w3.org/2000/svg">
<path d="M11.5051 4.60829C11.4361 4.5473 11.3795 4.47275 11.3399 4.39143C11.3003 4.30672 11.2776 4.21864 11.2739 4.12716C11.2702 4.03228 11.2851 3.94079 11.3179 3.85609C11.3507 3.77138 11.4005 3.69005 11.4645 3.62568L14.4577 0.352539L21.5818 6.85138C21.6512 6.91237 21.7074 6.98689 21.747 7.06821C21.787 7.15292 21.8093 7.24103 21.813 7.33251C21.8171 7.42739 21.8022 7.51888 21.7694 7.60359C21.7365 7.68829 21.6864 7.76959 21.6224 7.83397L18.6292 11.1139L11.5051 4.60829Z" fill="url(#paint0_linear)"/>
<path d="M23.2349 30.1152L26.3635 32.9546L26.4245 33.0089L27.3454 33.856C27.4149 33.917 27.4711 33.9915 27.5107 34.0728C27.5506 34.1575 27.573 34.2456 27.5767 34.3405C27.5808 34.4319 27.5659 34.5235 27.533 34.6082C27.5002 34.6963 27.4501 34.7742 27.3861 34.8386L24.3929 38.1185L22.9505 36.7632H22.8963L19.7812 33.9169L23.2349 30.1152Z" fill="url(#paint1_linear)"/>
<path d="M4.01103 20.8887L0.539734 24.6734L4.32118 28.1465L7.79247 24.3651L4.01103 20.8887Z" fill="url(#paint2_linear)"/>
<path d="M14.6071 22.1596L14.5461 22.1055L12.5145 20.269C12.4455 20.208 12.3893 20.1334 12.3493 20.0521C12.3097 19.9674 12.287 19.8793 12.2833 19.7878C12.2796 19.693 12.2945 19.6015 12.3273 19.5168C12.3602 19.432 12.4099 19.3507 12.4739 19.2864L19.6793 11.439L20.5935 10.4564L26.5054 3.99823C26.5694 3.93385 26.6195 3.85253 26.6523 3.76782C26.6852 3.68311 26.7001 3.59162 26.6963 3.49675C26.6923 3.40526 26.6699 3.31718 26.63 3.23247C26.5904 3.15115 26.5342 3.0766 26.4647 3.01561L23.2007 0L16.7944 6.94608L15.887 7.96257L8.24146 16.3114L5.24149 19.5778C5.17749 19.6421 5.12772 19.7234 5.09487 19.8081C5.06203 19.8929 5.04713 19.9843 5.05085 20.0792C5.05458 20.1707 5.07727 20.2588 5.11688 20.3435C5.15684 20.4248 5.21305 20.4994 5.28212 20.5604L8.48525 23.5015L8.54619 23.5556L11.0654 25.8733L11.1263 25.9275L15.8667 30.4882L19.3407 26.7L14.6071 22.1596Z" fill="url(#paint3_linear)"/>
<path d="M34.488 10.3652L31.0171 14.15L34.7985 17.6231L38.2698 13.8417L34.488 10.3652Z" fill="url(#paint4_linear)"/>
<path d="M30.2986 14.9153L30.2376 14.8611L27.7185 12.5435L27.6575 12.4893L22.8494 8.02344L19.3755 11.8116L24.2038 16.2639L24.2648 16.3181L26.2964 18.1546C26.3651 18.2189 26.42 18.2935 26.4582 18.3782C26.4961 18.4629 26.5165 18.5544 26.5178 18.6459C26.5188 18.7408 26.5012 18.8322 26.4653 18.9169C26.4298 19.0016 26.377 19.0795 26.3099 19.1439L23.3167 22.4238L22.4093 23.4133L12.2514 34.4863C12.1874 34.554 12.1376 34.632 12.1048 34.7167C12.0719 34.8048 12.057 34.8963 12.0607 34.9878C12.0645 35.0793 12.0872 35.1708 12.1268 35.2521C12.1667 35.3334 12.2229 35.4079 12.292 35.4689L15.5493 38.4778L26.1812 26.8965L27.0955 25.9206L30.5695 22.1324L33.5627 18.8661C33.627 18.8017 33.6768 18.7238 33.7096 18.6357C33.7425 18.551 33.7573 18.4595 33.7536 18.368C33.7496 18.2732 33.7272 18.185 33.6876 18.1003C33.6477 18.019 33.5914 17.9445 33.522 17.8835L30.2986 14.9153Z" fill="url(#paint5_linear)"/>
<path d="M20.5531 12.9094L19.3477 11.8048L22.815 8.02344L24.0204 9.12805L20.5531 12.9094Z" fill="#006838"/>
<path d="M23.2376 30.1055L19.771 33.8835L20.9883 35.0016L24.4548 31.2236L23.2376 30.1055Z" fill="#006838"/>
<defs>
<linearGradient id="paint0_linear" x1="11.2817" y1="5.73321" x2="21.8053" y2="5.73321" gradientUnits="userSpaceOnUse">
<stop stop-color="#78C495"/>
<stop offset="1" stop-color="#4CB87E"/>
</linearGradient>
<linearGradient id="paint1_linear" x1="9.46751" y1="48.4732" x2="44.5977" y2="13.3674" gradientUnits="userSpaceOnUse">
<stop stop-color="#83B941"/>
<stop offset="1" stop-color="#98C043"/>
</linearGradient>
<linearGradient id="paint2_linear" x1="-0.362986" y1="-278.889" x2="267.112" y2="-546.46" gradientUnits="userSpaceOnUse">
<stop stop-color="#83B941"/>
<stop offset="1" stop-color="#98C043"/>
</linearGradient>
<linearGradient id="paint3_linear" x1="95.316" y1="1635.69" x2="1587.54" y2="2695.37" gradientUnits="userSpaceOnUse">
<stop stop-color="#83B941"/>
<stop offset="1" stop-color="#98C043"/>
</linearGradient>
<linearGradient id="paint4_linear" x1="106.345" y1="-192.27" x2="373.871" y2="-459.892" gradientUnits="userSpaceOnUse">
<stop stop-color="#83B941"/>
<stop offset="1" stop-color="#98C043"/>
</linearGradient>
<linearGradient id="paint5_linear" x1="556.793" y1="2255.86" x2="1250.56" y2="2255.86" gradientUnits="userSpaceOnUse">
<stop stop-color="#78C495"/>
<stop offset="1" stop-color="#4CB87E"/>
</linearGradient>
</defs>
</svg>
