<svg width="41" height="33" viewBox="0 0 41 33" fill="none" xmlns="http://www.w3.org/2000/svg">
<path d="M35.254 22.0896C35.7414 22.0896 36.1132 21.5941 36.1132 21.1377C36.1136 20.9116 36.0255 20.69 35.866 20.5204C35.7066 20.3553 35.4881 20.2509 35.254 20.2335C34.2194 20.2335 33.2273 19.8336 32.4958 19.1208C31.7643 18.4079 31.3534 17.4386 31.3534 16.4302C31.3534 15.4217 31.7643 14.4568 32.4958 13.7439C33.2273 13.0311 34.2194 12.6268 35.254 12.6268C35.367 12.6268 35.4786 12.6051 35.5833 12.566C35.6875 12.5225 35.7822 12.4617 35.8621 12.3834C35.9421 12.3052 36.005 12.214 36.048 12.1096C36.0915 12.0097 36.1132 11.901 36.1132 11.7923C36.1132 11.362 35.7648 11.0664 35.254 11.0664C32.584 11.0664 30.1463 13.1702 29.705 15.8216H24.7598C24.5134 15.8216 24.2772 15.9173 24.1031 16.0868C23.9289 16.2563 23.8311 16.4867 23.8311 16.7258C23.8311 16.9649 23.9289 17.1952 24.1031 17.3648C24.2772 17.5343 24.5134 17.6299 24.7598 17.6299H29.705C30.1229 20.1901 32.468 22.0896 35.254 22.0896Z" fill="#0083CC"/>
<path d="M38.2479 16.5C39.2196 15.9002 39.9798 15.0265 40.4267 13.992C40.8737 12.9618 40.9857 11.8187 40.7481 10.7233C40.5105 9.62793 39.9346 8.62814 39.0976 7.85878C38.2605 7.09377 37.2024 6.58958 36.0657 6.42875C35.6478 2.80362 32.3975 0 28.5664 0C24.5034 0 21.044 3.30352 21.044 7.21987V25.7801C21.044 29.6965 24.5034 33 28.5898 33C30.4189 32.9957 32.1838 32.3436 33.552 31.157C34.9203 29.9747 35.7977 28.3447 36.0192 26.5713C37.1572 26.4104 38.218 25.9149 39.0585 25.1499C39.899 24.3849 40.4793 23.3851 40.7216 22.2898C40.9645 21.1944 40.8572 20.0512 40.4154 19.0167C39.9732 17.9822 39.217 17.1042 38.2479 16.5ZM28.6129 26.5713C29.0542 26.5713 29.3556 26.2322 29.3556 25.7367C29.3556 22.1116 26.4304 18.9907 22.6692 18.5821V14.3484C26.4536 13.9181 29.3791 10.8189 29.3791 7.19812C29.3791 6.69825 29.0772 6.35924 28.6359 6.35924C28.195 6.35924 27.6377 6.71999 27.6377 7.19812C27.6377 9.88871 25.4785 12.2446 22.6924 12.6532V7.17205C22.6924 4.18589 25.3624 1.65176 28.5434 1.65176C31.6777 1.65176 34.3473 4.18589 34.3473 7.17205C34.3578 7.40243 34.4577 7.61542 34.6266 7.7719C34.7956 7.92838 35.0202 8.01528 35.253 8.01093C36.2877 8.00659 37.2806 8.4065 38.0147 9.11936C38.7483 9.82786 39.1618 10.7928 39.1653 11.8013C39.1684 12.8097 38.7601 13.779 38.0308 14.4962C37.3015 15.209 36.3107 15.6133 35.276 15.6176C35.1635 15.6176 35.0514 15.6394 34.9472 15.6785C34.843 15.722 34.7478 15.7828 34.6679 15.861C34.5884 15.9393 34.525 16.0306 34.482 16.1349C34.439 16.2349 34.4168 16.3435 34.4173 16.4566C34.4208 16.6739 34.5124 16.8869 34.6727 17.0433C34.833 17.1998 35.0497 17.2868 35.276 17.2911C36.3107 17.2911 37.3028 17.691 38.0342 18.4039C38.7657 19.1211 39.1766 20.086 39.1766 21.0945C39.1766 22.1029 38.7657 23.0722 38.0342 23.785C37.3028 24.4979 36.3107 24.8978 35.276 24.8978C35.1635 24.8978 35.0514 24.9195 34.9472 24.963C34.843 25.0021 34.7478 25.063 34.6679 25.1412C34.5884 25.2195 34.525 25.3107 34.482 25.415C34.439 25.515 34.4168 25.6237 34.4173 25.7367C34.4173 28.7229 31.7472 31.257 28.5664 31.257C25.3857 31.257 22.7157 28.7229 22.7157 25.7367V20.2816C25.525 20.6858 27.6842 23.0417 27.6842 25.7367C27.6377 26.2105 28.1485 26.5713 28.6129 26.5713Z" fill="#0083CC"/>
<path d="M5.64824 11.0671C5.53791 11.0627 5.42767 11.0801 5.32412 11.1149C5.22052 11.154 5.12578 11.2105 5.04556 11.2844C4.96529 11.3583 4.90122 11.4495 4.85717 11.5495C4.81313 11.6451 4.79002 11.7539 4.78919 11.8582C4.78945 11.9712 4.81204 12.0755 4.85561 12.1755C4.89918 12.2755 4.96285 12.3667 5.04286 12.445C5.12287 12.5189 5.21765 12.5797 5.32159 12.6188C5.42558 12.6579 5.53661 12.6797 5.64824 12.6753C6.67964 12.6753 7.66882 13.0752 8.39811 13.7837C9.12741 14.4966 9.53715 15.4616 9.53715 16.4657C9.53715 17.4741 9.12741 18.4346 8.39811 19.1475C7.66882 19.8604 6.67964 20.2603 5.64824 20.2603C5.53352 20.2603 5.42007 20.282 5.31443 20.3255C5.20879 20.369 5.11319 20.4298 5.03318 20.5124C4.95317 20.5906 4.89036 20.6863 4.84844 20.7906C4.80657 20.8949 4.78641 21.0079 4.78919 21.1166C4.78919 21.573 5.16066 22.1163 5.64824 22.1163C8.4343 22.1163 10.7793 20.2125 11.1972 17.6566H16.1657C16.412 17.6566 16.6482 17.561 16.8224 17.3915C16.9965 17.222 17.0944 16.9916 17.0944 16.7482C17.0944 16.5091 16.9965 16.2787 16.8224 16.1092C16.6482 15.9397 16.412 15.8441 16.1657 15.8441H11.2204C10.7793 13.1752 8.31823 11.0671 5.64824 11.0671Z" fill="#0083CC"/>
<path d="M12.0972 2.15931e-05C10.2772 -0.00432508 8.52058 0.647694 7.16884 1.83868C5.81714 3.02533 4.967 4.65967 4.78374 6.42877C3.6471 6.59394 2.59033 7.0982 1.75583 7.86756C0.921372 8.63692 0.349227 9.64095 0.116451 10.7363C-0.116281 11.836 0.00160509 12.9748 0.45417 14.005C0.906778 15.0352 1.67235 15.9089 2.64775 16.5C1.67625 17.0999 0.915987 17.9735 0.469025 19.008C0.0221076 20.0382 -0.0901319 21.1814 0.147466 22.2767C0.38502 23.3721 0.961031 24.3719 1.79805 25.1412C2.63512 25.9063 3.69318 26.4061 4.83018 26.5713C5.01852 28.3969 5.922 30.0834 7.3524 31.2744C8.78281 32.4697 10.6299 33.0782 12.509 32.9739C14.3881 32.8739 16.1544 32.0654 17.44 30.7267C18.7256 29.3879 19.4315 27.6144 19.4106 25.7801V7.2199C19.4224 5.31605 18.6586 3.48611 17.2872 2.13429C15.9158 0.778131 14.049 0.0130616 12.0972 2.15931e-05ZM12.0508 6.31575C11.5864 6.31575 11.0292 6.67653 11.0292 7.15032C11.0292 10.9319 13.676 13.8963 17.3211 14.3049V18.5386C13.6527 18.9428 11.006 21.9334 11.006 25.6889C11.006 26.167 11.5632 26.5278 12.0275 26.5278C12.4919 26.5278 12.7473 26.2105 12.7473 25.6889C12.7473 22.8375 14.6046 20.6424 17.3211 20.2338V25.6889C17.3211 28.7924 14.9529 31.2135 11.9115 31.2135C8.86999 31.2135 6.4554 28.7924 6.4554 25.6889C6.45818 25.5802 6.43863 25.4716 6.39789 25.3716C6.35719 25.2716 6.29607 25.176 6.21823 25.0977C6.14035 25.0238 6.04731 24.9587 5.9445 24.9152C5.84168 24.8761 5.73122 24.8543 5.61955 24.8543C4.58507 24.85 3.59419 24.4457 2.86489 23.7329C2.1356 23.0157 1.7276 22.0464 1.73068 21.038C1.73372 20.0295 2.14763 19.0645 2.88131 18.3517C3.61495 17.6432 4.6083 17.2433 5.64279 17.2476C5.75559 17.2476 5.86762 17.2303 5.97238 17.1868C6.0772 17.1477 6.17276 17.0868 6.25359 17.0086C6.33447 16.9347 6.39902 16.8434 6.44358 16.7391C6.48819 16.6391 6.51191 16.5304 6.51343 16.4218C6.51495 16.3087 6.49423 16.2001 6.45249 16.1001C6.4107 15.9958 6.34872 15.9045 6.27001 15.8263C6.19135 15.7481 6.09748 15.6829 5.99384 15.6394C5.8902 15.5959 5.77879 15.5742 5.66598 15.5698C4.6315 15.5698 3.63941 15.1699 2.90794 14.4571C2.17643 13.7442 1.76547 12.7793 1.76547 11.7709C1.76547 10.7624 2.17643 9.7931 2.90794 9.08025C3.63941 8.36739 4.6315 7.96751 5.66598 7.96751C5.77887 7.96751 5.89072 7.94578 5.9951 7.90231C6.09948 7.86319 6.1943 7.79796 6.27409 7.71972C6.35393 7.64583 6.41722 7.55022 6.46026 7.45024C6.50335 7.34592 6.52533 7.23723 6.52503 7.12857C6.52503 4.02939 8.89318 1.60396 11.9346 1.60396C14.9761 1.60396 17.3443 4.02939 17.3443 7.12857V12.5837C14.6511 12.1751 12.7705 9.97999 12.7705 7.12857C12.7566 6.62001 12.5012 6.31575 12.06 6.31575H12.0508Z" fill="#0083CC"/>
</svg>
