<svg width="62" height="23" viewBox="0 0 62 23" fill="none" xmlns="http://www.w3.org/2000/svg">
<path d="M36.5964 7.1875C38.95 7.1875 40.0626 8.61923 40.0626 8.61923L39.073 10.259C38.4388 9.61383 37.5996 9.24467 36.7194 9.22341C35.0574 9.22341 33.9776 10.5512 33.9776 12.1997C33.9776 13.8485 35.0738 15.2138 36.7905 15.2138C38.3131 15.2138 39.4448 13.9901 39.4448 13.9901L40.3114 15.6853C40.3114 15.6853 39.0211 17.25 36.5964 17.25C33.6059 17.25 31.6924 15.0081 31.6924 12.2174C31.6951 9.48658 33.6059 7.1875 36.5964 7.1875Z" fill="#EC6440"/>
<path d="M25.0635 6.33602H22.7081C22.423 6.33602 22.1523 6.22931 21.9508 6.03964C21.7492 5.84969 21.6369 5.59242 21.6369 5.32426C21.6369 5.05582 21.7492 4.79855 21.9508 4.60888C22.1523 4.41893 22.423 4.3125 22.7081 4.3125H32.0548C32.3399 4.3125 32.6134 4.41893 32.8121 4.60888C33.0137 4.79855 33.1289 5.05582 33.1289 5.32426C33.1289 5.59242 33.0137 5.84969 32.8121 6.03964C32.6134 6.22931 32.3399 6.33602 32.0548 6.33602H29.6994C29.4144 6.33602 29.1437 6.44245 28.9421 6.63212C28.7406 6.82207 28.6283 7.07933 28.6283 7.3475V16.2382C28.6283 16.5067 28.5131 16.764 28.3144 16.9536C28.1128 17.1433 27.8393 17.25 27.5542 17.25H27.2058C26.9207 17.25 26.6501 17.1433 26.4485 16.9536C26.2469 16.764 26.1346 16.5067 26.1346 16.2382V7.3475C26.1346 7.07961 26.0223 6.82262 25.8208 6.63295C25.6192 6.44328 25.3485 6.3363 25.0635 6.33602Z" fill="url(#paint0_linear)"/>
<path d="M10.5674 18.4459C8.91538 18.4462 7.31198 17.8864 6.00868 16.8555C4.70252 15.8249 3.7765 14.382 3.37351 12.7555C2.96765 11.1291 3.11058 9.41252 3.77652 7.87766C4.44246 6.34281 5.59427 5.07769 7.0519 4.28252L5.77719 1.4375C3.38209 2.69068 1.55289 4.83064 0.669733 7.41458C-0.213424 9.99823 -0.0847885 12.828 1.02988 15.3177C2.1474 17.8073 4.16237 19.7665 6.66036 20.7893C9.16121 21.8122 11.9507 21.8205 14.4544 20.8123L13.1826 17.9673C12.3451 18.2856 11.462 18.4477 10.5674 18.4459Z" fill="#EC6440"/>
<path d="M3.23569 18.2308C4.59845 19.6757 6.30337 20.7046 8.17204 21.2096C10.0407 21.7146 12 21.677 13.8482 21.1005C15.5239 20.5818 13.8804 19.648 6.97014 17.9217C0.788019 16.3843 0.466342 7.1875 0.466342 7.1875C-0.0308011 9.12403 -0.0366641 11.1652 0.451706 13.1046C0.937151 15.0437 1.89926 16.8121 3.23569 18.2308Z" fill="#E94E1B"/>
<path d="M25.8795 22.6024C25.693 22.2642 25.4675 21.9616 25.2085 21.7042C24.9719 21.4423 24.6629 21.2969 24.3427 21.2969C24.1923 21.312 24.0447 21.3766 23.9194 21.4837C23.7914 21.594 23.68 21.7277 23.5853 21.8808C23.5575 21.9198 23.538 21.9588 23.513 22.0002C23.4879 22.0416 23.4628 22.0883 23.435 22.1326C23.3821 22.2228 23.3264 22.3095 23.2651 22.392C23.1399 22.5764 22.9784 22.7193 22.7946 22.8074C22.686 22.8534 22.5719 22.865 22.4577 22.8411C22.3491 22.8158 22.2461 22.7649 22.1542 22.6905C21.9983 22.5585 21.8591 22.3984 21.7422 22.2154C21.5166 21.8808 21.3189 21.5329 21.1213 21.2474C21.0294 21.1126 20.9236 20.9922 20.8094 20.8893C20.7677 20.8535 20.7204 20.8271 20.6702 20.8113C20.6341 20.7998 20.5951 20.7998 20.5589 20.8113C20.4503 20.8672 20.3584 20.9567 20.286 21.0712C20.1858 21.2127 20.0967 21.3636 20.016 21.5227L19.7486 22.0416C19.6484 22.2428 19.5287 22.4307 19.3978 22.6024C19.3171 22.7049 19.2224 22.7927 19.1194 22.8618C19.0526 22.9047 18.983 22.9363 18.9078 22.9552C18.8298 22.9774 18.7463 22.9826 18.6656 22.9707C18.5208 22.9465 18.3844 22.8769 18.2674 22.7684C18.1811 22.6915 18.1004 22.6045 18.0252 22.509C17.8915 22.3299 17.7885 22.1586 17.6855 22.0055C17.5992 21.8685 17.5017 21.7425 17.3959 21.6291C17.3625 21.5922 17.3264 21.5617 17.2846 21.5381C17.2568 21.5248 17.2289 21.5171 17.1983 21.515C17.176 21.5093 17.1537 21.5093 17.1314 21.515C17.1064 21.5237 17.0841 21.5409 17.0674 21.5641C16.9783 21.681 16.9031 21.812 16.8447 21.9535C16.7556 22.1557 16.6526 22.3492 16.5384 22.5321C16.4632 22.6466 16.3769 22.7467 16.2767 22.8281C16.1681 22.9187 16.04 22.9756 15.9092 22.9942C15.8479 23.0019 15.7839 23.0019 15.7226 22.9942L15.6363 22.9784H15.5834L15.5305 22.9605C15.4219 22.9135 15.3217 22.8443 15.2326 22.7554C15.0823 22.6038 14.9514 22.4233 14.8484 22.2207C14.7509 22.0311 14.6702 21.8271 14.6117 21.6136C14.5532 21.4079 14.5115 21.1958 14.4864 20.9802C14.4614 20.7696 14.4502 20.5571 14.4558 20.3444H14.5365C14.6173 20.7355 14.7426 21.1115 14.9041 21.463C14.9431 21.5462 14.9876 21.627 15.0349 21.7042C15.0795 21.7815 15.1296 21.8552 15.1825 21.9247C15.2771 22.0578 15.3913 22.1708 15.5166 22.2597C15.5639 22.2951 15.6168 22.3197 15.6725 22.3324H15.692H15.731C15.7533 22.3278 15.7755 22.3201 15.7978 22.3088C15.8312 22.2895 15.8618 22.2611 15.8869 22.226C15.9175 22.1775 15.9454 22.1256 15.9704 22.0701C16.0289 21.9377 16.0874 21.7614 16.1514 21.5511C16.2294 21.3113 16.3351 21.0887 16.4716 20.8921C16.5662 20.7611 16.6832 20.6565 16.814 20.5856C16.9477 20.5189 17.0925 20.4887 17.2373 20.4974C17.3069 20.5006 17.3792 20.5118 17.4488 20.5312C17.5157 20.5529 17.5825 20.5835 17.6466 20.6221C17.7579 20.6902 17.8609 20.7776 17.9528 20.8816C18.092 21.0512 18.2173 21.24 18.3231 21.4447C18.4206 21.6263 18.5097 21.7976 18.5932 21.9353C18.6266 21.9946 18.6656 22.0504 18.7101 22.1013C18.7435 22.1403 18.7658 22.1533 18.7658 22.1586C18.7686 22.1638 18.7658 22.1586 18.8104 22.1586C18.8577 22.1312 18.9022 22.0954 18.9412 22.0522C19.047 21.931 19.1417 21.7952 19.2252 21.6473L19.5064 21.128C19.6095 20.9395 19.7264 20.7615 19.8517 20.5961C19.9241 20.4999 20.0048 20.4132 20.0883 20.3366C20.1886 20.252 20.2971 20.1906 20.4141 20.1548C20.5421 20.1151 20.6758 20.1151 20.8039 20.1548C20.9152 20.1948 21.0238 20.2601 21.1185 20.3468C21.2716 20.496 21.4053 20.6709 21.5194 20.8661C21.731 21.2214 21.8981 21.5876 22.0846 21.904C22.1682 22.0557 22.2684 22.1926 22.3798 22.3116C22.4215 22.3597 22.4744 22.3945 22.5301 22.4131C22.5858 22.4317 22.6442 22.4335 22.6999 22.418C22.8364 22.3685 22.9589 22.2797 23.0619 22.1586C23.1204 22.0922 23.176 22.022 23.2289 21.9482L23.3097 21.8341C23.3376 21.7927 23.3626 21.7485 23.3932 21.7095C23.5102 21.5392 23.6494 21.3921 23.8025 21.2734C23.9612 21.1519 24.145 21.0838 24.3343 21.0761C24.5181 21.074 24.699 21.1256 24.8633 21.2267C25.022 21.324 25.1668 21.4472 25.2976 21.5926C25.5538 21.8777 25.771 22.2074 25.9464 22.5711L25.8795 22.6024Z" fill="#EC6440"/>
<path d="M54.5735 4.3125H54.6565C55.0114 4.3125 55.3531 4.42902 55.6019 4.63639C55.8541 4.84347 55.9934 5.12475 55.9934 5.41788V13.9406C55.9934 14.954 56.4114 15.2085 57.1313 15.2085C57.1844 15.208 57.2408 15.2161 57.2906 15.2328C57.3403 15.2492 57.3868 15.274 57.4233 15.305C57.4631 15.3363 57.493 15.3733 57.5162 15.4145C57.5361 15.4554 57.546 15.4997 57.5494 15.5443V16.8976C57.5494 16.9808 57.5129 17.0613 57.4432 17.123C57.3768 17.1848 57.2839 17.2235 57.1811 17.2311C57.0351 17.2415 56.856 17.25 56.6768 17.25C55.1441 17.25 53.2399 16.9247 53.2399 14.2826V5.41788C53.2399 5.12531 53.3792 4.84488 53.6313 4.6378C53.8801 4.43071 54.2185 4.31363 54.5735 4.3125Z" fill="#EC6440"/>
<path d="M59.8794 4.3125H59.9369C60.1735 4.3125 60.3991 4.42901 60.5672 4.63634C60.7331 4.84339 60.8282 5.12463 60.8282 5.41771V13.9392C60.8282 14.9524 61.1047 15.2069 61.5868 15.2069C61.6576 15.2074 61.7261 15.2433 61.777 15.3064C61.8279 15.3696 61.8566 15.4551 61.8588 15.5445V16.8977C61.8588 16.9812 61.8345 17.0616 61.7881 17.1233C61.7438 17.1851 61.6819 17.2235 61.6133 17.2314C61.516 17.2418 61.3966 17.25 61.2772 17.25C60.2554 17.25 58.9858 16.9248 58.9858 14.283V5.41771C58.9858 5.27244 59.0102 5.12857 59.0544 4.9943C59.0986 4.86003 59.165 4.73817 59.249 4.63549C59.3308 4.53281 59.4304 4.45157 59.5388 4.396C59.6449 4.34071 59.7621 4.31222 59.8794 4.3125Z" fill="#EC6440"/>
<path d="M13.2861 6.1232L13.204 6.28705C12.9558 6.78424 12.9558 7.59081 13.204 8.088L13.2861 8.25184C13.5359 8.74939 13.938 8.74939 14.1861 8.25184L14.2683 8.088C14.5164 7.59081 14.5164 6.78424 14.2683 6.28705L14.1861 6.12285C13.938 5.62566 13.5359 5.62566 13.2861 6.1232Z" fill="url(#paint1_linear)"/>
<path d="M21.6369 10.7656C21.6369 9.04944 21.2212 7.35832 20.4312 5.83335C19.6412 4.30808 18.4944 2.99299 17.0883 1.99725C15.6851 1.00182 14.0608 0.35468 12.3511 0.110118C10.6443 -0.134745 8.90205 0.0302055 7.27188 0.590497L8.59257 3.48815C10.3672 2.95831 12.2715 3.08617 13.9606 3.84821C15.6468 4.60994 16.9969 5.95428 17.7634 7.63153C18.5298 9.30879 18.6566 11.2056 18.126 12.97C17.5924 14.7347 16.4339 16.247 14.8656 17.2273L16.1862 20.125C17.8459 19.1823 19.2226 17.8196 20.1806 16.1758C21.1358 14.532 21.6398 12.6654 21.6369 10.7656Z" fill="url(#paint2_linear)"/>
<path d="M21.6369 10.8647C21.6369 8.95261 21.0829 7.07548 20.0314 5.43052C18.9798 3.78587 17.4713 2.43367 15.6624 1.51629C14.0256 0.684863 18.9517 6.6141 18.9517 10.7811C18.9517 13.4745 16.7484 15.9273 14.4544 17.2574L15.8564 20.125C17.6153 19.1915 19.0769 17.8432 20.0909 16.217C21.108 14.5906 21.64 12.7439 21.6369 10.8647Z" fill="url(#paint3_linear)"/>
<path d="M15.817 9.53565C15.7555 9.21131 15.656 8.90353 15.5202 8.625L15.0262 9.18956C15.1366 9.43625 15.209 9.71167 15.2398 9.99874C15.2705 10.2858 15.2579 10.5786 15.2054 10.8592C15.1511 11.1398 15.057 11.402 14.9285 11.6303C14.7982 11.8583 14.6371 12.0473 14.4544 12.1858L14.7891 12.9375C15.2072 12.6095 15.5347 12.0973 15.7211 11.4814C15.9075 10.8656 15.9419 10.1812 15.817 9.53565Z" fill="url(#paint4_linear)"/>
<path d="M2.96239 3.6984L4.15166 2.875L5.83539 5.30857L5.21489 5.75L2.96239 3.6984Z" fill="#E94E1B"/>
<path d="M10.1449 17.3191L11.3436 17.25L13.0179 21.2471L11.8674 21.5625L10.1449 17.3191Z" fill="#E94E1B"/>
<path d="M5.40558 5.69922L6.86878 5.15372C7.21439 5.02489 7.36621 4.6914 7.21117 4.40873L5.73826 1.76687C5.57999 1.4842 5.17301 1.35945 4.8274 1.48828L3.3642 2.03377C3.01859 2.16233 2.86679 2.4961 3.02506 2.77877L4.49472 5.42063C4.65299 5.7033 5.05997 5.82805 5.40558 5.69922Z" fill="#EC6440"/>
<path d="M13.2095 21.5119L14.1848 20.9664C14.4151 20.8376 14.5185 20.5041 14.413 20.2212L13.4334 17.5796C13.3279 17.2967 13.0566 17.1719 12.8263 17.3008L11.851 17.8463C11.6206 17.9751 11.5173 18.3086 11.6228 18.5912L12.6024 21.233C12.7079 21.5157 12.9791 21.6404 13.2095 21.5119Z" fill="#EC6440"/>
<path d="M14.4544 20.0661C14.4094 20.0964 14.3569 20.1155 14.3045 20.1224C14.252 20.1289 14.1995 20.1232 14.1471 20.1049C14.0971 20.0866 14.0521 20.0568 14.0122 20.0172C13.9747 19.9775 13.9447 19.9294 13.9272 19.8761L13.0453 17.6985C13.0253 17.655 13.0179 17.6077 13.0179 17.5602C13.0204 17.5126 13.0304 17.4659 13.0504 17.4233C13.0703 17.3806 13.0978 17.3429 13.1328 17.3131C13.1677 17.2831 13.2077 17.2618 13.2502 17.25L14.4544 20.0661Z" fill="#E94E1B"/>
<path d="M7.25852 4.23553C7.18258 4.2702 7.09321 4.29416 7.00388 4.30515C6.91007 4.31642 6.81185 4.31473 6.72251 4.30007C6.62871 4.28542 6.54381 4.25836 6.46787 4.22087C6.3964 4.18338 6.33836 4.1366 6.29816 4.08333L4.46222 1.91469C4.42648 1.87128 4.40418 1.82365 4.39972 1.77489C4.39525 1.72584 4.40866 1.67708 4.43993 1.6317C4.46673 1.58632 4.51136 1.54545 4.56943 1.51191C4.6275 1.47837 4.699 1.453 4.77493 1.4375L7.27188 4.23553H7.25852Z" fill="#E94E1B"/>
<path d="M14.4234 13.3551L14.3043 13.0161L13.9267 11.9328L13.8261 11.6572C13.7994 11.5822 13.7563 11.5289 13.7091 11.5088C13.6598 11.4886 13.6085 11.5035 13.5654 11.5498L13.1056 12.0514C13.0645 12.0991 13.0337 12.1737 13.0235 12.2599C13.0112 12.3456 13.0194 12.4362 13.0461 12.5116L13.4094 13.5483L13.6454 14.2181C13.6721 14.2927 13.7132 14.346 13.7624 14.3662C13.8117 14.3863 13.863 14.3718 13.9061 14.3255L14.3639 13.8239C14.3865 13.8001 14.4049 13.7691 14.4193 13.7329C14.4337 13.6964 14.4439 13.655 14.4501 13.6114C14.4542 13.5677 14.4562 13.5226 14.4521 13.4786C14.446 13.4346 14.4378 13.3928 14.4234 13.3551Z" fill="url(#paint5_linear)"/>
<path d="M47.9286 11.5H47.5996C45.9927 11.5 41.7479 11.6996 41.7479 14.4948C41.7479 16.2616 43.3371 17.25 45.0968 17.25C47.3441 17.25 48.1196 15.6906 48.099 15.6906H48.1372C48.1108 15.8975 48.099 16.1055 48.099 16.3138V17.0423H50.3669V13.1091C50.3287 12.8076 50.0261 11.6637 47.9286 11.5ZM47.9492 13.215C47.9492 14.2892 47.018 15.5369 45.7166 15.5369C44.709 15.5369 44.2243 14.9818 44.2243 14.393C44.2243 13.1631 46.2601 13.0073 47.5203 13.0073H47.9463L47.9492 13.215Z" fill="#EC6440"/>
<path d="M50.3669 12.9375V11.7909C50.3669 8.86464 48.9839 7.1875 46.61 7.1875C45.4661 7.18962 44.3463 7.59256 43.3688 8.35249C43.2855 8.41929 43.2238 8.52462 43.1969 8.64656C43.1727 8.76885 43.1835 8.89928 43.2292 9.01097L43.7179 10.1919C43.742 10.2523 43.777 10.306 43.8172 10.3492C43.8602 10.3926 43.9059 10.4248 43.9596 10.4435C44.0106 10.4626 44.0643 10.4683 44.1153 10.4601C44.169 10.4517 44.2201 10.4297 44.2657 10.3958C44.9129 9.89567 45.646 9.61114 46.3979 9.56731C47.3915 9.56731 48.1353 10.3877 48.1353 11.0306C48.1353 11.0306 50.3669 11.1716 50.3669 12.9375Z" fill="url(#paint6_linear)"/>
<defs>
<linearGradient id="paint0_linear" x1="21.6369" y1="10.7811" x2="33.1289" y2="10.7811" gradientUnits="userSpaceOnUse">
<stop stop-color="#58B9C1"/>
<stop offset="1" stop-color="#37727E"/>
</linearGradient>
<linearGradient id="paint1_linear" x1="278.952" y1="813.351" x2="455.975" y2="773.386" gradientUnits="userSpaceOnUse">
<stop stop-color="#58B9C1"/>
<stop offset="1" stop-color="#37727E"/>
</linearGradient>
<linearGradient id="paint2_linear" x1="2851.18" y1="5948.52" x2="4349.07" y2="5465.29" gradientUnits="userSpaceOnUse">
<stop stop-color="#58B9C1"/>
<stop offset="1" stop-color="#37727E"/>
</linearGradient>
<linearGradient id="paint3_linear" x1="21.2957" y1="27.2477" x2="14.7875" y2="-4.82398" gradientUnits="userSpaceOnUse">
<stop stop-color="#37727E"/>
<stop offset="1" stop-color="#58B9C1"/>
</linearGradient>
<linearGradient id="paint4_linear" x1="301.144" y1="1330.66" x2="485.028" y2="1302.97" gradientUnits="userSpaceOnUse">
<stop stop-color="#58B9C1"/>
<stop offset="1" stop-color="#37727E"/>
</linearGradient>
<linearGradient id="paint5_linear" x1="303.966" y1="912.177" x2="482.832" y2="871.797" gradientUnits="userSpaceOnUse">
<stop stop-color="#58B9C1"/>
<stop offset="1" stop-color="#37727E"/>
</linearGradient>
<linearGradient id="paint6_linear" x1="2546.06" y1="1683.2" x2="2798.73" y2="1683.2" gradientUnits="userSpaceOnUse">
<stop stop-color="#58B9C1"/>
<stop offset="1" stop-color="#37727E"/>
</linearGradient>
</defs>
</svg>
