<svg width="56" height="22" viewBox="0 0 56 22" fill="none" xmlns="http://www.w3.org/2000/svg">
<path d="M9.65855 5.45771V5.39212C9.65333 4.93906 9.79953 4.49711 10.0724 4.13641C10.3387 3.77545 10.7186 3.51535 11.1507 3.3983C11.3452 3.35453 11.4431 3.24963 11.4431 3.08332C11.4431 2.84438 11.3452 2.74666 11.1507 2.79043C10.5593 2.9225 10.0293 3.25237 9.64939 3.72581C9.27079 4.19925 9.06193 4.78805 9.06062 5.39552V5.4389C9.06454 5.89496 8.91832 6.33966 8.64286 6.7031C8.37915 7.06654 7.99923 7.32861 7.56581 7.44631C7.36346 7.48263 7.26294 7.58401 7.26294 7.75031C7.26033 7.83771 7.29036 7.92289 7.3478 7.98873C7.37261 8.01982 7.40787 8.04269 7.44573 8.05431C7.4849 8.06594 7.52537 8.06594 7.56454 8.05418C8.15462 7.93647 8.68463 7.61131 9.05931 7.13735C9.45226 6.66678 9.66508 6.07133 9.65855 5.45771Z" fill="#3B3735"/>
<path d="M11.6523 5.09828C11.8116 5.09828 11.9121 5.0007 11.9565 4.80552C12.0792 4.37806 12.3351 4.0013 12.6863 3.73022C13.0387 3.45927 13.4669 3.30812 13.9108 3.29911C14.3547 3.29009 14.7894 3.42374 15.151 3.68018C15.514 3.93676 15.7855 4.30295 15.9252 4.72491C16.0649 5.14701 16.0662 5.60295 15.9291 6.02583C15.792 6.44884 15.5231 6.81672 15.1627 7.07565C14.8024 7.33458 14.3677 7.47097 13.9239 7.46496C13.4813 7.45882 13.0505 7.31067 12.6967 7.04195C12.3338 6.77139 12.0648 6.39097 11.933 5.95646C11.9186 5.76128 11.8207 5.66356 11.6405 5.66356C11.4029 5.66356 11.305 5.76128 11.3481 5.95646C11.4773 6.55401 11.8063 7.08898 12.2828 7.47097C12.7358 7.83572 13.2946 8.04278 13.8742 8.06068C14.4552 8.07858 15.0257 7.90639 15.4996 7.57013C15.9735 7.23399 16.3247 6.75206 16.5009 6.19749C16.6772 5.64292 16.6693 5.0459 16.4761 4.49669C16.2842 3.9476 15.9173 3.47626 15.4343 3.15423C14.9513 2.8322 14.3755 2.67687 13.7959 2.71188C13.2163 2.74689 12.6641 2.97015 12.2228 3.3481C11.7802 3.72604 11.4734 4.23802 11.3481 4.8063C11.3063 5.00096 11.4082 5.09828 11.6523 5.09828Z" fill="#3B3735"/>
<path d="M17.5094 2.61305V7.83422C17.5237 7.97962 17.6217 8.05225 17.8005 8.05225C17.9807 8.05225 18.0786 7.97988 18.0929 7.83513V3.29748H19.6869C19.8305 3.28337 19.9023 3.18565 19.9023 3.00471C19.9023 2.82364 19.8305 2.72593 19.6869 2.71182H18.0942V2.60365C18.0955 2.15359 18.2431 1.71621 18.5146 1.35786C18.7862 0.999385 19.1674 0.739542 19.5995 0.617524C19.794 0.581206 19.8906 0.479829 19.8906 0.313524C19.8906 0.0677897 19.794 -0.0334555 19.5995 0.00965576C19.0094 0.134286 18.4807 0.460495 18.1047 0.932498C17.7131 1.40359 17.5015 1.99957 17.5094 2.61305Z" fill="#3B3735"/>
<path d="M22.8256 7.74757C22.8321 7.95019 22.9339 8.05144 23.1284 8.05144C23.323 8.05144 23.4235 7.95019 23.4313 7.74757V3.68832C23.4313 3.44258 23.5867 3.31978 23.8974 3.31978H25.4561C25.665 3.30554 25.7707 3.2043 25.7707 3.01578C25.7707 2.8274 25.665 2.72602 25.4561 2.71191H20.7459C20.537 2.72668 20.4313 2.82792 20.4313 3.01578C20.4313 3.20364 20.537 3.30502 20.7459 3.31978H22.37C22.6728 3.3561 22.8256 3.49001 22.8256 3.72163V7.74757Z" fill="#3B3735"/>
<path d="M7.22626 5.26562H5.56436C5.39595 5.26562 5.25758 5.40319 5.25758 5.57289V5.64095C5.25758 5.81079 5.39595 5.94835 5.56436 5.94835H7.22626C7.39467 5.94835 7.53176 5.81079 7.53176 5.64095V5.57289C7.53176 5.40319 7.39467 5.26562 7.22626 5.26562Z" fill="#3B3735"/>
<path d="M5.5721 3.01475C5.5721 3.20287 5.46636 3.30424 5.25748 3.31861H3.7C3.38798 3.31861 3.23394 3.44155 3.23394 3.68728V7.74653C3.21958 7.94902 3.11776 8.0504 2.93108 8.0504C2.74308 8.0504 2.64257 7.94902 2.62821 7.74653V3.71968C2.62821 3.48806 2.47547 3.35415 2.17259 3.31783H0.547262C0.338384 3.30333 0.233917 3.20208 0.233917 3.01396C0.233917 2.82571 0.338384 2.72446 0.547262 2.70996H5.25748C5.46766 2.72525 5.5721 2.82662 5.5721 3.01475Z" fill="#ED6E26"/>
<path d="M38.0922 9.91309C36.9682 9.91309 36.0517 10.2726 35.3441 10.9917C34.6352 11.7108 34.2814 12.6688 34.2814 13.8659C34.2814 15.0628 34.6326 16.0253 35.3363 16.7535C36.0386 17.4817 36.9512 17.8449 38.0726 17.8432C38.9786 17.8432 39.7515 17.6114 40.3911 17.1477C41.0099 16.7111 41.4643 16.0788 41.681 15.3523H39.5713C39.2475 15.9091 38.7475 16.1875 38.0726 16.1875C37.5726 16.1875 37.1601 16.0342 36.8363 15.7277C36.5073 15.4099 36.3089 14.9801 36.2814 14.5231H41.8859C41.9238 14.2744 41.9421 14.023 41.9408 13.7713C41.9408 12.6022 41.5804 11.6675 40.8585 10.9671C40.1366 10.2666 39.2149 9.91531 38.0922 9.91309ZM36.2814 13.2529C36.3454 12.7421 36.5426 12.3337 36.8716 12.0278C37.2045 11.7201 37.6444 11.5554 38.0974 11.5689C38.5596 11.5582 39.0073 11.7221 39.3533 12.0278C39.7006 12.3337 39.8885 12.7421 39.916 13.2529H36.2814Z" fill="url(#paint0_linear)"/>
<path d="M54.1901 16.0921C53.8938 16.0921 53.6862 16.0388 53.5648 15.9321C53.4447 15.8255 53.3846 15.6469 53.3846 15.3966V11.6287H55.1052V10.0281H53.3846V8.12109H51.4316V10.0281H50.6131V11.6287H51.4316V15.4C51.4316 16.2349 51.6444 16.8334 52.07 17.1955C52.4956 17.5576 53.1013 17.7383 53.8885 17.7378H55.1235V16.0921H54.1901Z" fill="url(#paint1_linear)"/>
<path d="M5.58533 15.6902C5.25374 16.024 4.82816 16.2471 4.36601 16.3293C3.90387 16.4113 3.42739 16.3483 3.0018 16.1489C2.57751 15.9494 2.22369 15.6232 1.99001 15.2148C1.75763 14.8064 1.65581 14.3357 1.6989 13.8672C1.74198 13.3986 1.92867 12.955 2.23415 12.5969C2.53833 12.2387 2.94565 11.9837 3.39996 11.8663C3.85558 11.7492 4.3347 11.7754 4.77334 11.9418C5.21329 12.1082 5.59058 12.4064 5.85429 12.7957C6.04881 12.2222 6.37125 11.7009 6.79684 11.2718L6.78903 11.2624C6.23289 10.7053 5.5253 10.326 4.75506 10.1722C3.98351 10.0186 3.18455 10.0975 2.45869 10.3989C1.73284 10.7004 1.11143 11.2109 0.675394 11.8661C0.23936 12.5211 0.00567627 13.2912 0.00567627 14.0791C0.00567627 14.8669 0.23936 15.6371 0.675394 16.2922C1.11143 16.9472 1.73284 17.4577 2.45869 17.7593C3.18455 18.0608 3.98351 18.1397 4.75506 17.9859C5.5253 17.8322 6.23289 17.4528 6.78903 16.8957L6.79684 16.8863C6.37125 16.4573 6.04881 15.936 5.85429 15.3625C5.77466 15.4798 5.68455 15.5896 5.58533 15.6902Z" fill="url(#paint2_linear)"/>
<path d="M48.5246 15.6902C48.1943 16.024 47.7687 16.2471 47.3053 16.3293C46.8431 16.4113 46.3679 16.3483 45.9423 16.1489C45.5168 15.9494 45.1642 15.6232 44.9306 15.2148C44.6969 14.8064 44.5951 14.3357 44.6394 13.8672C44.6825 13.3986 44.8692 12.955 45.1734 12.5969C45.4789 12.2387 45.8862 11.9837 46.3405 11.8663C46.7948 11.7492 47.2752 11.7754 47.7139 11.9418C48.1525 12.1082 48.5298 12.4064 48.7935 12.7957C48.988 12.2222 49.3105 11.7009 49.7374 11.2718L49.7296 11.2624C49.1734 10.7053 48.4658 10.326 47.6943 10.1722C46.9241 10.0186 46.1251 10.0975 45.3992 10.3989C44.6721 10.7004 44.052 11.2109 43.6159 11.8661C43.1786 12.5211 42.9462 13.2912 42.9462 14.0791C42.9462 14.8669 43.1786 15.6371 43.6159 16.2922C44.052 16.9472 44.6721 17.4577 45.3992 17.7593C46.1251 18.0608 46.9241 18.1397 47.6943 17.9859C48.4658 17.8322 49.1734 17.4528 49.7296 16.8957L49.7374 16.8863C49.3105 16.4573 48.988 15.936 48.7935 15.3625C48.7152 15.4798 48.6251 15.5896 48.5246 15.6902Z" fill="url(#paint3_linear)"/>
<path d="M7.97815 11.0799L7.97034 11.0893C7.54345 11.5183 7.22096 12.0395 7.02644 12.6131C7.28363 12.9914 7.42202 13.4386 7.42202 13.8965C7.42202 14.3544 7.28363 14.8017 7.02644 15.1799C7.22096 15.7534 7.54345 16.2748 7.97034 16.7038L7.97815 16.7132C8.53429 17.2702 9.24186 17.6496 10.0134 17.8034C10.7836 17.957 11.5826 17.8781 12.3085 17.5767C13.0343 17.2752 13.6558 16.7647 14.0918 16.1095C14.5291 15.4545 14.7615 14.6843 14.7615 13.8965C14.7615 13.1087 14.5291 12.3384 14.0918 11.6834C13.6558 11.0284 13.0343 10.5178 12.3085 10.2163C11.5826 9.91481 10.7836 9.8359 10.0134 9.98967C9.24186 10.1433 8.53429 10.5228 7.97815 11.0799ZM12.3946 15.5067C12.1583 15.7444 11.8738 15.9267 11.5591 16.0408C11.2445 16.155 10.909 16.1978 10.5761 16.1666C10.2432 16.1354 9.92205 16.0307 9.63484 15.8601C9.34632 15.6895 9.09957 15.4572 8.91289 15.1799C9.19357 14.3476 9.19357 13.4455 8.91289 12.6131C9.09044 12.3511 9.32152 12.1293 9.59046 11.9618C9.85808 11.7943 10.1596 11.685 10.473 11.6407C10.7863 11.5964 11.1048 11.6182 11.409 11.7047C11.7132 11.7911 11.9965 11.9404 12.2393 12.1427C12.4834 12.3451 12.6818 12.5963 12.8228 12.8801C12.9638 13.164 13.0448 13.4742 13.0591 13.7909C13.0735 14.1077 13.0213 14.424 12.9077 14.7196C12.7928 15.0153 12.6179 15.2836 12.3946 15.5076V15.5067Z" fill="url(#paint4_linear)"/>
<path d="M29.8253 9.91309C28.7248 9.91309 27.9284 10.3353 27.4376 11.1799V10.0247H25.4846V18.0927C25.4846 18.4037 25.3605 18.7018 25.1412 18.9216C24.9219 19.1415 24.6256 19.265 24.3148 19.265C24.0041 19.265 23.7078 19.1415 23.4885 18.9216C23.2692 18.7018 23.1451 18.4037 23.1451 18.0927V13.1975C23.1451 12.1674 22.8671 11.3627 22.3122 10.7831C21.7574 10.2036 21.0394 9.91361 20.1608 9.91309C19.0589 9.91309 18.2626 10.3353 17.7717 11.1799V10.0247H15.8187V17.7343H17.7717V13.4776C17.7717 12.8748 17.9271 12.4131 18.2378 12.0924C18.5485 11.7718 18.9663 11.6118 19.4937 11.6123C20.0211 11.6123 20.4375 11.7724 20.743 12.0924C21.0485 12.4126 21.1999 12.8738 21.1973 13.4759L21.213 17.7326C21.1738 18.2257 21.2495 18.7212 21.4336 19.1803C21.6177 19.6394 21.9049 20.0495 22.2731 20.3785C22.837 20.8737 23.559 21.1479 24.3083 21.1506C25.0577 21.1532 25.7822 20.8841 26.3501 20.393C26.7235 20.0641 27.0146 19.6522 27.2013 19.1904C27.388 18.7286 27.465 18.2294 27.4245 17.7326L27.4363 13.4759C27.4363 12.8731 27.5903 12.4114 27.901 12.0907C28.2117 11.7701 28.6308 11.6101 29.1582 11.6106C29.6856 11.6106 30.1021 11.7707 30.4076 12.0907C30.7117 12.4109 30.8645 12.8726 30.8645 13.4759V17.7326H32.8084V13.1975C32.8084 12.1674 32.5316 11.3627 31.9755 10.7831C31.4207 10.2036 30.7039 9.91361 29.8253 9.91309Z" fill="url(#paint5_linear)"/>
<defs>
<linearGradient id="paint0_linear" x1="-0.785396" y1="13.8795" x2="59.0923" y2="13.8795" gradientUnits="userSpaceOnUse">
<stop stop-color="#18A9D9"/>
<stop offset="1" stop-color="#016E8B"/>
</linearGradient>
<linearGradient id="paint1_linear" x1="443.665" y1="3135.85" x2="3624.4" y2="3135.85" gradientUnits="userSpaceOnUse">
<stop stop-color="#18A9D9"/>
<stop offset="1" stop-color="#016E8B"/>
</linearGradient>
<linearGradient id="paint2_linear" x1="591.775" y1="2709.16" x2="5380.61" y2="2709.16" gradientUnits="userSpaceOnUse">
<stop stop-color="#18A9D9"/>
<stop offset="1" stop-color="#016E8B"/>
</linearGradient>
<linearGradient id="paint3_linear" x1="634.716" y1="2709.16" x2="5423.55" y2="2709.16" gradientUnits="userSpaceOnUse">
<stop stop-color="#18A9D9"/>
<stop offset="1" stop-color="#016E8B"/>
</linearGradient>
<linearGradient id="paint4_linear" x1="681.006" y1="2691.85" x2="6135.12" y2="2691.85" gradientUnits="userSpaceOnUse">
<stop stop-color="#18A9D9"/>
<stop offset="1" stop-color="#016E8B"/>
</linearGradient>
<linearGradient id="paint5_linear" x1="1496.14" y1="4009.01" x2="13475.4" y2="4009.01" gradientUnits="userSpaceOnUse">
<stop stop-color="#18A9D9"/>
<stop offset="1" stop-color="#016E8B"/>
</linearGradient>
</defs>
</svg>
