<svg width="106" height="33" viewBox="0 0 106 33" fill="none" xmlns="http://www.w3.org/2000/svg">
<path d="M39.0445 22.3432V22.0761C39.021 20.2159 39.6267 18.4015 40.7651 16.9222C41.8665 15.4452 43.4394 14.3805 45.2284 13.9013C46.0361 13.7232 46.4395 13.2936 46.4385 12.6125C46.4385 11.6348 46.0351 11.2351 45.2284 11.4132C42.7432 11.9465 40.68 13.2126 39.0388 15.2114C37.4208 17.1371 36.5467 19.5703 36.5727 22.0761V22.2537C36.5939 24.1205 35.9887 25.9414 34.8522 27.4303C33.7575 28.9185 32.1836 29.9926 30.3903 30.4754C29.5529 30.6241 29.1343 31.0386 29.1343 31.7187C29.1248 32.0778 29.2529 32.4271 29.4927 32.6964C29.599 32.8237 29.7409 32.9171 29.9007 32.9646C30.0604 33.0122 30.2308 33.0118 30.3903 32.9635C32.8755 32.4605 34.9387 31.2091 36.5799 29.2093C38.1976 27.283 39.0712 24.8493 39.0445 22.3432V22.3432ZM47.2973 20.8768C47.955 20.8768 48.3736 20.477 48.5533 19.6775C49.0601 17.8964 50.1411 16.3286 51.6313 15.2136C53.1215 14.0985 54.9389 13.4974 56.8061 13.502C59.1957 13.502 61.2293 14.3314 62.9068 15.9901C64.5843 17.6488 65.4217 19.6628 65.4188 22.032C65.4188 24.3719 64.5815 26.3788 62.9068 28.0526C61.2322 29.7265 59.1986 30.5635 56.8061 30.5635C54.9325 30.5768 53.1084 29.9669 51.6259 28.8313C50.1197 27.7234 49.0116 26.1661 48.4644 24.388C48.4042 23.5885 48.0004 23.1887 47.2529 23.1887C46.2664 23.1887 45.8626 23.5885 46.0413 24.388C46.6387 26.9362 47.932 29.0023 49.9211 30.5862C51.863 32.1537 54.299 32.9947 56.8033 32.9621C59.8543 32.9621 62.4633 31.8959 64.6302 29.7635C66.7971 27.6311 67.8811 25.0544 67.882 22.0334C67.882 19.0125 66.7981 16.4358 64.6302 14.3034C62.4624 12.171 59.8534 11.1048 56.8033 11.1048C54.2917 11.1017 51.8547 11.9502 49.897 13.5094C47.9393 15.0686 46.5787 17.2446 46.0413 19.6761C45.8626 20.4765 46.2813 20.8768 47.2973 20.8768ZM71.5625 10.7027V32.0725C71.6218 32.6656 72.0256 32.9616 72.7741 32.9606C73.5225 32.9597 73.9263 32.6637 73.9856 32.0725V13.5006H80.581C81.1793 13.4418 81.4785 13.0421 81.4785 12.3013C81.4785 11.5605 81.1765 11.1607 80.5724 11.102H73.977V10.6572C73.9827 8.81446 74.5943 7.02377 75.7193 5.55654C76.8442 4.08932 78.4212 3.02555 80.2111 2.52647C81.0187 2.37869 81.4226 1.96424 81.4226 1.28313C81.4226 0.277084 81.0187 -0.137363 80.2111 0.0397835C77.7683 0.549115 75.5802 1.88431 74.0214 3.8167C72.3967 5.7469 71.522 8.18927 71.5554 10.7027H71.5625ZM93.5853 31.7173C93.6149 32.5471 94.0336 32.9616 94.8413 32.9606C95.6184 32.9606 96.0371 32.5462 96.0973 31.7173V15.1006C96.0973 14.0945 96.7401 13.591 98.0257 13.5901H104.478C105.345 13.5314 105.778 13.1169 105.778 12.3467C105.778 11.5766 105.345 11.1621 104.478 11.1034H84.9726C84.1057 11.1631 83.6722 11.5775 83.6722 12.3467C83.6722 13.116 84.1057 13.5304 84.9726 13.5901H91.6999C92.9568 13.7388 93.5848 14.2868 93.5839 15.2341V31.7173H93.5853ZM30.2268 23.0864C30.2264 23.4204 30.0923 23.7406 29.8538 23.9767C29.6154 24.2128 29.2921 24.3454 28.9551 24.3454H22.0744C21.7373 24.3454 21.4141 24.2128 21.1756 23.9767C20.9371 23.7406 20.803 23.4204 20.8026 23.0864V23.0864V22.8107C20.803 22.4767 20.9371 22.1565 21.1756 21.9204C21.4141 21.6843 21.7373 21.5517 22.0744 21.5517H28.9565C29.2935 21.5517 29.6168 21.6843 29.8552 21.9204C30.0937 22.1565 30.2279 22.4767 30.2282 22.8107V23.0864H30.2268Z" fill="#3B3735"/>
<path d="M22.1131 12.3464C22.1131 13.118 21.683 13.5301 20.8127 13.5898H14.3607C13.0732 13.5898 12.4303 14.0932 12.4323 15.1002V31.7184C12.372 32.5473 11.9534 32.9617 11.1763 32.9617C10.3695 32.9617 9.95087 32.5473 9.92029 31.7184V15.2352C9.92029 14.2879 9.29229 13.7399 8.0363 13.5912H1.30043C0.433 13.5315 0 13.118 0 12.3478C0 11.5777 0.430132 11.1642 1.30043 11.1045H20.8127C21.6772 11.1628 22.1131 11.5777 22.1131 12.3464Z" fill="#ED6E26"/>
</svg>
