<svg width="44" height="37" viewBox="0 0 44 37" fill="none" xmlns="http://www.w3.org/2000/svg">
<path d="M1.62806 8.67052C0.733288 7.71413 0.285889 6.4905 0.285889 4.99932C0.285889 3.50844 0.730252 2.30269 1.61898 1.38236C2.05012 0.930383 2.57201 0.574046 3.15071 0.336292C3.72938 0.0982393 4.35191 -0.01557 4.97777 0.00171041C5.74963 -0.0173576 6.51081 0.184346 7.17094 0.582689C7.77789 0.953324 8.27049 1.48335 8.59457 2.11439V0.154848H10.2423V9.93854H8.59457V7.94295C8.27329 8.58322 7.78063 9.12249 7.17094 9.50176C6.51358 9.90815 5.75154 10.1155 4.97777 10.0985C4.34923 10.1131 3.72486 9.99336 3.14693 9.74697C2.56901 9.50057 2.05101 9.13351 1.62806 8.67052ZM7.61908 7.71771C8.26942 7.05271 8.59457 6.16754 8.59457 5.06248C8.59457 3.95743 8.26942 3.07226 7.61908 2.40696C7.31876 2.08787 6.95503 1.83432 6.55098 1.66271C6.1469 1.4908 5.71138 1.4047 5.27201 1.40917C4.83566 1.40261 4.40255 1.48455 3.99904 1.6499C3.59549 1.81526 3.23006 2.06046 2.92494 2.37091C2.27461 3.01207 1.94943 3.88533 1.94943 4.99038C1.94943 6.09543 2.27762 6.99253 2.934 7.68196C3.23059 8.00462 3.59094 8.26293 3.99246 8.4408C4.39395 8.61867 4.82801 8.71223 5.26752 8.71551C5.707 8.71908 6.14246 8.63208 6.54669 8.46047C6.95092 8.28886 7.31522 8.03591 7.61682 7.71771H7.61908Z" fill="#6D6E71"/>
<path d="M18.1953 0.00268334C18.8212 -0.0145971 19.4437 0.0995101 20.0222 0.337265C20.601 0.575019 21.1229 0.931353 21.554 1.38303C22.4427 2.30366 22.8873 3.50941 22.8873 5.00029C22.8873 6.49118 22.4398 7.71511 21.5451 8.67149C21.1226 9.13568 20.6049 9.50393 20.027 9.75151C19.4491 9.9991 18.8244 10.1201 18.1953 10.1061C17.4215 10.123 16.6593 9.91568 16.0022 9.50929C15.3901 9.12764 14.892 8.58926 14.5603 7.95078V12.1017H12.9308V0.16476H14.5603V2.1243C14.9075 1.46883 15.4318 0.922712 16.074 0.547906C16.7162 0.1731 17.451 -0.0157888 18.1953 0.00268334ZM17.883 8.71648C18.3248 8.72095 18.7625 8.63187 19.1671 8.45519C19.572 8.27851 19.9341 8.01841 20.23 7.69187C20.8803 7.0087 21.2054 6.11131 21.2054 5.00029C21.2054 3.88928 20.8803 3.01305 20.23 2.37189C19.9248 2.06144 19.5595 1.81593 19.1558 1.65058C18.7524 1.48552 18.3192 1.40358 17.883 1.41014C17.4439 1.40567 17.0089 1.49237 16.6051 1.66399C16.2014 1.8356 15.8382 2.08914 15.5381 2.40793C14.8878 3.07323 14.5627 3.95513 14.5627 5.05422C14.5627 6.15332 14.8878 7.03849 15.5381 7.70975C15.8361 8.03122 16.1984 8.28715 16.6022 8.46055C17.0056 8.63395 17.4412 8.72125 17.8806 8.71648H17.883Z" fill="#6D6E71"/>
<path d="M30.1911 0.00268334C30.817 -0.0145971 31.4395 0.0995101 32.018 0.337265C32.5968 0.575019 33.1187 0.931353 33.5498 1.38303C34.4386 2.30366 34.8831 3.50941 34.8831 5.00029C34.8831 6.49118 34.4356 7.71511 33.5409 8.67149C33.1184 9.13568 32.6007 9.50393 32.0228 9.75151C31.4449 9.9991 30.8202 10.1201 30.1911 10.1061C29.4173 10.123 28.6551 9.91568 27.998 9.50929C27.3859 9.12764 26.8878 8.58926 26.5561 7.95078V12.1017H24.9267V0.16476H26.5561V2.1243C26.9033 1.46883 27.4276 0.922712 28.0698 0.547906C28.712 0.1731 29.4468 -0.0157888 30.1911 0.00268334ZM29.8788 8.71648C30.3206 8.72095 30.7583 8.63187 31.1629 8.45519C31.5675 8.27851 31.9299 8.01841 32.2258 7.69187C32.8761 7.0087 33.2012 6.11131 33.2012 5.00029C33.2012 3.88928 32.8761 3.01305 32.2258 2.37189C31.9206 2.06144 31.5553 1.81593 31.1516 1.65058C30.7482 1.48552 30.315 1.40358 29.8788 1.41014C29.4397 1.40567 29.0047 1.49237 28.6009 1.66399C28.1972 1.8356 27.834 2.08914 27.5339 2.40793C26.8836 3.07323 26.5585 3.95513 26.5585 5.05422C26.5585 6.15332 26.8836 7.03849 27.5339 7.70975C27.8322 8.03152 28.1948 8.28745 28.5989 8.46085C29.0029 8.63425 29.4388 8.72155 29.8788 8.71648Z" fill="#6D6E71"/>
<path d="M36.5675 2.9263C36.566 2.52438 36.6583 2.12783 36.8369 1.76732C37.0156 1.40712 37.2758 1.09309 37.5973 0.849672C38.2839 0.285079 39.1732 0.00292969 40.2656 0.00292969C41.3582 0.00292969 42.2145 0.279119 42.8344 0.831794C43.1497 1.12258 43.4028 1.47355 43.5781 1.86415C43.7535 2.25475 43.8479 2.67663 43.8553 3.10417H42.1714C42.169 2.6093 41.9695 2.13558 41.617 1.78669C41.4214 1.61299 41.1936 1.47921 40.9462 1.39341C40.6988 1.3076 40.4368 1.27125 40.1751 1.28675C39.2697 1.28675 38.6513 1.59899 38.3193 2.22346C38.2875 2.28335 38.2639 2.34681 38.249 2.41265C38.0981 3.0854 38.2806 3.58326 38.7969 3.90592C39.2435 4.17288 39.735 4.3567 40.2477 4.44877C40.8149 4.56139 41.3824 4.69188 41.9495 4.84055C42.5018 4.98088 43.0041 5.27078 43.4004 5.67865C43.8002 6.08832 44 6.67019 44 7.42398C44 8.17776 43.6567 8.81356 42.9705 9.33167C42.2839 9.8483 41.3913 10.1063 40.293 10.1063C39.1943 10.1063 38.314 9.8331 37.6515 9.28669C37.3207 9.00901 37.0531 8.66459 36.8661 8.27638C36.6794 7.88816 36.5776 7.46479 36.5675 7.03427H38.2514C38.2523 7.28096 38.3044 7.52468 38.4045 7.75022C38.5045 7.97575 38.6504 8.17836 38.8329 8.3452C39.2542 8.6923 39.7922 8.86778 40.3382 8.8362C40.8715 8.86659 41.3999 8.72269 41.8433 8.42624C42.0127 8.31004 42.1511 8.15422 42.2464 7.97248C42.3414 7.79074 42.3902 7.58844 42.3887 7.38346C42.3967 7.19427 42.3625 7.00597 42.2881 6.83167C42.2136 6.65738 42.1011 6.50216 41.9588 6.37672C41.65 6.11692 41.2799 5.93964 40.8837 5.86099C40.4534 5.76624 39.9851 5.65363 39.4781 5.52313C38.971 5.39233 38.5018 5.24753 38.0701 5.08844C37.6426 4.94185 37.2683 4.67222 36.9953 4.3138C36.6991 3.91248 36.5484 3.42356 36.5675 2.9263Z" fill="#6D6E71"/>
<path d="M24.7165 14.1219C24.7165 14.9775 24.2342 15.4349 23.279 15.5025H16.1427C14.7214 15.5025 14.0116 16.0608 14.0131 17.1781V35.6196C13.9467 36.5384 13.4843 36.9987 12.6256 37.0002C11.7338 37.0002 11.2714 36.5399 11.2382 35.6196V17.3268C11.2382 16.2757 10.5441 15.6676 9.15591 15.5025H1.72309C0.763448 15.4349 0.285889 14.9775 0.285889 14.1219C0.285889 13.2659 0.763448 12.8085 1.72309 12.7412H23.279C24.2342 12.8085 24.7165 13.2659 24.7165 14.1219Z" fill="#F47532"/>
</svg>
