<svg width="53" height="29" viewBox="0 0 53 29" fill="none" xmlns="http://www.w3.org/2000/svg">
<path d="M9.05334 9.69026V9.6326C9.04852 9.23303 9.17635 8.84419 9.41633 8.52775C9.64773 8.21131 9.97842 7.98336 10.3548 7.88012C10.525 7.84124 10.6101 7.75006 10.6101 7.6039C10.6101 7.39473 10.525 7.30892 10.3548 7.34646C9.84027 7.46177 9.38001 7.7514 9.04919 8.16438C8.71837 8.5787 8.53654 9.09359 8.53359 9.6259V9.66345C8.54096 10.0644 8.41514 10.4572 8.17597 10.779C7.94537 11.0982 7.61388 11.3274 7.23616 11.4307C7.05889 11.4629 6.97032 11.5527 6.97032 11.6988C6.96831 11.7753 6.99538 11.8504 7.04616 11.908C7.0684 11.9348 7.09828 11.955 7.13178 11.9657C7.16541 11.9764 7.20132 11.9764 7.23482 11.9657C7.75001 11.8624 8.21188 11.5768 8.53761 11.1612C8.87728 10.7482 9.06004 10.2266 9.05334 9.69026Z" fill="#333333"/>
<path d="M10.789 9.37245C10.9273 9.37245 11.0159 9.28663 11.0549 9.11501C11.1619 8.73957 11.3851 8.40973 11.6918 8.1724C11.9986 7.93373 12.3727 7.80233 12.7594 7.79428C13.1462 7.78624 13.5252 7.90288 13.8413 8.12814C14.1573 8.35341 14.3935 8.67388 14.5154 9.04395C14.6374 9.41536 14.6387 9.81493 14.5191 10.185C14.3994 10.5564 14.1652 10.8796 13.8506 11.1062C13.5361 11.3328 13.1577 11.4534 12.7709 11.4467C12.384 11.4414 12.0091 11.3113 11.701 11.0767C11.3842 10.838 11.1512 10.5055 11.0362 10.1247C11.0239 9.95304 10.9388 9.86723 10.781 9.86723C10.5737 9.86723 10.4886 9.95304 10.5257 10.1247C10.638 10.6489 10.9264 11.1182 11.342 11.4521C11.7367 11.7726 12.2242 11.9536 12.7303 11.9697C13.2364 11.9844 13.7336 11.8329 14.1467 11.5379C14.5598 11.2429 14.8664 10.8192 15.0198 10.3325C15.1732 9.84711 15.1652 9.32284 14.9969 8.84148C14.8287 8.36012 14.5094 7.94714 14.0875 7.66422C13.6654 7.38264 13.1637 7.24588 12.6585 7.27806C12.153 7.3089 11.6715 7.50466 11.2867 7.83719C10.9018 8.16838 10.6347 8.61756 10.5257 9.11636C10.4877 9.28664 10.5754 9.37245 10.789 9.37245Z" fill="#333333"/>
<path d="M15.897 7.19653V11.7742C15.9095 11.9016 15.9946 11.9646 16.1523 11.9646C16.31 11.9646 16.3951 11.9016 16.4075 11.7742V7.7959H17.7953C17.9211 7.78383 17.9841 7.69801 17.9841 7.53845C17.9841 7.38023 17.9211 7.29442 17.7953 7.28101H16.4062V7.18581C16.4071 6.7916 16.5358 6.40812 16.7725 6.09302C17.0093 5.77926 17.3413 5.54997 17.7182 5.44405C17.8884 5.41187 17.9735 5.32338 17.9735 5.17588C17.9735 4.96001 17.8884 4.87017 17.7182 4.90772C17.2045 5.01499 16.744 5.29924 16.4154 5.71222C16.0715 6.12788 15.8875 6.65483 15.897 7.19653Z" fill="#333333"/>
<path d="M20.531 11.6987C20.5267 11.7349 20.5306 11.7725 20.5425 11.806C20.5543 11.8408 20.5738 11.8717 20.5994 11.8985C20.6249 11.924 20.656 11.9441 20.6902 11.9562C20.7245 11.9669 20.7609 11.9709 20.7969 11.9669C20.9609 11.9669 21.0494 11.8784 21.0627 11.6987V8.13878C21.0627 7.9229 21.1979 7.81564 21.4682 7.81564H22.8253C23.008 7.80357 23.0992 7.71373 23.0992 7.54746C23.0992 7.3812 23.008 7.29271 22.8253 7.2793H18.7192C18.5366 7.29271 18.4453 7.3812 18.4453 7.54746C18.4453 7.71373 18.5366 7.80357 18.7192 7.81564H20.1402C20.406 7.84782 20.5389 7.96581 20.5389 8.16828L20.531 11.6987Z" fill="#333333"/>
<path d="M6.92991 9.52246H5.48222C5.33465 9.52246 5.21503 9.64314 5.21503 9.79198V9.85231C5.21503 10.0011 5.33465 10.1218 5.48222 10.1218H6.92991C7.07744 10.1218 7.19709 10.0011 7.19709 9.85231V9.79198C7.19709 9.64314 7.07744 9.52246 6.92991 9.52246Z" fill="#333333"/>
<path d="M5.48958 7.54855C5.48958 7.71348 5.39787 7.80198 5.21575 7.81673H3.85586C3.58467 7.81673 3.44953 7.92399 3.45041 8.13987V11.6998C3.43801 11.8795 3.34939 11.968 3.18455 11.968C3.1486 11.972 3.11215 11.968 3.07796 11.9573C3.04375 11.9452 3.01268 11.9251 2.98709 11.8996C2.96149 11.8741 2.94204 11.8419 2.93019 11.8071C2.91834 11.7736 2.91441 11.736 2.91868 11.6998V8.16534C2.91868 7.96287 2.78575 7.84489 2.51989 7.81271H1.10947C0.927363 7.7993 0.835632 7.7108 0.835632 7.54453C0.835632 7.37827 0.926023 7.29112 1.10947 7.27637H5.21575C5.39787 7.29514 5.48958 7.38363 5.48958 7.54855Z" fill="#F47532"/>
<path d="M40.4971 24.6888C40.4971 25.2252 40.1514 25.6489 39.6583 25.6489H29.8133C29.5623 25.6435 29.3232 25.5416 29.1458 25.3619C28.9685 25.1823 28.8665 24.9409 28.8614 24.6888V24.4287H26.5777V25.9667C26.5777 27.1734 27.6147 28.1576 28.807 28.1576H40.6845C41.8808 28.1576 42.7782 27.1748 42.7782 25.9667V24.4301H40.4971V24.6888Z" fill="#333333"/>
<path d="M40.6845 0H28.807C27.6106 0 26.5777 0.982843 26.5777 2.19094V11.074H28.8614V7.2419C28.8614 7.14804 28.8986 7.0582 28.9646 6.99116C29.0307 6.92412 29.1203 6.88658 29.2137 6.88658H40.1448C40.2382 6.88658 40.3279 6.92412 40.3939 6.99116C40.46 7.0582 40.4971 7.14804 40.4971 7.2419V11.074H42.7808V2.19094C42.7782 0.982843 41.8756 0 40.6845 0ZM41.6974 4.37786H27.6585V2.19094C27.6585 1.58622 28.2101 1.09547 28.8057 1.09547H40.6832C41.2787 1.09547 41.696 1.58756 41.696 2.19094L41.6974 4.37786Z" fill="#333333"/>
<path d="M34.761 2.18848H32.5876C32.4435 2.18848 32.3054 2.24613 32.2035 2.34937C32.1017 2.45262 32.0445 2.59073 32.0445 2.73688C32.0445 2.88169 32.1017 3.02114 32.2035 3.12304C32.3054 3.22629 32.4435 3.28394 32.5876 3.28394H34.761C34.9049 3.28394 35.0431 3.22629 35.1449 3.12304C35.2467 3.02114 35.304 2.88169 35.304 2.73688C35.304 2.59073 35.2467 2.45262 35.1449 2.34937C35.0431 2.24613 34.9049 2.18848 34.761 2.18848Z" fill="#F47532"/>
<path d="M37.4318 2.52582C37.4182 2.49364 37.4017 2.46146 37.3826 2.43196C37.3623 2.40246 37.3396 2.3743 37.3148 2.34882C37.2892 2.32334 37.2616 2.30055 37.2323 2.28043C37.2027 2.26166 37.1716 2.24424 37.1391 2.23083C37.1062 2.21742 37.0718 2.20669 37.0367 2.19999C36.9493 2.18255 36.8589 2.18658 36.7736 2.2134C36.6882 2.23887 36.6104 2.2858 36.5473 2.34882C36.5224 2.3743 36.4997 2.40246 36.4794 2.43196C36.4603 2.46146 36.4439 2.49364 36.4302 2.52582C36.416 2.55934 36.4054 2.59419 36.3983 2.62906C36.3913 2.66392 36.3877 2.70012 36.3876 2.73633C36.3868 2.82616 36.4085 2.916 36.4509 2.99511C36.4933 3.07422 36.5547 3.14126 36.6298 3.19087C36.689 3.23109 36.7554 3.25792 36.8252 3.27267C36.895 3.28741 36.967 3.28741 37.0367 3.27267C37.1066 3.25792 37.1731 3.23109 37.2323 3.19087C37.3073 3.14126 37.3688 3.07422 37.4112 2.99511C37.4534 2.916 37.4752 2.82616 37.4744 2.73633C37.4742 2.70012 37.4707 2.66392 37.4638 2.62906C37.4567 2.59419 37.4459 2.55934 37.4318 2.52582Z" fill="#F47532"/>
<path d="M16.6451 18.5869C16.5881 19.0763 16.5908 19.5724 16.653 20.0605V18.8283C16.653 18.7465 16.649 18.666 16.6451 18.5869Z" fill="#F47532"/>
<path d="M24.5495 15.9132C23.6632 15.0618 22.5612 14.6367 21.2434 14.6367C19.993 14.6367 18.9356 15.0202 18.0717 15.7898C18.6423 16.4562 18.9277 17.36 18.9277 18.5024V19.3069C18.9277 18.4327 19.1492 17.7636 19.5923 17.2956C19.7997 17.069 20.0523 16.888 20.3337 16.7673C20.6151 16.6453 20.9187 16.585 21.2247 16.5903C21.533 16.5863 21.8388 16.6466 22.1226 16.7687C22.4063 16.8893 22.6619 17.069 22.8731 17.2956C23.3277 17.7663 23.5551 18.4353 23.5551 19.3069C23.5551 20.1771 23.3252 20.8475 22.8652 21.3168C22.6546 21.5447 22.3992 21.7258 22.1154 21.8478C21.8316 21.9711 21.5255 22.0328 21.2168 22.0301C20.912 22.0341 20.6097 21.9738 20.3297 21.8531C20.0498 21.7311 19.7984 21.5515 19.5923 21.3249C19.1492 20.8556 18.9277 20.1851 18.9277 19.3149V23.438C19.6339 23.8094 20.4215 23.9972 21.2182 23.9824C22.5395 23.9824 23.6473 23.552 24.5414 22.6898C25.4357 21.8277 25.8823 20.6947 25.8815 19.2921C25.8815 17.8923 25.4374 16.766 24.5495 15.9132Z" fill="#F47532"/>
<path d="M24.5495 15.9132C23.6632 15.0618 22.5612 14.6367 21.2434 14.6367C19.993 14.6367 18.9356 15.0202 18.0717 15.7898C18.6423 16.4562 18.9277 17.36 18.9277 18.5024V19.3069C18.9277 18.0331 19.3992 17.1897 20.3421 16.774C20.7662 16.589 21.2365 16.5394 21.6895 16.6319C22.1426 16.7244 22.5566 16.9537 22.8758 17.2916C23.3304 17.7622 23.5578 18.4313 23.5578 19.3029C23.5578 20.1731 23.3277 20.8435 22.8679 21.3128C22.6572 21.5407 22.4018 21.7217 22.1181 21.8438C21.8343 21.9671 21.5282 22.0288 21.2195 22.0261C20.9147 22.0301 20.6124 21.9698 20.3324 21.8491C20.0524 21.7271 19.8011 21.5474 19.595 21.3208C19.1519 20.8515 18.9304 20.1811 18.9304 19.3109V21.6534C18.9272 22.2634 19.1627 22.8494 19.5859 23.2852C20.009 23.7209 20.5856 23.9703 21.1902 23.9784H21.2155C22.5368 23.9784 23.6446 23.548 24.5387 22.6858C25.433 21.8237 25.8805 20.692 25.8815 19.2921C25.8815 17.8923 25.4374 16.766 24.5495 15.9132Z" fill="url(#paint0_linear)"/>
<path d="M18.0708 15.7896C18.0296 15.7427 17.9884 15.6957 17.9446 15.6555C17.2887 14.9784 16.4251 14.6392 15.3537 14.6392C14.7147 14.6284 14.0849 14.7947 13.5324 15.1178C12.9798 15.441 12.5253 15.9116 12.2178 16.4761C11.9459 15.9089 11.5134 15.4356 10.9749 15.1165C10.4193 14.7947 9.78771 14.6311 9.1471 14.6418C7.85851 14.6418 6.92794 15.1393 6.35553 16.1329V14.7665H4.06372V23.8481H6.35419V18.8347C6.35419 18.1254 6.53535 17.5823 6.89779 17.2055C7.26024 16.8288 7.75038 16.6397 8.36808 16.6397C8.98846 16.6397 9.47578 16.8288 9.83032 17.2055C10.1849 17.5823 10.362 18.1254 10.362 18.8347V23.8481H12.6365V18.8347C12.6365 18.1254 12.8178 17.5823 13.1802 17.2055C13.5427 16.8288 14.0328 16.6397 14.6505 16.6397C15.2708 16.6397 15.7582 16.8288 16.1128 17.2055C16.4282 17.5381 16.6054 18.0007 16.6444 18.592C16.6444 18.6711 16.6525 18.7515 16.6525 18.8347V20.0682C16.7621 21.0618 17.2097 21.987 17.9192 22.6856C18.2186 22.9806 18.5578 23.2326 18.9268 23.4324V18.5008C18.9278 17.3597 18.6424 16.456 18.0708 15.7896Z" fill="#F47532"/>
<path d="M28.8415 22.3201C29.5124 23.4236 30.4576 23.9747 31.6769 23.9747C32.2458 23.9881 32.8109 23.8781 33.3338 23.6529C33.8567 23.4263 34.325 23.0884 34.7064 22.6633C35.5041 21.7891 35.9028 20.6668 35.9028 19.2978C35.9028 17.9275 35.5041 16.8079 34.7064 15.939C33.9089 15.0701 32.8898 14.637 31.649 14.637C30.4083 14.637 29.4715 15.1492 28.8388 16.1763V11.7207H28.8309L28.8415 22.3201ZM29.5487 17.3482C29.7647 17.123 30.0232 16.9446 30.3089 16.8226C30.5945 16.6993 30.9016 16.6363 31.212 16.6349C31.5224 16.6349 31.8298 16.6966 32.116 16.8173C32.4023 16.9393 32.6616 17.1163 32.8787 17.3402C33.3502 17.8108 33.5859 18.4598 33.5859 19.2898C33.5859 20.1184 33.3502 20.7741 32.8787 21.2555C32.6639 21.4821 32.4059 21.6631 32.12 21.7878C31.8342 21.9111 31.5264 21.9755 31.2154 21.9755C30.9043 21.9768 30.5963 21.9138 30.3098 21.7918C30.0235 21.6698 29.7646 21.4901 29.5487 21.2635C29.0781 20.7888 28.8425 20.1358 28.8415 19.3072C28.8406 18.4772 29.0764 17.8242 29.5487 17.3482Z" fill="#F47532"/>
<path d="M28.8415 22.3201C29.5124 23.4236 30.4576 23.9747 31.6769 23.9747C32.2458 23.9881 32.8109 23.8781 33.3338 23.6529C33.8567 23.4263 34.325 23.0884 34.7064 22.6633C35.5041 21.7891 35.9028 20.6668 35.9028 19.2978C35.9028 17.9275 35.5041 16.8079 34.7064 15.939C33.9089 15.0701 32.8898 14.637 31.649 14.637C30.4083 14.637 29.4715 15.1492 28.8388 16.1763V11.7207H28.8309L28.8415 22.3201ZM29.5487 17.3482C29.7647 17.123 30.0232 16.9446 30.3089 16.8226C30.5945 16.6993 30.9016 16.6363 31.212 16.6349C31.5224 16.6349 31.8298 16.6966 32.116 16.8173C32.4023 16.9393 32.6616 17.1163 32.8787 17.3402C33.3502 17.8108 33.5859 18.4598 33.5859 19.2898C33.5859 20.1184 33.3502 20.7741 32.8787 21.2555C32.6639 21.4821 32.4059 21.6631 32.12 21.7878C31.8342 21.9111 31.5264 21.9755 31.2154 21.9755C30.9043 21.9768 30.5963 21.9138 30.3098 21.7918C30.0235 21.6698 29.7646 21.4901 29.5487 21.2635C29.0781 20.7888 28.8425 20.1358 28.8415 19.3072C28.8406 18.4772 29.0764 17.8242 29.5487 17.3482Z" fill="url(#paint1_linear)"/>
<path d="M28.8594 11.7207H26.5756V23.8433H28.8594V11.7207Z" fill="#F47532"/>
<path d="M39.0263 14.7686H36.7358V23.8434H39.0263V14.7686Z" fill="#F47532"/>
<path d="M40.4953 11.7207H40.4874V23.8433H40.4953V11.7207Z" fill="#F47532"/>
<path d="M42.7814 11.7207H40.4977V23.8433H42.7814V11.7207Z" fill="#F47532"/>
<path d="M52.5744 19.1745C52.5744 17.7988 52.1521 16.698 51.3075 15.8733C50.463 15.0487 49.3828 14.6357 48.0667 14.6357C46.7506 14.6357 45.6783 15.0595 44.8497 15.9055C44.0211 16.7516 43.6068 17.8806 43.6068 19.2925C43.6068 20.7004 44.0184 21.8334 44.8418 22.6916C45.6651 23.5497 46.7316 23.9788 48.0414 23.9774C49.1049 23.9774 50.0093 23.7039 50.7546 23.1582C51.4785 22.6446 52.0103 21.9004 52.2646 21.0463H49.7961C49.4168 21.7007 48.8319 22.0278 48.0414 22.0278C47.5081 22.0493 46.9882 21.8562 46.5951 21.4928C46.2087 21.1161 45.9764 20.6079 45.9451 20.0675H52.508C52.5537 19.7725 52.5759 19.4735 52.5744 19.1745ZM45.9464 18.5685C45.9967 18.0201 46.2416 17.5078 46.6364 17.1257C47.0279 16.765 47.5441 16.5719 48.0746 16.5907C48.6141 16.576 49.1389 16.7677 49.5449 17.1257C49.7474 17.3081 49.9104 17.5293 50.0236 17.7787C50.1369 18.0268 50.198 18.2949 50.2029 18.5685H45.9464Z" fill="#F47532"/>
<path d="M37.8831 13.8672C38.2038 13.8672 38.5145 13.7545 38.7623 13.5494C39.0099 13.3429 39.1794 13.0573 39.2418 12.7409C39.3042 12.4231 39.2556 12.0946 39.1043 11.809C38.9532 11.5247 38.7085 11.3008 38.4123 11.1774C38.116 11.0527 37.7864 11.0367 37.4794 11.1305C37.1726 11.2244 36.9075 11.4228 36.7292 11.6923C36.551 11.9605 36.4707 12.2836 36.502 12.6054C36.5333 12.9272 36.6741 13.2276 36.9007 13.4569C37.0281 13.5896 37.1809 13.6942 37.3499 13.7639C37.5188 13.835 37.7002 13.8698 37.8831 13.8672Z" fill="#F47532"/>
<defs>
<linearGradient id="paint0_linear" x1="18.0717" y1="19.3055" x2="25.8815" y2="19.3055" gradientUnits="userSpaceOnUse">
<stop stop-color="#D3631C"/>
<stop offset="0.39" stop-color="#F17431" stop-opacity="0.04"/>
</linearGradient>
<linearGradient id="paint1_linear" x1="28.8335" y1="17.847" x2="35.9082" y2="17.847" gradientUnits="userSpaceOnUse">
<stop stop-color="#D3631C"/>
<stop offset="0.23" stop-color="#F17431" stop-opacity="0.04"/>
</linearGradient>
</defs>
</svg>
