<svg width="37" height="41" viewBox="0 0 37 41" fill="none" xmlns="http://www.w3.org/2000/svg">
<path d="M1.9732 20.7409C1.93512 20.3864 1.9762 20.0283 2.09297 19.6924C2.20973 19.3564 2.39915 19.051 2.64721 18.7992C2.89576 18.547 3.19644 18.3549 3.52769 18.2365C3.85893 18.1182 4.21172 18.0766 4.561 18.1152C5.11073 18.1734 5.62238 18.4266 6.00624 18.8303C6.3901 19.234 6.62162 19.762 6.65971 20.3217C6.69579 20.9099 6.73939 21.5092 6.79001 22.12C6.88422 23.4218 6.98946 24.7347 7.10522 26.0586C7.22148 27.3824 7.34475 28.6622 7.47504 29.8978C7.61987 31.1405 7.7687 32.2918 7.92104 33.3509C8.34149 32.4388 8.77996 31.4423 9.23648 30.3612C9.693 29.28 10.1315 28.2023 10.5519 27.1287C11.009 26.0254 15.7606 14.629 16.163 13.614L16.4892 12.7645C16.7082 12.2274 17.0936 11.7771 17.5872 11.4817C18.0803 11.1863 18.6551 11.0615 19.2244 11.1262C19.7937 11.1914 20.3268 11.4416 20.7433 11.8408C21.1602 12.2394 21.4378 12.765 21.5346 13.3382L21.6649 14.1546C21.8242 15.2137 22.0056 16.3169 22.2086 17.4643C22.4115 18.6117 22.6255 19.759 22.85 20.9064C23.0675 22.0538 23.3065 23.157 23.5676 24.2161C23.952 23.2157 24.3434 22.1124 24.7418 20.9064C25.1336 19.7149 27.6127 11.926 28.0041 10.6794C28.3303 9.67542 28.624 8.67147 28.9176 7.66752L26.1013 9.87401C25.7089 10.2281 25.1943 10.4091 24.6701 10.3785C24.1459 10.3474 23.6558 10.1062 23.3065 9.7085C22.9578 9.31033 22.7788 8.78831 22.8094 8.25625C22.84 7.72469 23.0775 7.22722 23.4699 6.87318L23.6328 6.7408L26.9713 4.25849L20.6972 0.573699C20.0558 0.197594 19.3281 0 18.5875 0C17.8473 0 17.1197 0.197594 16.4782 0.573699L2.76697 8.56114C2.1135 8.92822 1.56779 9.46482 1.18544 10.1162C0.803579 10.7676 0.598617 11.5098 0.592102 12.2681V28.3423C0.601623 29.095 0.806578 29.8321 1.18643 30.479C1.56628 31.1264 2.1075 31.66 2.75596 32.0271L3.57129 32.5015C3.36483 31.2658 3.16889 30.0192 2.98448 28.7394C2.60011 26.0475 2.26285 23.3812 1.9732 20.7409Z" fill="#27AAE1"/>
<path d="M34.4108 8.56047L33.8345 8.22949V8.29568C32.6603 11.9143 30.4529 18.6441 29.6701 20.7954C28.6408 23.561 27.5935 26.2013 26.5276 28.7167C26.2845 29.3094 25.8606 29.8079 25.3184 30.1389C24.7767 30.4698 24.1442 30.6167 23.5143 30.5576C22.8839 30.4984 22.2891 30.2367 21.816 29.8104C21.343 29.3836 21.0162 28.815 20.8844 28.1871C20.5798 26.8191 20.2901 25.4105 20.0145 23.9617C19.6016 21.7552 19.1881 19.5487 18.7747 17.3423C17.9158 19.4163 12.7076 31.8609 11.8487 33.8909C11.4573 34.8101 11.0619 35.7037 10.6635 36.5717L16.5241 40.0249C17.1656 40.4005 17.8932 40.5986 18.6334 40.5986C19.3741 40.5986 20.1017 40.4005 20.7431 40.0249L34.4328 32.0264C35.0742 31.6508 35.6064 31.1102 35.9768 30.4598C36.3471 29.8089 36.542 29.0707 36.542 28.3195V12.2673C36.54 11.5136 36.3416 10.7745 35.9673 10.1236C35.5934 9.47265 35.0562 8.93357 34.4108 8.56047Z" fill="#1B75BC"/>
<path d="M33.8065 8.28868V8.22949H33.7278L33.8065 8.28868Z" fill="white"/>
</svg>
