<svg width="54" height="20" viewBox="0 0 54 20" fill="none" xmlns="http://www.w3.org/2000/svg">
<path d="M37.6409 2.74485C37.9644 3.00635 38.1585 3.46385 38.1585 3.92134C38.1585 4.11759 38.1585 4.24833 38.0938 4.44433L33.1763 19.0212C33.1116 19.2827 32.9172 19.5441 32.6584 19.6749C32.3996 19.8709 32.1408 19.9361 31.8173 19.9361C31.4937 19.9361 31.2349 19.8709 30.9761 19.6749C30.7173 19.4786 30.4585 19.2171 30.3291 18.9556L26.7703 10.8503L23.2763 18.9556C23.1469 19.2826 22.9528 19.4786 22.6293 19.6749C22.3705 19.8709 22.1116 19.9361 21.7881 19.9361C21.4646 19.9361 21.2058 19.8056 20.947 19.6749C20.6882 19.5441 20.494 19.2827 20.4293 19.0212L15.5116 4.44433C15.5116 4.24833 15.5116 4.11759 15.5116 3.92134C15.5116 3.46385 15.7057 3.07159 16.0292 2.74485C16.353 2.41785 16.7412 2.28711 17.1294 2.28711C17.453 2.28711 17.7765 2.35261 18.0353 2.5486C18.2941 2.74485 18.4882 2.94084 18.5529 3.26759L22.2411 14.6414L25.4763 6.79755C25.6057 6.53605 25.7998 6.27456 26.0586 6.07857C26.3174 5.88232 26.5762 5.81707 26.8998 5.81707C27.2233 5.81707 27.4821 5.88232 27.7409 6.07857C27.9997 6.27456 28.1938 6.53605 28.3232 6.79755L31.3643 14.5762L35.0527 3.33309C35.1174 3.00634 35.3762 2.8101 35.6351 2.6141C35.8939 2.41785 36.2174 2.35261 36.5409 2.35261C36.9291 2.28711 37.3174 2.48335 37.6409 2.74485Z" fill="#31AADB"/>
<path d="M42.4941 19.5424C41.9117 20.1306 40.9412 20.1306 40.3588 19.5424C40.1 19.2809 39.9059 18.8886 39.9059 18.4311V8.03778C39.9059 7.64553 40.0353 7.25353 40.3588 6.92653C40.9412 6.33829 41.9117 6.33829 42.4941 6.92653C42.7529 7.18803 42.947 7.58028 42.947 8.03778V18.4311C42.947 18.8234 42.8176 19.2156 42.4941 19.5424Z" fill="#31AADB"/>
<path d="M53.0442 17.4515C53.2384 17.713 53.3678 18.0398 53.3031 18.3668C53.3031 18.8242 53.0442 19.2165 52.5913 19.478C52.0737 19.8047 51.4913 19.9355 50.909 19.9355C50.0032 19.9355 49.0973 19.7392 48.3208 19.2817C47.6091 18.8242 47.2856 17.909 47.2856 16.471V9.54211H46.1209C45.3445 9.54211 44.7621 8.95386 44.6974 8.16937V8.10412C44.6974 7.71188 44.8268 7.38489 45.0856 7.12364C45.3445 6.86215 45.7327 6.7314 46.0562 6.7314H47.2209V5.16242C47.2209 4.31268 47.8679 3.65918 48.6444 3.65918H48.7091C49.0973 3.65918 49.4855 3.78992 49.7443 4.11667C50.0032 4.37817 50.1973 4.83567 50.1326 5.22792V6.86215H51.8796C52.656 6.86215 53.2384 7.45038 53.3031 8.23487V8.30012C53.3031 8.69237 53.1737 9.01912 52.9148 9.28062C52.656 9.54212 52.2678 9.67286 51.9443 9.67286H50.1973V16.471C50.1973 16.7325 50.262 17.0593 50.4561 17.2555C50.6502 17.4515 50.909 17.5168 51.2325 17.5168C51.4266 17.5168 51.6208 17.4515 51.7502 17.386C51.9443 17.3208 52.1384 17.2555 52.3325 17.2555C52.656 17.1248 52.9148 17.2555 53.0442 17.4515Z" fill="#31AADB"/>
<path d="M14.8639 7.77603L13.764 4.44231C13.764 4.37706 13.6993 4.24632 13.6993 4.18082L13.4404 3.33108C13.3757 3.00434 13.1816 2.80833 12.9228 2.61208C12.664 2.41608 12.3404 2.35059 12.0169 2.35059C11.564 2.35059 11.1757 2.54683 10.9169 2.80832C10.5287 3.06957 10.3346 3.46183 10.3346 3.91957C10.3346 4.11557 10.3346 4.24631 10.3993 4.44231L15.3169 19.0191C15.3816 19.2806 15.5757 19.5421 15.8345 19.6729C16.0933 19.8689 16.3521 19.9344 16.6756 19.9344C16.9992 19.9344 17.258 19.8689 17.5168 19.6729C17.7756 19.4769 18.0344 19.2154 18.1638 18.9539C18.3579 18.4964 18.3579 18.0386 18.2285 17.5811L14.8639 7.77603Z" fill="#3FBAE0"/>
<path d="M10.2078 7.77603L9.10778 4.44231C9.10778 4.37706 9.04307 4.24632 9.04307 4.18082L8.78426 3.33108C8.71955 3.00434 8.52544 2.80833 8.2666 2.61208C8.00778 2.41608 7.68426 2.35059 7.36074 2.35059C6.90781 2.35059 6.51956 2.54683 6.26075 2.80832C5.93723 3.06957 5.74311 3.52733 5.74311 3.98482C5.74311 4.18082 5.74311 4.31156 5.80782 4.50781L10.7254 19.0846C10.7901 19.3461 10.9842 19.6074 11.243 19.7381C11.5019 19.9344 11.7607 19.9996 12.0842 19.9996C12.4077 19.9996 12.6665 19.9344 12.9253 19.7381C13.1841 19.5421 13.4429 19.2806 13.5723 19.0191C13.7664 18.5616 13.7664 18.1041 13.637 17.6464L10.2078 7.77603Z" fill="#58C7E0"/>
<path d="M5.28937 7.77603L4.18937 4.44231C4.18937 4.37706 4.12467 4.24632 4.12467 4.18082L3.86585 3.33108C3.80115 3.06959 3.60703 2.80833 3.34819 2.61208C3.08938 2.41608 2.76586 2.35059 2.44234 2.35059C1.98941 2.35059 1.60116 2.54683 1.34234 2.80832C1.01882 3.06957 0.824707 3.52733 0.824707 3.98482C0.824707 4.18082 0.824707 4.31156 0.889411 4.50781L5.807 19.0846C5.8717 19.3461 6.06581 19.6074 6.32463 19.7381C6.58345 19.9344 6.84226 19.9996 7.16581 19.9996C7.48933 19.9996 7.74815 19.9344 8.00696 19.7381C8.26578 19.5421 8.5246 19.2806 8.65403 19.0191C8.84814 18.5616 8.84814 18.1041 8.71873 17.6464L5.28937 7.77603Z" fill="#83D2E4"/>
<path d="M43.6569 1.69767C43.7216 1.17493 42.751 0.651936 42.5569 1.04418C41.9746 2.22067 42.751 3.72413 42.2981 5.03137C42.2981 5.09687 42.2334 5.09687 42.2334 5.16211C42.1687 5.35836 42.0393 5.68512 42.2334 5.75062C42.8157 5.94662 43.6569 1.95917 43.6569 1.69767Z" fill="#3FBAE0"/>
<path d="M41.9138 2.54724C41.7844 1.95875 41.7844 1.43602 41.9138 0.847525C41.9138 0.782276 41.9138 0.716778 41.9138 0.651529C41.7197 0.259284 41.008 0.259283 40.7492 0.586279C40.555 0.847526 40.4903 1.17452 40.6197 1.50126C41.008 2.4165 41.5903 3.39698 41.5256 4.44272C41.5256 4.63897 41.7197 4.76971 41.8491 4.70421C41.9138 4.70421 41.9138 4.70421 41.9785 4.63896C42.3668 4.44272 42.0432 3.3315 41.9785 2.678L41.9138 2.54724Z" fill="#58C7E0"/>
<path d="M40.4251 2.482C40.1016 1.95901 40.1663 1.24002 40.4251 0.651525C40.4898 0.520777 40.5545 0.390032 40.5545 0.194034C40.5545 -0.198211 39.778 0.0632831 39.5192 0.455528C39.1957 0.913023 39.131 1.50127 39.3898 2.02426C39.7133 2.80876 40.1663 3.52775 40.8133 4.05074C40.9427 4.18149 41.1368 4.11599 41.2015 3.91999C41.2662 3.593 40.9427 3.33174 40.4251 2.482Z" fill="#83D2E4"/>
</svg>
