<svg width="500" height="500" viewBox="0 0 500 500" fill="none" xmlns="http://www.w3.org/2000/svg">
<path d="M212.401 249.666C212.387 266.339 207.26 282.606 197.711 296.275L196.683 297.695L195.802 298.87L194.969 299.947C193.255 302.101 191.444 304.158 189.583 306.165C189.289 306.41 189.044 306.704 188.751 306.997L188.408 307.291C187.918 307.83 187.379 308.368 186.841 308.858L186.155 309.494L185.274 310.278L183.168 312.138L182.042 313.068L180.475 314.292L179.153 315.272L176.656 317.034L175.97 317.524L174.844 318.209L173.669 318.943L171.71 320.119L170.927 320.559L169.996 321.098L167.205 322.567L165.785 323.252L164.365 323.937L162.945 324.525L159.958 325.749L158.93 326.141L156.971 326.826H156.629C153.597 327.858 150.507 328.708 147.374 329.372C141.876 330.476 136.283 331.033 130.676 331.037C88.5726 331.052 53.3565 299.063 49.343 257.157C49.0001 254.562 49.0001 252.163 49.0001 249.666C48.9416 207.533 80.9861 172.289 122.94 168.344C125.299 168.107 127.669 167.992 130.04 168H133.223C136.171 168.09 139.114 168.335 142.037 168.736H143.701C146.003 169.078 148.304 169.568 150.508 170.107C165.427 173.773 179.006 181.58 189.681 192.628L122.891 225.186C119.768 226.683 116.946 228.741 114.566 231.257C109.567 236.556 106.766 243.556 106.732 250.841C106.731 255.168 107.719 259.438 109.621 263.326C109.621 263.326 109.621 263.326 109.621 263.619C115.745 275.723 129.531 281.858 142.624 278.307C144.304 277.801 145.941 277.162 147.521 276.398L176.46 262.346L211.961 245.113C212.352 246.777 212.401 248.197 212.401 249.666Z" fill="url(#paint0_linear_1535_670)"/>
<path d="M196.781 297.695L195.9 298.87L196.781 297.695Z" fill="#272C35"/>
<path d="M145.122 263.522C143.15 264.342 141.038 264.774 138.903 264.795C132.498 264.73 126.736 260.889 124.213 255.003C122.577 251.096 122.567 246.697 124.184 242.783C125.802 238.868 128.914 235.759 132.831 234.146C134.803 233.326 136.914 232.893 139.05 232.873C145.455 232.938 151.217 236.778 153.74 242.665C155.376 246.572 155.386 250.97 153.768 254.885C152.151 258.8 149.039 261.908 145.122 263.522Z" fill="url(#paint1_linear_1535_670)"/>
<path d="M195.41 239.237C193.029 240.237 190.445 240.656 187.87 240.461C181.965 240.145 176.723 236.582 174.257 231.208C172.583 227.413 172.53 223.099 174.111 219.264C175.691 215.429 178.768 212.405 182.63 210.89C185.271 209.776 188.158 209.371 191.003 209.715C196.662 210.246 201.608 213.754 203.98 218.919C205.643 222.74 205.668 227.075 204.049 230.914C202.43 234.754 199.308 237.762 195.41 239.237Z" fill="url(#paint2_linear_1535_670)"/>
<path opacity="0.25" d="M195.41 239.237C193.029 240.237 190.445 240.656 187.87 240.461L190.808 209.715C196.467 210.246 201.413 213.754 203.784 218.919C205.457 222.715 205.51 227.028 203.93 230.863C202.349 234.698 199.272 237.723 195.41 239.237Z" fill="#AFAFAF"/>
<path opacity="0.25" d="M145.122 263.521C143.15 264.342 141.038 264.774 138.903 264.794V232.824C145.308 232.888 151.07 236.729 153.593 242.616C155.253 246.51 155.292 250.905 153.702 254.829C152.112 258.752 149.024 261.88 145.122 263.521Z" fill="#AFAFAF"/>
<path d="M256.961 189.789H270.818V208.589H287.614V189.789H301.471V242.567H287.614V222.445H270.818V242.567H256.961V189.789Z" fill="#2D2D2D"/>
<path d="M313.419 190.082H346.227V201.539H327.326V210.155H344.072V221.857H327.326V231.649H346.227V243.007H313.419V190.082Z" fill="#2D2D2D"/>
<path d="M356.804 190.082H370.661V228.956H389.709V242.909H356.804V190.082Z" fill="#2D2D2D"/>
<path d="M438.822 194.538C437.718 193.835 436.573 193.198 435.395 192.628C432.461 191.218 429.289 190.371 426.042 190.131H424.035C410.957 190.139 399.856 199.721 397.941 212.656C396.026 225.591 403.873 237.978 416.388 241.773C428.903 245.569 442.311 239.629 447.905 227.81C453.5 215.991 449.594 201.857 438.724 194.587L438.822 194.538ZM424.132 229.103C419.018 229.123 414.397 226.058 412.426 221.339C410.455 216.621 411.524 211.18 415.133 207.557C418.742 203.934 424.18 202.845 428.907 204.797C433.633 206.749 436.717 211.358 436.717 216.472C436.717 223.429 431.091 229.076 424.132 229.103Z" fill="#2D2D2D"/>
<path d="M256.961 260.388H276.939C284.158 260.307 290.68 264.683 293.34 271.393C296.001 278.103 294.249 285.759 288.936 290.645L298.729 307.83H284.48L277.135 295.247H269.349V307.83H256.961V260.388ZM277.135 284.525C280.894 284.525 283.941 281.478 283.941 277.72C283.941 273.961 280.894 270.915 277.135 270.915H269.349V284.525H277.135Z" fill="url(#paint3_linear_1535_670)"/>
<path d="M327.571 307.831C317.952 307.849 309.271 302.066 305.586 293.183C301.9 284.299 303.938 274.07 310.746 267.277C317.555 260.483 327.79 258.467 336.667 262.17C345.544 265.873 351.31 274.565 351.271 284.182C351.297 290.47 348.807 296.508 344.355 300.95C339.903 305.392 333.86 307.869 327.571 307.831ZM327.571 272.823C322.978 272.824 318.842 275.602 317.103 279.852C315.364 284.102 316.368 288.981 319.644 292.2C322.92 295.419 327.817 296.337 332.037 294.525C336.257 292.712 338.961 288.529 338.882 283.937C338.801 277.757 333.753 272.796 327.571 272.823Z" fill="url(#paint4_linear_1535_670)"/>
<path d="M359.839 260.388H380.748C388.481 260.546 394.697 266.804 394.801 274.537C394.752 277.633 393.685 280.627 391.765 283.056C396.487 286.667 398.369 292.893 396.436 298.514C394.503 304.134 389.189 307.887 383.245 307.83H359.839V260.388ZM378.3 279.042C380.571 279.042 382.413 277.2 382.413 274.929C382.413 272.658 380.571 270.817 378.3 270.817H372.179V279.042H378.3ZM380.65 297.695C382.922 297.695 384.763 295.854 384.763 293.583C384.712 291.333 382.9 289.522 380.65 289.47H372.179V297.695H380.65Z" fill="url(#paint5_linear_1535_670)"/>
<path d="M426.826 307.83C417.207 307.849 408.526 302.066 404.84 293.183C401.155 284.299 403.193 274.07 410.001 267.277C416.81 260.483 427.044 258.467 435.922 262.17C444.799 265.873 450.565 274.565 450.526 284.182C450.538 290.466 448.044 296.496 443.595 300.935C439.146 305.374 433.111 307.856 426.826 307.83ZM426.826 272.823C422.233 272.824 418.097 275.602 416.358 279.852C414.619 284.102 415.623 288.981 418.899 292.2C422.175 295.419 427.072 296.337 431.292 294.525C435.511 292.712 438.216 288.529 438.137 283.937C438.056 277.757 433.008 272.796 426.826 272.823Z" fill="url(#paint6_linear_1535_670)"/>
<defs>
<linearGradient id="paint0_linear_1535_670" x1="223.174" y1="279.259" x2="89.4043" y2="236.278" gradientUnits="userSpaceOnUse">
<stop stop-color="#173551"/>
<stop offset="0.21" stop-color="#1F467B"/>
<stop offset="0.46" stop-color="#2858A6"/>
<stop offset="0.68" stop-color="#2E65C5"/>
<stop offset="0.87" stop-color="#326CD8"/>
<stop offset="1" stop-color="#336FDF"/>
</linearGradient>
<linearGradient id="paint1_linear_1535_670" x1="122.842" y1="248.834" x2="154.964" y2="248.834" gradientUnits="userSpaceOnUse">
<stop stop-color="#2055B8"/>
<stop offset="1" stop-color="#336FDF"/>
</linearGradient>
<linearGradient id="paint2_linear_1535_670" x1="172.899" y1="225.211" x2="205.067" y2="224.835" gradientUnits="userSpaceOnUse">
<stop stop-color="#2055B8"/>
<stop offset="1" stop-color="#336FDF"/>
</linearGradient>
<linearGradient id="paint3_linear_1535_670" x1="279.42" y1="361.979" x2="275.309" y2="249.161" gradientUnits="userSpaceOnUse">
<stop stop-color="#2055B8"/>
<stop offset="1" stop-color="#336FDF"/>
</linearGradient>
<linearGradient id="paint4_linear_1535_670" x1="330.362" y1="360.169" x2="326.25" y2="247.316" gradientUnits="userSpaceOnUse">
<stop stop-color="#2055B8"/>
<stop offset="1" stop-color="#336FDF"/>
</linearGradient>
<linearGradient id="paint5_linear_1535_670" x1="379.776" y1="358.356" x2="375.715" y2="245.56" gradientUnits="userSpaceOnUse">
<stop stop-color="#2055B8"/>
<stop offset="1" stop-color="#336FDF"/>
</linearGradient>
<linearGradient id="paint6_linear_1535_670" x1="429.47" y1="356.545" x2="425.358" y2="243.742" gradientUnits="userSpaceOnUse">
<stop stop-color="#2055B8"/>
<stop offset="1" stop-color="#336FDF"/>
</linearGradient>
</defs>
</svg>
