<svg width="500" height="500" viewBox="0 0 500 500" fill="none" xmlns="http://www.w3.org/2000/svg">
<path d="M105.635 220.122L103.239 231.518H79.5875L69.4981 278.906H57.5624L67.6517 231.518H44L46.4179 220.122H105.635ZM181.404 220.122L178.832 232.2H138.805C137.323 232.168 135.871 232.609 134.657 233.46C133.444 234.31 132.533 235.526 132.056 236.93L131.903 237.788C131.709 238.687 131.819 239.624 132.217 240.453C132.616 241.282 133.278 241.954 134.101 242.364C134.693 242.607 135.329 242.726 135.969 242.716H156.104C161.291 242.716 164.698 243.266 166.325 244.322C168.225 245.171 169.895 246.463 171.195 248.09C172.495 249.716 173.387 251.63 173.799 253.672C174.191 256.151 174.109 258.682 173.557 261.13C172.304 267.004 168.501 271.976 162.127 276.002C160.196 277.065 158.134 277.871 155.994 278.4C153.349 278.826 150.67 279.003 147.993 278.928H110.625L113.153 266.85H153.312C154.919 266.873 156.496 266.41 157.837 265.524C159.178 264.637 160.221 263.366 160.83 261.878L161.115 260.756C161.414 259.741 161.359 258.655 160.96 257.675C160.56 256.696 159.84 255.882 158.917 255.366C157.976 254.9 156.933 254.681 155.884 254.728H133.243C130.531 254.842 127.844 254.171 125.504 252.793C123.164 251.415 121.272 249.39 120.055 246.962C118.949 244.164 118.704 241.1 119.351 238.162L119.681 236.556C120.985 230.528 124.949 225.754 131.573 222.234C134.731 220.67 138.228 219.914 141.75 220.034L181.404 220.122ZM247.501 220.122L245.039 231.562H217.607C213.467 231.41 209.36 232.36 205.707 234.316C202.054 236.272 198.985 239.163 196.813 242.694H217.057L214.574 254.662H193.604C193.895 257.243 194.799 259.718 196.241 261.878C197.576 263.683 199.345 265.121 201.385 266.058C204.022 267.147 206.867 267.635 209.716 267.488H237.324L234.862 278.906H208.485C201.759 278.906 196.952 278.092 194.065 276.464C190.944 275.059 188.202 272.929 186.069 270.251C183.935 267.572 182.472 264.423 181.8 261.064C181.047 257.266 181.107 253.352 181.976 249.58C183.635 242.593 187.216 236.211 192.313 231.156C197.41 226.102 203.819 222.576 210.815 220.98C214.343 220.261 217.944 219.973 221.542 220.122H247.501ZM248.754 242.694L274.582 242.826C280.436 242.891 286.067 245.08 290.43 248.986C295.728 254.53 298.651 264.936 295.772 278.95H283.902L284.1 278.048C285.463 271.624 284.825 262.12 280.407 258.248C277.29 255.771 273.394 254.484 269.416 254.618H246.27L248.754 242.694ZM112.01 243.706L109.812 255.718H79.3237L81.7416 243.706H112.01Z" fill="#346EB5"/>
<path d="M325.006 220.122L335.887 256.378L362.484 220.122H373.739L330.809 280.182L313.488 220.122H325.006ZM386.004 242.122L384.443 249.448L381.322 264.122L378.179 278.73H366.375L369.496 264.056L372.64 249.382L374.2 242.056L386.004 242.122ZM455.486 220.122L452.915 232.178H412.843C411.381 232.138 409.944 232.561 408.736 233.387C407.528 234.212 406.612 235.398 406.117 236.776L405.941 237.634C405.74 238.518 405.833 239.443 406.206 240.269C406.579 241.095 407.211 241.777 408.007 242.21C408.6 242.453 409.235 242.572 409.876 242.562H429.988C435.176 242.562 438.583 243.09 440.21 244.168C442.111 245.009 443.783 246.296 445.083 247.919C446.384 249.543 447.276 251.455 447.683 253.496C448.135 256.024 448.097 258.616 447.573 261.13C446.328 266.997 442.51 271.947 436.121 275.98C434.185 277.005 432.123 277.774 429.988 278.268C427.344 278.694 424.665 278.871 421.987 278.796H384.619L387.169 266.74H427.395C429.002 266.763 430.578 266.301 431.919 265.414C433.26 264.527 434.303 263.257 434.912 261.768L435.198 260.668C435.501 259.653 435.448 258.566 435.048 257.585C434.648 256.605 433.925 255.791 433 255.278C432.059 254.813 431.015 254.593 429.966 254.64H407.26C404.55 254.754 401.866 254.084 399.527 252.711C397.188 251.337 395.294 249.319 394.071 246.896C392.964 244.099 392.719 241.034 393.368 238.096L393.698 236.512C394.972 230.484 398.951 225.71 405.589 222.212C408.749 220.65 412.245 219.894 415.767 220.012L455.486 220.122ZM289.243 220.122C300.541 220.122 309.026 225.314 309.026 236.578C309.026 244.967 304.93 250.563 296.739 253.364C295.913 251.25 294.755 249.282 293.31 247.534C291.061 245.313 288.331 243.641 285.331 242.65H289.309C295.684 242.65 297.2 240.934 297.2 236.578C297.2 231.716 292.167 231.474 289.309 231.452H251.282L253.744 220.122H289.243ZM390.708 220.122L387.565 234.73H375.761L378.882 220.056L390.708 220.122Z" fill="#FBB82C"/>
</svg>
