<svg width="500" height="500" viewBox="0 0 500 500" fill="none" xmlns="http://www.w3.org/2000/svg">
<path d="M190.026 276.175V275.001C189.924 266.827 192.561 258.855 197.518 252.355C202.315 245.865 209.164 241.187 216.955 239.081C220.472 238.299 222.228 236.411 222.224 233.418C222.224 229.123 220.468 227.366 216.955 228.149C206.132 230.492 197.148 236.055 190.001 244.838C182.955 253.299 179.149 263.991 179.262 275.001V275.781C179.354 283.984 176.719 291.985 171.77 298.527C167.003 305.066 160.149 309.786 152.339 311.907C148.693 312.56 146.87 314.381 146.87 317.37C146.829 318.948 147.386 320.483 148.431 321.666C149.377 322.81 150.919 323.273 152.339 322.839C163.162 320.629 172.146 315.131 179.293 306.344C186.338 297.88 190.142 287.186 190.026 276.175ZM225.964 269.731C228.828 269.731 230.651 267.975 231.434 264.462C235.969 248.378 250.662 237.285 267.372 237.327C277.778 237.327 286.633 240.971 293.938 248.259C301.243 255.548 304.89 264.397 304.877 274.807C304.877 285.088 301.231 293.907 293.938 301.261C286.646 308.616 277.79 312.294 267.372 312.294C259.213 312.352 251.27 309.672 244.814 304.683C238.255 299.815 233.429 292.972 231.047 285.159C230.784 281.646 229.026 279.89 225.771 279.89C221.475 279.89 219.716 281.646 220.495 285.159C223.096 296.356 228.728 305.434 237.39 312.394C245.846 319.281 256.454 322.976 267.359 322.833C280.646 322.833 292.007 318.148 301.443 308.779C310.879 299.409 315.6 288.087 315.604 274.814C315.604 261.54 310.884 250.218 301.443 240.848C292.003 231.479 280.642 226.794 267.359 226.794C244.825 226.765 225.316 242.443 220.495 264.455C219.716 267.973 221.54 269.731 225.964 269.731ZM331.631 225.027V318.925C331.889 321.53 333.648 322.831 336.907 322.827C340.166 322.823 341.925 321.522 342.183 318.925V237.321H370.904C373.509 237.063 374.812 235.306 374.812 232.051C374.812 228.796 373.497 227.039 370.866 226.781H342.145V224.827C342.196 208.191 353.278 193.607 369.293 189.101C372.81 188.452 374.569 186.631 374.569 183.638C374.569 179.217 372.81 177.396 369.293 178.175C358.655 180.413 349.127 186.28 342.339 194.77C335.264 203.251 331.455 213.983 331.6 225.027H331.631ZM427.533 317.364C427.662 321.01 429.485 322.831 433.003 322.827C436.387 322.827 438.21 321.006 438.472 317.364V244.351C438.472 239.93 441.271 237.718 446.87 237.714H474.966C478.741 237.456 480.629 235.635 480.629 232.251C480.629 228.867 478.741 227.046 474.966 226.788H390.028C386.252 227.05 384.365 228.871 384.365 232.251C384.365 235.631 386.252 237.452 390.028 237.714H419.323C424.796 238.367 427.531 240.775 427.527 244.938V317.364H427.533ZM151.628 279.44C151.624 282.496 149.146 284.972 146.09 284.972H116.126C113.07 284.972 110.592 282.496 110.588 279.44V278.229C110.592 275.173 113.07 272.697 116.126 272.697H146.096C149.152 272.697 151.63 275.173 151.634 278.229V279.44H151.628Z" fill="#3B3735"/>
<path d="M116.295 232.244C116.295 235.634 114.422 237.445 110.632 237.707H82.5361C76.9293 237.707 74.1301 239.92 74.1384 244.344V317.363C73.8762 321.005 72.053 322.826 68.669 322.826C65.1559 322.826 63.3328 321.005 63.1996 317.363V244.937C63.1996 240.775 60.4649 238.367 54.9955 237.713H25.663C21.8856 237.451 20 235.634 20 232.25C20 228.866 21.8731 227.049 25.663 226.787H110.632C114.397 227.043 116.295 228.866 116.295 232.244Z" fill="#ED6E26"/>
</svg>
