<svg width="500" height="500" viewBox="0 0 500 500" fill="none" xmlns="http://www.w3.org/2000/svg">
<g clip-path="url(#clip0_1535_671)">
<path d="M100.725 233.108H79.5486V277.294H70.2558V233.108H49.0151V223.785H100.725V233.108Z" fill="#00A650"/>
<path d="M153.55 277.294H107.101V223.785H153.55V233.108H116.47V267.97H153.55V277.294ZM151.111 254.808H120.411V245.485H151.115L151.111 254.808Z" fill="#00A650"/>
<path d="M173.466 277.294H164.098V223.785H173.466V277.294ZM218.421 277.294H204.641L177.953 255.121C176.115 253.554 175.197 252.117 175.2 250.811C175.2 249.553 176.118 248.142 177.953 246.579L204.641 223.781H218.417L186.378 251.049L218.421 277.294Z" fill="#00A650"/>
<path d="M287.385 277.294H273.529L258.475 262.252H238.258V253.008H263.451C266.915 253.008 269.823 252.253 272.175 250.743C274.86 248.966 276.203 246.431 276.203 243.137C276.203 236.451 271.953 233.108 263.451 233.108H232.747V277.294H223.378V223.785H261.953C268.881 223.785 274.471 225.273 278.722 228.25C283.602 231.645 286.042 236.632 286.042 243.213C286.042 247.704 284.625 251.57 281.79 254.808C279.165 257.828 275.596 259.943 271.083 261.153L287.385 277.294Z" fill="#1E4496"/>
<path d="M363.984 249.966C363.984 257.852 361.439 264.381 356.349 269.552C351.259 274.724 344.777 277.304 336.902 277.294H321.867C314.046 277.294 307.578 274.708 302.462 269.537C297.347 264.366 294.788 257.842 294.785 249.966C294.785 242.132 297.314 235.812 302.371 231.006C307.428 226.2 313.923 223.796 321.856 223.796H336.891C344.869 223.796 351.376 226.2 356.413 231.006C361.451 235.812 363.974 242.132 363.984 249.966ZM354.695 250.721C354.695 245.55 353.029 241.319 349.696 238.03C346.363 234.742 342.099 233.101 336.902 233.108H321.867C316.724 233.108 312.486 234.754 309.153 238.046C305.82 241.337 304.153 245.562 304.15 250.721C304.15 255.839 305.816 259.991 309.149 263.177C312.482 266.363 316.72 267.956 321.863 267.956H336.899C342.095 267.956 346.36 266.363 349.692 263.177C353.025 259.991 354.693 255.839 354.695 250.721Z" fill="#1E4496"/>
<path d="M452 277.373H441.452L433.657 239.925L415.629 274.475C414.421 276.825 412.742 278 410.592 278C408.177 278 406.34 276.798 405.081 274.395L387.057 239.925L379.342 277.373H368.722L380.753 228.251C381.065 226.844 381.792 225.561 382.839 224.566C383.325 224.069 383.907 223.674 384.549 223.405C385.192 223.136 385.882 222.998 386.579 223C388.625 223 390.567 224.75 392.405 228.251L410.353 263.271L428.4 228.251C430.236 224.753 432.178 223.003 434.226 223C434.936 223.012 435.637 223.163 436.288 223.446C436.939 223.728 437.528 224.136 438.019 224.646C439.018 225.64 439.726 226.886 440.068 228.251L452 277.373Z" fill="#1E4496"/>
</g>
<defs>
<clipPath id="clip0_1535_671">
<rect width="403" height="55" fill="white" transform="translate(49 223)"/>
</clipPath>
</defs>
</svg>
