<svg width="373" height="576" viewBox="0 0 373 576" fill="none" xmlns="http://www.w3.org/2000/svg">
<rect width="373" height="576" fill="#EFEFEF"/>
<path d="M224.133 341.339V319.181C224.133 311.572 220.848 304.327 215.116 299.311L202.186 288L215.116 276.689C220.848 271.673 224.133 264.427 224.133 256.818V234.66C227.542 233.445 230 230.219 230 226.4C230 221.548 226.052 217.6 221.2 217.6H150.8C145.948 217.6 142 221.548 142 226.4C142 230.219 144.458 233.445 147.867 234.66V256.818C147.867 264.427 151.152 271.673 156.884 276.689L169.814 288L156.884 299.311C151.152 304.327 147.867 311.572 147.867 319.181V341.339C144.458 342.554 142 345.78 142 349.6C142 354.451 145.948 358.4 150.8 358.4H221.2C226.052 358.4 230 354.451 230 349.6C230 345.78 227.542 342.554 224.133 341.339ZM218.267 340.8H153.733V319.181C153.733 313.262 156.291 307.63 160.744 303.728L176.197 290.206C176.836 289.648 177.2 288.845 177.2 288C177.2 287.155 176.836 286.351 176.197 285.794L160.744 272.272C156.291 268.37 153.733 262.738 153.733 256.819V235.2H218.267V256.818C218.267 262.738 215.709 268.37 211.256 272.271L195.803 285.794C195.164 286.351 194.8 287.155 194.8 288C194.8 288.844 195.164 289.648 195.803 290.205L211.256 303.728C215.715 307.629 218.267 313.261 218.267 319.181V340.8Z" fill="white"/>
<path d="M211.761 330.168L188.294 300.835C187.18 299.444 184.827 299.444 183.712 300.835L160.246 330.168C159.542 331.048 159.407 332.257 159.894 333.272C160.381 334.287 161.407 334.932 162.534 334.932H209.467C210.594 334.932 211.62 334.286 212.113 333.272C212.599 332.257 212.465 331.048 211.761 330.168Z" fill="white"/>
<path d="M200.444 266.345C199.992 265.248 198.918 264.532 197.733 264.532H174.267C173.082 264.532 172.008 265.248 171.556 266.345C171.099 267.442 171.351 268.698 172.19 269.542L183.923 281.276C184.498 281.845 185.249 282.133 186 282.133C186.751 282.133 187.502 281.845 188.077 281.276L199.81 269.542C200.649 268.703 200.901 267.442 200.444 266.345Z" fill="white"/>
</svg>
