<svg width="310" height="203" viewBox="0 0 310 203" fill="none" xmlns="http://www.w3.org/2000/svg">
<rect width="310" height="203" fill="#EFEFEF"/>
<path d="M172.333 126.245V116.173C172.333 112.715 170.84 109.421 168.235 107.141L162.357 102L168.235 96.8586C170.84 94.5786 172.333 91.2853 172.333 87.8266V77.7546C173.883 77.2026 175 75.736 175 74C175 71.7946 173.205 70 171 70H139C136.795 70 135 71.7946 135 74C135 75.736 136.117 77.2026 137.667 77.7546V87.8266C137.667 91.2853 139.16 94.5786 141.765 96.8586L147.643 102L141.765 107.141C139.16 109.421 137.667 112.715 137.667 116.173V126.245C136.117 126.797 135 128.264 135 130C135 132.205 136.795 134 139 134H171C173.205 134 175 132.205 175 130C175 128.264 173.883 126.797 172.333 126.245ZM169.667 126H140.333V116.173C140.333 113.483 141.496 110.923 143.52 109.149L150.544 103.003C150.835 102.749 151 102.384 151 102C151 101.616 150.835 101.251 150.544 100.997L143.52 94.8509C141.496 93.0775 140.333 90.5175 140.333 87.8269V78H169.667V87.8266C169.667 90.5173 168.504 93.0772 166.48 94.8506L159.456 100.997C159.165 101.251 159 101.616 159 102C159 102.384 159.165 102.749 159.456 103.003L166.48 109.149C168.507 110.923 169.667 113.483 169.667 116.173V126Z" fill="white"/>
<path d="M166.709 121.168L156.043 107.834C155.536 107.202 154.467 107.202 153.96 107.834L143.293 121.168C142.973 121.568 142.912 122.117 143.133 122.578C143.355 123.04 143.821 123.333 144.333 123.333H165.667C166.179 123.333 166.645 123.04 166.869 122.578C167.091 122.117 167.029 121.568 166.709 121.168Z" fill="white"/>
<path d="M161.565 92.157C161.36 91.6584 160.872 91.333 160.333 91.333H149.667C149.128 91.333 148.64 91.6584 148.435 92.157C148.227 92.6556 148.341 93.2264 148.723 93.6104L154.056 98.9438C154.317 99.2024 154.659 99.3331 155 99.3331C155.341 99.3331 155.683 99.2025 155.944 98.9438L161.278 93.6104C161.659 93.229 161.773 92.6556 161.565 92.157Z" fill="white"/>
</svg>
