<svg width="371" height="530" viewBox="0 0 371 530" fill="none" xmlns="http://www.w3.org/2000/svg">
<rect width="371" height="530" fill="#EFEFEF"/>
<path d="M211.467 302.071V286.837C211.467 281.606 209.208 276.625 205.268 273.176L196.378 265.4L205.268 257.624C209.208 254.175 211.467 249.194 211.467 243.963V228.729C213.81 227.894 215.5 225.676 215.5 223.05C215.5 219.714 212.786 217 209.45 217H161.05C157.714 217 155 219.714 155 223.05C155 225.676 156.69 227.894 159.033 228.729V243.963C159.033 249.194 161.292 254.175 165.232 257.624L174.122 265.4L165.232 273.176C161.292 276.625 159.033 281.606 159.033 286.837V302.071C156.69 302.906 155 305.124 155 307.75C155 311.086 157.714 313.8 161.05 313.8H209.45C212.786 313.8 215.5 311.086 215.5 307.75C215.5 305.124 213.81 302.906 211.467 302.071ZM207.433 301.7H163.067V286.837C163.067 282.768 164.825 278.896 167.887 276.213L178.51 266.917C178.95 266.533 179.2 265.981 179.2 265.4C179.2 264.819 178.95 264.267 178.51 263.884L167.887 254.587C164.825 251.905 163.067 248.033 163.067 243.963V229.1H207.433V243.963C207.433 248.032 205.675 251.904 202.614 254.587L191.99 263.883C191.55 264.267 191.3 264.819 191.3 265.4C191.3 265.981 191.55 266.533 191.99 266.916L202.614 276.213C205.679 278.895 207.433 282.767 207.433 286.837V301.7Z" fill="white"/>
<path d="M202.96 294.391L186.827 274.225C186.061 273.269 184.443 273.269 183.677 274.225L167.544 294.391C167.06 294.996 166.967 295.827 167.302 296.525C167.637 297.223 168.342 297.666 169.117 297.666H201.384C202.158 297.666 202.864 297.223 203.203 296.525C203.537 295.827 203.444 294.996 202.96 294.391Z" fill="white"/>
<path d="M195.18 250.512C194.87 249.758 194.131 249.266 193.317 249.266H177.184C176.369 249.266 175.631 249.758 175.32 250.512C175.006 251.266 175.179 252.129 175.756 252.71L183.822 260.777C184.218 261.168 184.734 261.366 185.25 261.366C185.767 261.366 186.283 261.168 186.678 260.777L194.745 252.71C195.321 252.133 195.495 251.266 195.18 250.512Z" fill="white"/>
</svg>
