<svg width="778" height="265" viewBox="0 0 778 265" fill="none" xmlns="http://www.w3.org/2000/svg">
<rect width="778" height="265" fill="#EFEFEF"/>
<path d="M415.467 169.071V153.837C415.467 148.606 413.208 143.625 409.268 140.176L400.378 132.4L409.268 124.624C413.208 121.175 415.467 116.194 415.467 110.963V95.7289C417.81 94.894 419.5 92.6757 419.5 90.05C419.5 86.7144 416.786 84 413.45 84H365.05C361.714 84 359 86.7144 359 90.05C359 92.6757 360.69 94.894 363.033 95.7289V110.963C363.033 116.194 365.292 121.175 369.232 124.624L378.122 132.4L369.232 140.176C365.292 143.625 363.033 148.606 363.033 153.837V169.071C360.69 169.906 359 172.124 359 174.75C359 178.086 361.714 180.8 365.05 180.8H413.45C416.786 180.8 419.5 178.086 419.5 174.75C419.5 172.124 417.81 169.906 415.467 169.071ZM411.433 168.7H367.067V153.837C367.067 149.768 368.825 145.896 371.887 143.213L382.51 133.917C382.95 133.533 383.2 132.981 383.2 132.4C383.2 131.819 382.95 131.267 382.51 130.884L371.887 121.587C368.825 118.905 367.067 115.033 367.067 110.963V96.1H411.433V110.963C411.433 115.032 409.675 118.904 406.614 121.587L395.99 130.883C395.55 131.267 395.3 131.819 395.3 132.4C395.3 132.981 395.55 133.533 395.99 133.916L406.614 143.213C409.679 145.895 411.433 149.767 411.433 153.837V168.7Z" fill="white"/>
<path d="M406.96 161.391L390.827 141.225C390.061 140.269 388.443 140.269 387.677 141.225L371.544 161.391C371.06 161.996 370.967 162.827 371.302 163.525C371.637 164.223 372.342 164.666 373.117 164.666H405.384C406.158 164.666 406.864 164.223 407.203 163.525C407.537 162.827 407.444 161.996 406.96 161.391Z" fill="white"/>
<path d="M399.18 117.512C398.87 116.758 398.131 116.266 397.317 116.266H381.184C380.369 116.266 379.631 116.758 379.32 117.512C379.006 118.266 379.179 119.129 379.756 119.71L387.822 127.777C388.218 128.168 388.734 128.366 389.25 128.366C389.767 128.366 390.283 128.168 390.678 127.777L398.745 119.71C399.321 119.133 399.495 118.266 399.18 117.512Z" fill="white"/>
</svg>
