<svg width="375" height="242" viewBox="0 0 375 242" fill="none" xmlns="http://www.w3.org/2000/svg">
<rect width="375" height="242" fill="#EFEFEF"/>
<path d="M207.467 148.979V137.522C207.467 133.588 205.768 129.842 202.805 127.248L196.119 121.4L202.805 115.552C205.768 112.958 207.467 109.212 207.467 105.278V93.8209C209.229 93.193 210.5 91.5247 210.5 89.55C210.5 87.0414 208.459 85 205.95 85H169.55C167.041 85 165 87.0414 165 89.55C165 91.5247 166.271 93.193 168.033 93.8209V105.278C168.033 109.212 169.732 112.958 172.695 115.552L179.381 121.4L172.695 127.248C169.732 129.842 168.033 133.588 168.033 137.522V148.979C166.271 149.607 165 151.275 165 153.25C165 155.759 167.041 157.8 169.55 157.8H205.95C208.459 157.8 210.5 155.759 210.5 153.25C210.5 151.275 209.229 149.607 207.467 148.979ZM204.433 148.7H171.067V137.522C171.067 134.462 172.389 131.55 174.692 129.532L182.681 122.541C183.012 122.252 183.2 121.837 183.2 121.4C183.2 120.963 183.012 120.548 182.681 120.26L174.692 113.268C172.389 111.251 171.067 108.339 171.067 105.278V94.1H204.433V105.278C204.433 108.338 203.111 111.25 200.809 113.268L192.819 120.259C192.488 120.548 192.3 120.963 192.3 121.4C192.3 121.837 192.488 122.252 192.819 122.54L200.809 129.532C203.114 131.549 204.433 134.461 204.433 137.522V148.7Z" fill="white"/>
<path d="M201.069 143.204L188.936 128.037C188.36 127.318 187.143 127.318 186.567 128.037L174.434 143.204C174.07 143.659 174 144.284 174.252 144.809C174.504 145.333 175.034 145.667 175.617 145.667H199.884C200.466 145.667 200.997 145.333 201.252 144.809C201.503 144.284 201.433 143.659 201.069 143.204Z" fill="white"/>
<path d="M195.218 110.203C194.985 109.636 194.43 109.266 193.817 109.266H181.684C181.071 109.266 180.516 109.636 180.282 110.203C180.046 110.77 180.176 111.419 180.61 111.856L186.676 117.923C186.974 118.217 187.362 118.366 187.75 118.366C188.139 118.366 188.527 118.217 188.824 117.923L194.891 111.856C195.324 111.422 195.455 110.77 195.218 110.203Z" fill="white"/>
</svg>
