<svg width="19" height="19" viewBox="0 0 19 19" fill="none" xmlns="http://www.w3.org/2000/svg">
<path d="M18.6714 9.61845C18.4388 8.76543 17.6122 8.1362 16.6173 8.04254C14.2619 7.82043 11.8767 7.81938 9.50323 7.82043C7.12872 7.81938 4.74404 7.82043 2.38791 8.04254C1.39353 8.13641 0.567438 8.76564 0.335101 9.61845C0.00397155 10.8331 0 12.1591 0 13.4098C0 14.6605 2.95905e-08 15.9862 0.33113 17.2009C0.563467 18.0537 1.38955 18.6829 2.38443 18.7768C4.74007 18.9991 7.12475 18.9999 9.49901 18.9991C11.8735 19.0001 14.2577 18.9991 16.6141 18.7768C17.6085 18.6829 18.435 18.0537 18.6674 17.2009C18.9983 15.9862 19 14.6605 19 13.4098C18.9998 12.1588 19.0022 10.8331 18.6714 9.61845ZM5.41946 10.5599H4.0443V16.7282H2.76694V10.5599H1.41686V9.54951H5.41946V10.5599ZM8.88887 16.7284H7.73985V16.1448C7.28337 16.5865 6.84997 16.8019 6.42774 16.8019C6.05764 16.8019 5.80296 16.6754 5.68804 16.4044C5.62548 16.2427 5.58676 15.9866 5.58676 15.609V11.3794H6.73479V15.3176C6.73479 15.5447 6.73479 15.6627 6.74522 15.6945C6.77277 15.845 6.8599 15.9212 7.0138 15.9212C7.24415 15.9212 7.48492 15.7714 7.7396 15.4674V11.3794H8.88863L8.88887 16.7284ZM13.2509 15.1229C13.2509 15.6176 13.2114 15.974 13.1347 16.2008C12.9813 16.5987 12.6743 16.8019 12.2175 16.8019C11.809 16.8019 11.4148 16.6104 11.0308 16.2102V16.7286H9.88276V9.54951H11.0308V11.894C11.4016 11.5087 11.7953 11.3138 12.2175 11.3138C12.6743 11.3138 12.9816 11.5168 13.1347 11.9173C13.2119 12.1324 13.2509 12.4861 13.2509 12.9926V15.1229ZM17.5841 14.2305H15.2878V15.1787C15.2878 15.6738 15.4797 15.921 15.8744 15.921C16.1571 15.921 16.3217 15.7913 16.3872 15.5324C16.3979 15.4798 16.413 15.2644 16.413 14.8757H17.5844V15.0171C17.5844 15.3295 17.5702 15.5447 17.5598 15.6415C17.5213 15.8561 17.431 16.0507 17.2917 16.2221C16.9738 16.6106 16.5026 16.8021 15.9029 16.8021C15.3022 16.8021 14.845 16.6196 14.5131 16.2544C14.2696 15.9866 14.1445 15.565 14.1445 14.9966V13.1231C14.1445 12.5513 14.2555 12.1331 14.4995 11.8628C14.8311 11.4967 15.2881 11.3144 15.8746 11.3144C16.4507 11.3144 16.9075 11.4967 17.2292 11.8628C17.4697 12.1331 17.5846 12.5513 17.5846 13.1231V14.2305H17.5841Z" fill="black"/>
<path d="M15.8637 12.1875C15.48 12.1875 15.2876 12.435 15.2876 12.9295V13.4244H16.4356V12.9295C16.4354 12.435 16.2435 12.1875 15.8637 12.1875Z" fill="black"/>
<path d="M11.6034 12.1875C11.4143 12.1875 11.2226 12.2629 11.0308 12.4232V15.6834C11.2224 15.8456 11.4143 15.9222 11.6034 15.9222C11.9345 15.9222 12.1028 15.6834 12.1028 15.2004V12.9173C12.1028 12.435 11.9345 12.1875 11.6034 12.1875Z" fill="black"/>
<path d="M12.2435 7.32957C12.6667 7.32957 13.107 7.11249 13.569 6.66576V7.25539H14.7294V1.84961H13.569V5.98121C13.3118 6.28797 13.0681 6.43967 12.836 6.43967C12.6806 6.43967 12.5893 6.36214 12.5639 6.21023C12.5498 6.17817 12.5498 6.05895 12.5498 5.82951V1.84961H11.3931V6.12411C11.3931 6.50589 11.4318 6.76424 11.4958 6.92789C11.6125 7.20175 11.8699 7.32957 12.2435 7.32957Z" fill="black"/>
<path d="M4.16659 4.31599V7.25388H5.45338V4.31599L7.0013 0H5.70011L4.82215 2.84862L3.90868 0H2.55463C2.82593 0.672396 3.10816 1.34815 3.37947 2.02117C3.79227 3.0328 4.04992 3.79551 4.16659 4.31599Z" fill="black"/>
<path d="M8.72595 7.32853C9.30729 7.32853 9.75905 7.14394 10.0795 6.77515C10.323 6.50465 10.4397 6.07845 10.4397 5.50391V3.61097C10.4397 3.03308 10.3233 2.61066 10.0795 2.33763C9.75905 1.9678 9.30754 1.7832 8.72595 1.7832C8.14759 1.7832 7.69607 1.9678 7.37487 2.33763C7.12838 2.61066 7.01172 3.03308 7.01172 3.61097V5.50391C7.01172 6.07845 7.12838 6.50465 7.37487 6.77515C7.69582 7.14394 8.14759 7.32853 8.72595 7.32853ZM8.17216 3.41464C8.17216 2.91448 8.35188 2.66513 8.72595 2.66513C9.10002 2.66513 9.27924 2.91427 9.27924 3.41464V5.68851C9.27924 6.18867 9.10002 6.43885 8.72595 6.43885C8.35188 6.43885 8.17216 6.18867 8.17216 5.68851V3.41464Z" fill="black"/>
</svg>
