<svg width="375" height="240" viewBox="0 0 375 240" fill="none" xmlns="http://www.w3.org/2000/svg">
<rect width="375" height="240" fill="#EFEFEF"/>
<path d="M213.217 157.071V141.837C213.217 136.606 210.958 131.625 207.018 128.176L198.128 120.4L207.018 112.624C210.958 109.175 213.217 104.194 213.217 98.9628V83.7289C215.56 82.894 217.25 80.6757 217.25 78.05C217.25 74.7144 214.536 72 211.2 72H162.8C159.464 72 156.75 74.7144 156.75 78.05C156.75 80.6757 158.44 82.894 160.783 83.7289V98.9628C160.783 104.194 163.042 109.175 166.982 112.624L175.872 120.4L166.982 128.176C163.042 131.625 160.783 136.606 160.783 141.837V157.071C158.44 157.906 156.75 160.124 156.75 162.75C156.75 166.086 159.464 168.8 162.8 168.8H211.2C214.536 168.8 217.25 166.086 217.25 162.75C217.25 160.124 215.56 157.906 213.217 157.071ZM209.183 156.7H164.817V141.837C164.817 137.768 166.575 133.896 169.637 131.213L180.26 121.917C180.7 121.533 180.95 120.981 180.95 120.4C180.95 119.819 180.7 119.267 180.26 118.884L169.637 109.587C166.575 106.905 164.817 103.033 164.817 98.9632V84.1H209.183V98.9628C209.183 103.032 207.425 106.904 204.364 109.587L193.74 118.883C193.3 119.267 193.05 119.819 193.05 120.4C193.05 120.981 193.3 121.533 193.74 121.916L204.364 131.213C207.429 133.895 209.183 137.767 209.183 141.837V156.7Z" fill="white"/>
<path d="M204.71 149.39L188.577 129.224C187.811 128.268 186.193 128.268 185.427 129.224L169.294 149.39C168.81 149.995 168.717 150.826 169.052 151.524C169.387 152.222 170.092 152.665 170.867 152.665H203.134C203.908 152.665 204.614 152.222 204.953 151.524C205.287 150.826 205.194 149.995 204.71 149.39Z" fill="white"/>
<path d="M196.93 105.513C196.619 104.759 195.881 104.267 195.067 104.267H178.933C178.119 104.267 177.381 104.759 177.07 105.513C176.755 106.267 176.929 107.13 177.506 107.711L185.572 115.778C185.968 116.169 186.484 116.367 187 116.367C187.516 116.367 188.033 116.169 188.428 115.778L196.495 107.711C197.071 107.134 197.245 106.267 196.93 105.513Z" fill="white"/>
</svg>
